<svg xmlns="http://www.w3.org/2000/svg" width="4096" height="4096" viewBox="0 0 4096 4096">
  <metadata><?xpacket begin="﻿" id="W5M0MpCehiHzreSzNTczkc9d"?>
<x:xmpmeta xmlns:x="adobe:ns:meta/" x:xmptk="Adobe XMP Core 5.6-c138 79.159824, 2016/09/14-01:09:01        ">
   <rdf:RDF xmlns:rdf="http://www.w3.org/1999/02/22-rdf-syntax-ns#">
      <rdf:Description rdf:about=""/>
   </rdf:RDF>
</x:xmpmeta>
                                                                                                    
                                                                                                    
                                                                                                    
                                                                                                    
                                                                                                    
                                                                                                    
                                                                                                    
                                                                                                    
                                                                                                    
                                                                                                    
                                                                                                    
                                                                                                    
                                                                                                    
                                                                                                    
                                                                                                    
                                                                                                    
                                                                                                    
                                                                                                    
                                                                                                    
                                                                                                    
                           
<?xpacket end="w"?></metadata>
<defs>
    <style>
      .cls-1, .cls-3, .cls-4 {
        fill: none;
      }

      .cls-1, .cls-4 {
        stroke: #000005;
      }

      .cls-1 {
        stroke-width: 22.38px;
      }

      .cls-1, .cls-2, .cls-3, .cls-4 {
        fill-rule: evenodd;
      }

      .cls-3 {
        stroke: #000105;
        stroke-width: 20px;
      }

      .cls-4 {
        stroke-width: 40px;
      }
    </style>
  </defs>
  <path id="Фигура_9" data-name="Фигура 9" class="cls-1" d="M2355.27,648.084c28.73-.851,64.83,4.356,73.73,21.684,6.7,12.334-24.75,93.349-30.08,111.127-30.63,102.176-59.93,208.472-79.54,318.025,0.64-.3,1.29-0.6,1.94-0.91,26.17-55.03,177.89-148.866,244.46-67.76,58.33,71.08-68.29,139.57-129.02,146.37,5.63,18.69,43.97,62.69,63.05,68.66,17.57,5.5,62.63-2.17,69.85,10.84,12.92,21.75-7.56,32.86-19.4,40.66-23.3,15.34-79.01,54.81-119.32,39.75-46.83-17.49-69.68-116.45-89.25-163.53-0.65.3-1.29,0.61-1.94,0.91-11.03,26.38-31.74,51.3-43.66,79.5-4.71,11.17-6.91,35.79-17.46,41.56-9.69,7.86-50.22,3.24-63.05,0-11.79-15.02,9.43-121.89,15.52-149.07q34.92-185.19,69.84-370.426c5.92-23.485,14.35-103.412,26.2-116.548C2333.37,652.018,2345.78,652.126,2355.27,648.084Zm4.85,26.2L2349.45,677q-37.83,193.776-75.67,387.594-17.46,102.975-34.92,205.99l21.34,0.9c8.42-32.27,25.06-60.6,39.77-87.64-5.78,3.46-13.93,5.03-19.4,0-9.29-5.93-4.61-24.74-1.94-36.13q10.185-44.73,20.37-89.45c19.71-77.451,33.57-156,57.24-230.384q21.825-73.175,43.65-146.363C2388.02,678.01,2377.12,674.464,2360.12,674.285Zm-312.37,25.3c57.17-1.118,143.37,15.593,157.16,51.5,5.84,15.217-7.67,99.741-12.61,117.451-12,8.2-30.72,4.847-47.54.9-15.44-21.114,4.08-37.8-32.01-52.4-56.51-22.861-191.82-10.453-168.8,65.05,12.16,39.858,80.8,53.5,119.32,71.375,76.41,35.455,154.05,95.841,117.38,207.8-7.5,22.91-20.58,42.76-34.92,59.63-39.28,46.2-130.52,78.41-219.24,57.82-21.06-4.89-40.18-7.98-51.41-21.68-11.86-14.47-5.06-38.29-8.73-61.44-3.41-21.47-6.99-66.11,3.88-81.31,10.46-2.96,28.09-3.5,39.77-.91,17.47,23.9-.25,46.21,34.92,58.73,63.7,22.68,180.26-6.59,159.1-73.18-10.52-33.09-50.23-47.4-82.46-60.53-41.37-16.86-81.14-38.512-114.47-63.248-89.47-66.4-52.36-195.987,28.13-243.034,21.62-12.633,47.81-21.555,75.67-28.008Zm-365.72,26.2c46.56-.8,106.48,2.309,118.35,33.429q1.935,29.36,3.88,58.726c1.97,12.77,7.55,47.168,0,56.015-3.96,7.463-37.55,12.658-46.56,5.421-14.74-7.957,1.12-32.089-34.93-42.463-67.3-19.372-189.74,30.083-161.03,93.058,18.32,40.181,84.49,37.427,132.9,50.594,72.05,19.6,129.57,47.857,149.4,116.547,32.13,111.33-66.99,196.55-148.43,217.74-46.75,12.16-107.18,21.33-141.63-8.13-6.92,39.44-47.65,77.73-101.86,56.92-19.08-7.33-26.98-22.07-38.8-36.14h-0.97c-2.27,19.14-13.46,36.67-22.31,50.59-14.57,22.89-30.56,42.8-58.21,53.31-96.15,36.55-155.23-102.97-117.38-178.89h-1.94l-20.37-6.33c-24.28-16.64-23.7-58.6-7.76-83.12,24.68-37.96,111.16-115.6,184.31-103.89,75.34,12.05,68.65,76.22,86.34,140.94,4.55,16.64,5.88,34.94,15.52,46.98,17.11,21.36,60.76-.61,64.03-19.88-4.77-14.63-9.55-36.18-5.82-51.5,7.08-4.91,32.71-14.84,42.68-7.22,17.72,9.51,4.12,39.81,36.86,47.88,16.2,3.99,39.25.16,52.39-2.71,49.7-10.86,138.3-44.32,94.1-107.51-15.9-22.74-57.89-28.53-90.22-36.14-53.72-12.65-107.52-26.65-145.51-54.21-42.26-30.66-64.63-107.62-37.84-168.048,18.73-42.22,56.4-72.693,97.01-94.864,20.45-11.164,48.02-18.19,73.73-23.491Zm361.84,0.9L2013.8,730.3c-28.63,6.267-56.48,18.565-76.64,33.428-15.78,11.639-29.21,27.657-38.8,45.174-5.29,9.657-10.89,21.3-13.58,33.429-37.63,169.818,236.92,140.379,250.28,270.138,5.85,56.8-61.51,83.31-112.53,91.25-51.89,8.08-119.2-6.17-128.05-41.56h-0.97c-0.49,26.2-2.9,67.6,9.7,83.12,114.78,34.49,220.19-5.79,249.31-92.15,10.34-30.66,10.2-69.92-2.91-97.58-42.11-88.856-216.9-80.05-235.73-179.79-13.04-69.079,88.56-107.465,161.04-94.865,49.92,8.68,74.11,20.129,93.12,57.823h0.97c0.26-21.238,14.22-61.515,7.76-78.6C2162.99,734.194,2089.49,726.544,2043.87,726.687Zm-364.75,26.2-29.1,3.613c-19.82,4.573-41.9,11-58.21,19.877-50.79,27.661-113.75,81.99-89.24,163.529,7.2,23.964,18.31,43.769,36.86,56.919,71.45,50.654,231.52,36.734,253.19,127.394,16.59,69.39-70.01,103.83-124.17,115.64-40.53,8.84-93.87,4.43-106.71-25.3h-0.97c1.76,20.2,10.38,66.48,20.37,80.41,100.11,29.8,205.56-45.75,228.94-105.7,12.55-32.17,12.2-87.04-4.85-113.84-23.43-36.83-69.49-56.84-118.35-69.57-70.7-18.426-143.03-15.28-157.15-85.83-13.88-69.311,78.31-101.86,134.84-111.127,48.56-7.961,101.72,6.19,111.56,37.946h0.97c0.38-23,3.22-66.922-7.76-82.216C1744.43,755.87,1716.5,752.906,1679.12,752.888ZM963.2,995.922c50.341-.414,51.391,41.468,64.991,74.088,3.66,8.77,17.05,27.05,8.74,37.04-5.5,10.08-27.26,18.95-41.719,15.36-3.743-5.23-7.064-13.57-13.581-16.26-27.5-11.37-107.861,29.66-126.111,39.75-83.278,46.03-185.783,156.39-110.589,274.66,24.546,38.6,60.127,73.29,110.589,87.63,73.92,21.02,144.014-17.6,183.351-43.36,16.3-10.68,39.27-22.24,44.62-42.47,4.47-16.91-29.31-68.71-36.86-81.31-3.87-6.44-7.68-19.36-20.38-17.17-26.17,4.53-47.831,34.26-70.812,37.95-14.862,2.39-62.395-72.66-58.205-88.54q56.745-33.885,113.5-67.76c11.1-6.31,24.82-22.57,44.63-18.97,30.31,5.5,37.55,31.3,48.5,55.11q34.92,71.37,69.85,142.75c8.37,15.34,22.76,39.46,17.46,62.34-17.98,77.6-144.65,145.94-227,168.95-30.272,8.45-75.816,14.42-110.59,6.32-125.177-29.15-200.392-106.36-229.91-224.97-8.783-35.28-9.306-87.28.97-121.96,8.017-27.06,17.009-55.32,31.043-77.7,49.132-78.36,117.686-139.78,210.508-177.08,20.4-8.2,42.137-14.58,65-19.88Zm2313.651,8.128c35.49-.58,92.58,32.64,88.28,62.34q-47.535,50.595-95.07,101.19c-57.72,68.41-114.33,136.14-164.92,211.42q-26.67,41.1-53.35,82.21c-5.18,10.52-14.59,24.74-6.79,36.14,8.16,3.08,56.42,21.85,59.17,27.1,4.59,7.28.21,19.37-1.94,26.21-33.72,22.68-188.92,45.26-172.67-30.72,13.37-62.49,61.25-119.78,93.13-168.05,52.69-79.81,105.66-158.7,162.97-234C3208.28,1088.18,3244.82,1019.93,3276.85,1004.05ZM959.318,1023.03q-18.429,3.15-36.863,6.32-26.674,9.48-53.354,18.97c-112.6,46.15-260.866,179.89-217.3,350.55,7.243,28.37,17.994,52.53,32.012,74.09,22.078,33.94,49.111,64.35,83.428,86.73,117.192,76.42,267.058,20.51,345.348-52.4,18-16.76,43.07-38.67,50.45-64.15,5.06-17.5-16.41-48.38-22.32-59.63q-29.1-60.525-58.2-121.06c-8.65-18.35-13.76-36.08-28.13-48.79-14.52.49-26.68,12.88-36.87,18.97q-44.129,26.655-88.274,53.31,14.55,21.675,29.1,43.36l1.941-1.8c20.561-7.62,43.971-36.18,74.691-30.72,31.18,5.54,72.07,84.95,77.61,116.55,2.93,16.7-9.25,33.56-16.49,42.46-37.94,46.62-168.5,107.68-260.953,74.09-51.654-18.77-88.745-54.68-115.439-96.68-9.543-15.01-16.971-33.5-22.312-51.49-39.246-132.2,79.324-225.33,161.034-266.53,37.466-18.89,102.065-52.85,147.45-25.3q-13.577-33.42-27.16-66.85h-19.4Zm1517.212,3.61c-20.02,7.54-37.72,8.13-54.32,17.17-51.73,28.17-88.66,76.77-115.44,128.29,0.64-.3,1.29-0.6,1.94-0.9,15.25-35.9,72.75-83.81,114.47-95.77,40.12-11.51,97.63,2.75,86.33,46.08C2566.81,1093.65,2566.05,1024.92,2476.53,1026.64Zm806.14,4.52q-43.65,58.71-87.31,117.45c-57.1,75.43-106.97,155.38-160.06,234-18.15,26.88-83.22,116.78-75.67,152.69,25.49,18.21,75.72,6.88,105.74,1.8-19.22-15.88-47.59-13.4-53.35-42.46-5.81-29.29,54.05-107.75,67.9-128.29,52.26-77.49,110.62-147.03,169.77-217.74q41.7-44.715,83.42-89.44C3323.05,1046.51,3305.2,1031.63,3282.67,1031.16Zm-595.63,33.43c131.85-1.57,23.47,140.82,2.91,185.21-5.77,12.44-21.14,38-9.7,53.3,16.63,22.26,61.51,4.79,78.57-4.51,39.91-21.75,76.5-55.75,103.8-89.45q18.915-26.19,37.84-52.4c10.29-8.36,74.77,20.31,78.57,28.01,5.81,10.58-21.9,44.79-28.13,54.21-22.69,34.3-44.84,71.37-60.14,112.03-5.57,14.79-7.7,40.35,1.94,52.4,11.13,13.94,33.06,10.43,51.41,16.26,3.76,6.57,9.73,21.01,4.85,29.82-8.06,14.54-82.17,52.12-111.56,45.17-69.05-16.33-61.82-87.29-41.71-143.65-31.35,17.2-56.02,42.32-95.07,53.3-60.31,16.97-113.29-17.29-122.23-63.24-7.4-38.03,34.68-107.52,47.53-135.52,5.75-12.53,24.33-39.16,15.52-54.21-10.48-3.2-58.85-8.68-63.05-15.36-7.89-8.3-.09-34.54,3.88-44.27,22.74-10.59,54.08-17.4,80.52-23.49Q2674.91,1066.4,2687.04,1064.59Zm-1340.66,21.68q-19.875,5.415-39.77,10.84c-35.92,14.48-70.69,40.38-90.22,70.47-8.94,13.77-27.14,43.22-4.85,57.82,9.96,0.2,16.32-1.27,23.28-2.71-2.71-7.88-7.26-16.35-1.94-25.29,10.66-17.9,105.52-65.01,132.9-59.63q2.91,3.165,5.82,6.32c1.54,4.53,1.21,5.96,0,10.84-10.42,12.16-34.99,17.03-49.47,25.3-24.51,13.99-44.38,34.35-65.97,51.5,0.6,11.99-19.57,36.92-24.25,53.3-14.56,50.99,27.95,134.53,79.55,124.68,40.99-7.82,63.04-53,74.7-88.54,4.71-14.38,4.97-46.97,18.43-53.3,5.09-2.77,11.93-1.65,15.52,1.8,11.76,8.18,14.39,51.01,34.92,65.06,7.4,5.05,13.3,4.73,25.22,6.32,41.18,5.48,48.05-42.41,54.33-73.18-7.75,4.85-16.05,10-26.19,12.65-108.69,28.34-66.03-151.87-117.38-187.02C1380.49,1086.3,1365.08,1086.16,1346.38,1086.27Zm1259.17,30.72c27.49,1.41,59.75,8.63,66.94,28.91,5.41,15.26-5.31,35.27-9.7,46.08-14.63,35.96-33.95,67.85-47.54,102.99-4.83,12.51-13.16,34.05-6.79,49.69,10.33,25.37,47.92,47.26,87.31,33.43,54.57-19.16,107.02-61.64,139.69-102.09-30.52,21.98-56.1,48.8-97.98,60.53-42.4,11.88-82.3-4.96-89.24-37.94-7.44-35.3,46.27-117.48,59.17-145.46,5.48-11.89,22.97-34.86,16.49-51.5-11.39-26.09-99.3,3.91-118.35,9.03v6.33Zm-162-18.98c-32.06,13.43-58.23,21.75-77.61,46.08,33.38-3.09,111.29-8.4,116.41-33.43C2474.95,1099.68,2463.53,1097.49,2443.55,1098.01Zm1042.84,53.31c37.65-.54,60.59,22.19,76.63,42.46,4.69,5.92,18.29,16.36,12.62,28.01q-54.81,46.53-109.62,93.06-20.865,20.325-41.72,40.65c-52.44,48.84-99.69,100.16-147.45,153.6-21.12,23.62-41.98,47.86-59.18,74.98-3.86,6.1-16.99,20.14-11.64,28.01,10.27,19.29,44.28,23.43,61.12,37.04,1.04,9.09-.19,24.18-6.79,28.92-8.45,6.06-24.73,4.96-36.86,7.22-47.81,8.9-119.36,3.23-132.91-31.62-16.58-42.66,49.85-110.79,68.88-136.42,70.35-94.79,155.52-178.37,231.85-267.43C3414.67,1222.56,3455.34,1167.93,3486.39,1151.32Zm-1090.38,16.26q-12.6,1.365-25.22,2.71c12.56,32.71,42.66,134.52,73.73,142.75,20.87,5.53,44.17-12.03,56.26-18.07,11.15-5.56,23.79-10.67,32.02-18.97-65.66.32-89.41-39.48-115.45-75.89C2413.03,1194.06,2401.18,1170.5,2396.01,1167.58Zm1097.17,10.84q-52.86,56.925-105.74,113.84c-61.29,71.83-124.15,141.97-184.32,215.03-23.68,28.76-45.12,58.35-66.93,89.44-8.5,12.12-22.65,27.46-18.43,47.89,21.79,21.31,69.49,16.62,108.65,14.45-0.33-.6-0.65-1.2-0.97-1.8-95.44-26.72-22.23-102.71,8.73-141.85q39.765-45.615,79.54-91.25,33.96-32.97,67.91-65.95l60.14-58.73q50.445-43.365,100.89-86.73v-1.81C3527.9,1199.22,3518.1,1180.54,3493.18,1178.42Zm-579.14,5.42c-12.3,32.67-45.86,55.84-66.94,81.32,5.81-1.25,7.78-1.26,13.58,0q3.885,3.615,7.76,7.23c1.52,19.37-14.64,32.43-23.28,46.07-16.37,25.87-31,52.29-36.86,87.64-12.47,75.19,68.94,69.54,102.83,36.14v-0.91c-38.49-3.1-63.36-41.03-51.42-84.92,16.53-60.76,52.84-112.19,85.37-159.92Q2929.555,1190.175,2914.04,1183.84Zm-1526.91,25.3c5.18,0.02,8.01.56,10.67,2.71,15.24,7.42,5.9,43.7.97,55.11-13.38,30.97-72.63,114.85-124.17,77.7-18.24-13.14-18.27-46.01-4.85-63.24C1298.45,1244.54,1342.28,1231.51,1387.13,1209.14Zm-12.62,33.43c-26.29,17.68-56.23,24.9-75.66,48.79-5.7,7-18.65,23.02-4.85,32.52,11.5,6.71,28.84-4.81,34.92-9.93,20.28-17.11,42.71-40.71,47.53-71.38h-1.94Z"/>
  <path id="Фигура_10" data-name="Фигура 10" class="cls-2" d="M2300.25,2838.44a36.916,36.916,0,0,1,5-1.23,31.639,31.639,0,0,1,5.65-.48,28.907,28.907,0,0,1,10.87,1.8,18.42,18.42,0,0,1,7.16,4.98,19.049,19.049,0,0,1,3.9,7.51,36.142,36.142,0,0,1,1.16,9.36,34.108,34.108,0,0,1-1.59,10.38,24.93,24.93,0,0,1-4.92,8.83,24.167,24.167,0,0,1-8.41,6.12,29.125,29.125,0,0,1-12.04,2.3,27.969,27.969,0,0,1-8.78-1.26,20.187,20.187,0,0,1-6.63-3.6,19.459,19.459,0,0,1-4.7-5.74,33.632,33.632,0,0,1-3.01-7.76,60.2,60.2,0,0,1-1.63-9.52c-0.32-3.45-.49-7.15-0.49-11.1a105.54,105.54,0,0,1,.55-10.59,61.1,61.1,0,0,1,1.97-10.35,43.832,43.832,0,0,1,3.84-9.36,28.665,28.665,0,0,1,6.08-7.63,27.122,27.122,0,0,1,8.75-5.14,34.024,34.024,0,0,1,11.85-1.89,38.009,38.009,0,0,1,4.61.28,37.416,37.416,0,0,1,4.3.76,21.055,21.055,0,0,1,3.31,1.04,8.507,8.507,0,0,1,1.78.91,2.4,2.4,0,0,1,.65.76,4.869,4.869,0,0,1,.34.88,7.435,7.435,0,0,1,.18,1.07c0.04,0.4.06,0.9,0.06,1.49q0,1.125-.03,1.95a3.8,3.8,0,0,1-.24,1.32,1.82,1.82,0,0,1-.56.76,1.425,1.425,0,0,1-.89.25,5.458,5.458,0,0,1-1.84-.44c-0.78-.29-1.72-0.62-2.82-0.97a31.85,31.85,0,0,0-4.03-.98,29.618,29.618,0,0,0-5.49-.44,19.268,19.268,0,0,0-9.83,2.39,19.8,19.8,0,0,0-6.72,6.44,29.656,29.656,0,0,0-3.87,9.36,56.464,56.464,0,0,0-1.45,11.13q1.605-.945,3.6-1.89A34.453,34.453,0,0,1,2300.25,2838.44Zm-6.76,25.85a27.577,27.577,0,0,0,2.95,8.8,11.507,11.507,0,0,0,4.82,4.73,15.093,15.093,0,0,0,6.76,1.42,14.436,14.436,0,0,0,6.81-1.51,14,14,0,0,0,4.79-4.07,17.436,17.436,0,0,0,2.8-5.74,24.264,24.264,0,0,0,.89-6.53,29.107,29.107,0,0,0-.71-6.65,12.763,12.763,0,0,0-2.36-5.08,10.763,10.763,0,0,0-4.42-3.21,17.974,17.974,0,0,0-6.82-1.14,25.921,25.921,0,0,0-4.55.41,30.4,30.4,0,0,0-4.39,1.14,31.685,31.685,0,0,0-4.05,1.7,27.676,27.676,0,0,0-3.53,2.11A77.193,77.193,0,0,0,2293.49,2864.29Zm-25.76,21.57a1.994,1.994,0,0,1-.71.73,1.638,1.638,0,0,1-.83.22h-41.51a1.483,1.483,0,0,1-.8-0.22,2.363,2.363,0,0,1-.71-0.73,3.866,3.866,0,0,1-.52-1.32,9.626,9.626,0,0,1-.18-2.02,9.118,9.118,0,0,1,.18-1.95,5.818,5.818,0,0,1,.46-1.36,2.249,2.249,0,0,1,.68-0.82,1.473,1.473,0,0,1,.89-0.28h16.58v-62.06l-15.35,9.4a6.676,6.676,0,0,1-1.88.75,1.213,1.213,0,0,1-1.13-.28,2.394,2.394,0,0,1-.59-1.36,18.911,18.911,0,0,1-.06-4.22,5.657,5.657,0,0,1,.28-1.26,2.642,2.642,0,0,1,.52-0.89,4.664,4.664,0,0,1,.89-0.75l18.3-12.05a2,2,0,0,1,.62-0.31,8.541,8.541,0,0,1,.92-0.26,7.635,7.635,0,0,1,1.29-.15c0.49-.03,1.1-0.04,1.84-0.04a20.728,20.728,0,0,1,2.46.13,6.214,6.214,0,0,1,1.53.35,1.315,1.315,0,0,1,.74.56,1.606,1.606,0,0,1,.18.73v71.71h14.37a1.607,1.607,0,0,1,.92.28,2.05,2.05,0,0,1,.71.82,5.068,5.068,0,0,1,.43,1.36,10.887,10.887,0,0,1,.15,1.95,9.626,9.626,0,0,1-.18,2.02A4.35,4.35,0,0,1,2267.73,2885.86Zm-66.85-9.55a23.758,23.758,0,0,1-8.75,8.64,30.451,30.451,0,0,1-25.95.31,20.981,20.981,0,0,1-8.26-8.07,38.339,38.339,0,0,1-4.45-13.12,107.9,107.9,0,0,1-1.32-17.88,92.5,92.5,0,0,1,1.47-17.12,41.091,41.091,0,0,1,4.79-13.37,23.533,23.533,0,0,1,8.72-8.64,30.451,30.451,0,0,1,25.95-.31,20.981,20.981,0,0,1,8.26,8.07,38.339,38.339,0,0,1,4.45,13.12,107.9,107.9,0,0,1,1.32,17.88,94.241,94.241,0,0,1-1.44,17.15A39.956,39.956,0,0,1,2200.88,2876.31Zm-5.01-40.71a66.334,66.334,0,0,0-1.25-8.58,29.038,29.038,0,0,0-2.15-6.4,15.044,15.044,0,0,0-3.17-4.41,11.261,11.261,0,0,0-4.2-2.53,16.951,16.951,0,0,0-5.32-.78,13.44,13.44,0,0,0-8.47,2.52,16.862,16.862,0,0,0-5.13,6.94,37.2,37.2,0,0,0-2.55,10.34,112.905,112.905,0,0,0-.67,12.74,110.415,110.415,0,0,0,.92,15.54,34.633,34.633,0,0,0,2.92,10.44,13.522,13.522,0,0,0,5.09,5.87,14.584,14.584,0,0,0,7.53,1.82,15.046,15.046,0,0,0,6.05-1.13,12.7,12.7,0,0,0,4.48-3.25,17.885,17.885,0,0,0,3.1-5.08,36.524,36.524,0,0,0,1.97-6.55,59.162,59.162,0,0,0,1.01-7.79q0.27-4.2.27-8.74Q2196.3,2840.465,2195.87,2835.6Zm-55.73,50.04a1.822,1.822,0,0,1-1.75,1.17h-43.91a4.557,4.557,0,0,1-1.5-.22,2.661,2.661,0,0,1-1.11-.73,3.062,3.062,0,0,1-.67-1.45,10.292,10.292,0,0,1-.22-2.33,20.455,20.455,0,0,1,.1-2.21,5.454,5.454,0,0,1,.41-1.67,9.422,9.422,0,0,1,.79-1.45,12.359,12.359,0,0,1,1.23-1.55l15.89-16.77a103.334,103.334,0,0,0,8.82-10.41,55.007,55.007,0,0,0,5.13-8.38,28.333,28.333,0,0,0,2.37-6.88,32.03,32.03,0,0,0,.57-5.8,14.886,14.886,0,0,0-.88-5.14,12.778,12.778,0,0,0-2.57-4.26,11.98,11.98,0,0,0-4.21-2.9,14.968,14.968,0,0,0-5.83-1.07,21.111,21.111,0,0,0-6.94,1.07,36.731,36.731,0,0,0-5.39,2.33c-1.54.85-2.83,1.62-3.87,2.34a4.9,4.9,0,0,1-2.31,1.07,1.3,1.3,0,0,1-.79-0.25,1.811,1.811,0,0,1-.57-0.82,6.873,6.873,0,0,1-.35-1.52,18.08,18.08,0,0,1-.13-2.27,15.748,15.748,0,0,1,.07-1.64,5.943,5.943,0,0,1,.21-1.19,4.754,4.754,0,0,1,.4-0.95,4.823,4.823,0,0,1,.98-1.1,19.4,19.4,0,0,1,2.55-1.8,29.245,29.245,0,0,1,4.55-2.24,40.1,40.1,0,0,1,6.01-1.86,31,31,0,0,1,6.91-.76,28.112,28.112,0,0,1,10.11,1.67,20.049,20.049,0,0,1,7.18,4.58,18.564,18.564,0,0,1,4.27,6.74,23.67,23.67,0,0,1,1.41,8.2,45.276,45.276,0,0,1-.67,7.79,32.327,32.327,0,0,1-2.86,8.39,63.142,63.142,0,0,1-6.29,10.03,146.864,146.864,0,0,1-10.94,12.71l-12.59,13.49h34.58a1.762,1.762,0,0,1,.95.29,2.273,2.273,0,0,1,.8.85,4.012,4.012,0,0,1,.49,1.42,11.408,11.408,0,0,1,.16,1.98,12.078,12.078,0,0,1-.16,2.02A5.671,5.671,0,0,1,2140.14,2885.64Zm-95.65,1.36a12.987,12.987,0,0,1-2.52.19,14.266,14.266,0,0,1-2.55-.19,3.078,3.078,0,0,1-1.38-.57,1.447,1.447,0,0,1-.43-1.13v-5.68a27.318,27.318,0,0,1-8.07,6.18,20.977,20.977,0,0,1-9.43,2.21,24.959,24.959,0,0,1-7.89-1.17,16.969,16.969,0,0,1-6.02-3.37,15.045,15.045,0,0,1-3.87-5.43,18.361,18.361,0,0,1-1.38-7.31,17.306,17.306,0,0,1,1.9-8.33,16.032,16.032,0,0,1,5.47-5.86,26.349,26.349,0,0,1,8.72-3.5,52.666,52.666,0,0,1,11.61-1.17h7.61v-4.41a22.63,22.63,0,0,0-.67-5.81,10.027,10.027,0,0,0-2.18-4.19,9.39,9.39,0,0,0-3.9-2.52,17.735,17.735,0,0,0-5.9-.85,22.809,22.809,0,0,0-6.72.91,34.563,34.563,0,0,0-5.22,2.02c-1.5.73-2.75,1.41-3.75,2.02a5.051,5.051,0,0,1-2.24.91,1.453,1.453,0,0,1-.86-0.25,2.155,2.155,0,0,1-.65-0.76,4.27,4.27,0,0,1-.4-1.29,11.6,11.6,0,0,1-.12-1.74,10.927,10.927,0,0,1,.22-2.49,3.612,3.612,0,0,1,1.04-1.73,12.785,12.785,0,0,1,2.86-1.92,30.438,30.438,0,0,1,4.66-2.02,41.49,41.49,0,0,1,5.78-1.52,33.416,33.416,0,0,1,6.32-.6,32.481,32.481,0,0,1,10.13,1.39,16.315,16.315,0,0,1,6.76,4.07,15.873,15.873,0,0,1,3.75,6.65,33.349,33.349,0,0,1,1.16,9.27v38.29a1.329,1.329,0,0,1-.49,1.13A3.521,3.521,0,0,1,2044.49,2887Zm-8.23-27.62h-8.66a31.974,31.974,0,0,0-7.24.72,14.743,14.743,0,0,0-5.1,2.14,8.84,8.84,0,0,0-2.98,3.41,10.373,10.373,0,0,0-.95,4.57,9.264,9.264,0,0,0,2.73,7.03q2.73,2.625,7.65,2.62a13.938,13.938,0,0,0,7.4-2.08,32.277,32.277,0,0,0,7.15-6.37v-12.04Zm-51.4,27.3a5.3,5.3,0,0,1-1.54.38,18.526,18.526,0,0,1-2.45.13,19.171,19.171,0,0,1-2.52-.13,5.3,5.3,0,0,1-1.54-.38,1.8,1.8,0,0,1-.79-0.6,1.381,1.381,0,0,1-.25-0.85v-24.91h-28.19v24.91a1.445,1.445,0,0,1-.24.85,1.834,1.834,0,0,1-.8.6,5.3,5.3,0,0,1-1.54.38,19.171,19.171,0,0,1-2.52.13,18.526,18.526,0,0,1-2.45-.13,5.717,5.717,0,0,1-1.57-.38,1.624,1.624,0,0,1-.8-0.6,1.6,1.6,0,0,1-.21-0.85v-56.76a1.624,1.624,0,0,1,.21-0.85,1.928,1.928,0,0,1,.8-0.63,4.806,4.806,0,0,1,1.57-.38c0.65-.06,1.47-0.09,2.45-0.09q1.545,0,2.52.09a4.481,4.481,0,0,1,1.54.38,2.236,2.236,0,0,1,.8.63,1.467,1.467,0,0,1,.24.85v23.08h28.19v-23.08a1.4,1.4,0,0,1,.25-0.85,2.191,2.191,0,0,1,.79-0.63,4.481,4.481,0,0,1,1.54-.38q0.975-.09,2.52-0.09c0.98,0,1.8.03,2.45,0.09a4.481,4.481,0,0,1,1.54.38,2.236,2.236,0,0,1,.8.63,1.467,1.467,0,0,1,.24.85v56.76a1.445,1.445,0,0,1-.24.85A1.834,1.834,0,0,1,1984.86,2886.68ZM1917,2887a13.134,13.134,0,0,1-2.52.19,14.107,14.107,0,0,1-2.55-.19,3.027,3.027,0,0,1-1.38-.57,1.413,1.413,0,0,1-.43-1.13v-5.68a27.357,27.357,0,0,1-8.08,6.18,20.966,20.966,0,0,1-9.42,2.21,25.068,25.068,0,0,1-7.9-1.17,16.923,16.923,0,0,1-6.01-3.37,15.045,15.045,0,0,1-3.87-5.43,18.361,18.361,0,0,1-1.39-7.31,17.308,17.308,0,0,1,1.91-8.33,16.087,16.087,0,0,1,5.46-5.86,26.5,26.5,0,0,1,8.73-3.5,52.508,52.508,0,0,1,11.6-1.17h7.62v-4.41a22.605,22.605,0,0,0-.68-5.81,10.027,10.027,0,0,0-2.18-4.19,9.263,9.263,0,0,0-3.9-2.52,17.632,17.632,0,0,0-5.89-.85,22.926,22.926,0,0,0-6.73.91,35.417,35.417,0,0,0-5.22,2.02c-1.49.73-2.74,1.41-3.74,2.02a5.12,5.12,0,0,1-2.25.91,1.5,1.5,0,0,1-.86-0.25,2.137,2.137,0,0,1-.64-0.76,3.774,3.774,0,0,1-.4-1.29,13.881,13.881,0,0,1,.09-4.23,3.559,3.559,0,0,1,1.05-1.73,12.914,12.914,0,0,1,2.85-1.92,30.576,30.576,0,0,1,4.67-2.02,41.339,41.339,0,0,1,5.77-1.52,33.6,33.6,0,0,1,6.33-.6,32.481,32.481,0,0,1,10.13,1.39,16.38,16.38,0,0,1,6.76,4.07,15.857,15.857,0,0,1,3.74,6.65,32.957,32.957,0,0,1,1.17,9.27v38.29a1.329,1.329,0,0,1-.49,1.13A3.521,3.521,0,0,1,1917,2887Zm-8.23-27.62h-8.66a32.067,32.067,0,0,0-7.25.72,14.827,14.827,0,0,0-5.1,2.14,8.811,8.811,0,0,0-2.97,3.41,10.374,10.374,0,0,0-.96,4.57,9.234,9.234,0,0,0,2.74,7.03q2.73,2.625,7.64,2.62a13.913,13.913,0,0,0,7.4-2.08,32.081,32.081,0,0,0,7.16-6.37v-12.04Zm-46.43,9.52a18.4,18.4,0,0,1-1.66,7.98,15.208,15.208,0,0,1-4.91,5.86,23.389,23.389,0,0,1-8.11,3.6,46.246,46.246,0,0,1-11.3,1.23c-1.35,0-2.66-.02-3.93-0.04s-2.5-.06-3.68-0.12-2.37-.14-3.54-0.22-2.32-.19-3.47-0.32a5.488,5.488,0,0,1-3.62-1.67,5.968,5.968,0,0,1-1.17-4v-48.88a6.1,6.1,0,0,1,1.14-3.97,4.938,4.938,0,0,1,3.47-1.64c1.06-.13,2.2-0.23,3.41-0.32s2.44-.16,3.71-0.22,2.58-.11,3.93-0.16,2.73-.06,4.12-0.06a46.45,46.45,0,0,1,10.32,1.01,21.469,21.469,0,0,1,7.24,2.96,12.2,12.2,0,0,1,4.27,4.8,14.637,14.637,0,0,1,1.38,6.49,12.8,12.8,0,0,1-9.82,13.06q6.075,1.32,9.15,5.11A14.586,14.586,0,0,1,1862.34,2868.9Zm-12.96-30.08a6.566,6.566,0,0,0-2.43-2.78,12.258,12.258,0,0,0-4.36-1.7,31.515,31.515,0,0,0-6.47-.57c-1.93,0-3.69.05-5.29,0.16s-2.94.22-4.05,0.34v17.66h10.32q6.315,0,9.67-2.42a8.1,8.1,0,0,0,3.35-6.97A8.983,8.983,0,0,0,1849.38,2838.82Zm1.72,25.82a7.443,7.443,0,0,0-2.73-3.18,13.977,13.977,0,0,0-4.79-1.9,33.163,33.163,0,0,0-6.91-.63h-9.89v20.12c0.78,0.13,1.59.22,2.43,0.29s1.69,0.12,2.58.18,1.76,0.12,2.64.16,1.69,0.07,2.42.07a27.919,27.919,0,0,0,6.82-.73,13.5,13.5,0,0,0,4.7-2.11,8.207,8.207,0,0,0,2.73-3.38,11.092,11.092,0,0,0,.86-4.44A10.87,10.87,0,0,0,1851.1,2864.64Zm-56.16,14.41a24,24,0,0,1-8.85,6.59,29.94,29.94,0,0,1-12.31,2.37,31.29,31.29,0,0,1-11.88-2.08,21.734,21.734,0,0,1-8.45-6.06,25.784,25.784,0,0,1-5.03-9.65,45.678,45.678,0,0,1-1.66-12.86,44.151,44.151,0,0,1,1.75-12.77,28.088,28.088,0,0,1,5.28-10.06,23.736,23.736,0,0,1,8.81-6.56,30.27,30.27,0,0,1,12.35-2.34,31.092,31.092,0,0,1,11.88,2.09,21.683,21.683,0,0,1,8.45,6.05,26.2,26.2,0,0,1,5.06,9.65,44.686,44.686,0,0,1,1.69,12.8,43.459,43.459,0,0,1-1.78,12.77A28.458,28.458,0,0,1,1794.94,2879.05Zm-4.25-30.84a21.816,21.816,0,0,0-2.76-7.19,13.719,13.719,0,0,0-5.2-4.88,19.383,19.383,0,0,0-15.96-.16,14.418,14.418,0,0,0-5.36,4.63,21.2,21.2,0,0,0-3.13,7.1,37.031,37.031,0,0,0-1.02,8.95,43.587,43.587,0,0,0,.84,8.77,20.885,20.885,0,0,0,2.79,7.16,14.035,14.035,0,0,0,5.23,4.85,16.863,16.863,0,0,0,8.18,1.8,17.061,17.061,0,0,0,7.75-1.64,14.456,14.456,0,0,0,5.39-4.6,20.365,20.365,0,0,0,3.1-7.07,38.379,38.379,0,0,0,.99-9.01A43.413,43.413,0,0,0,1790.69,2848.21Zm-59.9,38.47a5.3,5.3,0,0,1-1.53.38,18.794,18.794,0,0,1-2.46.13,19.378,19.378,0,0,1-2.52-.13,5.218,5.218,0,0,1-1.53-.38,1.776,1.776,0,0,1-.8-0.6,1.381,1.381,0,0,1-.25-0.85v-24.91h-28.19v24.91a1.445,1.445,0,0,1-.24.85,1.834,1.834,0,0,1-.8.6,5.3,5.3,0,0,1-1.54.38,19.107,19.107,0,0,1-2.51.13,18.587,18.587,0,0,1-2.46-.13,5.717,5.717,0,0,1-1.57-.38,1.548,1.548,0,0,1-.79-0.6,1.515,1.515,0,0,1-.22-0.85v-56.76a1.537,1.537,0,0,1,.22-0.85,1.826,1.826,0,0,1,.79-0.63,4.806,4.806,0,0,1,1.57-.38q0.975-.09,2.46-0.09c1.02,0,1.86.03,2.51,0.09a4.481,4.481,0,0,1,1.54.38,2.236,2.236,0,0,1,.8.63,1.467,1.467,0,0,1,.24.85v23.08h28.19v-23.08a1.4,1.4,0,0,1,.25-0.85,2.15,2.15,0,0,1,.8-0.63,4.417,4.417,0,0,1,1.53-.38q0.99-.09,2.52-0.09,1.47,0,2.46.09a4.479,4.479,0,0,1,1.53.38,2.15,2.15,0,0,1,.8.63,1.472,1.472,0,0,1,.25.85v56.76a1.449,1.449,0,0,1-.25.85A1.776,1.776,0,0,1,1730.79,2886.68Zm-61.14-6.9a5.122,5.122,0,0,1-.36.94,5.857,5.857,0,0,1-.99,1.2,14.9,14.9,0,0,1-2.61,1.96,25.386,25.386,0,0,1-4.14,2.08,30.95,30.95,0,0,1-5.01,1.48,26.97,26.97,0,0,1-5.59.57,26.172,26.172,0,0,1-10.56-2.02,20.028,20.028,0,0,1-7.71-5.9,27.054,27.054,0,0,1-4.72-9.52,46.9,46.9,0,0,1-1.63-13.02,46.005,46.005,0,0,1,1.99-14.41,27.342,27.342,0,0,1,5.47-9.87,21.522,21.522,0,0,1,8.17-5.71,27.349,27.349,0,0,1,10.16-1.86,26.25,26.25,0,0,1,5.13.5,27.278,27.278,0,0,1,4.57,1.33,19.321,19.321,0,0,1,3.72,1.89,14.33,14.33,0,0,1,2.36,1.83,7.553,7.553,0,0,1,1.02,1.2,4.346,4.346,0,0,1,.46,1.04,6.514,6.514,0,0,1,.24,1.35c0.04,0.51.07,1.14,0.07,1.89a7.528,7.528,0,0,1-.56,3.44,1.6,1.6,0,0,1-1.35.98,3.5,3.5,0,0,1-2.12-1.04,32.571,32.571,0,0,0-3.04-2.3,23.316,23.316,0,0,0-4.45-2.31,16.709,16.709,0,0,0-6.17-1.04,12.731,12.731,0,0,0-11.21,5.77q-3.9,5.775-3.9,16.75a41,41,0,0,0,1.01,9.62,20.245,20.245,0,0,0,2.98,6.9,12.353,12.353,0,0,0,4.82,4.13,15.027,15.027,0,0,0,6.54,1.36,15.442,15.442,0,0,0,6.15-1.14,24.721,24.721,0,0,0,4.57-2.49c1.29-.9,2.37-1.72,3.26-2.46a3.833,3.833,0,0,1,2.05-1.1,1.124,1.124,0,0,1,.74.25,1.936,1.936,0,0,1,.52.85,6.632,6.632,0,0,1,.31,1.52c0.06,0.61.09,1.33,0.09,2.17q0,1.08-.06,1.86A6.229,6.229,0,0,1,1669.65,2879.78Zm-61.47-.73a23.968,23.968,0,0,1-8.84,6.59,30.021,30.021,0,0,1-12.32,2.37,31.29,31.29,0,0,1-11.88-2.08,21.7,21.7,0,0,1-8.44-6.06,25.657,25.657,0,0,1-5.04-9.65,45.678,45.678,0,0,1-1.66-12.86,44.151,44.151,0,0,1,1.75-12.77,28.088,28.088,0,0,1,5.28-10.06,23.771,23.771,0,0,1,8.82-6.56,30.221,30.221,0,0,1,12.34-2.34,31.056,31.056,0,0,1,11.88,2.09,21.611,21.611,0,0,1,8.45,6.05,26.2,26.2,0,0,1,5.06,9.65,44.686,44.686,0,0,1,1.69,12.8,43.459,43.459,0,0,1-1.78,12.77A28.458,28.458,0,0,1,1608.18,2879.05Zm-4.25-30.84a21.589,21.589,0,0,0-2.75-7.19,13.748,13.748,0,0,0-5.21-4.88,16.836,16.836,0,0,0-8.18-1.8,17.046,17.046,0,0,0-7.78,1.64,14.5,14.5,0,0,0-5.36,4.63,21.4,21.4,0,0,0-3.13,7.1,37.031,37.031,0,0,0-1.02,8.95,43.587,43.587,0,0,0,.84,8.77,21.088,21.088,0,0,0,2.79,7.16,14.035,14.035,0,0,0,5.23,4.85,16.863,16.863,0,0,0,8.18,1.8,17.061,17.061,0,0,0,7.75-1.64,14.379,14.379,0,0,0,5.39-4.6,20.181,20.181,0,0,0,3.1-7.07,38.379,38.379,0,0,0,.99-9.01A43.413,43.413,0,0,0,1603.93,2848.21Z"/>
  <path id="Skull1" class="cls-2" d="M1899.77,1394.2c178.91-2.74,272.68,23.5,334.71,135.53,11.55,20.85,28.46,53.31,20.44,92.06q-20.43,46.035-40.88,92.06c-15.6,60.65,37.73,108.82,15.33,171.34-10.2,28.49-51.23,49.81-74.1,66.49-28.43-8.73-67.45-41.39-112.42-23.02,6.52,4.79,3.72-.33,2.56,7.68-11.69,5.38-14.85,11.78-20.44,23.01v2.56h2.55c12.51-9.8,17.55-20.94,35.77-25.57-5.61,11.53-9.33,18.25-10.22,35.8h2.56c0.27-21.2,5.84-29.42,17.88-38.36,2.56,0.85,5.11,1.7,7.67,2.56-14.62,26.84-2.11,84.05-5.11,122.74-23.18-10.43-94.08,31.59-122.65,40.92-6.66-15.06-99.95-45.75-114.98-40.92,0.74-41.75,11.44-97.06-2.55-122.74,2.55-.86,5.11-1.71,7.66-2.56q5.115,3.84,10.22,7.67,5.115,20.46,10.22,40.92c0.42-21.52-3.64-32.76-10.22-46.03,19.39,3.91,25.05,20.47,38.33,23.01-0.85-2.56-1.7-5.11-2.56-7.67q-11.49-10.23-22.99-20.46,3.825-2.55,7.66-5.11c-57.67-1.15-76.39,16.13-114.98,25.57q-34.485-29.4-68.98-58.82c-26.93-58.13,25.07-113.25,12.77-173.89q-20.43-47.31-40.88-94.62c-22.11-99.42,76.47-183.42,140.53-209.69Q1851.21,1404.43,1899.77,1394.2Zm291.28,322.21q3.825,5.115,7.66,10.23Q2194.885,1721.525,2191.05,1716.41Zm-470.14,2.56v0Zm0,7.67v10.23h2.55Zm470.14,10.23c-11.12,44.82-40.91,21.86-76.66,40.92-35.27,18.8-44.5,65.87-76.65,86.94-14.9,9.77-42.49,3.18-61.32,10.23q6.39,7.68,12.77,15.34,10.23,6.4,20.44,12.79-6.375-6.39-12.77-12.79l2.55-2.55c37.5,19.43,132.57,39.66,183.97,5.11q1.275-8.94,2.56-17.9h-2.56c-2.97,15.4-7.67,19.97-22.99,23.02,20.33-47.88,35.63-76.29,10.22-127.87C2183.77,1765.23,2195.63,1750.95,2191.05,1736.87Zm10.22,0v0Zm-477.81,2.56c3.38,19.59,10.76,23.29,23,33.24-12.86,14.15-17.04,43.35-25.55,61.38q5.1-3.84,10.22-7.68c0.09,34.9,14.87,48.82,25.55,71.61-14.87-3-18.54-7.25-23-20.46h-2.55q2.55,10.23,5.11,20.46c17.91,6.36,121.59,21.35,143.08,15.34,10.69-2.99,25.69-20.36,40.89-25.57v2.55q-7.665,7.68-15.33,15.35c14.51-7.86,24.18-17.42,33.21-30.69v-2.56c-96.82,1.35-75.83-65.74-132.86-94.61C1759.1,1754.43,1755.62,1785.06,1723.46,1739.43Zm467.59,89.5q3.825,5.115,7.66,10.23Q2194.885,1834.045,2191.05,1828.93Zm-242.74,30.69q-1.275,3.825-2.55,7.67c1.7-1.71,3.4-3.41,5.11-5.12C1950.02,1861.32,1949.16,1860.47,1948.31,1859.62Zm17.89,2.55c1.7,1.71,3.4,3.41,5.11,5.12C1969.6,1865.58,1967.9,1863.88,1966.2,1862.17Zm-237.63,7.68v0Zm281.06,35.8c1.71,1.7,3.41,3.41,5.11,5.11C2013.04,1909.06,2011.34,1907.35,2009.63,1905.65Zm-61.32,2.56q-15.33,25.56-30.66,51.14v-25.57q-6.39,34.515-12.77,69.04h2.55q3.84-7.665,7.67-15.34c5.01,14.79,10.92,17.97,30.66,17.9,3.44-10.12,6.54-13.3,15.33-17.9,5.11,12.2,6.56,16.6,20.44,17.9,12.65-5.34,15.01-8.66,22.99-17.9q2.565,5.115,5.11,10.23-5.1-30.69-10.22-61.37h-2.55v20.45c-0.85-1.7-1.7-3.41-2.56-5.11q-14.04-21.735-28.1-43.47c-4.13,3.82-5.41,6.77-10.22,10.22C1952.6,1908.65,1955.98,1913.12,1948.31,1908.21Zm-71.54,20.45c1.7,0.86,3.41,1.71,5.11,2.56C1880.18,1930.37,1878.47,1929.52,1876.77,1928.66Zm155.86,0c2.56,0.86,5.11,1.71,7.67,2.56C2037.74,1930.37,2035.19,1929.52,2032.63,1928.66Zm-148.2,2.56q3.84,2.565,7.67,5.12Q1888.275,1933.775,1884.43,1931.22Zm137.98,2.56c-0.85,1.7-1.7,3.41-2.56,5.11,1.71-1.7,3.41-3.41,5.12-5.11h-2.56Zm-127.75,2.56c1.7,1.7,3.4,3.41,5.11,5.11C1898.06,1939.75,1896.36,1938.04,1894.66,1936.34Zm114.97,63.93q2.565,5.115,5.11,10.23Q2012.19,2005.385,2009.63,2000.27Zm-112.42,15.34v0Z"/>
  <path id="Фигура_3" data-name="Фигура 3" class="cls-3" d="M3096.43,2766.08a3.8,3.8,0,0,1-2.02,1.47,18.613,18.613,0,0,1-4.04.85,61.022,61.022,0,0,1-6.79.31,57.34,57.34,0,0,1-6.46-.31,20.086,20.086,0,0,1-4.12-.85,3.768,3.768,0,0,1-2.1-1.47,4,4,0,0,1-.57-2.16V2705.4h-15.35c-6.69,0-11.88.52-15.6,1.54a27.075,27.075,0,0,0-10.02,5.18,37.7,37.7,0,0,0-8,9.26,82.832,82.832,0,0,0-6.79,13.82l-11.8,27.18a13.114,13.114,0,0,1-1.78,3.24,6.227,6.227,0,0,1-2.83,1.93,18.044,18.044,0,0,1-4.69.93c-1.88.15-4.23,0.23-7.03,0.23-2.04,0-3.85-.05-5.41-0.16a23.7,23.7,0,0,1-3.96-.54,4.731,4.731,0,0,1-2.43-1.23,2.906,2.906,0,0,1-.8-2.09,11.421,11.421,0,0,1,.89-3.47q0.885-2.385,3.63-8.42l11.64-26.09a64.149,64.149,0,0,1,11.15-17.06,41.189,41.189,0,0,1,15.2-10.58q-15.69-2.775-24.98-11.97t-9.29-24.32a37.625,37.625,0,0,1,4.36-18.14,38.353,38.353,0,0,1,12.85-13.74,65.48,65.48,0,0,1,20.85-8.65,120.386,120.386,0,0,1,28.37-3.01q3.885,0,8.97.15c3.39,0.11,6.9.26,10.51,0.47s7.11,0.44,10.5.69,6.33,0.49,8.81.7c3.23,0.31,5.66,1.44,7.27,3.39a11.017,11.017,0,0,1,2.43,7.26v132.02A4,4,0,0,1,3096.43,2766.08Zm-26.1-126.3q-5.82-.78-11.96-1.01t-11.31-.23a79.409,79.409,0,0,0-18.35,1.78,32.234,32.234,0,0,0-11.8,5.09,18.7,18.7,0,0,0-6.3,7.8,25.535,25.535,0,0,0-1.86,9.88,22.16,22.16,0,0,0,2.18,9.96,19.128,19.128,0,0,0,6.63,7.41,34.119,34.119,0,0,0,11.39,4.64q6.945,1.62,19.4,1.62h21.98v-46.94Zm-134.64,128.47a36.344,36.344,0,0,1-6.63.46,39.373,39.373,0,0,1-6.7-.46,8.261,8.261,0,0,1-3.64-1.39,3.406,3.406,0,0,1-1.13-2.78v-13.9a71.668,71.668,0,0,1-21.26,15.13,58.577,58.577,0,0,1-24.81,5.41,70.71,70.71,0,0,1-20.77-2.86,45.675,45.675,0,0,1-15.84-8.26,37.283,37.283,0,0,1-10.18-13.28,42.321,42.321,0,0,1-3.63-17.91q0-11.73,5.01-20.38a40.443,40.443,0,0,1,14.38-14.36,72.515,72.515,0,0,1,22.95-8.57,148.586,148.586,0,0,1,30.55-2.86h20.04v-10.81a51.751,51.751,0,0,0-1.77-14.21,24.039,24.039,0,0,0-5.74-10.26,24.79,24.79,0,0,0-10.27-6.18,49.874,49.874,0,0,0-15.51-2.08,64.518,64.518,0,0,0-17.7,2.23,98.165,98.165,0,0,0-13.74,4.95q-5.9,2.7-9.86,4.94t-5.9,2.24a4.117,4.117,0,0,1-2.26-.62,5.329,5.329,0,0,1-1.7-1.86,9.371,9.371,0,0,1-1.05-3.16,25.344,25.344,0,0,1-.32-4.25,25.938,25.938,0,0,1,.56-6.1,8.838,8.838,0,0,1,2.75-4.24,35.292,35.292,0,0,1,7.52-4.71,84.473,84.473,0,0,1,12.28-4.94,116.509,116.509,0,0,1,15.19-3.71,94.731,94.731,0,0,1,16.65-1.47q15.675,0,26.67,3.4t17.78,9.96a38.25,38.25,0,0,1,9.86,16.29,75.515,75.515,0,0,1,3.07,22.7v93.73a3.208,3.208,0,0,1-1.29,2.78A9.516,9.516,0,0,1,2935.69,2768.25Zm-21.66-67.64h-22.79a90.027,90.027,0,0,0-19.07,1.78,40.051,40.051,0,0,0-13.41,5.25,22.028,22.028,0,0,0-7.84,8.34,23.962,23.962,0,0,0-2.51,11.19q0,10.815,7.19,17.22t20.13,6.41a38.728,38.728,0,0,0,19.47-5.1q8.97-5.1,18.83-15.59v-29.5Zm-115.81,67.17a21.432,21.432,0,0,1-4.04.7c-1.67.15-3.79,0.23-6.38,0.23a71.862,71.862,0,0,1-7.35-.31,26.262,26.262,0,0,1-4.61-.85,5.859,5.859,0,0,1-2.59-1.39,4.737,4.737,0,0,1-1.13-1.93l-15.52-35.98a71.736,71.736,0,0,0-6.22-11.96,30.039,30.039,0,0,0-7.68-8.11,29.353,29.353,0,0,0-9.86-4.48,51.882,51.882,0,0,0-12.6-1.39h-11.32v62.54a2.2,2.2,0,0,1-.8,1.54,5.817,5.817,0,0,1-2.43,1.24,28.144,28.144,0,0,1-4.2.77,57.833,57.833,0,0,1-11.96,0,27.657,27.657,0,0,1-4.2-.77,5.12,5.12,0,0,1-2.35-1.24,2.3,2.3,0,0,1-.73-1.54V2623.72a2.043,2.043,0,0,1,.73-1.47,5.762,5.762,0,0,1,2.35-1.16,22.572,22.572,0,0,1,4.2-.69c1.72-.16,3.72-0.23,5.98-0.23s4.25,0.07,5.98.23a22.868,22.868,0,0,1,4.2.69,6.627,6.627,0,0,1,2.43,1.16,1.968,1.968,0,0,1,.8,1.47v58.21h11.32a45.186,45.186,0,0,0,11.23-1.31,27.646,27.646,0,0,0,9.29-4.33,31.267,31.267,0,0,0,7.52-7.79,59.417,59.417,0,0,0,6.06-11.58l13.58-31.97a5.215,5.215,0,0,1,1.13-2.16,5.983,5.983,0,0,1,2.42-1.54,16.183,16.183,0,0,1,4.29-.85c1.78-.16,4.12-0.23,7.03-0.23,2.59,0,4.71.07,6.38,0.23a17.536,17.536,0,0,1,3.88.69,3.61,3.61,0,0,1,1.86,1.16,2.541,2.541,0,0,1,.49,1.47,11.6,11.6,0,0,1-.41,2.93,29.4,29.4,0,0,1-1.21,3.55l-13.9,30.58a65.485,65.485,0,0,1-7.03,12.97,54.551,54.551,0,0,1-7.68,8.72,33.572,33.572,0,0,1-7.92,5.4,50.813,50.813,0,0,1-7.76,3.02v0.3a61.333,61.333,0,0,1,10.43,4.48,44.263,44.263,0,0,1,8.89,6.49,52.158,52.158,0,0,1,7.68,9.19,82.465,82.465,0,0,1,6.62,12.27l16,35.21a10.965,10.965,0,0,1,.97,2,12.251,12.251,0,0,1,.49,1.78c0.1,0.57.19,1.03,0.24,1.39a7.313,7.313,0,0,1,.08,1,2.511,2.511,0,0,1-.56,1.62A4.252,4.252,0,0,1,2798.22,2767.78Zm-152.09-17.21a11.711,11.711,0,0,1-.97,2.31,15.435,15.435,0,0,1-2.59,2.94,39.443,39.443,0,0,1-6.87,4.78,66.488,66.488,0,0,1-10.91,5.1,85.767,85.767,0,0,1-13.17,3.63,77.014,77.014,0,0,1-14.71,1.39q-15.675,0-27.8-4.95a52.273,52.273,0,0,1-20.28-14.43,64.639,64.639,0,0,1-12.45-23.32q-4.275-13.815-4.28-31.88,0-20.535,5.25-35.29t14.39-24.16a57,57,0,0,1,21.49-13.98,76.977,76.977,0,0,1,26.75-4.55,72.9,72.9,0,0,1,13.5,1.23,76.87,76.87,0,0,1,12.04,3.25,54.8,54.8,0,0,1,9.78,4.63,38.515,38.515,0,0,1,6.22,4.48,19.383,19.383,0,0,1,2.67,2.93,10.05,10.05,0,0,1,1.21,2.55,14.368,14.368,0,0,1,.65,3.32c0.11,1.23.16,2.78,0.16,4.63,0,4.02-.48,6.82-1.45,8.42a4.193,4.193,0,0,1-3.56,2.39c-1.62,0-3.47-.85-5.58-2.55a87.591,87.591,0,0,0-8-5.63,62.109,62.109,0,0,0-11.71-5.64,46.748,46.748,0,0,0-16.25-2.55q-19.23,0-29.5,14.13t-10.26,41a92.733,92.733,0,0,0,2.67,23.54,47.448,47.448,0,0,0,7.84,16.91,32.023,32.023,0,0,0,12.68,10.12,42.286,42.286,0,0,0,17.22,3.32,43.373,43.373,0,0,0,16.16-2.78,69.558,69.558,0,0,0,12.04-6.1c3.4-2.22,6.25-4.22,8.57-6.03s4.12-2.7,5.41-2.7a3.105,3.105,0,0,1,1.94.62,4.714,4.714,0,0,1,1.38,2.08,15.286,15.286,0,0,1,.8,3.71,48.029,48.029,0,0,1,.25,5.33c0,1.75-.06,3.27-0.16,4.55A15.815,15.815,0,0,1,2646.13,2750.57Zm-160.18-.93a53.686,53.686,0,0,1-19.8,15.59q-11.79,5.49-26.99,5.49a54.7,54.7,0,0,1-11.96-1.24,46.962,46.962,0,0,1-10.75-3.86,62.429,62.429,0,0,1-10.42-6.64q-5.175-4.005-10.99-9.42v69.49a3.7,3.7,0,0,1-.65,2.16,4.682,4.682,0,0,1-2.1,1.54,15.6,15.6,0,0,1-4.04.93,59.385,59.385,0,0,1-6.63.31,57.213,57.213,0,0,1-6.46-.31,16.97,16.97,0,0,1-4.13-.93,4.179,4.179,0,0,1-2.1-1.54,4.045,4.045,0,0,1-.56-2.16v-194.1a4.566,4.566,0,0,1,.48-2.24,3.925,3.925,0,0,1,1.94-1.46,12.947,12.947,0,0,1,3.72-.85,66.711,66.711,0,0,1,11.07,0,12.753,12.753,0,0,1,3.64.85,4.461,4.461,0,0,1,2.02,1.46,4.062,4.062,0,0,1,.56,2.24v18.69a153.808,153.808,0,0,1,12.77-11.28,77.153,77.153,0,0,1,12.37-7.95,59.482,59.482,0,0,1,12.77-4.78,56.821,56.821,0,0,1,13.82-1.63q15.825,0,26.99,5.87a50.212,50.212,0,0,1,18.18,16.06,70.033,70.033,0,0,1,10.27,23.7,123.108,123.108,0,0,1,3.23,28.65,120.129,120.129,0,0,1-4.12,32.73A69.928,69.928,0,0,1,2485.95,2749.64Zm-13.1-75.04a57.836,57.836,0,0,0-5.85-17.68,33.678,33.678,0,0,0-11.14-12.36q-6.99-4.635-17.4-4.63a36.445,36.445,0,0,0-10.25,1.47,42.893,42.893,0,0,0-10.24,4.63,72.108,72.108,0,0,0-10.9,8.34,128.69,128.69,0,0,0-12.03,12.74v55.28q11.055,12.81,20.98,19.61a36.25,36.25,0,0,0,20.81,6.79,31.443,31.443,0,0,0,17.32-4.63,35.619,35.619,0,0,0,11.71-12.36,60.115,60.115,0,0,0,6.59-17.29,89.846,89.846,0,0,0,2.11-19.3A121.621,121.621,0,0,0,2472.85,2674.6Zm-155.44,24.93h-95.8a82.321,82.321,0,0,0,2.43,20.85,39.555,39.555,0,0,0,8.12,15.9,36.429,36.429,0,0,0,14.78,10.19q9.105,3.555,22.25,3.55a95.329,95.329,0,0,0,18.52-1.62,115.27,115.27,0,0,0,14.05-3.62q5.925-2.01,9.74-3.63a16.6,16.6,0,0,1,5.77-1.62,3.852,3.852,0,0,1,2.03.54,3.461,3.461,0,0,1,1.38,1.62,10.916,10.916,0,0,1,.73,3.01,38.758,38.758,0,0,1,.25,4.71,31.4,31.4,0,0,1-.17,3.47,26.332,26.332,0,0,1-.4,2.63,6.448,6.448,0,0,1-.81,2.08,9.066,9.066,0,0,1-1.45,1.78,24.83,24.83,0,0,1-5.26,2.78,80.111,80.111,0,0,1-11.31,3.78q-6.945,1.845-16.08,3.32a122.631,122.631,0,0,1-19.48,1.47q-17.94,0-31.44-4.79a58.615,58.615,0,0,1-22.7-14.21,59.858,59.858,0,0,1-13.9-23.62q-4.695-14.2-4.69-33.05a99.581,99.581,0,0,1,4.85-32.19,67.327,67.327,0,0,1,13.98-24.24,60.981,60.981,0,0,1,22.06-15.29,75.311,75.311,0,0,1,28.93-5.33q17.13,0,29.18,5.25a55.128,55.128,0,0,1,19.8,14.13,55.948,55.948,0,0,1,11.39,20.85,87.282,87.282,0,0,1,3.64,25.55v4.64q0,6.015-3.17,8.57A11.244,11.244,0,0,1,2317.41,2699.53Zm-25.79-50.18q-9.84-11.43-29.19-11.43a40.221,40.221,0,0,0-17.4,3.55,37.46,37.46,0,0,0-12.53,9.42,42.6,42.6,0,0,0-7.8,13.67,54.316,54.316,0,0,0-3.09,16.29h79.36Q2301.45,2660.78,2291.62,2649.35Zm-112.76-8.03a5.862,5.862,0,0,1-1.7,2.08,4.037,4.037,0,0,1-2.43.7h-43.64v119.82a3.354,3.354,0,0,1-.64,2.09,5.15,5.15,0,0,1-2.1,1.46,15.59,15.59,0,0,1-4.05.93,59.061,59.061,0,0,1-6.62.31,57.533,57.533,0,0,1-6.47-.31,16.876,16.876,0,0,1-4.12-.93,4.484,4.484,0,0,1-2.1-1.46,3.668,3.668,0,0,1-.57-2.09V2644.1h-43.64a4.1,4.1,0,0,1-2.34-.7,4.831,4.831,0,0,1-1.7-2.08,15.3,15.3,0,0,1-1.05-3.63,30.411,30.411,0,0,1-.4-5.33,27.134,27.134,0,0,1,.4-4.94,14.272,14.272,0,0,1,1.13-3.63,5.836,5.836,0,0,1,1.7-2.16,3.805,3.805,0,0,1,2.26-.69h113.95a4.2,4.2,0,0,1,2.35.69,4.894,4.894,0,0,1,1.69,2.16,16.85,16.85,0,0,1,1.05,3.71,28.322,28.322,0,0,1,.41,5.02,37.053,37.053,0,0,1-.32,5.25A11.588,11.588,0,0,1,2178.86,2641.32Zm-136.58,109.25a12.343,12.343,0,0,1-.97,2.31,15.435,15.435,0,0,1-2.59,2.94,40.256,40.256,0,0,1-6.87,4.78,66.879,66.879,0,0,1-10.91,5.1,85.767,85.767,0,0,1-13.17,3.63,77.091,77.091,0,0,1-14.71,1.39q-15.675,0-27.8-4.95a52.273,52.273,0,0,1-20.28-14.43,64.335,64.335,0,0,1-12.45-23.32q-4.29-13.815-4.28-31.88,0-20.535,5.25-35.29t14.38-24.16a57.111,57.111,0,0,1,21.5-13.98,76.936,76.936,0,0,1,26.75-4.55,73.054,73.054,0,0,1,13.5,1.23,77.169,77.169,0,0,1,12.04,3.25,54.8,54.8,0,0,1,9.78,4.63,38.515,38.515,0,0,1,6.22,4.48,20.552,20.552,0,0,1,2.67,2.93,10.4,10.4,0,0,1,1.21,2.55,14.914,14.914,0,0,1,.65,3.32c0.1,1.23.16,2.78,0.16,4.63,0,4.02-.49,6.82-1.46,8.42s-2.15,2.39-3.55,2.39q-2.43,0-5.58-2.55a89.014,89.014,0,0,0-8-5.63,61.92,61.92,0,0,0-11.72-5.64,46.65,46.65,0,0,0-16.24-2.55q-19.245,0-29.5,14.13t-10.26,41a93.217,93.217,0,0,0,2.66,23.54,47.619,47.619,0,0,0,7.84,16.91,32.122,32.122,0,0,0,12.69,10.12,42.271,42.271,0,0,0,17.21,3.32,43.427,43.427,0,0,0,16.17-2.78,69.558,69.558,0,0,0,12.04-6.1c3.39-2.22,6.25-4.22,8.57-6.03s4.12-2.7,5.41-2.7a3.125,3.125,0,0,1,1.94.62,4.706,4.706,0,0,1,1.37,2.08,14.792,14.792,0,0,1,.81,3.71,50.874,50.874,0,0,1,.24,5.33c0,1.75-.05,3.27-0.16,4.55A16.591,16.591,0,0,1,2042.28,2750.57Zm-157.67,17.68a36.344,36.344,0,0,1-6.63.46,39.5,39.5,0,0,1-6.71-.46,8.213,8.213,0,0,1-3.63-1.39,3.381,3.381,0,0,1-1.14-2.78v-13.9a71.754,71.754,0,0,1-21.25,15.13,58.577,58.577,0,0,1-24.81,5.41,70.662,70.662,0,0,1-20.77-2.86,45.5,45.5,0,0,1-15.84-8.26,37.169,37.169,0,0,1-10.18-13.28,42.171,42.171,0,0,1-3.64-17.91q0-11.73,5.01-20.38a40.554,40.554,0,0,1,14.39-14.36q9.36-5.715,22.95-8.57a148.517,148.517,0,0,1,30.55-2.86h20.04v-10.81a51.732,51.732,0,0,0-1.78-14.21,24.039,24.039,0,0,0-5.74-10.26,24.816,24.816,0,0,0-10.26-6.18,49.942,49.942,0,0,0-15.52-2.08,64.62,64.62,0,0,0-17.7,2.23,99.1,99.1,0,0,0-13.74,4.95q-5.895,2.7-9.86,4.94t-5.89,2.24a4.151,4.151,0,0,1-2.27-.62,5.308,5.308,0,0,1-1.69-1.86,9.15,9.15,0,0,1-1.06-3.16,26.444,26.444,0,0,1-.32-4.25,25.857,25.857,0,0,1,.57-6.1,8.694,8.694,0,0,1,2.75-4.24,35.165,35.165,0,0,1,7.51-4.71,84.935,84.935,0,0,1,12.28-4.94,116.672,116.672,0,0,1,15.2-3.71,94.563,94.563,0,0,1,16.65-1.47q15.675,0,26.67,3.4t17.77,9.96a38.151,38.151,0,0,1,9.86,16.29,75.5,75.5,0,0,1,3.08,22.7v93.73a3.215,3.215,0,0,1-1.3,2.78A9.461,9.461,0,0,1,1884.61,2768.25Zm-21.66-67.64h-22.79a89.96,89.96,0,0,0-19.07,1.78,40.2,40.2,0,0,0-13.42,5.25,22.028,22.028,0,0,0-7.84,8.34,24.082,24.082,0,0,0-2.5,11.19q0,10.815,7.19,17.22t20.12,6.41a38.765,38.765,0,0,0,19.48-5.1q8.97-5.1,18.83-15.59v-29.5Zm-135.37,68.1q-4.035,0-6.63-.16a17.176,17.176,0,0,1-4.04-.61,3.652,3.652,0,0,1-2.02-1.32,4.893,4.893,0,0,1-.72-2.23l-10.51-81.07c-0.32-2.88-.65-5.97-0.97-9.26s-0.65-6.64-.97-10.04-0.62-6.8-.89-10.19-0.56-6.59-.89-9.58l-0.16-3.55q-1.455,4.485-3.07,9.42-1.62,4.95-3.47,10.04t-3.56,10.19q-1.7,5.1-3.15,9.57l-30.55,82.3a12.03,12.03,0,0,1-1.54,3.09,6.425,6.425,0,0,1-2.42,2.01,12.543,12.543,0,0,1-3.88,1.08,45.941,45.941,0,0,1-5.74.31,43.836,43.836,0,0,1-5.65-.31,14.027,14.027,0,0,1-3.8-1,6.657,6.657,0,0,1-2.51-1.93,10.691,10.691,0,0,1-1.61-3.09l-29.42-82.46q-1.62-4.32-3.31-9.26-1.71-4.95-3.4-10.12c-1.13-3.44-2.24-6.87-3.31-10.26s-2-6.59-2.75-9.58l-0.16,3.55q-0.495,4.485-.97,9.58c-0.32,3.39-.68,6.79-1.05,10.19s-0.76,6.74-1.13,10.04-0.68,6.38-.89,9.26L1572.42,2763a8.678,8.678,0,0,1-.73,3.01,3.528,3.528,0,0,1-2.18,1.7,19.927,19.927,0,0,1-4.21.77q-2.58.225-6.78,0.23a52.612,52.612,0,0,1-6.39-.31,8.978,8.978,0,0,1-3.55-1.08,3.33,3.33,0,0,1-1.54-1.93,6.222,6.222,0,0,1,0-2.86l16-131.56a12.344,12.344,0,0,1,3.64-7.48q2.82-2.55,8.48-2.55h12.77a39.83,39.83,0,0,1,8,.69,14.611,14.611,0,0,1,5.66,2.4,14.127,14.127,0,0,1,3.96,4.55,41.938,41.938,0,0,1,3.07,7.18l21.5,59.14c1.18,3.61,2.42,7.23,3.72,10.89s2.5,7.25,3.63,10.81,2.21,7.02,3.24,10.42,1.96,6.64,2.82,9.73h0.33q1.455-4.785,2.99-10.12t3.31-10.81q1.77-5.475,3.64-10.88c1.23-3.6,2.45-7.05,3.63-10.35l21.5-58.83a42.873,42.873,0,0,1,2.83-6.72,14.565,14.565,0,0,1,3.8-4.63,14.913,14.913,0,0,1,5.41-2.62,29.727,29.727,0,0,1,7.68-.85h12.61c3.88,0,6.81.77,8.81,2.31s3.15,4.02,3.47,7.42l16.16,131.86c0.11,2.27-.64,3.86-2.26,4.79S1732.54,2768.71,1727.58,2768.71Zm-229.51-19.92a63.328,63.328,0,0,1-23.28,16.14q-13.98,5.79-32.41,5.79-17.94,0-31.27-5.1a57.353,57.353,0,0,1-22.23-14.82,62.1,62.1,0,0,1-13.25-23.63,104.963,104.963,0,0,1-4.36-31.5,101.493,101.493,0,0,1,4.6-31.27,67.174,67.174,0,0,1,13.9-24.62,62.67,62.67,0,0,1,23.2-16.06q13.89-5.715,32.49-5.72,17.94,0,31.27,5.1a57.353,57.353,0,0,1,22.23,14.82,63.042,63.042,0,0,1,13.33,23.63,102.745,102.745,0,0,1,4.44,31.34,99.9,99.9,0,0,1-4.68,31.27A68.323,68.323,0,0,1,1498.07,2748.79Zm-11.18-75.51a51.308,51.308,0,0,0-7.25-17.6,35.592,35.592,0,0,0-13.71-11.97q-8.64-4.395-21.52-4.4-11.91,0-20.47,4.02a37.214,37.214,0,0,0-14.11,11.35,49.744,49.744,0,0,0-8.23,17.37,84.223,84.223,0,0,0-2.69,21.92,99.933,99.933,0,0,0,2.2,21.47,49.034,49.034,0,0,0,7.34,17.52,36.162,36.162,0,0,0,13.78,11.89q8.64,4.41,21.53,4.4,11.73,0,20.38-4.01a37.374,37.374,0,0,0,14.19-11.27,48.02,48.02,0,0,0,8.15-17.3,87.618,87.618,0,0,0,2.62-22.08A99.222,99.222,0,0,0,1486.89,2673.28Zm-129.44-31.96a5.759,5.759,0,0,1-1.7,2.08,4.006,4.006,0,0,1-2.42.7h-43.64v119.82a3.36,3.36,0,0,1-.65,2.09,5.081,5.081,0,0,1-2.1,1.46,15.6,15.6,0,0,1-4.04.93,59.385,59.385,0,0,1-6.63.31,57.533,57.533,0,0,1-6.47-.31,16.989,16.989,0,0,1-4.12-.93,4.484,4.484,0,0,1-2.1-1.46,3.665,3.665,0,0,1-.56-2.09V2644.1h-43.64a4.11,4.11,0,0,1-2.35-.7,4.831,4.831,0,0,1-1.7-2.08,15.3,15.3,0,0,1-1.05-3.63,30.411,30.411,0,0,1-.4-5.33,27.134,27.134,0,0,1,.4-4.94,13.868,13.868,0,0,1,1.14-3.63,5.82,5.82,0,0,1,1.69-2.16,3.815,3.815,0,0,1,2.27-.69h113.95a4.169,4.169,0,0,1,2.34.69,4.982,4.982,0,0,1,1.7,2.16,16.85,16.85,0,0,1,1.05,3.71,29.355,29.355,0,0,1,.4,5.02,37.053,37.053,0,0,1-.32,5.25A11.588,11.588,0,0,1,1357.45,2641.32Zm-139.57,82.61a42.412,42.412,0,0,1-4.37,19.53,37.957,37.957,0,0,1-12.93,14.36q-8.565,5.79-21.33,8.8a130.377,130.377,0,0,1-29.74,3.02q-5.34,0-10.35-.08t-9.69-.31q-4.7-.24-9.3-0.54c-3.07-.21-6.11-0.46-9.13-0.77q-6.465-.78-9.54-4.1-3.06-3.315-3.07-9.8V2634.37q0-6.33,2.99-9.73t9.14-4.01q4.2-.465,8.97-0.77,4.755-.315,9.78-0.54,5-.24,10.34-0.39c3.56-.1,7.16-0.15,10.83-0.15a130.274,130.274,0,0,1,27.15,2.47,58.883,58.883,0,0,1,19.08,7.25,30.957,30.957,0,0,1,11.23,11.74,33.824,33.824,0,0,1,3.64,15.9q0,11.745-6.55,20.08t-19.32,11.89q16.005,3.24,24.09,12.5T1217.88,2723.93Zm-34.11-73.65a16.535,16.535,0,0,0-6.38-6.8,34.222,34.222,0,0,0-11.48-4.17,89.93,89.93,0,0,0-17.05-1.39q-7.59,0-13.9.39t-10.67.85v43.23h27.16q16.65,0,25.46-5.94t8.8-17.06A20.556,20.556,0,0,0,1183.77,2650.28Zm4.53,63.23a18.814,18.814,0,0,0-7.19-7.8,37.734,37.734,0,0,0-12.61-4.63,93.29,93.29,0,0,0-18.18-1.55h-26.03v49.26q3.075,0.465,6.39.69c2.21,0.16,4.47.31,6.79,0.47s4.63,0.28,6.95.38,4.44,0.16,6.38.16a77.835,77.835,0,0,0,17.94-1.78,36.488,36.488,0,0,0,12.37-5.17,20.559,20.559,0,0,0,7.19-8.26,25.472,25.472,0,0,0,2.26-10.89A24.832,24.832,0,0,0,1188.3,2713.51Zm-143.69,54.74a36.344,36.344,0,0,1-6.63.46,39.373,39.373,0,0,1-6.7-.46,8.21,8.21,0,0,1-3.64-1.39,3.376,3.376,0,0,1-1.13-2.78v-13.9a71.8,71.8,0,0,1-21.26,15.13,58.57,58.57,0,0,1-24.807,5.41,70.669,70.669,0,0,1-20.769-2.86,45.551,45.551,0,0,1-15.84-8.26,37.177,37.177,0,0,1-10.183-13.28,42.261,42.261,0,0,1-3.637-17.91q0-11.73,5.011-20.38a40.523,40.523,0,0,1,14.385-14.36,72.49,72.49,0,0,1,22.952-8.57,148.545,148.545,0,0,1,30.548-2.86h20.04v-10.81a51.351,51.351,0,0,0-1.78-14.21,23.92,23.92,0,0,0-5.73-10.26,24.854,24.854,0,0,0-10.27-6.18,49.893,49.893,0,0,0-15.514-2.08,64.559,64.559,0,0,0-17.7,2.23,98.335,98.335,0,0,0-13.739,4.95q-5.9,2.7-9.86,4.94t-5.9,2.24a4.134,4.134,0,0,1-2.263-.62,5.313,5.313,0,0,1-1.7-1.86,9.155,9.155,0,0,1-1.051-3.16,25.648,25.648,0,0,1-.323-4.25,25.943,25.943,0,0,1,.566-6.1,8.773,8.773,0,0,1,2.747-4.24,35.214,35.214,0,0,1,7.516-4.71,84.625,84.625,0,0,1,12.284-4.94,116.415,116.415,0,0,1,15.194-3.71,94.633,94.633,0,0,1,16.648-1.47q15.673,0,26.669,3.4t17.78,9.96a38.348,38.348,0,0,1,9.86,16.29,75.835,75.835,0,0,1,3.07,22.7v93.73a3.208,3.208,0,0,1-1.29,2.78A9.516,9.516,0,0,1,1044.61,2768.25Zm-21.66-67.64h-22.79a90.027,90.027,0,0,0-19.07,1.78,40.138,40.138,0,0,0-13.416,5.25,22.056,22.056,0,0,0-7.839,8.34,24.059,24.059,0,0,0-2.5,11.19q0,10.815,7.192,17.22t20.124,6.41a38.729,38.729,0,0,0,19.474-5.1q8.97-5.1,18.83-15.59v-29.5Z"/>
  <path id="Фигура_2" data-name="Фигура 2" class="cls-2" d="M2210.2,2502.74q-5.565,2.3-11.14,4.59-15.3-21.84-30.62-43.68c-21.48,4.71-38.61,13.36-44.69,39.37q15.15,19.935,30.3,39.88-8.52,1.545-17.03,3.09c-79.13-29.12-34.38-62.87-74-101.74q-139.515-115.32-279.06-230.65-30.18-4.59-60.36-9.17c-43.88-20.63-39-78.35-28.14-104.93q22.71,29.91,45.44,59.83,11.31-2.7,22.61-5.39c14.09-4.34,28.34-23.11,31.48-36.54q-18.75-28.275-37.49-56.57,6.615-1.41,13.21-2.82c87.96,33.91,50.54,72.69,87.08,119.92q125.1,115.365,250.24,230.74l74.53,17.73C2211.99,2443.97,2208.94,2481.62,2210.2,2502.74Zm-58.2-74.22c-16.26.07-51.5,11.98-58.55,34.61C2113.72,2441.81,2131.82,2438.27,2152,2428.52Zm-108.92-15.33q-99.285-82.8-198.58-165.62C1888.71,2285.89,2000.25,2398.36,2043.08,2413.19Zm22.09-33.98c-38.75-38.78-140.71-138.32-186.56-162.88C1941.8,2269.43,2003.49,2324.33,2065.17,2379.21Zm-235.74-218.4q2.46-4.935,4.92-9.88l-2.07-1.77c-29.05,35.98-50.31,43.15-80.18,51.38C1778.58,2202.32,1805.54,2188.93,1829.43,2160.81Z"/>
  <path id="Фигура_4" data-name="Фигура 4" class="cls-2" d="M2098.9,2321.91q-6.33-7.65-12.65-15.32,18.825-16.995,37.65-33.98c-8.94,1.5-21.17-18.14-36.37-38.77-117.63,84.13-217.01,142.46-219.17,249.23-18.94,17.6-35.92,34.55-53.49,25.41q2.655-2.1,5.3-4.19,8.235-8.61,16.45-17.22c-12.68-.59-17.09,1.83-25.42,11.65,2.02-34.58,24.13-44.94-9.27-85.51-27.85-11.95-38.6-2.53-67.16-1.77,0.18-1.55.36-3.1,0.55-4.65,11.91-9.65,14.81-12.55,16.98-21.87q-12.975,8.16-25.96,16.31-4.215-5.115-8.43-10.22,21.195-16.755,42.41-33.52l4.76,0.45q38.325,1.35,76.67,2.68c67.13-19.44,158.16-112.72,216.27-162.53-18.55-21.67-33.39-34.59-33.19-45.5q-19.875,15.7-39.76,31.43-6.315-7.665-12.64-15.32c27.21-22.97,97.19-91.39,122.94-84.54q21.12,14.955,42.22,29.92c-19-18.98-49.39-43.67-35.41-48.22,17.71,14.39,33.19,26.07,48.67,37.74l-40.6-43.87q6.09-.585,12.17-1.18,20.835,17.295,41.68,34.58-20.295-21.945-40.59-43.87,7.68-3.975,15.36-7.93c24.99,21.21,80.16,61.59,91.72,100.51-0.88.7-1.76,1.4-2.65,2.09q-26.61-29.58-53.24-59.19c32.35,37,79.86,73.44,81.67,104.24,1.4,1.71,2.81,3.41,4.21,5.11q-5.295,4.185-10.6,8.38-18.96-22.98-37.94-45.96c7.89,14.86,19.99,34.83,27.88,49.69a48.066,48.066,0,0,1-5.3,4.2c-9.83-11.92-26-31.5-35.83-43.42q13.935,24.855,27.88,49.7-3.975,3.15-7.95,6.29c-7.35-15.29-18.46-39.6-35.29-48.06,17.79,21.16,24.01,37.61,29.44,56.9Q2155.9,2276.855,2098.9,2321.91Zm79.41-206.26a171.821,171.821,0,0,0,18.97,22.98C2192.58,2131.96,2183.69,2120.82,2178.31,2115.65Zm-30.66-5.3a242.286,242.286,0,0,0,18.98,22.98A79.07,79.07,0,0,0,2147.65,2110.35Zm29.52,35.75a50.128,50.128,0,0,0,16.86,20.43Zm-13.26,10.47c0.52,2.41,1.05,4.81,1.57,7.21C2164.96,2161.38,2164.43,2158.98,2163.91,2156.57Zm-22.7-11.58c-9.24-1.71-8.72-3.38-19.04-1.84q-13.755,4.56-27.53,9.11-5.055,12.435-10.12,24.88,6.84,13.59,13.67,27.17c17.01,7.5,24.49,8.02,42.83,4.13,15.07-14.02,19.35-22.68,16.51-38.38Q2149.37,2157.535,2141.21,2144.99Zm-3.2,6.74c13,16.48,14.12,21.64,7.83,36.01q-7.95,6.285-15.9,12.58-9.8,1.41-19.58,2.81c-15.46-18.76-13.79-23.36-14.69-39.02,0.88-.7,1.76-1.4,2.65-2.1q11.655-7.1,23.31-14.21Zm9.21,106.67-13.8,15.12Zm-105.94-123.03-13.8,15.12Zm27.27,75.49c-33.86,30.62-162.43,121.64-173.37,145.51q3.435,1.5,6.87,3.01,87.465-69.15,174.94-138.3Q2072.775,2215.965,2068.55,2210.86Zm-247.52,183.03q10.545,12.765,21.08,25.54Q1831.565,2406.65,1821.03,2393.89Zm-13.19-10.67q-10.575-2.2-21.14-4.39,12.675,4.74,25.36,9.49C1810.65,2386.62,1809.25,2384.92,1807.84,2383.22Zm37.94,45.96q2.085,13.125,4.16,26.26Q1847.855,2442.315,1845.78,2429.18Zm-25.13,91.61c-71.47,61.65-165.92.19-142.56-77.2,2.47-.54,4.94-1.09,7.41-1.63l1.02,11.85q-1.8-15.45-3.61-30.91,16.17-14.9,32.35-29.79,3.165,3.825,6.32,7.66c0.52,2.4,1.05,4.8,1.57,7.2q-6.9,7.56-13.8,15.13c12.88-2.59,14.61-4.01,20.66-12.12-0.58,22.85-17.56,35.18-11.81,59.98,21.67,51.57,54,28.99,87.7,31.95-9,5.61-13.66,5.77-16.45,17.23,3.17,0.3,6.35.61,9.52,0.91l11.14-13.03Q1815.39,2514.41,1820.65,2520.79Zm-59.27,13.1c-36.1-2.4-65.7-43.32-72.75-77.53q-1.875,5.7-3.74,11.4c14.22,26.97,37.17,64.2,66.43,69.86Q1756.36,2535.76,1761.38,2533.89Z"/>
  <path id="Фигура_5" data-name="Фигура 5" class="cls-2" d="M1065.69,1932c17.26,33.66,45.45,100.18,56.23,146.03,41.79-2.39,115.36,2.71,163.08,11.23-30.33,31.34-110.78,76.91-123.71,89.86,13.72,53.08,46.27,160.52,39.36,162.88-13.29-1.55-120.59-85.12-129.62-84.27-7.38.69-131.224,79.17-140.3,73.04-7.742-3.72,41.586-135.19,44.987-151.65-16.17-15.43-93.968-76.15-123.714-101.09,38.481,0,111.386-3.56,157.45-5.62Q1037.575,2002.21,1065.69,1932Z"/>
  <path id="Фигура_6" data-name="Фигура 6" class="cls-2" d="M2931.64,1932c17.58,34.31,46.28,102.14,57.27,148.88,42.56-2.44,117.49,2.76,166.09,11.45-30.89,31.95-112.82,78.41-126,91.62,13.98,54.1,47.12,163.64,40.09,166.05-13.54-1.58-122.82-86.78-132.02-85.91-7.51.7-133.64,80.71-142.89,74.46-7.88-3.79,42.36-137.83,45.82-154.6-16.47-15.74-95.7-77.65-126-103.07,39.19,0,113.44-3.63,160.36-5.73Q2903,2003.585,2931.64,1932Z"/>
  <path id="Фигура_7" data-name="Фигура 7" class="cls-2" d="M1080.99,1639.97c93.56,29.71,207.21-15.21,314.95-.23,36.9,5.13,72.89-19.37,113.3-5.29,76.37,26.6,88.53,130.25,134.76,206.72v3.34c-47.45-12.93-45.04-88.4-80.41-111.38q3.42,12.765,6.86,25.58l-2.34.12c-33.52-12.71-78.46,7.12-108.07,18.3-105.09,39.66-231.01,97.91-298.77,20.64,131.85-6.52,276.31-108.57,404.67-68.01q-3.465-4.65-6.92-9.29c-18.22-35.98-119.91-38.86-166.34-24.7C1276.4,1731.25,1117.8,1737.72,1080.99,1639.97Zm454.49,127c26.13-2.12,38.33,6.88,48.89,26.99,0,1.09-.01,2.19-0.01,3.28-108.73,17.58-251.33,189.97-336.19,111.28,62.38-15.03,131.14-63.09,186.63-95.08Q1484.645,1790.43,1535.48,1766.97Zm27.67,37.75c19.79-.18,26.87,7.52,40.09,14.76-0.01,2.2-.02,4.41-0.02,6.61-101.25,28.33-153.93,193.51-269.1,157.09q19.98-11.55,40.12-23.18C1434.28,1913.52,1502.49,1860.51,1563.15,1804.72Zm28.14,31.74c12.72-.5,21.89,1.28,28.61,8.9-1.6.06-3.2,0.12-4.79,0.17q-27.555,25.86-54.89,51.51c-30.32,32.87-59.39,107.1-96.73,124.33q-24.12,3.435-48,6.82l0.06-3.3C1465.06,1952.44,1533.2,1899.57,1591.29,1836.46Zm23.8,15.72q8.4,1.38,16.83,2.76-2.415,5.085-4.84,10.18c-60,40.01-62.39,168.91-140.8,182.88q11.835-18.435,23.7-36.89C1530.02,1951.25,1581.05,1896.2,1615.09,1852.18Z"/>
  <path id="Фигура_7_копия" data-name="Фигура 7 копия" class="cls-2" d="M2824.01,1649.94c-93.56,29.71-207.21-15.21-314.95-.23-36.9,5.13-72.89-19.37-113.3-5.29-76.37,26.6-88.53,130.26-134.76,206.73v3.34c47.45-12.93,45.04-88.4,80.41-111.39q-3.42,12.765-6.86,25.59l2.34,0.12c33.52-12.71,78.45,7.12,108.07,18.29,105.08,39.67,231.01,97.93,298.77,20.65-131.85-6.52-276.31-108.58-404.68-68.01q3.48-4.665,6.93-9.3c18.22-35.97,119.91-38.86,166.34-24.69C2628.6,1741.23,2787.2,1747.7,2824.01,1649.94Zm-454.49,127c-26.13-2.11-38.33,6.89-48.89,27,0,1.09.01,2.19,0.01,3.28,108.72,17.59,251.33,189.98,336.19,111.29-62.38-15.04-131.14-63.09-186.63-95.09Q2420.355,1800.425,2369.52,1776.94Zm-27.67,37.76c-19.79-.17-26.87,7.52-40.09,14.76q0.015,3.315.02,6.61c101.25,28.33,153.93,193.53,269.1,157.1q-19.98-11.535-40.12-23.17C2470.72,1923.51,2402.51,1870.5,2341.85,1814.7Zm-28.14,31.74c-12.72-.49-21.89,1.28-28.61,8.91,1.6,0.05,3.2.11,4.79,0.17q27.555,25.845,54.89,51.51c30.32,32.88,59.39,107.11,96.73,124.34q24.12,3.42,48,6.82l-0.06-3.3C2439.94,1962.44,2371.8,1909.55,2313.71,1846.44Zm-23.8,15.73q-8.4,1.38-16.83,2.76,2.415,5.085,4.84,10.17c60,40.02,62.39,168.93,140.8,182.9q-11.835-18.435-23.71-36.9C2374.98,1961.25,2323.95,1906.19,2289.91,1862.17Z"/>
  <path id="Фигура_8_копия" data-name="Фигура 8 копия" class="cls-4" d="M2262,562c-181.71-15.986-664.29-37.65-799,40S1270.92,793.454,997,810c-384.2,23.206-694.05,239.64-706,467-15.808,300.76-29.78,821.54,43,863s263.635,111.53,335,234c132.56,227.49,45.287,555.05,230.574,566.72,153.346,9.66,2083.646,7.17,2168.426,3.28M1736,562c181.71-15.986,664.29-37.65,799,40s192.08,191.454,466,208c384.2,23.206,694.05,239.64,706,467,15.81,300.76,29.78,821.54-43,863s-263.64,111.53-335,234c-132.56,227.49-85.72,584.78-271,573-133.79-8.51-2024.38-4.55-2115.958-4.17"/>
</svg>
