<?xml version="1.0" encoding="UTF-8" standalone="no"?>
<svg width="3472px" height="2430px" viewBox="0 0 3472 2430" version="1.1" xmlns="http://www.w3.org/2000/svg" xmlns:xlink="http://www.w3.org/1999/xlink">
    <!-- Generator: Sketch 41 (35326) - http://www.bohemiancoding.com/sketch -->
    <title>GaSSkull autoservice v2</title>
    <desc>Created with Sketch.</desc>
    <defs></defs>
    <g id="Page-1" stroke="none" stroke-width="1" fill="none" fill-rule="evenodd">
        <g id="GaSSkull-autoservice-v2" transform="translate(15.000000, 15.000000)">
            <path d="M727.09,759.52 C694.512,780.11 661.988667,800.666667 629.52,821.19 C620.431,832.25 635.949,843.49 620.211,853.53 C595.573667,814.23 570.940333,774.936667 546.311,735.65 C549.863,733.46 553.415333,731.266667 556.968,729.07 C564.876,740.5 573.185,748.25 581.763,749.31 C597.699,751.29 620.241,730.93 635.663,721.43 C677.529667,695.62 719.494,669.756667 761.556,643.84 C764.516,648.56 767.479333,653.28 770.446,658 C765.766,661.18 763.796,663.45 763.076,667.89 C762.326,678.27 826.706,783.84 839.506,793.98 C845.586,795.01 851.669333,796.046667 857.756,797.09 C860.726,801.81 863.692667,806.533333 866.656,811.26 C861.166,830.64 855.679333,850.013333 850.196,869.38 C841.596,901.9 822.936,927.55 805.326,955.34 C787.906,974.2 770.506,993.043333 753.126,1011.87 C749.106,1016.09 725.116,1032.55 727.276,1032.87 C721.901,1038.92 696.217,1048.81 696.47,1048.02 C670.116,1054.78 655.356,1074.28 630.662,1075.58 C514.581,1081.74 454.794,1070.39 352.42,963.07 C317.26,926.21 284.738,841.74 279.084,814.12 C255.757,700.17 262.308,590.84 373.138,521.47 C389.832,511.02 406.542,500.56 423.268,490.09 C455,481.3 485.026,467.95 516.738,467.31 C543.045,466.78 577.509,479.1 601.944,469.49 C604.209,462.53 604.996,457.46 606.373,450.641 L620.148,450.989 C620.954,452.27 621.761,453.56 622.568,454.84 C626.266,499.61 629.962,544.346667 633.656,589.05 C628.474,588.69 623.293,588.333333 618.113,587.98 C606.662,555.38 582.498,556.77 560.468,554.23 C510.727,548.49 439.597,560.51 393.124,606.79 C335.635,664.05 322.997,729.25 355.358,823.49 C364.398,849.81 388.704,889.6 407.908,909.53 C434.994,937.65 451.256,957.88 477.828,974.41 C480.195,975.88 485.228,975.28 484.717,979.02 C502.817,986.28 521.136,995.54 539.431,1000.36 C599.174,1016.07 690.282,978.3 725.466,920.5 C744.126,889.84 769.736,866.99 771.456,830.23 C756.662,806.66 741.873333,783.09 727.09,759.52 Z M1791.35,90.735 C1835.73,90.373 1883.66,86.135 1917.83,103.479 C1932.14,110.745 1970.82,139.409 1986.09,135.417 C1995.48,132.962 1996.57,121.736 2005.37,119.474 C2008.45,122.67 2011.52667,125.866333 2014.6,129.063 C1999.87,175.876 1974.15,191.677 1959.44,238.44 C1956.37,235.234 1964.3,263.027 1961.23,259.822 C1960.86,251.842 1960.48333,243.862 1960.1,235.882 C1937.24,167.688 1793.04,158.843 1747.49,196.996 C1729.72,211.875 1690.38,219.673 1689.68,267.296 C1688.49,347.79 1724.29,323.086 1782.08,338.828 L1832.75,342.367 C1888.01,358.787 1934.09,381.001 1955.42,453.6 C1970.64,505.39 1960.61,578.12 1945.99,613.53 C1882.35,767.72 1709.11,721.11 1687.79,718.06 C1664.61,706.55 1636.36,698.23 1617.22,678.76 C1615.44,676.95 1612.09,672.03 1610.18,675.48 C1603.17,667.58 1588.62,648.95 1576,652.73 C1568.87,654.87 1567.16,664.4 1560.04,666.76 C1557.69,664.61 1555.34667,662.46 1553.01,660.31 C1553.85,648.85 1591.3,519.23 1598.52,518.25 C1601.21,521.45 1603.89667,524.653333 1606.58,527.86 C1587.65,655.47 1854.04,679.75 1887.71,579.15 C1898.82,545.97 1896.46,491.97 1879.07,472.01 C1839.41,426.51 1762.64,420.685 1699.58,400.186 C1686.87,396.055 1644.21,380.623 1644.21,380.623 C1627.5,361.207 1615.1,343.475 1611,313 C1592.99,179.005 1671.83,152.854 1723.03,117.673 C1738.72,106.9 1779.45,103.035 1791.35,90.735 Z M1315.22,116.063 C1356.33,106.413 1402.59,92.74 1435.05,101.607 C1454.56,106.935 1492.73,126.568 1514.82,118.024 C1515.92,102.945 1520.1,101.262 1534.58,102.688 C1534.71,103.263 1534.84,103.837 1534.98,104.412 C1534.24,150.522 1533.5,196.624 1532.76,242.718 C1530.34,248.118 1519.89,240.946 1516,239.199 C1514.99,227.627 1514.12,222.281 1509.59,211.635 C1440.24,139.1 1321.73,164.708 1271,223 C1251.7,245.17 1226.68,328.259 1246,366 C1271.16,415.145 1279.41,392.733 1321.84,396.035 C1415.26,403.306 1515.71,353.691 1562.01,481.05 C1567.9,506.383333 1573.79333,531.72 1579.69,557.06 C1578.64,640.31 1553.81,670.92 1502.94,707.61 C1487.49,718.75 1459.1,714.58 1443.91,727.39 C1426.98,741.66 1361.74,747.95 1337.76,742.73 C1302.4,735.23 1267.09333,727.743333 1231.84,720.27 C1228.94859,728.406603 1225.53139,736.346673 1221.61,744.04 C1217.37,743.14 1213.13,742.243333 1208.89,741.35 C1209.83,693.19 1210.77,645.01 1211.71,596.81 C1216.57667,596.95 1221.45333,597.093333 1226.34,597.24 C1234.25,654.62 1278.91,648.33 1312.04,658.05 C1381.55,678.46 1528.4,654.13 1518.29,546.74 C1513.25,493.22 1480.12,490.57 1455.53,482.47 C1387.05,459.91 1266.49,499.85 1208,458 C1133.67,404.815 1165.17,258.127 1211,195 C1228.35,171.1 1263.13,151.417 1282.16,130.763 C1293.18,125.866333 1304.2,120.966333 1315.22,116.063 L1315.22,116.063 Z M815.14,443.919 C855.23,427.371 895.416667,410.785333 935.7,394.162 L941.43,407.876 C934.97,412.513 929.08,416.66 929.85,422.882 C928.97,428.965 985.75,491.64 997.03,503.44 C1055.59,566.76 1114.27,630.216667 1173.07,693.81 C1194.3,713.53 1213.61,759.17 1242.92,747.77 C1246.42,754.03 1248.03,757.55 1248.25,763.21 C1216.58,775.37 1184.95333,787.513333 1153.37,799.64 C1151.45,795.05 1149.53333,790.463333 1147.62,785.88 C1157.84,782.28 1163.37,777.7 1167.09,770.78 C1150.01,730.39 1112.71,711.57 1090.08,680.44 C1031.09,704.23 972.286667,727.943333 913.67,751.58 C916.46,789.22 919.243333,826.846667 922.02,864.46 C925.03,867.71 924.75,868.04 928.42,869.16 L946.63,867.69 L951.4,881.76 C923.39,892.47 895.413333,903.16 867.47,913.83 C865.89,909.15 864.306667,904.47 862.72,899.79 C887.77,887.89 872.28,849.71 871.28,822.39 C865.31,734.79 859.33,647.096667 853.34,559.31 C852.62,542.92 848.29,467.52 841.53,459.27 C835.69,452.57 828.55,453.15 820.33,456.35 C818.6,452.21 816.87,448.066333 815.14,443.919 Z M2002.47,358.025 C2032.43,366.114333 2062.44333,374.216333 2092.51,382.331 C2091.52,386.164333 2090.52667,389.997667 2089.53,393.831 C2081.94,393.189 2075.96,393.449 2070.28,395.337 C2058.38,439.834333 2046.47667,484.349 2034.57,528.881 C2087.15,507.414333 2139.83667,485.897667 2192.63,464.331 C2208.67,458.241 2227.85,455.481 2241.22,444.937 C2241.55,439.937 2242.15,441.845 2239.44,438.837 C2237.18,435.017 2228.82,432.064 2223.81,430.12 C2224.62,426.973333 2225.43333,423.825667 2226.25,420.677 C2226.78,420.072 2227.31,419.467 2227.83,418.861 L2351.49,452.239 C2350.49,456.099 2349.49333,459.959 2348.5,463.819 C2319.16,462.769 2304.41,472.469 2281.82,482.909 C2240.66,499.099 2199.56667,515.265667 2158.54,531.409 C2182.8,593.129 2207.11333,655.005667 2231.48,717.039 C2243.1,749.249 2246.54,782.779 2280.19,802.949 C2278.84,806.729 2277.49,810.505667 2276.14,814.279 C2241.58,804.229 2207.07667,794.199 2172.63,784.189 C2173.63,780.329 2174.62667,776.469 2175.62,772.609 L2194.99,775.759 C2200.23,752.629 2180.44,725.899 2173.35,707.659 C2153.09,654.739 2132.87,601.912333 2112.69,549.179 C2110.32,550.089 2112.04,549.109 2110.07,550.699 C2093.83,553.539 2031.37,579.889 2018.85,589.569 C2010.77,619.629 1984.27,693.099 1989.13,717.129 C1994.04,719.629 1998.95,722.125667 2003.86,724.619 C2002.77,728.809 2001.68333,733.002333 2000.6,737.199 C1970.57,728.799 1940.58667,720.409 1910.65,712.029 C1911.73,707.849 1912.81333,703.665667 1913.9,699.479 C1941.44,706.809 1941.23,670.939 1948.48,642.969 C1964.83,579.902333 1981.17667,516.862333 1997.52,453.849 C2002.18,435.886 2021.19,387.885 2011.84,377.298 C2009.87,373.871 2003.64,371.491 1999.49,369.498 C2000.48,365.674 2001.47333,361.849667 2002.47,358.025 L2002.47,358.025 Z M2759.03,607.55 C2757.55,611.55 2756.07333,615.55 2754.6,619.55 L2741.58,619.28 C2729.21,624.55 2719.02,665.6 2712.27,683.9 C2689.31,746.13 2666.33667,808.386667 2643.35,870.67 C2630.3,893.59 2616.42,907.59 2597.74,917.25 C2594.71,918.82 2576.02,924.67 2576.95,926.23 C2499.95,938.09 2363.26,892.06 2331.72,812.55 C2307.47,751.42 2354.75,660.32 2387.81,571.11 C2399.74,538.93 2427.63,490.45 2404.39,477.12 L2407.99,467.4 C2408.56,466.81 2409.14,466.21 2409.72,465.62 L2485.92,497.83 C2484.59,501.43 2483.25667,505.036667 2481.92,508.65 C2477.61,507.47 2472.37,506.52 2469.08,508.41 C2457.65,512.87 2425.09,612.7 2415.51,638.57 C2382.04,728.97 2356.26,765.01 2398.86,820.51 C2410.09,828.12 2421.33,835.73 2432.58,843.34 C2445.87,853.8 2474.26,869.18 2493.77,871.37 C2600.18,883.35 2595.89,854.21 2644.46,722.67 C2652.78,700.16 2691.17,611.25 2687.5,597.27 C2683.61,594.02 2679.72667,590.77 2675.85,587.52 C2677.05,584.26 2678.25667,580.993333 2679.47,577.72 C2680.05,577.13 2680.63,576.53 2681.22,575.93 C2707.11,586.45 2733.04667,596.99 2759.03,607.55 Z M2847.47,630.73 C2872.68,650.17 2897.93,669.643333 2923.22,689.15 C2918.94,694.816667 2914.65333,700.493333 2910.36,706.18 C2904.11,702.79 2897.14,700.07 2889.55,704.82 C2863.91,722.33 2885.8,706.42 2860.75,739.58 C2783.14,842.33 2813.46,813.17 2735.76,916.03 C2779.92,951.11 2824.21333,986.293333 2868.64,1021.58 C2896.35,1043.59 2926.9,1071.44 2955.9,1083.4 C2965.23,1075.97 2972.84,1069.75 2983.81,1055.58 L2993.35,1063.14 C2961.11,1105.86 2928.86667,1148.60333 2896.62,1191.37 C2893.45,1188.83 2890.28,1186.29667 2887.11,1183.77 C2910.31,1149.01 2860.83,1127.72 2836.34,1108.19 C2765.75,1051.03 2695.46667,994.123333 2625.49,937.47 L2638.36,920.43 C2645.51,926.3 2650.88,926.14 2658.67,924.2 C2734.62,824.27 2757.55,784.37 2833.43,684.54 C2875.23,629.22 2812.42,718.76 2843.71,664.51 C2840.68,658.91 2837.65667,653.313333 2834.64,647.72 C2838.92,642.05 2843.19667,636.386667 2847.47,630.73 L2847.47,630.73 Z M3160.55,884.21 C3185.5,905.64 3210.49667,927.11 3235.54,948.62 C3231.05,954.25 3226.56667,959.88 3222.09,965.51 C3216.05,961.91 3208.7,958.63 3201.1,962.97 C3173.38,981.45 3175.16,993.12 3147.73,1027.57 C3067.4,1128.41 3110,1069.34 3029.59,1170.3 C3083.15,1217.65 3093.02,1223.79 3146.9,1271.44 C3165.31,1287.73 3190.6,1321.05 3211.39,1307.37 L3232.43,1286.42 C3235.28,1288.94 3238.13333,1291.45667 3240.99,1293.97 C3207.33,1336.31 3173.66,1378.65667 3139.98,1421.01 C3137.13,1418.48 3134.28333,1415.95 3131.44,1413.42 C3138.73,1402.41 3139.67,1397.29 3142.33,1388.73 C3052.36,1307.05 3006.63,1267.23 2917.61,1186.44 C2922.1,1180.81 2926.58667,1175.18 2931.07,1169.55 C2938.13,1176 2943.56,1176.13 2951.48,1174.55 C3041.87,1061.69 3009.25,1108.86 3099.53,996.14 C3123.04,966.64 3143.42,946.98 3153.41,921.94 C3155.83,913.36 3151.53,906.8 3147.13,901.05 L3160.55,884.21 Z M893.23,468.61 C898.44,542.3 903.643333,615.943333 908.84,689.54 C955.09,670.806667 1001.45667,652.026667 1047.94,633.2 C996.29,578.25 944.72,523.386667 893.23,468.61 Z M1796.73,445.658 L1801.8,447.301 L1796.73,445.658 Z M2976.19,1062.02 L2974.69,1065.83 L2976.19,1062.02 Z" id="Фигура_1" fill="#DDDDDD"></path>
            <path d="M2022.25,2290.44 C2023.88601,2289.91412 2025.55674,2289.50312 2027.25,2289.21 C2029.11517,2288.88122 2031.0061,2288.72057 2032.9,2288.73 C2036.60523,2288.62754 2040.29558,2289.23864 2043.77,2290.53 C2046.52091,2291.59289 2048.9764,2293.30076 2050.93,2295.51 C2052.77663,2297.68926 2054.10951,2300.25592 2054.83,2303.02 C2055.62385,2306.07594 2056.01384,2309.22272 2055.99,2312.38 C2055.999,2315.90133 2055.46264,2319.40282 2054.4,2322.76 C2053.38017,2326.00842 2051.70576,2329.01351 2049.48,2331.59 C2047.15409,2334.21622 2044.2843,2336.30458 2041.07,2337.71 C2037.26527,2339.32209 2033.16105,2340.10611 2029.03,2340.01 C2026.05494,2340.0597 2023.09101,2339.63435 2020.25,2338.75 C2017.83341,2337.97729 2015.58414,2336.75597 2013.62,2335.15 C2011.69973,2333.55578 2010.10407,2331.60704 2008.92,2329.41 C2007.59923,2326.95794 2006.58815,2324.35132 2005.91,2321.65 C2005.11257,2318.52545 2004.56748,2315.34187 2004.28,2312.13 C2003.96,2308.68 2003.79,2304.98 2003.79,2301.03 C2003.79576,2297.49301 2003.97933,2293.95855 2004.34,2290.44 C2004.69744,2286.93971 2005.35655,2283.47684 2006.31,2280.09 C2007.22443,2276.83224 2008.51301,2273.69132 2010.15,2270.73 C2011.72578,2267.85793 2013.78223,2265.27722 2016.23,2263.1 C2018.7973,2260.85141 2021.76592,2259.10756 2024.98,2257.96 C2028.78683,2256.63292 2032.79922,2255.99297 2036.83,2256.07 C2038.37092,2256.0698 2039.91043,2256.16331 2041.44,2256.35 C2042.88691,2256.51941 2044.32268,2256.77317 2045.74,2257.11 C2046.87007,2257.36502 2047.97716,2257.71286 2049.05,2258.15 C2049.67704,2258.38232 2050.27449,2258.68776 2050.83,2259.06 C2051.09763,2259.26488 2051.3191,2259.52384 2051.48,2259.82 C2051.62155,2260.10164 2051.73542,2260.39635 2051.82,2260.7 C2051.90598,2261.05181 2051.96614,2261.40943 2052,2261.77 C2052.04,2262.17 2052.06,2262.67 2052.06,2263.26 C2052.06,2264.01 2052.05,2264.66 2052.03,2265.21 C2052.02892,2265.66075 2051.94766,2266.10772 2051.79,2266.53 C2051.67343,2266.82818 2051.48026,2267.09033 2051.23,2267.29 C2050.96936,2267.46992 2050.65621,2267.55788 2050.34,2267.54 C2049.70573,2267.50156 2049.08304,2267.35266 2048.5,2267.1 C2047.72,2266.81 2046.78,2266.48 2045.68,2266.13 C2044.35938,2265.71612 2043.0132,2265.38876 2041.65,2265.15 C2039.83758,2264.83356 2037.99968,2264.68626 2036.16,2264.71 C2032.72895,2264.61691 2029.33531,2265.44202 2026.33,2267.1 C2023.60799,2268.6794 2021.30375,2270.88764 2019.61,2273.54 C2017.79281,2276.415 2016.48372,2279.58117 2015.74,2282.9 C2014.88821,2286.55263 2014.40248,2290.28105 2014.29,2294.03 C2015.36,2293.4 2016.56,2292.77 2017.89,2292.14 C2019.30312,2291.47517 2020.75982,2290.9072 2022.25,2290.44 Z M2015.49,2316.29 C2015.96911,2319.36893 2016.96656,2322.3444 2018.44,2325.09 C2019.53744,2327.11325 2021.21643,2328.76089 2023.26,2329.82 C2025.37327,2330.80954 2027.68719,2331.2956 2030.02,2331.24 C2032.3793,2331.30091 2034.71756,2330.78244 2036.83,2329.73 C2038.71452,2328.75393 2040.35246,2327.36219 2041.62,2325.66 C2042.89877,2323.93538 2043.84803,2321.9894 2044.42,2319.92 C2045.01227,2317.79394 2045.31169,2315.59701 2045.31,2313.39 C2045.32962,2311.15342 2045.09138,2308.92202 2044.6,2306.74 C2044.19921,2304.8928 2043.39313,2303.15769 2042.24,2301.66 C2041.06546,2300.22524 2039.53919,2299.1193 2037.81,2298.45 C2035.6356,2297.63124 2033.3225,2297.24402 2031,2297.31 C2029.47422,2297.31249 2027.95164,2297.44969 2026.45,2297.72 C2024.96005,2297.98892 2023.49254,2298.37001 2022.06,2298.86 C2020.6723,2299.3323 2019.31905,2299.90033 2018.01,2300.56 C2016.78263,2301.17482 2015.60271,2301.8801 2014.48,2302.67 C2014.4136,2307.23092 2014.75159,2311.78876 2015.49,2316.29 L2015.49,2316.29 Z M1989.73,2337.86 C1989.5605,2338.16068 1989.31586,2338.41222 1989.02,2338.59 C1988.76782,2338.73583 1988.48131,2338.81178 1988.19,2338.81 L1946.68,2338.81 C1946.39783,2338.81428 1946.1203,2338.73796 1945.88,2338.59 C1945.59309,2338.40116 1945.3508,2338.15204 1945.17,2337.86 C1944.91672,2337.45584 1944.74042,2337.00831 1944.65,2336.54 C1944.51904,2335.87488 1944.45871,2335.19779 1944.47,2334.52 C1944.45982,2333.86542 1944.52017,2333.21165 1944.65,2332.57 C1944.7466,2332.09941 1944.90111,2331.6426 1945.11,2331.21 C1945.26773,2330.88615 1945.50094,2330.60493 1945.79,2330.39 C1946.04849,2330.2027 1946.36083,2330.10443 1946.68,2330.11 L1963.26,2330.11 L1963.26,2268.05 L1947.91,2277.45 C1947.32509,2277.7941 1946.69114,2278.047 1946.03,2278.2 C1945.63023,2278.30533 1945.20434,2278.1998 1944.9,2277.92 C1944.56052,2277.54299 1944.35336,2277.06548 1944.31,2276.56 C1944.13261,2275.15998 1944.11248,2273.7445 1944.25,2272.34 C1944.29496,2271.91069 1944.3889,2271.48794 1944.53,2271.08 C1944.64322,2270.75207 1944.81991,2270.44965 1945.05,2270.19 C1945.31419,2269.90382 1945.61318,2269.65186 1945.94,2269.44 L1964.24,2257.39 C1964.4288,2257.25179 1964.63797,2257.14383 1964.86,2257.07 C1965.1,2256.99 1965.41,2256.91 1965.78,2256.82 C1966.20496,2256.73345 1966.63652,2256.68327 1967.07,2256.67 C1967.56,2256.64 1968.17,2256.63 1968.91,2256.63 C1969.73185,2256.62453 1970.5533,2256.66794 1971.37,2256.76 C1971.89274,2256.81153 1972.40684,2256.92914 1972.9,2257.11 C1973.20652,2257.20053 1973.46958,2257.39961 1973.64,2257.67 C1973.75692,2257.89566 1973.81861,2258.14585 1973.82,2258.4 L1973.82,2330.11 L1988.19,2330.11 C1988.51806,2330.10724 1988.8391,2330.20495 1989.11,2330.39 C1989.416,2330.59463 1989.66125,2330.87788 1989.82,2331.21 C1990.02673,2331.6408 1990.1715,2332.09866 1990.25,2332.57 C1990.3584,2333.21418 1990.4086,2333.86682 1990.4,2334.52 C1990.41129,2335.19779 1990.35096,2335.87488 1990.22,2336.54 C1990.12943,2337.00369 1989.96393,2337.44953 1989.73,2337.86 L1989.73,2337.86 Z M1922.88,2328.31 C1920.77212,2331.90799 1917.75437,2334.8878 1914.13,2336.95 C1905.9592,2340.91864 1896.44327,2341.03232 1888.18,2337.26 C1884.72601,2335.39558 1881.86428,2332.59967 1879.92,2329.19 C1877.65225,2325.12318 1876.1443,2320.67728 1875.47,2316.07 C1874.53475,2310.15694 1874.09322,2304.1763 1874.15,2298.19 C1874.10775,2292.45008 1874.59987,2286.7187 1875.62,2281.07 C1876.42398,2276.3679 1878.04513,2271.84289 1880.41,2267.7 C1882.50111,2264.09927 1885.51015,2261.11783 1889.13,2259.06 C1897.3008,2255.09136 1906.81673,2254.97768 1915.08,2258.75 C1918.53399,2260.61442 1921.39572,2263.41033 1923.34,2266.82 C1925.60775,2270.88682 1927.1157,2275.33272 1927.79,2279.94 C1928.72525,2285.85306 1929.16678,2291.8337 1929.11,2297.82 C1929.15409,2303.56862 1928.67208,2309.30922 1927.67,2314.97 C1926.8811,2319.66659 1925.25891,2324.18433 1922.88,2328.31 L1922.88,2328.31 Z M1917.87,2287.6 C1917.6409,2284.7158 1917.22334,2281.84968 1916.62,2279.02 C1916.15462,2276.81033 1915.43308,2274.66248 1914.47,2272.62 C1913.68963,2270.96986 1912.61546,2269.47551 1911.3,2268.21 C1910.10282,2267.06842 1908.66883,2266.20461 1907.1,2265.68 C1905.37946,2265.13861 1903.58354,2264.8753 1901.78,2264.9 C1898.75333,2264.76127 1895.76857,2265.64929 1893.31,2267.42 C1891.02939,2269.24741 1889.26182,2271.63517 1888.18,2274.35 C1886.83964,2277.66037 1885.9809,2281.14585 1885.63,2284.7 C1885.16673,2288.93064 1884.94304,2293.1841 1884.96,2297.44 C1884.90067,2302.63519 1885.2081,2307.8281 1885.88,2312.98 C1886.29928,2316.5917 1887.28468,2320.11485 1888.8,2323.42 C1889.88273,2325.83449 1891.65318,2327.87624 1893.89,2329.29 C1896.19003,2330.5644 1898.79182,2331.19326 1901.42,2331.11 C1903.49299,2331.15423 1905.55274,2330.76951 1907.47,2329.98 C1909.18266,2329.23666 1910.7118,2328.12736 1911.95,2326.73 C1913.25978,2325.22167 1914.30762,2323.50458 1915.05,2321.65 C1915.91119,2319.53433 1916.56752,2317.34096 1917.01,2315.1 C1917.52729,2312.52964 1917.86808,2309.92689 1918.03,2307.31 C1918.21,2304.51 1918.3,2301.59667 1918.3,2298.57 C1918.3,2294.49 1918.16,2290.84 1917.87,2287.6 L1917.87,2287.6 Z M1862.14,2337.64 C1861.86377,2338.36162 1861.16241,2338.83053 1860.39,2338.81 L1816.48,2338.81 C1815.97122,2338.82094 1815.46421,2338.74657 1814.98,2338.59 C1814.55423,2338.44443 1814.17233,2338.19327 1813.87,2337.86 C1813.52231,2337.44446 1813.29111,2336.9441 1813.2,2336.41 C1813.03831,2335.64422 1812.9645,2334.86251 1812.98,2334.08 C1812.97344,2333.34207 1813.00683,2332.60432 1813.08,2331.87 C1813.1275,2331.29516 1813.26589,2330.73148 1813.49,2330.2 C1813.71039,2329.69448 1813.97474,2329.20928 1814.28,2328.75 C1814.64791,2328.20129 1815.05923,2327.68296 1815.51,2327.2 L1831.4,2310.43 C1834.56613,2307.1581 1837.51255,2303.68052 1840.22,2300.02 C1842.17655,2297.38529 1843.8934,2294.58077 1845.35,2291.64 C1846.43244,2289.45807 1847.22901,2287.14567 1847.72,2284.76 C1848.08586,2282.84801 1848.27665,2280.90664 1848.29,2278.96 C1848.30139,2277.20823 1848.00349,2275.46821 1847.41,2273.82 C1846.84072,2272.24533 1845.96751,2270.7979 1844.84,2269.56 C1843.66166,2268.30169 1842.22564,2267.3125 1840.63,2266.66 C1838.77742,2265.91827 1836.79523,2265.55447 1834.8,2265.59 C1832.44315,2265.55673 1830.09738,2265.9184 1827.86,2266.66 C1826.00403,2267.29158 1824.20161,2268.07073 1822.47,2268.99 C1820.93,2269.84 1819.64,2270.61 1818.6,2271.33 C1817.93772,2271.88396 1817.14082,2272.25308 1816.29,2272.4 C1816.00645,2272.40507 1815.72901,2272.31727 1815.5,2272.15 C1815.2369,2271.93549 1815.03939,2271.65135 1814.93,2271.33 C1814.75603,2270.83826 1814.63861,2270.32831 1814.58,2269.81 C1814.48908,2269.05681 1814.44566,2268.29864 1814.45,2267.54 C1814.44481,2266.99249 1814.46817,2266.44508 1814.52,2265.9 C1814.54939,2265.49723 1814.61975,2265.0985 1814.73,2264.71 C1814.82851,2264.37977 1814.96263,2264.06123 1815.13,2263.76 C1815.39841,2263.34531 1815.72893,2262.97432 1816.11,2262.66 C1816.91027,2261.99248 1817.76303,2261.39054 1818.66,2260.86 C1820.10894,2259.98299 1821.63133,2259.2335 1823.21,2258.62 C1825.16153,2257.84356 1827.17105,2257.22165 1829.22,2256.76 C1831.48755,2256.24839 1833.80546,2255.99346 1836.13,2256 C1839.57385,2255.93259 1843.00077,2256.49865 1846.24,2257.67 C1848.93371,2258.66487 1851.38227,2260.22677 1853.42,2262.25 C1855.31502,2264.16062 1856.772,2266.4604 1857.69,2268.99 C1858.64048,2271.61864 1859.11786,2274.39485 1859.1,2277.19 C1859.10171,2279.80113 1858.87755,2282.40751 1858.43,2284.98 C1857.86643,2287.89472 1856.90405,2290.71792 1855.57,2293.37 C1853.79209,2296.90295 1851.68617,2300.26104 1849.28,2303.4 C1845.88055,2307.84015 1842.22781,2312.08053 1838.34,2316.1 L1825.75,2329.6 L1860.33,2329.6 C1860.66792,2329.60356 1860.9977,2329.70423 1861.28,2329.89 C1861.61611,2330.09886 1861.89187,2330.39186 1862.08,2330.74 C1862.33128,2331.17826 1862.49753,2331.66004 1862.57,2332.16 C1862.6808,2332.81409 1862.73434,2333.4766 1862.73,2334.14 C1862.73334,2334.81663 1862.67982,2335.49234 1862.57,2336.16 C1862.49468,2336.6706 1862.35001,2337.16853 1862.14,2337.64 L1862.14,2337.64 Z M1766.49,2339 C1765.65817,2339.14511 1764.81418,2339.20874 1763.97,2339.19 C1763.11603,2339.20313 1762.2626,2339.13954 1761.42,2339 C1760.92019,2338.92614 1760.44625,2338.73038 1760.04,2338.43 C1759.73863,2338.13413 1759.58156,2337.72137 1759.61,2337.3 L1759.61,2331.62 C1757.33031,2334.16672 1754.59293,2336.263 1751.54,2337.8 C1748.6121,2339.26219 1745.38269,2340.01903 1742.11,2340.01 C1739.43429,2340.04548 1736.77027,2339.65044 1734.22,2338.84 C1732.00374,2338.14075 1729.95473,2336.99371 1728.2,2335.47 C1726.52009,2333.97225 1725.19762,2332.11668 1724.33,2330.04 C1723.37603,2327.72302 1722.90639,2325.2353 1722.95,2322.73 C1722.87719,2319.83818 1723.53043,2316.97423 1724.85,2314.4 C1726.14769,2312.01498 1728.02986,2309.99861 1730.32,2308.54 C1732.99349,2306.8603 1735.94711,2305.67479 1739.04,2305.04 C1742.85471,2304.22116 1746.74861,2303.82875 1750.65,2303.87 L1758.26,2303.87 L1758.26,2299.46 C1758.28892,2297.50251 1758.0637,2295.54953 1757.59,2293.65 C1757.20734,2292.09967 1756.45994,2290.66315 1755.41,2289.46 C1754.34146,2288.30675 1753.00046,2287.44026 1751.51,2286.94 C1749.60538,2286.32582 1747.61054,2286.03843 1745.61,2286.09 C1743.33717,2286.05679 1741.07214,2286.36351 1738.89,2287 C1737.09825,2287.5311 1735.35253,2288.20665 1733.67,2289.02 C1732.17,2289.75 1730.92,2290.43 1729.92,2291.04 C1729.25801,2291.5202 1728.48933,2291.83248 1727.68,2291.95 C1727.37416,2291.9593 1727.07319,2291.87181 1726.82,2291.7 C1726.54674,2291.50114 1726.32408,2291.2408 1726.17,2290.94 C1725.96908,2290.53394 1725.83405,2290.0985 1725.77,2289.65 C1725.68674,2289.0738 1725.64663,2288.49218 1725.65,2287.91 C1725.62784,2287.07432 1725.70166,2286.23885 1725.87,2285.42 C1726.04522,2284.75622 1726.40597,2284.15611 1726.91,2283.69 C1727.77235,2282.92391 1728.73442,2282.27805 1729.77,2281.77 C1731.26435,2280.96802 1732.8231,2280.29233 1734.43,2279.75 C1736.31762,2279.10505 1738.2493,2278.59706 1740.21,2278.23 C1742.29285,2277.82989 1744.40907,2277.62898 1746.53,2277.63 C1749.95888,2277.55561 1753.3779,2278.02476 1756.66,2279.02 C1759.2124,2279.80312 1761.53362,2281.20066 1763.42,2283.09 C1765.1924,2284.96857 1766.47963,2287.25126 1767.17,2289.74 C1767.98971,2292.76027 1768.3802,2295.88088 1768.33,2299.01 L1768.33,2337.3 C1768.3616,2337.73419 1768.17855,2338.15632 1767.84,2338.43 C1767.43496,2338.71258 1766.975,2338.90678 1766.49,2339 L1766.49,2339 Z M1758.26,2311.38 L1749.6,2311.38 C1747.16713,2311.34375 1744.73808,2311.58531 1742.36,2312.1 C1740.54022,2312.48522 1738.80978,2313.21132 1737.26,2314.24 C1735.98743,2315.09863 1734.96039,2316.27386 1734.28,2317.65 C1733.62026,2319.08138 1733.29536,2320.64428 1733.33,2322.22 C1733.20185,2324.84445 1734.19421,2327.39987 1736.06,2329.25 C1737.88,2331 1740.43,2331.87333 1743.71,2331.87 C1746.32287,2331.884 1748.88706,2331.16325 1751.11,2329.79 C1753.7968,2328.03399 1756.20665,2325.88703 1758.26,2323.42 L1758.26,2311.38 L1758.26,2311.38 Z M1706.86,2338.68 C1706.36863,2338.8832 1705.84949,2339.0113 1705.32,2339.06 C1704.50668,2339.1524 1703.68853,2339.19581 1702.87,2339.19 C1702.02816,2339.197 1701.18665,2339.15359 1700.35,2339.06 C1699.82051,2339.0113 1699.30137,2338.8832 1698.81,2338.68 C1698.4929,2338.55797 1698.21594,2338.35024 1698.01,2338.08 C1697.84325,2337.82866 1697.75933,2337.53144 1697.77,2337.23 L1697.77,2312.32 L1669.58,2312.32 L1669.58,2337.23 C1669.59228,2337.5331 1669.50443,2337.83181 1669.33,2338.08 C1669.13038,2338.35234 1668.85592,2338.56079 1668.54,2338.68 C1668.04863,2338.8832 1667.52949,2339.0113 1667,2339.06 C1666.16335,2339.15359 1665.32184,2339.197 1664.48,2339.19 C1663.66147,2339.19581 1662.84332,2339.1524 1662.03,2339.06 C1661.49132,2339.00828 1660.96271,2338.88033 1660.46,2338.68 C1660.13686,2338.56912 1659.85692,2338.35917 1659.66,2338.08 C1659.51233,2337.8217 1659.43961,2337.52735 1659.45,2337.23 L1659.45,2280.47 C1659.44086,2280.17278 1659.5135,2279.87876 1659.66,2279.62 C1659.86539,2279.3421 1660.14169,2279.12451 1660.46,2278.99 C1660.95815,2278.77566 1661.48898,2278.64718 1662.03,2278.61 C1662.68,2278.55 1663.5,2278.52 1664.48,2278.52 C1665.51,2278.52 1666.35,2278.55 1667,2278.61 C1667.53185,2278.64408 1668.05335,2278.77276 1668.54,2278.99 C1668.85054,2279.13281 1669.12166,2279.34903 1669.33,2279.62 C1669.50316,2279.8688 1669.59088,2280.16707 1669.58,2280.47 L1669.58,2303.55 L1697.77,2303.55 L1697.77,2280.47 C1697.76078,2280.16874 1697.84458,2279.87195 1698.01,2279.62 C1698.22466,2279.35127 1698.49843,2279.13568 1698.81,2278.99 C1699.29665,2278.77276 1699.81815,2278.64408 1700.35,2278.61 C1701,2278.55 1701.84,2278.52 1702.87,2278.52 C1703.85,2278.52 1704.67,2278.55 1705.32,2278.61 C1705.85185,2278.64408 1706.37335,2278.77276 1706.86,2278.99 C1707.17157,2279.13568 1707.44534,2279.35127 1707.66,2279.62 C1707.82542,2279.87195 1707.90922,2280.16874 1707.9,2280.47 L1707.9,2337.23 C1707.91067,2337.53144 1707.82675,2337.82866 1707.66,2338.08 C1707.45406,2338.35024 1707.1771,2338.55797 1706.86,2338.68 L1706.86,2338.68 Z M1639,2339 C1638.16806,2339.14419 1637.32415,2339.20782 1636.48,2339.19 C1635.626,2339.20399 1634.7725,2339.1404 1633.93,2339 C1633.42907,2338.93023 1632.95416,2338.73407 1632.55,2338.43 C1632.24462,2338.13677 1632.08681,2337.72206 1632.12,2337.3 L1632.12,2331.62 C1629.83672,2334.16703 1627.09601,2336.26327 1624.04,2337.8 C1621.11526,2339.26105 1617.88936,2340.01787 1614.62,2340.01 C1611.94106,2340.04466 1609.27389,2339.64965 1606.72,2338.84 C1604.50676,2338.14071 1602.46103,2336.9936 1600.71,2335.47 C1599.03009,2333.97225 1597.70762,2332.11668 1596.84,2330.04 C1595.88261,2327.72374 1595.40956,2325.236 1595.45,2322.73 C1595.38036,2319.83733 1596.03705,2316.97336 1597.36,2314.4 C1598.65685,2312.01759 1600.53506,2310.00178 1602.82,2308.54 C1605.49523,2306.86372 1608.44821,2305.67846 1611.54,2305.04 C1615.35471,2304.22116 1619.24861,2303.82875 1623.15,2303.87 L1630.77,2303.87 L1630.77,2299.46 C1630.79593,2297.50206 1630.56735,2295.54904 1630.09,2293.65 C1629.70734,2292.09967 1628.95994,2290.66315 1627.91,2289.46 C1626.84503,2288.30251 1625.50287,2287.43526 1624.01,2286.94 C1622.10901,2286.325 1620.11731,2286.03757 1618.12,2286.09 C1615.84393,2286.05754 1613.57572,2286.36424 1611.39,2287 C1609.59944,2287.53457 1607.85399,2288.21001 1606.17,2289.02 C1604.68,2289.75 1603.43,2290.43 1602.43,2291.04 C1601.76377,2291.51928 1600.99209,2291.83138 1600.18,2291.95 C1599.87456,2291.95619 1599.57452,2291.86897 1599.32,2291.7 C1599.04992,2291.50047 1598.83066,2291.2401 1598.68,2290.94 C1598.47018,2290.53755 1598.33468,2290.10055 1598.28,2289.65 C1598.09368,2288.24368 1598.12403,2286.81712 1598.37,2285.42 C1598.54522,2284.75388 1598.90997,2284.15291 1599.42,2283.69 C1600.28023,2282.9259 1601.23871,2282.28018 1602.27,2281.77 C1603.76784,2280.96809 1605.32991,2280.29242 1606.94,2279.75 C1608.82421,2279.10501 1610.75256,2278.59702 1612.71,2278.23 C1614.79629,2277.83036 1616.91578,2277.62946 1619.04,2277.63 C1622.46888,2277.55561 1625.8879,2278.02476 1629.17,2279.02 C1631.72132,2279.80555 1634.04198,2281.20275 1635.93,2283.09 C1637.69931,2284.96925 1638.98313,2287.25198 1639.67,2289.74 C1640.49826,2292.75875 1640.89222,2295.88012 1640.84,2299.01 L1640.84,2337.3 C1640.8716,2337.73419 1640.68855,2338.15632 1640.35,2338.43 C1639.94496,2338.71258 1639.485,2338.90678 1639,2339 L1639,2339 Z M1630.77,2311.38 L1622.11,2311.38 C1619.67383,2311.34379 1617.24147,2311.58535 1614.86,2312.1 C1613.04083,2312.48714 1611.31073,2313.21311 1609.76,2314.24 C1608.49021,2315.09894 1607.46649,2316.27431 1606.79,2317.65 C1606.12685,2319.08058 1605.79853,2320.6435 1605.83,2322.22 C1605.70062,2324.84659 1606.69729,2327.40374 1608.57,2329.25 C1610.39,2331 1612.93667,2331.87333 1616.21,2331.87 C1618.82305,2331.88535 1621.38761,2331.1645 1623.61,2329.79 C1626.30214,2328.03713 1628.71573,2325.88985 1630.77,2323.42 L1630.77,2311.38 L1630.77,2311.38 Z M1584.34,2320.9 C1584.3902,2323.65065 1583.82295,2326.37755 1582.68,2328.88 C1581.56902,2331.21956 1579.87895,2333.23662 1577.77,2334.74 C1575.32114,2336.44649 1572.56828,2337.66847 1569.66,2338.34 C1565.95824,2339.2131 1562.16291,2339.62622 1558.36,2339.57 C1557.01,2339.57 1555.7,2339.55 1554.43,2339.53 C1553.16,2339.51 1551.93,2339.47 1550.75,2339.41 C1549.57,2339.35 1548.38,2339.27 1547.21,2339.19 C1546.04,2339.11 1544.89,2339 1543.74,2338.87 C1542.36666,2338.78679 1541.07467,2338.19076 1540.12,2337.2 C1539.262,2336.05059 1538.84665,2334.63061 1538.95,2333.2 L1538.95,2284.32 C1538.85678,2282.90436 1539.2599,2281.5005 1540.09,2280.35 C1540.97821,2279.3578 1542.22951,2278.76641 1543.56,2278.71 C1544.62,2278.58 1545.76,2278.48 1546.97,2278.39 C1548.18,2278.3 1549.41,2278.23 1550.68,2278.17 C1551.95,2278.11 1553.26,2278.06 1554.61,2278.01 C1555.96,2277.96 1557.34,2277.95 1558.73,2277.95 C1562.19691,2277.90044 1565.65848,2278.23922 1569.05,2278.96 C1571.62422,2279.49501 1574.07828,2280.49833 1576.29,2281.92 C1578.11661,2283.10978 1579.59107,2284.76725 1580.56,2286.72 C1581.51073,2288.74918 1581.98286,2290.96955 1581.94,2293.21 C1582.2325,2299.35816 1578.10764,2304.84397 1572.12,2306.27 C1576.17,2307.15 1579.22,2308.85333 1581.27,2311.38 C1583.37923,2314.09452 1584.46603,2317.46466 1584.34,2320.9 L1584.34,2320.9 Z M1571.38,2290.82 C1570.85259,2289.67997 1570.00924,2288.71515 1568.95,2288.04 C1567.61932,2287.1986 1566.13902,2286.62142 1564.59,2286.34 C1562.45872,2285.92768 1560.29054,2285.73666 1558.12,2285.77 C1556.19,2285.77 1554.43,2285.82 1552.83,2285.93 C1551.23,2286.04 1549.89,2286.15 1548.78,2286.27 L1548.78,2303.93 L1559.1,2303.93 C1563.31,2303.93 1566.53333,2303.12333 1568.77,2301.51 C1570.99525,2299.90414 1572.2561,2297.2808 1572.12,2294.54 C1572.14091,2293.26146 1571.88862,2291.9932 1571.38,2290.82 L1571.38,2290.82 Z M1573.1,2316.64 C1572.51339,2315.34039 1571.56581,2314.23662 1570.37,2313.46 C1568.90701,2312.53111 1567.28193,2311.8865 1565.58,2311.56 C1563.30503,2311.10895 1560.98903,2310.8978 1558.67,2310.93 L1548.78,2310.93 L1548.78,2331.05 C1549.56,2331.18 1550.37,2331.27 1551.21,2331.34 C1552.05,2331.41 1552.9,2331.46 1553.79,2331.52 C1554.68,2331.58 1555.55,2331.64 1556.43,2331.68 C1557.31,2331.72 1558.12,2331.75 1558.85,2331.75 C1561.1447,2331.7879 1563.43531,2331.54272 1565.67,2331.02 C1567.35759,2330.6249 1568.95331,2329.90852 1570.37,2328.91 C1571.56712,2328.04904 1572.51017,2326.88146 1573.1,2325.53 C1573.68855,2324.12477 1573.9813,2322.61336 1573.96,2321.09 C1573.9892,2319.56272 1573.69616,2318.04643 1573.1,2316.64 L1573.1,2316.64 Z M1516.94,2331.05 C1514.54185,2333.90419 1511.51178,2336.16048 1508.09,2337.64 C1504.19988,2339.28982 1500.0046,2340.09752 1495.78,2340.01 C1491.72258,2340.09364 1487.68764,2339.38718 1483.9,2337.93 C1480.63449,2336.62348 1477.73483,2334.54397 1475.45,2331.87 C1473.10589,2329.04782 1471.39104,2325.75789 1470.42,2322.22 C1469.25795,2318.03408 1468.69899,2313.70379 1468.76,2309.36 C1468.71551,2305.04065 1469.30512,2300.73814 1470.51,2296.59 C1471.56634,2292.91201 1473.36309,2289.48865 1475.79,2286.53 C1478.17336,2283.68458 1481.19082,2281.43776 1484.6,2279.97 C1488.50758,2278.33445 1492.71495,2277.53726 1496.95,2277.63 C1501.00847,2277.54446 1505.0444,2278.25449 1508.83,2279.72 C1512.09546,2281.02186 1514.99541,2283.09816 1517.28,2285.77 C1519.6243,2288.59652 1521.34824,2291.88427 1522.34,2295.42 C1523.52,2299.58236 1524.08927,2303.89402 1524.03,2308.22 C1524.07492,2312.54149 1523.47498,2316.84552 1522.25,2320.99 C1521.17507,2324.66652 1519.369,2328.0882 1516.94,2331.05 L1516.94,2331.05 Z M1512.69,2300.21 C1512.20367,2297.66862 1511.26911,2295.23403 1509.93,2293.02 C1508.65714,2290.9634 1506.8632,2289.27985 1504.73,2288.14 C1499.67984,2285.79714 1493.86611,2285.73886 1488.77,2287.98 C1486.62615,2289.05365 1484.7839,2290.645 1483.41,2292.61 C1481.93876,2294.76395 1480.87765,2297.17093 1480.28,2299.71 C1479.57706,2302.64071 1479.23453,2305.64627 1479.26,2308.66 C1479.24308,2311.6042 1479.52452,2314.54254 1480.1,2317.43 C1480.57914,2319.96869 1481.52515,2322.39644 1482.89,2324.59 C1484.18659,2326.63007 1485.9881,2328.30069 1488.12,2329.44 C1490.6519,2330.71838 1493.46535,2331.33748 1496.3,2331.24 C1498.97622,2331.30895 1501.63112,2330.74714 1504.05,2329.6 C1506.20047,2328.53758 1508.05278,2326.95675 1509.44,2325 C1510.91464,2322.86253 1511.96687,2320.46276 1512.54,2317.93 C1513.22475,2314.97632 1513.55706,2311.9519 1513.53,2308.92 C1513.54406,2305.99579 1513.26263,2303.07763 1512.69,2300.21 L1512.69,2300.21 Z M1452.79,2338.68 C1452.3018,2338.88223 1451.78609,2339.01032 1451.26,2339.06 C1450.4433,2339.15206 1449.62185,2339.19547 1448.8,2339.19 C1447.95817,2339.19641 1447.1167,2339.153 1446.28,2339.06 C1445.7537,2339.01155 1445.23781,2338.88342 1444.75,2338.68 C1444.43137,2338.56075 1444.15369,2338.3525 1443.95,2338.08 C1443.77557,2337.83181 1443.68772,2337.5331 1443.7,2337.23 L1443.7,2312.32 L1415.51,2312.32 L1415.51,2337.23 C1415.52067,2337.53144 1415.43675,2337.82866 1415.27,2338.08 C1415.06406,2338.35024 1414.7871,2338.55797 1414.47,2338.68 C1413.97863,2338.8832 1413.45949,2339.0113 1412.93,2339.06 C1412.09667,2339.15334 1411.25851,2339.19675 1410.42,2339.19 C1409.59813,2339.19607 1408.77665,2339.15266 1407.96,2339.06 C1407.42132,2339.00828 1406.89271,2338.88033 1406.39,2338.68 C1406.06798,2338.57208 1405.79038,2338.36125 1405.6,2338.08 C1405.44437,2337.82459 1405.36782,2337.52884 1405.38,2337.23 L1405.38,2280.47 C1405.36912,2280.1713 1405.44558,2279.87591 1405.6,2279.62 C1405.79883,2279.33987 1406.07265,2279.12151 1406.39,2278.99 C1406.88815,2278.77566 1407.41898,2278.64718 1407.96,2278.61 C1408.61,2278.55 1409.43,2278.52 1410.42,2278.52 C1411.44,2278.52 1412.28,2278.55 1412.93,2278.61 C1413.46185,2278.64408 1413.98335,2278.77276 1414.47,2278.99 C1414.78157,2279.13568 1415.05534,2279.35127 1415.27,2279.62 C1415.43542,2279.87195 1415.51922,2280.16874 1415.51,2280.47 L1415.51,2303.55 L1443.7,2303.55 L1443.7,2280.47 C1443.68912,2280.16707 1443.77684,2279.8688 1443.95,2279.62 C1444.16237,2279.34897 1444.43673,2279.13291 1444.75,2278.99 C1445.23309,2278.77261 1445.75134,2278.64389 1446.28,2278.61 C1446.94,2278.55 1447.78,2278.52 1448.8,2278.52 C1449.78,2278.52 1450.6,2278.55 1451.26,2278.61 C1451.78846,2278.64521 1452.30648,2278.77387 1452.79,2278.99 C1453.10327,2279.13291 1453.37763,2279.34897 1453.59,2279.62 C1453.75865,2279.87094 1453.84594,2280.16772 1453.84,2280.47 L1453.84,2337.23 C1453.84746,2337.53249 1453.76004,2337.82972 1453.59,2338.08 C1453.38631,2338.3525 1453.10863,2338.56075 1452.79,2338.68 L1452.79,2338.68 Z M1391.65,2331.78 C1391.56115,2332.10439 1391.44057,2332.41925 1391.29,2332.72 C1391.01149,2333.15984 1390.6789,2333.56298 1390.3,2333.92 C1389.5044,2334.66694 1388.62915,2335.32422 1387.69,2335.88 C1386.37629,2336.69808 1384.99052,2337.39431 1383.55,2337.96 C1381.92469,2338.59364 1380.24872,2339.08874 1378.54,2339.44 C1376.7016,2339.82412 1374.8281,2340.01515 1372.95,2340.01 C1369.32814,2340.07472 1365.73228,2339.38688 1362.39,2337.99 C1359.37502,2336.68542 1356.72723,2334.65923 1354.68,2332.09 C1352.49335,2329.25815 1350.88607,2326.02321 1349.95,2322.57 C1348.80777,2318.32633 1348.26253,2313.94418 1348.33,2309.55 C1348.22492,2304.67153 1348.89665,2299.8074 1350.32,2295.14 C1351.4372,2291.50544 1353.3002,2288.14386 1355.79,2285.27 C1358.02709,2282.75143 1360.82601,2280.79526 1363.96,2279.56 C1367.19779,2278.3003 1370.64593,2277.66905 1374.12,2277.7 C1375.84226,2277.69797 1377.56054,2277.86545 1379.25,2278.2 C1380.80918,2278.50933 1382.33833,2278.95436 1383.82,2279.53 C1385.12459,2280.02386 1386.37186,2280.65756 1387.54,2281.42 C1388.38826,2281.94614 1389.17922,2282.55947 1389.9,2283.25 C1390.28089,2283.61336 1390.62275,2284.01555 1390.92,2284.45 C1391.11822,2284.77502 1391.27288,2285.12468 1391.38,2285.49 C1391.50727,2285.9303 1391.58772,2286.38281 1391.62,2286.84 C1391.66,2287.35 1391.69,2287.98 1391.69,2288.73 C1391.775,2289.90469 1391.58319,2291.08293 1391.13,2292.17 C1390.89937,2292.72397 1390.37817,2293.10233 1389.78,2293.15 C1388.9742,2293.05938 1388.22486,2292.69178 1387.66,2292.11 C1386.69244,2291.28464 1385.67737,2290.51666 1384.62,2289.81 C1383.22401,2288.88229 1381.73205,2288.10781 1380.17,2287.5 C1378.19717,2286.76791 1376.10381,2286.41506 1374,2286.46 C1369.50644,2286.26815 1365.24511,2288.46154 1362.79,2292.23 C1360.19,2296.08 1358.89,2301.66333 1358.89,2308.98 C1358.8459,2312.21529 1359.18492,2315.44442 1359.9,2318.6 C1360.45394,2321.06584 1361.46469,2323.40617 1362.88,2325.5 C1364.09952,2327.27299 1365.76103,2328.69666 1367.7,2329.63 C1369.75035,2330.56826 1371.98557,2331.03308 1374.24,2330.99 C1376.3463,2331.0335 1378.43923,2330.64554 1380.39,2329.85 C1381.9967,2329.18311 1383.52852,2328.34848 1384.96,2327.36 C1386.25,2326.46 1387.33,2325.64 1388.22,2324.9 C1388.77287,2324.3298 1389.48921,2323.94543 1390.27,2323.8 C1390.53862,2323.79219 1390.80115,2323.88088 1391.01,2324.05 C1391.25453,2324.28311 1391.4338,2324.57615 1391.53,2324.9 C1391.69244,2325.3928 1391.79648,2325.90295 1391.84,2326.42 C1391.9,2327.03 1391.93,2327.75 1391.93,2328.59 C1391.93,2329.31 1391.91,2329.93 1391.87,2330.45 C1391.845,2330.89999 1391.77123,2331.34593 1391.65,2331.78 L1391.65,2331.78 Z M1330.18,2331.05 C1327.78344,2333.90161 1324.75725,2336.15756 1321.34,2337.64 C1317.44608,2339.28886 1313.24775,2340.09649 1309.02,2340.01 C1304.96258,2340.09364 1300.92764,2339.38718 1297.14,2337.93 C1293.87744,2336.62327 1290.98109,2334.54366 1288.7,2331.87 C1286.34903,2329.05091 1284.63034,2325.76017 1283.66,2322.22 C1282.49795,2318.03408 1281.93899,2313.70379 1282,2309.36 C1281.95551,2305.04065 1282.54512,2300.73814 1283.75,2296.59 C1284.80634,2292.91201 1286.60309,2289.48865 1289.03,2286.53 C1291.4171,2283.68428 1294.43786,2281.43755 1297.85,2279.97 C1301.75407,2278.33442 1305.95818,2277.53721 1310.19,2277.63 C1314.24854,2277.54353 1318.28466,2278.25359 1322.07,2279.72 C1325.33685,2281.01931 1328.23738,2283.09602 1330.52,2285.77 C1332.8643,2288.59652 1334.58824,2291.88427 1335.58,2295.42 C1336.76,2299.58236 1337.32927,2303.89402 1337.27,2308.22 C1337.31492,2312.54149 1336.71498,2316.84552 1335.49,2320.99 C1334.41507,2324.66652 1332.609,2328.0882 1330.18,2331.05 L1330.18,2331.05 Z M1325.93,2300.21 C1325.45147,2297.66794 1324.52,2295.23257 1323.18,2293.02 C1321.90331,2290.96297 1320.10606,2289.27955 1317.97,2288.14 C1315.4385,2286.86051 1312.62476,2286.24135 1309.79,2286.34 C1307.10365,2286.26575 1304.4378,2286.8277 1302.01,2287.98 C1299.86807,2289.05653 1298.02646,2290.64732 1296.65,2292.61 C1295.18274,2294.76617 1294.12197,2297.17238 1293.52,2299.71 C1292.81706,2302.64071 1292.47453,2305.64627 1292.5,2308.66 C1292.48308,2311.6042 1292.76452,2314.54254 1293.34,2317.43 C1293.82364,2319.9674 1294.76933,2322.39435 1296.13,2324.59 C1297.42659,2326.63007 1299.2281,2328.30069 1301.36,2329.44 C1303.8919,2330.71838 1306.70535,2331.33748 1309.54,2331.24 C1312.21622,2331.30895 1314.87112,2330.74714 1317.29,2329.6 C1319.44227,2328.54031 1321.2952,2326.95896 1322.68,2325 C1324.15865,2322.86477 1325.21124,2320.46419 1325.78,2317.93 C1326.46475,2314.97632 1326.79706,2311.9519 1326.77,2308.92 C1326.78406,2305.99579 1326.50263,2303.07763 1325.93,2300.21 L1325.93,2300.21 Z" id="Фигура_10" fill="#DDDDDD"></path>
            <path d="M1621.77,846.2 C1800.68,843.46 1894.45,869.7 1956.48,981.73 C1968.03,1002.58 1984.94,1035.04 1976.92,1073.79 C1963.3,1104.48 1949.67333,1135.16667 1936.04,1165.85 C1920.44,1226.5 1973.77,1274.67 1951.37,1337.19 C1941.17,1365.68 1900.14,1387 1877.27,1403.68 C1848.84,1394.95 1809.82,1362.29 1764.85,1380.66 C1771.37,1385.45 1768.57,1380.33 1767.41,1388.34 C1755.72,1393.72 1752.56,1400.12 1746.97,1411.35 L1746.97,1413.91 L1749.52,1413.91 C1762.03,1404.11 1767.07,1392.97 1785.29,1388.34 C1779.68,1399.87 1775.96,1406.59 1775.07,1424.14 L1777.63,1424.14 C1777.9,1402.94 1783.47,1394.72 1795.51,1385.78 C1798.07,1386.63 1800.62,1387.48 1803.18,1388.34 C1788.56,1415.18 1801.07,1472.39 1798.07,1511.08 C1774.89,1500.65 1703.99,1542.67 1675.42,1552 C1668.76,1536.94 1575.47,1506.25 1560.44,1511.08 C1561.18,1469.33 1571.88,1414.02 1557.89,1388.34 C1560.44,1387.48 1563,1386.63 1565.55,1385.78 C1568.96,1388.34 1572.36667,1390.89667 1575.77,1393.45 C1579.18,1407.09 1582.58667,1420.73 1585.99,1434.37 C1586.41,1412.85 1582.35,1401.61 1575.77,1388.34 C1595.16,1392.25 1600.82,1408.81 1614.1,1411.35 C1613.25,1408.79 1612.4,1406.24 1611.54,1403.68 C1603.88,1396.86 1596.21667,1390.04 1588.55,1383.22 C1591.1,1381.52 1593.65333,1379.81667 1596.21,1378.11 C1538.54,1376.96 1519.82,1394.24 1481.23,1403.68 C1458.24,1384.08 1435.24667,1364.47333 1412.25,1344.86 C1385.32,1286.73 1437.32,1231.61 1425.02,1170.97 C1411.4,1139.43 1397.77333,1107.89 1384.14,1076.35 C1362.03,976.93 1460.61,892.93 1524.67,866.66 C1557.03,859.84 1589.39667,853.02 1621.77,846.2 Z M1913.05,1168.41 C1915.6,1171.82 1918.15333,1175.23 1920.71,1178.64 C1918.16,1175.23 1915.60667,1171.82 1913.05,1168.41 Z M1442.91,1178.64 L1442.91,1188.87 L1445.46,1188.87 L1442.91,1178.64 Z M1913.05,1188.87 C1901.93,1233.69 1872.14,1210.73 1836.39,1229.79 C1801.12,1248.59 1791.89,1295.66 1759.74,1316.73 C1744.84,1326.5 1717.25,1319.91 1698.42,1326.96 C1702.68,1332.08 1706.93667,1337.19333 1711.19,1342.3 C1718.01,1346.56667 1724.82333,1350.83 1731.63,1355.09 C1727.38,1350.83 1723.12333,1346.56667 1718.86,1342.3 L1721.41,1339.75 C1758.91,1359.18 1853.98,1379.41 1905.38,1344.86 C1906.23,1338.9 1907.08333,1332.93333 1907.94,1326.96 L1905.38,1326.96 C1902.41,1342.36 1897.71,1346.93 1882.39,1349.98 C1902.72,1302.1 1918.02,1273.69 1892.61,1222.11 C1905.77,1217.23 1917.63,1202.95 1913.05,1188.87 L1913.05,1188.87 Z M1445.46,1191.43 C1448.84,1211.02 1456.22,1214.72 1468.46,1224.67 C1455.6,1238.82 1451.42,1268.02 1442.91,1286.05 C1446.31,1283.49 1449.71667,1280.93 1453.13,1278.37 C1453.22,1313.27 1468,1327.19 1478.68,1349.98 C1463.81,1346.98 1460.14,1342.73 1455.68,1329.52 L1453.13,1329.52 C1454.83,1336.34 1456.53333,1343.16 1458.24,1349.98 C1476.15,1356.34 1579.83,1371.33 1601.32,1365.32 C1612.01,1362.33 1627.01,1344.96 1642.21,1339.75 L1642.21,1342.3 C1637.1,1347.42 1631.99,1352.53667 1626.88,1357.65 C1641.39,1349.79 1651.06,1340.23 1660.09,1326.96 L1660.09,1324.4 C1563.27,1325.75 1584.26,1258.66 1527.23,1229.79 C1481.1,1206.43 1477.62,1237.06 1445.46,1191.43 Z M1913.05,1280.93 C1915.6,1284.34 1918.15333,1287.75 1920.71,1291.16 C1918.16,1287.75 1915.60667,1284.34 1913.05,1280.93 Z M1670.31,1311.62 C1669.46,1314.17 1668.61,1316.72667 1667.76,1319.29 C1669.46,1317.58 1671.16,1315.88 1672.87,1314.17 C1672.02,1313.32 1671.16,1312.47 1670.31,1311.62 L1670.31,1311.62 Z M1688.2,1314.17 C1689.9,1315.88 1691.6,1317.58 1693.31,1319.29 C1691.6,1317.58 1689.9,1315.88 1688.2,1314.17 L1688.2,1314.17 Z M1731.63,1357.65 C1733.34,1359.35 1735.04,1361.06 1736.74,1362.76 C1735.04,1361.06 1733.34,1359.35 1731.63,1357.65 Z M1670.31,1360.21 C1660.09,1377.25 1649.87,1394.29667 1639.65,1411.35 L1639.65,1385.78 C1635.39,1408.79 1631.13333,1431.80333 1626.88,1454.82 L1629.43,1454.82 C1631.99,1449.71 1634.54667,1444.59667 1637.1,1439.48 C1642.11,1454.27 1648.02,1457.45 1667.76,1457.38 C1671.2,1447.26 1674.3,1444.08 1683.09,1439.48 C1688.2,1451.68 1689.65,1456.08 1703.53,1457.38 C1716.18,1452.04 1718.54,1448.72 1726.52,1439.48 C1728.23,1442.89 1729.93333,1446.3 1731.63,1449.71 C1728.23,1429.25 1724.82333,1408.79333 1721.41,1388.34 L1718.86,1388.34 L1718.86,1408.79 C1718.01,1407.09 1717.16,1405.38 1716.3,1403.68 C1706.94,1389.19 1697.57333,1374.7 1688.2,1360.21 C1684.07,1364.03 1682.79,1366.98 1677.98,1370.43 C1674.6,1360.65 1677.98,1365.12 1670.31,1360.21 L1670.31,1360.21 Z M1598.77,1380.66 C1600.47,1381.52 1602.18,1382.37 1603.88,1383.22 C1602.18,1382.37 1600.47,1381.52 1598.77,1380.66 L1598.77,1380.66 Z M1754.63,1380.66 C1757.19,1381.52 1759.74,1382.37 1762.3,1383.22 C1759.74,1382.37 1757.19,1381.52 1754.63,1380.66 Z M1606.43,1383.22 C1608.99,1384.93 1611.54667,1386.63667 1614.1,1388.34 C1611.55,1386.63 1608.99333,1384.92333 1606.43,1383.22 Z M1744.41,1385.78 C1743.56,1387.48 1742.71,1389.19 1741.85,1390.89 C1743.56,1389.19 1745.26,1387.48 1746.97,1385.78 L1744.41,1385.78 Z M1616.66,1388.34 C1618.36,1390.04 1620.06,1391.75 1621.77,1393.45 C1620.06,1391.75 1618.36,1390.04 1616.66,1388.34 Z M1731.63,1452.27 C1733.34,1455.68 1735.04333,1459.09 1736.74,1462.5 C1735.04,1459.09 1733.33667,1455.68 1731.63,1452.27 Z" id="Skull1" fill="#DDDDDD"></path>
            <path d="M2818.43,2218.08 C2817.94159,2218.78366 2817.22976,2219.30167 2816.41,2219.55 C2815.09902,2219.98227 2813.74402,2220.26735 2812.37,2220.4 C2810.11418,2220.6294 2807.84733,2220.7329 2805.58,2220.71 C2803.42255,2220.72828 2801.26579,2220.62479 2799.12,2220.4 C2797.7207,2220.26166 2796.3398,2219.97676 2795,2219.55 C2794.14972,2219.32048 2793.40669,2218.80036 2792.9,2218.08 C2792.50872,2217.42874 2792.31101,2216.67952 2792.33,2215.92 L2792.33,2157.4 L2776.98,2157.4 C2770.29,2157.4 2765.1,2157.92 2761.38,2158.94 C2757.71338,2159.94406 2754.2993,2161.70903 2751.36,2164.12 C2748.20683,2166.75039 2745.50457,2169.87825 2743.36,2173.38 C2740.67247,2177.76585 2738.39932,2182.3925 2736.57,2187.2 L2724.77,2214.38 C2724.33263,2215.53863 2723.73334,2216.62947 2722.99,2217.62 C2722.24564,2218.51525 2721.26521,2219.18388 2720.16,2219.55 C2718.64484,2220.06667 2717.06767,2220.37942 2715.47,2220.48 C2713.59,2220.63 2711.24,2220.71 2708.44,2220.71 C2706.4,2220.71 2704.59,2220.66 2703.03,2220.55 C2701.69715,2220.48182 2700.37244,2220.30118 2699.07,2220.01 C2698.15694,2219.84706 2697.31192,2219.41933 2696.64,2218.78 C2696.10502,2218.21806 2695.81697,2217.46553 2695.84,2216.69 C2695.95229,2215.49372 2696.25265,2214.32265 2696.73,2213.22 C2697.32,2211.63 2698.53,2208.82333 2700.36,2204.8 L2712,2178.71 C2714.7838,2172.46549 2718.54796,2166.70616 2723.15,2161.65 C2727.34786,2157.01524 2732.5459,2153.39712 2738.35,2151.07 C2727.89,2149.22 2719.56333,2145.23 2713.37,2139.1 C2707.17667,2132.97 2704.08,2124.86333 2704.08,2114.78 C2703.98737,2108.46319 2705.4868,2102.22474 2708.44,2096.64 C2711.51622,2091.06423 2715.93241,2086.34218 2721.29,2082.9 C2727.68686,2078.83143 2734.74167,2075.90461 2742.14,2074.25 C2751.44393,2072.12573 2760.96746,2071.1153 2770.51,2071.24 C2773.1,2071.24 2776.09,2071.29 2779.48,2071.39 C2782.87,2071.5 2786.38,2071.65 2789.99,2071.86 C2793.6,2072.07 2797.1,2072.3 2800.49,2072.55 C2803.88,2072.8 2806.82,2073.04 2809.3,2073.25 C2812.53,2073.56 2814.96,2074.69 2816.57,2076.64 C2818.22184,2078.6917 2819.08393,2081.26732 2819,2083.9 L2819,2215.92 C2819.01899,2216.67952 2818.82128,2217.42874 2818.43,2218.08 L2818.43,2218.08 Z M2792.33,2091.78 C2788.45,2091.26 2784.46333,2090.92333 2780.37,2090.77 C2776.27667,2090.61667 2772.50667,2090.54 2769.06,2090.54 C2762.89497,2090.41887 2756.73681,2091.01623 2750.71,2092.32 C2746.4749,2093.20745 2742.46182,2094.93852 2738.91,2097.41 C2736.13913,2099.38805 2733.96083,2102.08499 2732.61,2105.21 C2731.3414,2108.34753 2730.70915,2111.70595 2730.75,2115.09 C2730.69264,2118.53431 2731.43907,2121.94457 2732.93,2125.05 C2734.44816,2128.06126 2736.73544,2130.61763 2739.56,2132.46 C2743.04426,2134.68384 2746.90361,2136.25604 2750.95,2137.1 C2755.58,2138.18 2762.04667,2138.72 2770.35,2138.72 L2792.33,2138.72 L2792.33,2091.78 Z M2657.69,2220.25 C2655.49869,2220.6055 2653.27941,2220.75948 2651.06,2220.71 C2648.81764,2220.74776 2646.57616,2220.59387 2644.36,2220.25 C2643.05319,2220.08353 2641.80515,2219.60694 2640.72,2218.86 C2639.93341,2218.15814 2639.51615,2217.13161 2639.59,2216.08 L2639.59,2202.18 C2633.48891,2208.48183 2626.28283,2213.61015 2618.33,2217.31 C2610.55505,2220.90572 2602.08609,2222.75244 2593.52,2222.72 C2586.49301,2222.80407 2579.49275,2221.84015 2572.75,2219.86 C2566.97778,2218.17612 2561.59484,2215.36911 2556.91,2211.6 C2552.5543,2208.00183 2549.07331,2203.4608 2546.73,2198.32 C2544.23014,2192.6856 2542.99126,2186.57312 2543.1,2180.41 C2543.1,2172.59 2544.77,2165.79667 2548.11,2160.03 C2551.60297,2154.09742 2556.55257,2149.15471 2562.49,2145.67 C2569.59861,2141.53245 2577.35933,2138.63443 2585.44,2137.1 C2595.49735,2135.09496 2605.73526,2134.13651 2615.99,2134.24 L2636.03,2134.24 L2636.03,2123.43 C2636.10135,2118.6342 2635.50565,2113.85176 2634.26,2109.22 C2633.22534,2105.37763 2631.25302,2101.85221 2628.52,2098.96 C2625.65371,2096.09096 2622.1273,2093.96893 2618.25,2092.78 C2613.22166,2091.27484 2607.98724,2090.57287 2602.74,2090.7 C2596.7652,2090.6201 2590.80827,2091.37061 2585.04,2092.93 C2580.34344,2094.23654 2575.75074,2095.89112 2571.3,2097.88 C2567.36667,2099.68 2564.08,2101.32667 2561.44,2102.82 C2558.8,2104.31333 2556.83333,2105.06 2555.54,2105.06 C2554.74251,2105.07663 2553.95736,2104.86124 2553.28,2104.44 C2552.57279,2103.96482 2551.98983,2103.32699 2551.58,2102.58 C2551.04416,2101.5978 2550.68855,2100.52757 2550.53,2099.42 C2550.30419,2098.01483 2550.19715,2096.59314 2550.21,2095.17 C2550.15507,2093.12169 2550.34304,2091.07408 2550.77,2089.07 C2551.25443,2087.41912 2552.21018,2085.94554 2553.52,2084.83 C2555.81853,2082.94988 2558.34516,2081.36737 2561.04,2080.12 C2564.99782,2078.15467 2569.10376,2076.50294 2573.32,2075.18 C2578.29454,2073.60457 2583.3693,2072.36512 2588.51,2071.47 C2594.00585,2070.49037 2599.57753,2069.99845 2605.16,2070 C2615.61,2070 2624.5,2071.13333 2631.83,2073.4 C2639.16,2075.66667 2645.08667,2078.98667 2649.61,2083.36 C2654.21731,2087.87202 2657.60907,2093.47565 2659.47,2099.65 C2661.64169,2107.01653 2662.67693,2114.67124 2662.54,2122.35 L2662.54,2216.08 C2662.60906,2217.16543 2662.12346,2218.21193 2661.25,2218.86 C2660.16954,2219.55931 2658.95845,2220.03218 2657.69,2220.25 L2657.69,2220.25 Z M2636.03,2152.61 L2613.24,2152.61 C2606.83812,2152.52354 2600.44529,2153.12025 2594.17,2154.39 C2589.41951,2155.31539 2584.87608,2157.09414 2580.76,2159.64 C2577.45742,2161.68058 2574.75277,2164.55772 2572.92,2167.98 C2571.18993,2171.45185 2570.3286,2175.29182 2570.41,2179.17 C2570.41,2186.38 2572.80667,2192.12 2577.6,2196.39 C2582.39333,2200.66 2589.10333,2202.79667 2597.73,2202.8 C2604.55605,2202.8456 2611.27288,2201.08618 2617.2,2197.7 C2623.18,2194.3 2629.45667,2189.10333 2636.03,2182.11 L2636.03,2152.61 L2636.03,2152.61 Z M2520.22,2219.78 C2518.8988,2220.14191 2517.54594,2220.37632 2516.18,2220.48 C2514.51,2220.63 2512.39,2220.71 2509.8,2220.71 C2507.34631,2220.73222 2504.8931,2220.62875 2502.45,2220.4 C2500.89107,2220.25465 2499.34826,2219.97019 2497.84,2219.55 C2496.87258,2219.31428 2495.98119,2218.83589 2495.25,2218.16 C2494.72469,2217.61608 2494.33722,2216.9543 2494.12,2216.23 L2478.6,2180.25 C2476.90668,2176.07693 2474.82416,2172.07258 2472.38,2168.29 C2470.34952,2165.13031 2467.7445,2162.37944 2464.7,2160.18 C2461.71966,2158.08802 2458.37609,2156.56884 2454.84,2155.7 C2450.71261,2154.72338 2446.48103,2154.25657 2442.24,2154.31 L2430.92,2154.31 L2430.92,2216.85 C2430.87561,2217.45127 2430.58642,2218.00797 2430.12,2218.39 C2429.41975,2218.99011 2428.58684,2219.41514 2427.69,2219.63 C2426.31152,2219.99265 2424.90748,2220.25006 2423.49,2220.4 C2419.51405,2220.81333 2415.50595,2220.81333 2411.53,2220.4 C2410.11225,2220.25195 2408.70806,2219.99452 2407.33,2219.63 C2406.45119,2219.43067 2405.64056,2219.00293 2404.98,2218.39 C2404.54844,2217.98909 2404.28715,2217.43787 2404.25,2216.85 L2404.25,2075.72 C2404.27716,2075.1495 2404.54189,2074.61642 2404.98,2074.25 C2405.66383,2073.68796 2406.46796,2073.29103 2407.33,2073.09 C2408.70514,2072.72822 2410.11139,2072.4972 2411.53,2072.4 C2413.25,2072.24 2415.25,2072.17 2417.51,2072.17 C2419.77,2072.17 2421.76,2072.24 2423.49,2072.4 C2424.90841,2072.49893 2426.3145,2072.72993 2427.69,2073.09 C2428.57085,2073.3063 2429.39792,2073.70111 2430.12,2074.25 C2430.59211,2074.59656 2430.88534,2075.13537 2430.92,2075.72 L2430.92,2133.93 L2442.24,2133.93 C2446.02342,2133.96522 2449.79628,2133.52511 2453.47,2132.62 C2456.80949,2131.76833 2459.96029,2130.29977 2462.76,2128.29 C2465.70062,2126.15041 2468.24543,2123.51423 2470.28,2120.5 C2472.71968,2116.87459 2474.75197,2112.9911 2476.34,2108.92 L2489.92,2076.95 C2490.12073,2076.15084 2490.50798,2075.41062 2491.05,2074.79 C2491.71986,2074.08803 2492.55039,2073.55951 2493.47,2073.25 C2494.85495,2072.77386 2496.29813,2072.48791 2497.76,2072.4 C2499.54,2072.24 2501.88,2072.17 2504.79,2072.17 C2507.38,2072.17 2509.5,2072.24 2511.17,2072.4 C2512.48515,2072.48348 2513.7867,2072.71494 2515.05,2073.09 C2515.77525,2073.27453 2516.42522,2073.67989 2516.91,2074.25 C2517.2224,2074.67703 2517.3937,2075.19094 2517.4,2075.72 C2517.38895,2076.71016 2517.25117,2077.69484 2516.99,2078.65 C2516.66263,2079.85788 2516.25848,2081.04363 2515.78,2082.2 L2501.88,2112.78 C2500.03269,2117.35433 2497.6744,2121.70527 2494.85,2125.75 C2492.60776,2128.92181 2490.03315,2131.84505 2487.17,2134.47 C2484.80189,2136.63957 2482.13471,2138.4581 2479.25,2139.87 C2476.75031,2141.08727 2474.15493,2142.09733 2471.49,2142.89 L2471.49,2143.19 C2475.09768,2144.3577 2478.5893,2145.85746 2481.92,2147.67 C2485.14182,2149.45502 2488.12824,2151.63521 2490.81,2154.16 C2493.71438,2156.91828 2496.29136,2160.00194 2498.49,2163.35 C2501.03907,2167.2458 2503.25365,2171.35046 2505.11,2175.62 L2521.11,2210.83 C2521.50025,2211.46209 2521.82525,2212.1322 2522.08,2212.83 C2522.28787,2213.41016 2522.45167,2214.00519 2522.57,2214.61 C2522.67,2215.18 2522.76,2215.64 2522.81,2216 C2522.85953,2216.33111 2522.88626,2216.66523 2522.89,2217 C2522.89912,2217.58897 2522.7009,2218.1624 2522.33,2218.62 C2521.75313,2219.20189 2521.02041,2219.60471 2520.22,2219.78 L2520.22,2219.78 Z M2368.13,2202.57 C2367.8902,2203.37247 2367.56501,2204.1469 2367.16,2204.88 C2366.42506,2205.96604 2365.55472,2206.954 2364.57,2207.82 C2362.456,2209.65247 2360.15304,2211.25482 2357.7,2212.6 C2354.2251,2214.62654 2350.57346,2216.33354 2346.79,2217.7 C2342.5035,2219.25825 2338.09954,2220.4721 2333.62,2221.33 C2328.77255,2222.26371 2323.84655,2222.72919 2318.91,2222.72 C2308.46,2222.72 2299.19333,2221.07 2291.11,2217.77 C2283.28676,2214.66302 2276.32955,2209.7127 2270.83,2203.34 C2265.11782,2196.50734 2260.87919,2188.568 2258.38,2180.02 C2255.53,2170.81 2254.10333,2160.18333 2254.1,2148.14 C2254.1,2134.45 2255.85,2122.68667 2259.35,2112.85 C2262.85,2103.01333 2267.64667,2094.96 2273.74,2088.69 C2279.74883,2082.45862 2287.09803,2077.6777 2295.23,2074.71 C2303.8069,2071.62135 2312.86426,2070.08075 2321.98,2070.16 C2326.50844,2070.14981 2331.02797,2070.56159 2335.48,2071.39 C2339.57473,2072.14546 2343.60131,2073.23237 2347.52,2074.64 C2350.92476,2075.85691 2354.20073,2077.4078 2357.3,2079.27 C2359.51715,2080.55278 2361.6008,2082.05355 2363.52,2083.75 C2364.50779,2084.63285 2365.40247,2085.61465 2366.19,2086.68 C2366.71128,2087.46885 2367.11863,2088.32731 2367.4,2089.23 C2367.74665,2090.30721 2367.96483,2091.4216 2368.05,2092.55 C2368.16,2093.78 2368.21,2095.33 2368.21,2097.18 C2368.21,2101.2 2367.73,2104 2366.76,2105.6 C2366.10121,2106.98906 2364.73508,2107.90621 2363.2,2107.99 C2361.58,2107.99 2359.73,2107.14 2357.62,2105.44 C2355.06029,2103.41577 2352.38946,2101.53617 2349.62,2099.81 C2345.92466,2097.52563 2341.99984,2095.63528 2337.91,2094.17 C2332.68663,2092.36623 2327.18481,2091.50287 2321.66,2091.62 C2308.84,2091.62 2299.00667,2096.33 2292.16,2105.75 C2285.31333,2115.17 2281.89333,2128.83667 2281.9,2146.75 C2281.7799,2154.67855 2282.67723,2162.58976 2284.57,2170.29 C2286.03961,2176.38958 2288.70435,2182.13712 2292.41,2187.2 C2295.69794,2191.60581 2300.06474,2195.09098 2305.09,2197.32 C2310.53493,2199.61785 2316.40106,2200.74884 2322.31,2200.64 C2327.82443,2200.74925 2333.30909,2199.80573 2338.47,2197.86 C2342.67159,2196.22177 2346.7039,2194.17882 2350.51,2191.76 C2353.91,2189.54 2356.76,2187.54 2359.08,2185.73 C2361.4,2183.92 2363.2,2183.03 2364.49,2183.03 C2365.18798,2183.01267 2365.87143,2183.2311 2366.43,2183.65 C2367.06854,2184.20674 2367.54526,2184.92526 2367.81,2185.73 C2368.22975,2186.92863 2368.49849,2188.1749 2368.61,2189.44 C2368.79204,2191.21066 2368.8755,2192.99007 2368.86,2194.77 C2368.86,2196.52 2368.8,2198.04 2368.7,2199.32 C2368.62384,2200.42024 2368.4328,2201.5095 2368.13,2202.57 L2368.13,2202.57 Z M2207.95,2201.64 C2202.68046,2208.33407 2195.89348,2213.67795 2188.15,2217.23 C2180.29,2220.89 2171.29333,2222.72 2161.16,2222.72 C2157.13988,2222.74743 2153.12899,2222.33158 2149.2,2221.48 C2145.47296,2220.63551 2141.86293,2219.33926 2138.45,2217.62 C2134.76564,2215.75667 2131.27522,2213.53245 2128.03,2210.98 C2124.58,2208.31 2120.91667,2205.17 2117.04,2201.56 L2117.04,2271.05 C2117.05344,2271.8201 2116.82621,2272.5752 2116.39,2273.21 C2115.84972,2273.91159 2115.12155,2274.44558 2114.29,2274.75 C2112.9907,2275.23835 2111.63204,2275.55111 2110.25,2275.68 C2108.04751,2275.90685 2105.83405,2276.01035 2103.62,2275.99 C2101.46254,2276.00855 2099.30577,2275.90506 2097.16,2275.68 C2095.74991,2275.5436 2094.36245,2275.23117 2093.03,2274.75 C2092.18384,2274.47344 2091.44811,2273.9339 2090.93,2273.21 C2090.5445,2272.55675 2090.35045,2271.80826 2090.37,2271.05 L2090.37,2076.95 C2090.33705,2076.17468 2090.50225,2075.40375 2090.85,2074.71 C2091.3261,2074.03052 2092.00528,2073.51939 2092.79,2073.25 C2093.98121,2072.78449 2095.23482,2072.49804 2096.51,2072.4 C2100.19363,2072.09331 2103.89637,2072.09331 2107.58,2072.4 C2108.8285,2072.50302 2110.055,2072.78942 2111.22,2073.25 C2112.01837,2073.53486 2112.71906,2074.0413 2113.24,2074.71 C2113.63942,2075.38678 2113.83394,2076.16488 2113.8,2076.95 L2113.8,2095.64 C2117.84497,2091.64693 2122.10818,2087.88116 2126.57,2084.36 C2130.43083,2081.32222 2134.57297,2078.66013 2138.94,2076.41 C2142.99937,2074.33243 2147.28418,2072.72857 2151.71,2071.63 C2156.23248,2070.52249 2160.87395,2069.97505 2165.53,2070 C2176.08,2070 2185.07667,2071.95667 2192.52,2075.87 C2199.80147,2079.65707 2206.04362,2085.17131 2210.7,2091.93 C2215.56316,2099.12491 2219.04571,2107.16157 2220.97,2115.63 C2223.1651,2125.02052 2224.2492,2134.63645 2224.2,2144.28 C2224.33831,2155.32755 2222.95191,2166.34137 2220.08,2177.01 C2217.70392,2185.94088 2213.58114,2194.3122 2207.95,2201.64 L2207.95,2201.64 Z M2194.85,2126.6 C2193.86783,2120.42936 2191.89223,2114.45864 2189,2108.92 C2186.37893,2103.93308 2182.54869,2099.68338 2177.86,2096.56 C2173.2,2093.47 2167.4,2091.92667 2160.46,2091.93 C2156.99078,2091.92965 2153.53929,2092.42465 2150.21,2093.4 C2146.60838,2094.48757 2143.16551,2096.04426 2139.97,2098.03 C2136.07976,2100.45712 2132.4299,2103.24976 2129.07,2106.37 C2124.77521,2110.33842 2120.7559,2114.59495 2117.04,2119.11 L2117.04,2174.39 C2124.41,2182.93 2131.40333,2189.46667 2138.02,2194 C2144.09125,2198.35367 2151.35938,2200.72515 2158.83,2200.79 C2164.93031,2200.96016 2170.94831,2199.35143 2176.15,2196.16 C2180.99512,2193.04722 2185.01324,2188.80605 2187.86,2183.8 C2190.93579,2178.41129 2193.15878,2172.57889 2194.45,2166.51 C2195.8484,2160.17177 2196.55587,2153.70066 2196.56,2147.21 C2196.57619,2140.30391 2196.00412,2133.40899 2194.85,2126.6 L2194.85,2126.6 Z M2039.41,2151.53 L1943.61,2151.53 C1943.52696,2158.55522 1944.34359,2165.56217 1946.04,2172.38 C1947.49957,2178.22956 1950.27698,2183.66808 1954.16,2188.28 C1958.15948,2192.85643 1963.24043,2196.35946 1968.94,2198.47 C1975.01,2200.84 1982.42667,2202.02333 1991.19,2202.02 C1997.40137,2202.08468 2003.60419,2201.5421 2009.71,2200.4 C2014.4647,2199.48956 2019.15733,2198.2805 2023.76,2196.78 C2027.71,2195.44 2030.95667,2194.23 2033.5,2193.15 C2035.30912,2192.26441 2037.26431,2191.71546 2039.27,2191.53 C2039.98363,2191.51846 2040.68643,2191.70541 2041.3,2192.07 C2041.91872,2192.45167 2042.40155,2193.01847 2042.68,2193.69 C2043.06516,2194.65354 2043.31097,2195.66707 2043.41,2196.7 C2043.58887,2198.26347 2043.67236,2199.83638 2043.66,2201.41 C2043.66741,2202.56892 2043.61066,2203.72736 2043.49,2204.88 C2043.40106,2205.76285 2043.26756,2206.64063 2043.09,2207.51 C2042.94297,2208.24515 2042.66887,2208.94903 2042.28,2209.59 C2041.87405,2210.24238 2041.38681,2210.84051 2040.83,2211.37 C2039.19442,2212.50413 2037.42842,2213.4375 2035.57,2214.15 C2031.89914,2215.68923 2028.11867,2216.95273 2024.26,2217.93 C2019.63,2219.16 2014.27,2220.26667 2008.18,2221.25 C2001.73609,2222.25724 1995.22209,2222.7488 1988.7,2222.72 C1976.74,2222.72 1966.26,2221.12333 1957.26,2217.93 C1948.69814,2215.00854 1940.9287,2210.14494 1934.56,2203.72 C1928.16233,2197.0276 1923.40429,2188.94236 1920.66,2180.1 C1917.53,2170.63333 1915.96667,2159.61667 1915.97,2147.05 C1915.81001,2136.1266 1917.44857,2125.25132 1920.82,2114.86 C1923.73094,2105.89009 1928.49379,2097.63175 1934.8,2090.62 C1940.9265,2083.94822 1948.46236,2078.72505 1956.86,2075.33 C1966.05922,2071.66893 1975.89006,2069.85771 1985.79,2070 C1997.21,2070 2006.93667,2071.75 2014.97,2075.25 C2022.53976,2078.42698 2029.30442,2083.25449 2034.77,2089.38 C2040.01556,2095.43443 2043.89979,2102.54473 2046.16,2110.23 C2048.63271,2118.51924 2049.85945,2127.13001 2049.8,2135.78 L2049.8,2140.42 C2049.8,2144.43 2048.74333,2147.28667 2046.63,2148.99 C2044.59441,2150.65492 2042.03964,2151.55369 2039.41,2151.53 L2039.41,2151.53 Z M2013.62,2101.35 C2007.06,2093.73 1997.33,2089.92 1984.43,2089.92 C1978.43795,2089.79215 1972.49306,2091.00504 1967.03,2093.47 C1962.23572,2095.69117 1957.96557,2098.90145 1954.5,2102.89 C1951.07352,2106.92266 1948.42839,2111.55842 1946.7,2116.56 C1944.84241,2121.79987 1943.80027,2127.29386 1943.61,2132.85 L2022.97,2132.85 C2023.29,2119.47 2020.17333,2108.97 2013.62,2101.35 L2013.62,2101.35 Z M1900.86,2093.32 C1900.46198,2094.13558 1899.88003,2094.84761 1899.16,2095.4 C1898.44587,2095.88755 1897.59406,2096.13293 1896.73,2096.1 L1853.09,2096.1 L1853.09,2215.92 C1853.11603,2216.66859 1852.89073,2217.40434 1852.45,2218.01 C1851.88391,2218.66551 1851.16163,2219.16766 1850.35,2219.47 C1849.04755,2219.95933 1847.68545,2220.27211 1846.3,2220.4 C1844.10087,2220.62715 1841.89073,2220.73065 1839.68,2220.71 C1837.51922,2220.72825 1835.35913,2220.62475 1833.21,2220.4 C1831.80314,2220.26376 1830.41897,2219.95131 1829.09,2219.47 C1828.2631,2219.19753 1827.53342,2218.69022 1826.99,2218.01 C1826.59391,2217.38661 1826.39525,2216.65817 1826.42,2215.92 L1826.42,2096.1 L1782.78,2096.1 C1781.947,2096.10981 1781.13077,2095.86564 1780.44,2095.4 C1779.68808,2094.88133 1779.09863,2094.16011 1778.74,2093.32 C1778.24135,2092.15804 1777.88866,2090.93874 1777.69,2089.69 C1777.40049,2087.92852 1777.26664,2086.14496 1777.29,2084.36 C1777.27235,2082.70458 1777.40624,2081.05102 1777.69,2079.42 C1777.9031,2078.16502 1778.28314,2076.94419 1778.82,2075.79 C1779.20661,2074.94492 1779.78944,2074.20438 1780.52,2073.63 C1781.18102,2073.16598 1781.97253,2072.92433 1782.78,2072.94 L1896.73,2072.94 C1897.56449,2072.93142 1898.38261,2073.17164 1899.08,2073.63 C1899.83769,2074.17421 1900.42405,2074.92364 1900.77,2075.79 C1901.2608,2076.98242 1901.61311,2078.22723 1901.82,2079.5 C1902.10548,2081.15784 1902.24269,2082.83781 1902.23,2084.52 C1902.24783,2086.27537 1902.1409,2088.02979 1901.91,2089.77 C1901.7525,2091.00196 1901.39798,2092.20058 1900.86,2093.32 L1900.86,2093.32 Z M1764.28,2202.57 C1764.03585,2203.37091 1763.71085,2204.14489 1763.31,2204.88 C1762.57506,2205.96604 1761.70472,2206.954 1760.72,2207.82 C1758.6023,2209.6477 1756.29986,2211.24969 1753.85,2212.6 C1750.37411,2214.62464 1746.72264,2216.33156 1742.94,2217.7 C1738.6535,2219.25825 1734.24954,2220.4721 1729.77,2221.33 C1724.92248,2222.26324 1719.99653,2222.72871 1715.06,2222.72 C1704.61,2222.72 1695.34333,2221.07 1687.26,2217.77 C1679.43676,2214.66302 1672.47955,2209.7127 1666.98,2203.34 C1661.26049,2196.51228 1657.02101,2188.57134 1654.53,2180.02 C1651.67,2170.81 1650.24333,2160.18333 1650.25,2148.14 C1650.25,2134.45 1652,2122.68667 1655.5,2112.85 C1659,2103.01333 1663.79333,2094.96 1669.88,2088.69 C1675.89419,2082.46037 1683.2462,2077.67985 1691.38,2074.71 C1699.95668,2071.6205 1709.01419,2070.07988 1718.13,2070.16 C1722.6584,2070.1507 1727.17785,2070.56247 1731.63,2071.39 C1735.72444,2072.14674 1739.75092,2073.23362 1743.67,2074.64 C1747.07476,2075.85691 1750.35073,2077.4078 1753.45,2079.27 C1755.66715,2080.55278 1757.7508,2082.05355 1759.67,2083.75 C1760.65233,2084.63835 1761.54649,2085.61958 1762.34,2086.68 C1762.85734,2087.47106 1763.26442,2088.32896 1763.55,2089.23 C1763.89189,2090.30843 1764.10996,2091.42226 1764.2,2092.55 C1764.3,2093.78 1764.36,2095.33 1764.36,2097.18 C1764.36,2101.2 1763.87,2104 1762.9,2105.6 C1761.93,2107.2 1760.75,2107.99 1759.35,2107.99 C1757.73,2107.99 1755.87,2107.14 1753.77,2105.44 C1751.20855,2103.41811 1748.53785,2101.53861 1745.77,2099.81 C1742.07216,2097.52377 1738.14383,2095.63335 1734.05,2094.17 C1728.83029,2092.36538 1723.3316,2091.50198 1717.81,2091.62 C1704.98,2091.62 1695.14667,2096.33 1688.31,2105.75 C1681.47333,2115.17 1678.05333,2128.83667 1678.05,2146.75 C1677.93194,2154.67786 1678.82582,2162.58839 1680.71,2170.29 C1682.18389,2176.38808 1684.84826,2182.13482 1688.55,2187.2 C1691.84393,2191.60404 1696.21343,2195.08861 1701.24,2197.32 C1706.68171,2199.6169 1712.54438,2200.74788 1718.45,2200.64 C1723.96768,2200.7492 1729.45561,2199.8057 1734.62,2197.86 C1738.82159,2196.22177 1742.8539,2194.17882 1746.66,2191.76 C1750.05,2189.54 1752.91,2187.54 1755.23,2185.73 C1757.55,2183.92 1759.35,2183.03 1760.64,2183.03 C1761.33776,2183.01423 1762.02071,2183.23249 1762.58,2183.65 C1763.21518,2184.20771 1763.68842,2184.92621 1763.95,2185.73 C1764.37828,2186.92673 1764.65052,2188.17367 1764.76,2189.44 C1764.93317,2191.21125 1765.01328,2192.99036 1765,2194.77 C1765,2196.52 1764.95,2198.04 1764.84,2199.32 C1764.76173,2200.41924 1764.57414,2201.50795 1764.28,2202.57 L1764.28,2202.57 Z M1606.61,2220.25 C1604.41869,2220.6055 1602.19941,2220.75948 1599.98,2220.71 C1597.73432,2220.74771 1595.48952,2220.59382 1593.27,2220.25 C1591.96621,2220.0838 1590.72135,2219.60712 1589.64,2218.86 C1588.8465,2218.16236 1588.42475,2217.13389 1588.5,2216.08 L1588.5,2202.18 C1582.40061,2208.47935 1575.19828,2213.60741 1567.25,2217.31 C1559.47505,2220.90572 1551.00609,2222.75244 1542.44,2222.72 C1535.41297,2222.80479 1528.4126,2221.84085 1521.67,2219.86 C1515.89605,2218.18042 1510.51231,2215.37299 1505.83,2211.6 C1501.47141,2208.00461 1497.98987,2203.46287 1495.65,2198.32 C1493.14206,2192.68785 1491.89955,2186.5743 1492.01,2180.41 C1492.01,2172.59 1493.68,2165.79667 1497.02,2160.03 C1500.51965,2154.09921 1505.47192,2149.15727 1511.41,2145.67 C1517.65,2141.86 1525.3,2139.00333 1534.36,2137.1 C1544.41728,2135.09446 1554.65524,2134.13602 1564.91,2134.24 L1584.95,2134.24 L1584.95,2123.43 C1585.01834,2118.63372 1584.41926,2113.85124 1583.17,2109.22 C1582.13534,2105.37763 1580.16302,2101.85221 1577.43,2098.96 C1574.56589,2096.09319 1571.04329,2093.97139 1567.17,2092.78 C1562.13822,2091.27491 1556.90052,2090.57295 1551.65,2090.7 C1545.67527,2090.62142 1539.71852,2091.37191 1533.95,2092.93 C1529.25449,2094.23982 1524.66202,2095.89431 1520.21,2097.88 C1516.28,2099.68 1512.99333,2101.32667 1510.35,2102.82 C1507.70667,2104.31333 1505.74333,2105.06 1504.46,2105.06 C1503.65937,2105.07662 1502.87102,2104.8613 1502.19,2104.44 C1501.4859,2103.96422 1500.90632,2103.32634 1500.5,2102.58 C1499.95618,2101.60045 1499.59689,2100.52935 1499.44,2099.42 C1499.21916,2098.01425 1499.11214,2096.59297 1499.12,2095.17 C1499.06759,2093.12126 1499.25893,2091.07356 1499.69,2089.07 C1500.16661,2087.41554 1501.12372,2085.93985 1502.44,2084.83 C1504.73463,2082.94949 1507.25801,2081.36692 1509.95,2080.12 C1513.9086,2078.1564 1518.01439,2076.50472 1522.23,2075.18 C1527.20794,2073.60461 1532.28603,2072.36516 1537.43,2071.47 C1542.92573,2070.4895 1548.49749,2069.99757 1554.08,2070 C1564.53,2070 1573.42,2071.13333 1580.75,2073.4 C1588.08,2075.66667 1594.00333,2078.98667 1598.52,2083.36 C1603.13071,2087.86933 1606.52304,2093.47389 1608.38,2099.65 C1610.5553,2107.01596 1611.59392,2114.67072 1611.46,2122.35 L1611.46,2216.08 C1611.52546,2217.16703 1611.03619,2218.21331 1610.16,2218.86 C1609.08325,2219.55942 1607.87539,2220.03236 1606.61,2220.25 Z M1584.95,2152.61 L1562.16,2152.61 C1555.7581,2152.52303 1549.36521,2153.11975 1543.09,2154.39 C1538.33696,2155.3174 1533.7906,2157.09597 1529.67,2159.64 C1526.36742,2161.68058 1523.66277,2164.55772 1521.83,2167.98 C1520.10791,2171.45432 1519.25027,2175.29312 1519.33,2179.17 C1519.33,2186.38 1521.72667,2192.12 1526.52,2196.39 C1531.31333,2200.66 1538.02,2202.79667 1546.64,2202.8 C1553.46921,2202.84561 1560.18927,2201.08625 1566.12,2197.7 C1572.1,2194.3 1578.37667,2189.10333 1584.95,2182.11 L1584.95,2152.61 L1584.95,2152.61 Z M1449.58,2220.71 C1446.89,2220.71 1444.68,2220.65667 1442.95,2220.55 C1441.58386,2220.50813 1440.2276,2220.30335 1438.91,2219.94 C1438.10655,2219.74159 1437.39432,2219.27617 1436.89,2218.62 C1436.47292,2217.94596 1436.22583,2217.18068 1436.17,2216.39 L1425.66,2135.32 C1425.34,2132.44 1425.01,2129.35 1424.69,2126.06 C1424.37,2122.77 1424.04,2119.42 1423.72,2116.02 C1423.4,2112.62 1423.1,2109.22 1422.83,2105.83 C1422.56,2102.44 1422.27,2099.24 1421.94,2096.25 L1421.78,2092.7 C1420.81,2095.69 1419.78667,2098.83 1418.71,2102.12 C1417.63,2105.42 1416.47333,2108.76667 1415.24,2112.16 C1414.00667,2115.55333 1412.82,2118.95 1411.68,2122.35 C1410.54667,2125.75 1409.49667,2128.94 1408.53,2131.92 L1377.98,2214.22 C1377.61791,2215.31869 1377.09923,2216.3594 1376.44,2217.31 C1375.81236,2218.17018 1374.98076,2218.86089 1374.02,2219.32 C1372.79328,2219.88665 1371.48306,2220.25135 1370.14,2220.4 C1368.23501,2220.62305 1366.31793,2220.72659 1364.4,2220.71 C1362.51196,2220.72845 1360.62469,2220.62491 1358.75,2220.4 C1357.44269,2220.24661 1356.16347,2219.90998 1354.95,2219.4 C1353.97029,2218.96789 1353.10927,2218.30584 1352.44,2217.47 C1351.73797,2216.53497 1351.19408,2215.49111 1350.83,2214.38 L1321.41,2131.92 C1320.33,2129.04 1319.22667,2125.95333 1318.1,2122.66 C1316.96,2119.36 1315.82667,2115.98667 1314.7,2112.54 C1313.57,2109.1 1312.46,2105.67 1311.39,2102.28 C1310.32,2098.89 1309.39,2095.69 1308.64,2092.7 L1308.48,2096.25 C1308.15,2099.24 1307.82667,2102.43333 1307.51,2105.83 C1307.19,2109.22 1306.83,2112.62 1306.46,2116.02 C1306.09,2119.42 1305.7,2122.76 1305.33,2126.06 C1304.96,2129.36 1304.65,2132.44 1304.44,2135.32 L1294.42,2215 C1294.35913,2216.03899 1294.11186,2217.05856 1293.69,2218.01 C1293.22485,2218.84963 1292.43767,2219.46349 1291.51,2219.71 C1290.13838,2220.11706 1288.72691,2220.37522 1287.3,2220.48 C1285.58,2220.63 1283.32,2220.70667 1280.52,2220.71 C1278.38568,2220.73638 1276.25174,2220.63286 1274.13,2220.4 C1272.88437,2220.29113 1271.67522,2219.92328 1270.58,2219.32 C1269.83831,2218.89778 1269.28705,2218.20691 1269.04,2217.39 C1268.81792,2216.4496 1268.81792,2215.4704 1269.04,2214.53 L1285.04,2082.97 C1285.35135,2080.13062 1286.63778,2077.48709 1288.68,2075.49 C1290.56,2073.79 1293.38667,2072.94 1297.16,2072.94 L1309.93,2072.94 C1312.6131,2072.89993 1315.29338,2073.1311 1317.93,2073.63 C1319.96553,2074.01953 1321.8949,2074.83764 1323.59,2076.03 C1325.22217,2077.24389 1326.57296,2078.79593 1327.55,2080.58 C1328.79441,2082.87265 1329.8222,2085.2764 1330.62,2087.76 L1352.12,2146.9 C1353.3,2150.51 1354.54,2154.13 1355.84,2157.79 C1357.14,2161.45 1358.34,2165.04 1359.47,2168.6 C1360.6,2172.16 1361.68,2175.62 1362.71,2179.02 C1363.74,2182.42 1364.67,2185.66 1365.53,2188.75 L1365.86,2188.75 C1366.83,2185.56 1367.82667,2182.18667 1368.85,2178.63 C1369.87333,2175.07333 1370.97667,2171.47 1372.16,2167.82 C1373.34,2164.17 1374.55333,2160.54333 1375.8,2156.94 C1377.03,2153.34 1378.25,2149.89 1379.43,2146.59 L1400.93,2087.76 C1401.68079,2085.4437 1402.62755,2083.19557 1403.76,2081.04 C1404.69222,2079.25007 1405.98624,2077.6734 1407.56,2076.41 C1409.16681,2075.17851 1411.00753,2074.28708 1412.97,2073.79 C1415.48212,2073.17375 1418.06392,2072.888 1420.65,2072.94 L1433.26,2072.94 C1437.14,2072.94 1440.07,2073.71 1442.07,2075.25 C1444.07,2076.79 1445.22,2079.27 1445.54,2082.67 L1461.7,2214.53 C1461.81,2216.8 1461.06,2218.39 1459.44,2219.32 C1457.82,2220.25 1454.54,2220.71 1449.58,2220.71 L1449.58,2220.71 Z M1220.07,2200.79 C1213.62827,2207.85884 1205.66917,2213.37687 1196.79,2216.93 C1187.47,2220.79 1176.66667,2222.72 1164.38,2222.72 C1152.42,2222.72 1141.99667,2221.02 1133.11,2217.62 C1124.63666,2214.49887 1117.02002,2209.42111 1110.88,2202.8 C1104.77811,2195.99445 1100.2538,2187.92581 1097.63,2179.17 C1094.58529,2168.95237 1093.11509,2158.3305 1093.27,2147.67 C1093.16097,2137.07041 1094.71312,2126.51916 1097.87,2116.4 C1100.70426,2107.30016 1105.44253,2098.90763 1111.77,2091.78 C1118.18199,2084.73271 1126.11641,2079.24018 1134.97,2075.72 C1144.23,2071.91 1155.06,2070.00333 1167.46,2070 C1179.42,2070 1189.84333,2071.7 1198.73,2075.1 C1207.20334,2078.22113 1214.81998,2083.29889 1220.96,2089.92 C1227.06565,2096.73588 1231.6143,2104.79924 1234.29,2113.55 C1237.37994,2123.70461 1238.87771,2134.2767 1238.73,2144.89 C1238.83984,2155.49568 1237.26006,2166.05119 1234.05,2176.16 C1231.16141,2185.25631 1226.39912,2193.64654 1220.07,2200.79 L1220.07,2200.79 Z M1208.89,2125.28 C1207.59225,2119.01248 1205.13328,2113.04311 1201.64,2107.68 C1198.18462,2102.56924 1193.46016,2098.44438 1187.93,2095.71 C1182.17,2092.78 1174.99667,2091.31333 1166.41,2091.31 C1158.47,2091.31 1151.64667,2092.65 1145.94,2095.33 C1140.37388,2097.89384 1135.52706,2101.7926 1131.83,2106.68 C1127.98349,2111.87989 1125.18798,2117.78001 1123.6,2124.05 C1121.74511,2131.20693 1120.84067,2138.57694 1120.91,2145.97 C1120.86611,2153.1851 1121.60374,2160.38374 1123.11,2167.44 C1124.39128,2173.70261 1126.88472,2179.65427 1130.45,2184.96 C1133.95452,2190.03335 1138.69809,2194.12632 1144.23,2196.85 C1149.99,2199.79 1157.16667,2201.25667 1165.76,2201.25 C1173.58,2201.25 1180.37333,2199.91333 1186.14,2197.24 C1191.72289,2194.70426 1196.59612,2190.83383 1200.33,2185.97 C1204.17907,2180.80807 1206.95069,2174.92476 1208.48,2168.67 C1210.28746,2161.45113 1211.16788,2154.0314 1211.1,2146.59 C1211.13463,2139.42772 1210.39364,2132.28275 1208.89,2125.28 L1208.89,2125.28 Z M1079.45,2093.32 C1079.05522,2094.13765 1078.47271,2094.85037 1077.75,2095.4 C1077.0396,2095.8875 1076.19095,2096.13298 1075.33,2096.1 L1031.69,2096.1 L1031.69,2215.92 C1031.71267,2216.66969 1031.48386,2217.40541 1031.04,2218.01 C1030.47594,2218.66777 1029.75304,2219.17036 1028.94,2219.47 C1027.6407,2219.95835 1026.28204,2220.27111 1024.9,2220.4 C1022.69751,2220.62685 1020.48405,2220.73035 1018.27,2220.71 C1016.10922,2220.72825 1013.94913,2220.62475 1011.8,2220.4 C1010.39333,2220.26258 1009.0093,2219.95017 1007.68,2219.47 C1006.8531,2219.19753 1006.12342,2218.69022 1005.58,2218.01 C1005.18725,2217.38557 1004.99208,2216.65715 1005.02,2215.92 L1005.02,2096.1 L961.38,2096.1 C960.543689,2096.11121 959.723861,2095.86701 959.03,2095.4 C958.278084,2094.88133 957.688626,2094.16011 957.33,2093.32 C956.831347,2092.15804 956.478658,2090.93874 956.28,2089.69 C955.99049,2087.92852 955.85664,2086.14496 955.88,2084.36 C955.862353,2082.70458 955.996245,2081.05102 956.28,2079.42 C956.49142,2078.16337 956.87503,2076.94188 957.42,2075.79 C957.803224,2074.94565 958.382644,2074.20509 959.11,2073.63 C959.774098,2073.16458 960.569229,2072.92289 961.38,2072.94 L1075.33,2072.94 C1076.16135,2072.93153 1076.97625,2073.17182 1077.67,2073.63 C1078.42801,2074.17634 1079.0171,2074.92483 1079.37,2075.79 C1079.8608,2076.98242 1080.21311,2078.22723 1080.42,2079.5 C1080.69688,2081.15879 1080.83071,2082.8383 1080.82,2084.52 C1080.83783,2086.27537 1080.7309,2088.02979 1080.5,2089.77 C1080.3425,2091.00196 1079.98798,2092.20058 1079.45,2093.32 L1079.45,2093.32 Z M939.88,2175.93 C940.002117,2182.69539 938.503738,2189.39181 935.51,2195.46 C932.510989,2201.28197 928.056646,2206.22894 922.58,2209.82 C916.87,2213.68 909.76,2216.61333 901.25,2218.62 C891.48524,2220.76356 881.506333,2221.77689 871.51,2221.64 C867.95,2221.64 864.5,2221.61333 861.16,2221.56 C857.82,2221.50667 854.59,2221.40333 851.47,2221.25 C848.336667,2221.09 845.236667,2220.91 842.17,2220.71 C839.1,2220.5 836.06,2220.25 833.04,2219.94 C828.73,2219.42 825.55,2218.05333 823.5,2215.84 C821.46,2213.63 820.436667,2210.36333 820.43,2206.04 L820.43,2086.37 C820.43,2082.15 821.426667,2078.90667 823.42,2076.64 C825.413333,2074.37333 828.46,2073.03667 832.56,2072.63 C835.36,2072.32 838.35,2072.06333 841.53,2071.86 C844.7,2071.65 847.96,2071.47 851.31,2071.32 C854.643333,2071.16 858.09,2071.03 861.65,2070.93 C865.21,2070.83 868.81,2070.78 872.48,2070.78 C881.591479,2070.65153 890.691292,2071.47939 899.63,2073.25 C906.363553,2074.53753 912.82054,2076.99105 918.71,2080.5 C923.43175,2083.34378 927.308592,2087.39668 929.94,2092.24 C932.43224,2097.1637 933.681909,2102.62242 933.58,2108.14 C933.58,2115.97 931.396667,2122.66333 927.03,2128.22 C922.663333,2133.77667 916.223333,2137.74 907.71,2140.11 C918.38,2142.27 926.41,2146.43667 931.8,2152.61 C937.19,2158.78333 939.883333,2166.55667 939.88,2175.93 L939.88,2175.93 Z M905.77,2102.28 C904.339712,2099.44822 902.124972,2097.08768 899.39,2095.48 C895.844347,2093.41285 891.955761,2092.00036 887.91,2091.31 C882.283746,2090.30595 876.57459,2089.84051 870.86,2089.92 C865.8,2089.92 861.166667,2090.05 856.96,2090.31 C852.753333,2090.57 849.196667,2090.85333 846.29,2091.16 L846.29,2134.39 L873.45,2134.39 C884.55,2134.39 893.036667,2132.41 898.91,2128.45 C904.783333,2124.49 907.716667,2118.80333 907.71,2111.39 C907.768897,2108.2449 907.105194,2105.12823 905.77,2102.28 L905.77,2102.28 Z M910.3,2165.51 C908.70113,2162.27415 906.205233,2159.56651 903.11,2157.71 C899.217419,2155.42488 894.946422,2153.85671 890.5,2153.08 C884.505205,2151.97053 878.416089,2151.45138 872.32,2151.53 L846.29,2151.53 L846.29,2200.79 C848.34,2201.1 850.47,2201.33 852.68,2201.48 C854.89,2201.64 857.15,2201.79 859.47,2201.95 C861.79,2202.11 864.1,2202.23 866.42,2202.33 C868.74,2202.43 870.86,2202.49 872.8,2202.49 C878.828759,2202.59355 884.849132,2201.99621 890.74,2200.71 C895.147264,2199.76549 899.341382,2198.01257 903.11,2195.54 C906.209371,2193.48735 908.694193,2190.63274 910.3,2187.28 C911.846309,2183.86079 912.618036,2180.14216 912.56,2176.39 C912.638219,2172.63918 911.865541,2168.91938 910.3,2165.51 L910.3,2165.51 Z M766.61,2220.25 C764.418687,2220.6055 762.199411,2220.75948 759.98,2220.71 C757.737642,2220.74776 755.496157,2220.59387 753.28,2220.25 C751.972706,2220.08547 750.724215,2219.60871 749.64,2218.86 C748.849549,2218.16087 748.431479,2217.13235 748.51,2216.08 L748.51,2202.18 C742.406958,2208.47956 735.201318,2213.60756 727.25,2217.31 C719.476045,2220.9055 711.008103,2222.75222 702.443,2222.72 C695.416309,2222.80459 688.416298,2221.84065 681.674,2219.86 C675.90056,2218.17917 670.517047,2215.37185 665.834,2211.6 C661.474526,2208.00474 657.991972,2203.46303 655.651,2198.32 C653.146879,2192.68673 651.905523,2186.57381 652.014,2180.41 C652.014,2172.59 653.684333,2165.79667 657.025,2160.03 C660.522175,2154.09898 665.472908,2149.15685 671.41,2145.67 C678.519016,2141.53179 686.28051,2138.63375 694.362,2137.1 C704.418652,2135.0948 714.655912,2134.13636 724.91,2134.24 L744.95,2134.24 L744.95,2123.43 C745.023315,2118.63344 744.424157,2113.85027 743.17,2109.22 C742.14289,2105.37673 740.173457,2101.85031 737.44,2098.96 C734.572093,2096.09302 731.046235,2093.97133 727.17,2092.78 C722.140312,2091.27474 716.90456,2090.57277 711.656,2090.7 C705.681231,2090.62063 699.72437,2091.37113 693.956,2092.93 C689.259975,2094.23719 684.667648,2095.89175 680.217,2097.88 C676.283667,2099.68 672.997,2101.32667 670.357,2102.82 C667.717,2104.31333 665.750333,2105.06 664.457,2105.06 C663.658618,2105.07624 662.87262,2104.8609 662.194,2104.44 C661.486379,2103.96529 660.903314,2103.32735 660.494,2102.58 C659.953423,2101.59978 659.597197,2100.52873 659.443,2099.42 C659.217603,2098.01475 659.109563,2096.59317 659.12,2095.17 C659.067085,2093.12145 659.257076,2091.07384 659.686,2089.07 C660.166108,2087.41789 661.121392,2085.9434 662.433,2084.83 C664.7298,2082.94949 667.255161,2081.36694 669.949,2080.12 C673.90837,2078.15505 678.015604,2076.50333 682.233,2075.18 C687.208773,2073.60413 692.284893,2072.36466 697.427,2071.47 C702.92212,2070.48998 708.493173,2069.99806 714.075,2070 C724.523667,2070 733.413333,2071.13333 740.744,2073.4 C748.074667,2075.66667 754.001333,2078.98667 758.524,2083.36 C763.127964,2087.87467 766.519174,2093.47739 768.384,2099.65 C770.550813,2107.01757 771.585952,2114.67154 771.454,2122.35 L771.454,2216.08 C771.523061,2217.16543 771.037456,2218.21193 770.164,2218.86 C769.085343,2219.55856 767.876371,2220.0314 766.61,2220.25 L766.61,2220.25 Z M744.95,2152.61 L722.16,2152.61 C715.758123,2152.52354 709.365288,2153.12025 703.09,2154.39 C698.337967,2155.31655 693.792768,2157.09519 689.674,2159.64 C686.37263,2161.68176 683.668578,2164.55863 681.835,2167.98 C680.112048,2171.45402 679.254359,2175.29303 679.335,2179.17 C679.335,2186.38 681.732333,2192.12 686.527,2196.39 C691.321667,2200.66 698.029667,2202.79667 706.651,2202.8 C713.478395,2202.84626 720.196686,2201.08682 726.125,2197.7 C732.105,2194.3 738.381667,2189.10333 744.955,2182.11 L744.955,2152.61 L744.95,2152.61 Z" id="Фигура_3" fill="#DDDDDD"></path>
            <path d="M1932.2,1954.74 C1928.49,1956.27333 1924.77667,1957.80333 1921.06,1959.33 C1910.86,1944.77 1900.65333,1930.21 1890.44,1915.65 C1868.96,1920.36 1851.83,1929.01 1845.75,1955.02 C1855.85,1968.31 1865.95,1981.60333 1876.05,1994.9 C1870.37,1995.93 1864.69333,1996.96 1859.02,1997.99 C1779.89,1968.87 1824.64,1935.12 1785.02,1896.25 C1692.01,1819.37 1598.99,1742.48667 1505.96,1665.6 C1485.84,1662.54 1465.72,1659.48333 1445.6,1656.43 C1401.72,1635.8 1406.6,1578.08 1417.46,1551.5 C1432.6,1571.44 1447.74667,1591.38333 1462.9,1611.33 C1470.44,1609.53 1477.97667,1607.73333 1485.51,1605.94 C1499.6,1601.6 1513.85,1582.83 1516.99,1569.4 C1504.49,1550.55 1491.99333,1531.69333 1479.5,1512.83 C1483.91,1511.89 1488.31333,1510.95 1492.71,1510.01 C1580.67,1543.92 1543.25,1582.7 1579.79,1629.93 C1663.19,1706.84 1746.60333,1783.75333 1830.03,1860.67 L1904.56,1878.4 C1933.99,1895.97 1930.94,1933.62 1932.2,1954.74 Z M1874,1880.52 C1857.74,1880.59 1822.5,1892.5 1815.45,1915.13 C1835.72,1893.81 1853.82,1890.27 1874,1880.52 Z M1765.08,1865.19 C1698.89,1809.99 1632.69667,1754.78333 1566.5,1699.57 C1610.71,1737.89 1722.25,1850.36 1765.08,1865.19 Z M1787.17,1831.21 C1748.42,1792.43 1646.46,1692.89 1600.61,1668.33 C1663.8,1721.43 1725.49,1776.33 1787.17,1831.21 Z M1551.43,1612.81 C1553.07,1609.52 1554.71,1606.22667 1556.35,1602.93 L1554.28,1601.16 C1525.23,1637.14 1503.97,1644.31 1474.1,1652.54 C1500.58,1654.32 1527.54,1640.93 1551.43,1612.81 Z" id="Фигура_2" fill="#DDDDDD"></path>
            <path d="M1820.9,1773.91 C1816.68,1768.81 1812.46333,1763.70333 1808.25,1758.59 C1820.8,1747.26 1833.35,1735.93333 1845.9,1724.61 C1836.96,1726.11 1824.73,1706.47 1809.53,1685.84 C1691.9,1769.97 1592.52,1828.3 1590.36,1935.07 C1571.42,1952.67 1554.44,1969.62 1536.87,1960.48 C1538.64,1959.08 1540.40667,1957.68333 1542.17,1956.29 C1547.66,1950.55 1553.14333,1944.81 1558.62,1939.07 C1545.94,1938.48 1541.53,1940.9 1533.2,1950.72 C1535.22,1916.14 1557.33,1905.78 1523.93,1865.21 C1496.08,1853.26 1485.33,1862.68 1456.77,1863.44 C1456.95,1861.89 1457.13,1860.34 1457.32,1858.79 C1469.23,1849.14 1472.13,1846.24 1474.3,1836.92 C1465.65,1842.36 1456.99667,1847.79667 1448.34,1853.23 C1445.53,1849.82 1442.72,1846.41333 1439.91,1843.01 C1454.04,1831.84 1468.17667,1820.66667 1482.32,1809.49 L1487.08,1809.94 C1512.63,1810.84 1538.18667,1811.73333 1563.75,1812.62 C1630.88,1793.18 1721.91,1699.9 1780.02,1650.09 C1761.47,1628.42 1746.63,1615.5 1746.83,1604.59 C1733.58,1615.05667 1720.32667,1625.53333 1707.07,1636.02 C1702.86,1630.91 1698.64667,1625.80333 1694.43,1620.7 C1721.64,1597.73 1791.62,1529.31 1817.37,1536.16 C1831.45,1546.13 1845.52333,1556.10333 1859.59,1566.08 C1840.59,1547.1 1810.2,1522.41 1824.18,1517.86 C1841.89,1532.25 1857.37,1543.93 1872.85,1555.6 L1832.25,1511.73 C1836.31,1511.34 1840.36667,1510.94667 1844.42,1510.55 C1858.31,1522.08 1872.20333,1533.60667 1886.1,1545.13 C1872.57,1530.5 1859.04,1515.87667 1845.51,1501.26 C1850.63,1498.61 1855.75,1495.96667 1860.87,1493.33 C1885.86,1514.54 1941.03,1554.92 1952.59,1593.84 C1951.71,1594.54 1950.83,1595.24 1949.94,1595.93 C1932.2,1576.21 1914.45333,1556.48 1896.7,1536.74 C1929.05,1573.74 1976.56,1610.18 1978.37,1640.98 C1979.77,1642.69 1981.18,1644.39 1982.58,1646.09 C1979.05,1648.88 1975.51667,1651.67333 1971.98,1654.47 C1959.34,1639.15 1946.69333,1623.83 1934.04,1608.51 C1941.93,1623.37 1954.03,1643.34 1961.92,1658.2 C1960.25413,1659.72269 1958.48308,1661.12617 1956.62,1662.4 C1946.79,1650.48 1930.62,1630.9 1920.79,1618.98 C1930.08,1635.55 1939.37333,1652.11667 1948.67,1668.68 C1946.02,1670.78 1943.37,1672.87667 1940.72,1674.97 C1933.37,1659.68 1922.26,1635.37 1905.43,1626.91 C1923.22,1648.07 1929.44,1664.52 1934.87,1683.81 C1896.89,1713.84 1858.9,1743.87333 1820.9,1773.91 Z M1900.31,1567.65 C1905.95592,1575.8449 1912.30312,1583.53381 1919.28,1590.63 C1914.58,1583.96 1905.69,1572.82 1900.31,1567.65 L1900.31,1567.65 Z M1869.65,1562.35 C1875.49908,1570.39225 1881.83774,1578.06676 1888.63,1585.33 C1883.81727,1576.53609 1877.3762,1568.73757 1869.65,1562.35 L1869.65,1562.35 Z M1899.17,1598.1 C1902.85653,1606.29853 1908.67985,1613.3549 1916.03,1618.53 L1899.17,1598.1 Z M1885.91,1608.57 C1886.43,1610.98 1886.96,1613.38 1887.48,1615.78 C1886.96,1613.38 1886.43,1610.98 1885.91,1608.57 L1885.91,1608.57 Z M1863.21,1596.99 C1853.97,1595.28 1854.49,1593.61 1844.17,1595.15 C1835,1598.19 1825.82333,1601.22667 1816.64,1604.26 C1813.27,1612.55 1809.89667,1620.84333 1806.52,1629.14 C1811.08,1638.2 1815.63667,1647.25667 1820.19,1656.31 C1837.2,1663.81 1844.68,1664.33 1863.02,1660.44 C1878.09,1646.42 1882.37,1637.76 1879.53,1622.06 C1874.09,1613.71 1868.65,1605.35333 1863.21,1596.99 L1863.21,1596.99 Z M1860.01,1603.73 C1873.01,1620.21 1874.13,1625.37 1867.84,1639.74 C1862.54,1643.93 1857.24,1648.12333 1851.94,1652.32 C1845.40667,1653.26 1838.88,1654.19667 1832.36,1655.13 C1816.9,1636.37 1818.57,1631.77 1817.67,1616.11 C1818.55,1615.41 1819.43,1614.71 1820.32,1614.01 C1828.09,1609.27667 1835.86,1604.54 1843.63,1599.8 L1860.01,1603.73 Z M1869.22,1710.4 L1855.42,1725.52 L1869.22,1710.4 Z M1763.28,1587.37 L1749.48,1602.49 L1763.28,1587.37 Z M1790.55,1662.86 C1756.69,1693.48 1628.12,1784.5 1617.18,1808.37 C1619.47,1809.37 1621.76,1810.37333 1624.05,1811.38 C1682.36,1765.28 1740.67333,1719.18 1798.99,1673.08 C1796.18,1669.67 1793.36667,1666.26333 1790.55,1662.86 L1790.55,1662.86 Z M1543.03,1845.89 C1550.06,1854.4 1557.08667,1862.91333 1564.11,1871.43 C1557.08,1862.91 1550.05333,1854.39667 1543.03,1845.89 L1543.03,1845.89 Z M1529.84,1835.22 C1522.79,1833.75333 1515.74333,1832.29 1508.7,1830.83 C1517.15,1833.99 1525.60333,1837.15333 1534.06,1840.32 C1532.65,1838.62 1531.25,1836.92 1529.84,1835.22 L1529.84,1835.22 Z M1567.78,1881.18 C1569.17,1889.93 1570.55667,1898.68333 1571.94,1907.44 C1570.55,1898.69 1569.16333,1889.93667 1567.78,1881.18 L1567.78,1881.18 Z M1542.65,1972.79 C1471.18,2034.44 1376.73,1972.98 1400.09,1895.59 C1402.56,1895.05 1405.03,1894.5 1407.5,1893.96 L1408.52,1905.81 C1407.32,1895.51 1406.11667,1885.20667 1404.91,1874.9 C1415.69,1864.96667 1426.47333,1855.03667 1437.26,1845.11 C1439.37,1847.66 1441.47667,1850.21333 1443.58,1852.77 C1444.1,1855.17 1444.63,1857.57 1445.15,1859.97 C1440.55,1865.01 1435.95,1870.05333 1431.35,1875.1 C1444.23,1872.51 1445.96,1871.09 1452.01,1862.98 C1451.43,1885.83 1434.45,1898.16 1440.2,1922.96 C1461.87,1974.53 1494.2,1951.95 1527.9,1954.91 C1518.9,1960.52 1514.24,1960.68 1511.45,1972.14 C1514.62,1972.44 1517.8,1972.75 1520.97,1973.05 L1532.11,1960.02 C1535.63,1964.28 1539.14333,1968.53667 1542.65,1972.79 L1542.65,1972.79 Z M1483.38,1985.89 C1447.28,1983.49 1417.68,1942.57 1410.63,1908.36 C1409.38,1912.16 1408.13333,1915.96 1406.89,1919.76 C1421.11,1946.73 1444.06,1983.96 1473.32,1989.62 C1476.68,1988.38 1480.03333,1987.13667 1483.38,1985.89 L1483.38,1985.89 Z" id="Фигура_4" fill="#DDDDDD"></path>
            <path d="M787.69,1384 C804.95,1417.66 833.14,1484.18 843.92,1530.03 C885.71,1527.64 959.28,1532.74 1007,1541.26 C976.67,1572.6 896.22,1618.17 883.29,1631.12 C897.01,1684.2 929.56,1791.64 922.65,1794 C909.36,1792.45 802.06,1708.88 793.03,1709.73 C785.65,1710.42 661.806,1788.9 652.73,1782.77 C644.988,1779.05 694.316,1647.58 697.717,1631.12 C681.547,1615.69 603.749,1554.97 574.003,1530.03 C612.484,1530.03 685.389,1526.47 731.453,1524.41 C750.201,1477.61 768.946667,1430.80667 787.69,1384 Z" id="Фигура_5" fill="#DDDDDD"></path>
            <path d="M2653.64,1384 C2671.22,1418.31 2699.92,1486.14 2710.91,1532.88 C2753.47,1530.44 2828.4,1535.64 2877,1544.33 C2846.11,1576.28 2764.18,1622.74 2751,1635.95 C2764.98,1690.05 2798.12,1799.59 2791.09,1802 C2777.55,1800.42 2668.27,1715.22 2659.07,1716.09 C2651.56,1716.79 2525.43,1796.8 2516.18,1790.55 C2508.3,1786.76 2558.54,1652.72 2562,1635.95 C2545.53,1620.21 2466.3,1558.3 2436,1532.88 C2475.19,1532.88 2549.44,1529.25 2596.36,1527.15 C2615.45333,1479.44 2634.54667,1431.72333 2653.64,1384 Z" id="Фигура_6" fill="#DDDDDD"></path>
            <path d="M802.99,1091.97 C896.55,1121.68 1010.2,1076.76 1117.94,1091.74 C1154.84,1096.87 1190.83,1072.37 1231.24,1086.45 C1307.61,1113.05 1319.77,1216.7 1366,1293.17 L1366,1296.51 C1318.55,1283.58 1320.96,1208.11 1285.59,1185.13 C1287.87,1193.64 1290.15667,1202.16667 1292.45,1210.71 L1290.11,1210.83 C1256.59,1198.12 1211.65,1217.95 1182.04,1229.13 C1076.95,1268.79 951.03,1327.04 883.27,1249.77 C1015.12,1243.25 1159.58,1141.2 1287.94,1181.76 C1285.63,1178.66 1283.32333,1175.56333 1281.02,1172.47 C1262.8,1136.49 1161.11,1133.61 1114.68,1147.77 C998.4,1183.25 839.8,1189.72 802.99,1091.97 Z M1257.48,1218.97 C1283.61,1216.85 1295.81,1225.85 1306.37,1245.96 C1306.37,1247.05 1306.36,1248.15 1306.36,1249.24 C1197.63,1266.82 1055.03,1439.21 970.17,1360.52 C1032.55,1345.49 1101.31,1297.43 1156.8,1265.44 C1190.03,1250.1 1223.59,1234.61 1257.48,1218.97 Z M1285.15,1256.72 C1304.94,1256.54 1312.02,1264.24 1325.24,1271.48 C1325.23,1273.68 1325.22,1275.89 1325.22,1278.09 C1223.97,1306.42 1171.29,1471.6 1056.12,1435.18 C1069.44,1427.48 1082.81333,1419.75333 1096.24,1412 C1156.28,1365.52 1224.49,1312.51 1285.15,1256.72 Z M1313.29,1288.46 C1326.01,1287.96 1335.18,1289.74 1341.9,1297.36 C1340.3,1297.42 1338.7,1297.48 1337.11,1297.53 C1318.74,1314.77 1300.44333,1331.94 1282.22,1349.04 C1251.9,1381.91 1222.83,1456.14 1185.49,1473.37 C1169.41,1475.66 1153.41,1477.93333 1137.49,1480.19 L1137.55,1476.89 C1187.06,1404.44 1255.2,1351.57 1313.29,1288.46 L1313.29,1288.46 Z M1337.09,1304.18 C1342.69,1305.1 1348.3,1306.02 1353.92,1306.94 C1352.31,1310.33 1350.69667,1313.72333 1349.08,1317.12 C1289.08,1357.13 1286.69,1486.03 1208.28,1500 C1216.17,1487.71 1224.07,1475.41333 1231.98,1463.11 C1252.02,1403.25 1303.05,1348.2 1337.09,1304.18 L1337.09,1304.18 Z" id="Фигура_7" fill="#DDDDDD"></path>
            <path d="M2546.01,1101.94 C2452.45,1131.65 2338.8,1086.73 2231.06,1101.71 C2194.16,1106.84 2158.17,1082.34 2117.76,1096.42 C2041.39,1123.02 2029.23,1226.68 1983,1303.15 L1983,1306.49 C2030.45,1293.56 2028.04,1218.09 2063.41,1195.1 C2061.13,1203.61 2058.84333,1212.14 2056.55,1220.69 L2058.89,1220.81 C2092.41,1208.1 2137.34,1227.93 2166.96,1239.1 C2272.04,1278.77 2397.97,1337.03 2465.73,1259.75 C2333.88,1253.23 2189.42,1151.17 2061.05,1191.74 C2063.37,1188.63 2065.68,1185.53 2067.98,1182.44 C2086.2,1146.47 2187.89,1143.58 2234.32,1157.75 C2350.6,1193.23 2509.2,1199.7 2546.01,1101.94 Z M2091.52,1228.94 C2065.39,1226.83 2053.19,1235.83 2042.63,1255.94 C2042.63,1257.03 2042.64,1258.13 2042.64,1259.22 C2151.36,1276.81 2293.97,1449.2 2378.83,1370.51 C2316.45,1355.47 2247.69,1307.42 2192.2,1275.42 C2158.97,1260.09 2125.41,1244.59667 2091.52,1228.94 L2091.52,1228.94 Z M2063.85,1266.7 C2044.06,1266.53 2036.98,1274.22 2023.76,1281.46 C2023.77,1283.67 2023.77667,1285.87333 2023.78,1288.07 C2125.03,1316.4 2177.71,1481.6 2292.88,1445.17 C2279.56,1437.48 2266.18667,1429.75667 2252.76,1422 C2192.72,1375.51 2124.51,1322.5 2063.85,1266.7 L2063.85,1266.7 Z M2035.71,1298.44 C2022.99,1297.95 2013.82,1299.72 2007.1,1307.35 C2008.7,1307.4 2010.3,1307.46 2011.89,1307.52 C2030.26,1324.75 2048.55667,1341.92 2066.78,1359.03 C2097.1,1391.91 2126.17,1466.14 2163.51,1483.37 C2179.59,1485.65 2195.59,1487.92333 2211.51,1490.19 L2211.45,1486.89 C2161.94,1414.44 2093.8,1361.55 2035.71,1298.44 L2035.71,1298.44 Z M2011.91,1314.17 C2006.31,1315.09 2000.7,1316.01 1995.08,1316.93 C1996.69,1320.32 1998.30333,1323.71 1999.92,1327.1 C2059.92,1367.12 2062.31,1496.03 2140.72,1510 C2132.83,1497.71 2124.92667,1485.41 2117.01,1473.1 C2096.98,1413.25 2045.95,1358.19 2011.91,1314.17 L2011.91,1314.17 Z" id="Фигура_7_копия" fill="#DDDDDD"></path>
            <path d="M1988,18 C1806.29,2.014 1319.71,-23.65 1185,54 C1050.29,131.65 992.92,245.454 719,262 C334.8,285.206 24.95,501.64 13,729 C-2.808,1029.76 -16.78,1550.54 56,1592 C128.78,1633.46 319.635,1703.53 391,1826 C523.56,2053.49 436.287,2381.05 621.574,2392.72 C774.92,2402.38 2705.22,2399.89 2790,2396 M1458,18 C1639.71,2.014 2122.29,-23.65 2257,54 C2391.71,131.65 2449.08,245.454 2723,262 C3107.2,285.206 3417.05,501.64 3429,729 C3444.81,1029.76 3458.78,1550.54 3386,1592 C3313.22,1633.46 3122.36,1703.53 3051,1826 C2918.44,2053.49 2965.28,2410.78 2780,2399 C2646.21,2390.49 755.62,2394.45 664.042,2394.83" id="Фигура_8_копия" stroke="#DDDDDD" stroke-width="30"></path>
        </g>
    </g>
</svg>