<svg xmlns="http://www.w3.org/2000/svg" width="4096" height="4096" viewBox="0 0 4096 4096">
  <metadata><?xpacket begin="﻿" id="W5M0MpCehiHzreSzNTczkc9d"?>
<x:xmpmeta xmlns:x="adobe:ns:meta/" x:xmptk="Adobe XMP Core 5.6-c138 79.159824, 2016/09/14-01:09:01        ">
   <rdf:RDF xmlns:rdf="http://www.w3.org/1999/02/22-rdf-syntax-ns#">
      <rdf:Description rdf:about=""/>
   </rdf:RDF>
</x:xmpmeta>
                                                                                                    
                                                                                                    
                                                                                                    
                                                                                                    
                                                                                                    
                                                                                                    
                                                                                                    
                                                                                                    
                                                                                                    
                                                                                                    
                                                                                                    
                                                                                                    
                                                                                                    
                                                                                                    
                                                                                                    
                                                                                                    
                                                                                                    
                                                                                                    
                                                                                                    
                                                                                                    
                           
<?xpacket end="w"?></metadata>
<defs>
    <style>
      .cls-1 {
        stroke: #000;
        stroke-width: 20px;
      }

      .cls-1, .cls-2, .cls-3 {
        fill-rule: evenodd;
      }

      .cls-3 {
        fill: none;
        stroke: #000005;
        stroke-width: 50px;
      }
    </style>
  </defs>
  <path id="Фигура_1" data-name="Фигура 1" class="cls-1" d="M1005.09,1307.52q-48.865,30.885-97.57,61.67c-9.089,11.06,6.429,22.3-9.309,32.34q-36.956-58.95-73.9-117.88,5.328-3.285,10.657-6.58c7.908,11.43,16.217,19.18,24.795,20.24,15.936,1.98,38.478-18.38,53.9-27.88q62.8-38.715,125.893-77.59,4.44,7.08,8.89,14.16c-4.68,3.18-6.65,5.45-7.37,9.89-0.75,10.38,63.63,115.95,76.43,126.09q9.12,1.545,18.25,3.11,4.455,7.08,8.9,14.17-8.235,29.07-16.46,58.12c-8.6,32.52-27.26,58.17-44.87,85.96q-26.13,28.29-52.2,56.53c-4.02,4.22-28.01,20.68-25.85,21-5.375,6.05-31.058,15.94-30.806,15.15-26.354,6.76-41.114,26.26-65.808,27.57-116.081,6.15-175.868-5.2-278.242-112.52-35.16-36.86-67.682-121.33-73.335-148.95-23.328-113.95-16.776-223.28,94.053-292.65q25.041-15.675,50.13-31.38c31.732-8.79,61.758-22.14,93.47-22.78,26.307-.53,60.772,11.79,85.206,2.18,2.265-6.96,3.052-12.03,4.429-18.849l13.775,0.348c0.806,1.281,1.613,2.571,2.42,3.851q5.547,67.155,11.088,134.21-7.773-.54-15.543-1.07c-11.451-32.6-35.615-31.21-57.645-33.75-49.74-5.74-120.871,6.28-167.344,52.56-57.489,57.26-70.127,122.46-37.766,216.7,9.04,26.32,33.347,66.11,52.55,86.04,27.086,28.12,43.348,48.35,69.92,64.88,2.367,1.47,7.4.87,6.889,4.61,18.1,7.26,36.419,16.52,54.714,21.34,59.743,15.71,150.851-22.06,186.035-79.86,18.66-30.66,44.27-53.51,45.99-90.27Q1027.265,1342.875,1005.09,1307.52Zm995.26-684.785c44.38-.362,92.31-4.6,126.48,12.744,14.31,7.266,52.99,35.93,68.26,31.939,9.39-2.456,10.48-13.682,19.28-15.943q4.62,4.792,9.23,9.588-22.095,70.22-44.16,140.377-4.605-4.809-9.21-9.618-0.555-11.97-1.13-23.94c-22.86-68.194-167.06-77.039-212.61-38.886-17.77,14.879-58.18,45.632-46.81,101.3,16.1,78.875,92.61,40.79,150.4,56.532l50.67,3.54c55.26,16.419,101.34,38.633,122.67,111.232,15.22,51.79,5.19,124.52-9.43,159.93-63.64,154.19-236.88,107.58-258.2,104.53-23.18-11.51-51.43-19.83-70.57-39.3-1.78-1.81-5.13-6.73-7.04-3.28-7.01-7.9-21.56-26.53-34.18-22.75-7.13,2.14-8.84,11.67-15.96,14.03q-3.525-3.225-7.03-6.45c0.84-11.46,38.29-141.08,45.51-142.06q4.035,4.8,8.06,9.61c-18.93,127.61,247.46,151.89,281.13,51.29,11.11-33.18,8.75-87.18-8.64-107.14-39.66-45.5-134.43-13.33-197.49-33.824-12.71-4.131-55.37-19.563-55.37-19.563-16.71-19.416-37.93-33.281-48.36-62.207-45.28-125.532,24.98-219.562,76.18-254.743C1947.72,638.9,1988.45,635.035,2000.35,622.735Zm-484.13,76.329c41.11-9.651,87.37-23.324,119.83-14.457,19.51,5.328,57.68,24.961,79.77,16.418,1.1-15.08,5.28-16.763,19.76-15.337,0.13,0.575.26,1.15,0.4,1.724q-1.11,69.167-2.22,138.306c-2.42,5.4-12.87-1.772-16.76-3.519-1.01-11.572-1.88-16.918-6.41-27.563-56.26-26.346-156.19-52.147-213.32,6.145-20.57,20.991-42.33,54.8-15.38,111.6,23.66,49.882,75.52,28.348,117.96,31.651,93.41,7.27,193.86-42.345,240.16,85.014q8.835,38,17.68,76.01c-1.05,83.25-25.88,113.86-76.75,150.55-15.45,11.14-43.84,6.97-59.03,19.78-16.93,14.27-82.17,20.56-106.15,15.34q-53.04-11.25-105.92-22.46a199.282,199.282,0,0,1-10.23,23.77q-6.36-1.35-12.72-2.69,1.41-72.24,2.82-144.54,7.3,0.21,14.63.43c7.91,57.38,52.57,51.09,85.7,60.82,69.51,20.4,216.36-3.93,206.25-111.32-5.04-53.52-38.17-56.17-62.76-64.27-68.48-22.56-158.19,23.37-225.02-3.22-82.54-32.848-121.35-160.45-80.71-254.121,11.75-27.1,36.33-38.712,55.36-59.366Q1499.69,706.418,1516.22,699.064ZM1093.14,991.92q60.135-24.823,120.56-49.758l5.73,13.714c-6.46,4.638-12.35,8.784-11.58,15.006-0.88,6.084,55.9,68.758,67.18,80.558q87.84,94.98,176.04,190.37c21.23,19.72,40.54,65.36,69.85,53.96,3.5,6.26,5.11,9.78,5.33,15.44q-47.505,18.24-94.88,36.43-2.88-6.885-5.75-13.76c10.22-3.6,15.75-8.18,19.47-15.1-17.08-40.39-54.38-59.21-77.01-90.34q-88.485,35.685-176.4,71.14,4.17,56.46,8.34,112.88c3.01,3.25,2.73,3.58,6.4,4.7l18.21-1.47,4.77,14.07q-42.015,16.065-83.93,32.07-2.37-7.02-4.75-14.04c25.05-11.9,9.56-50.08,8.56-77.4q-8.955-131.4-17.94-263.08c-0.72-16.39-5.05-91.79-11.81-100.04-5.84-6.7-12.98-6.12-21.2-2.92Q1095.735,998.14,1093.14,991.92Zm1187.33-85.895q44.94,12.134,90.04,24.306-1.485,5.75-2.98,11.5c-7.59-.643-13.57-0.383-19.25,1.506q-17.85,66.744-35.71,133.543,78.87-32.2,158.06-64.55c16.04-6.09,35.22-8.85,48.59-19.394,0.33-5,.93-3.091-1.78-6.1-2.26-3.821-10.62-6.773-15.63-8.718q1.215-4.72,2.44-9.442l1.59-1.817q61.68,16.653,123.65,33.378-1.5,5.79-2.99,11.58c-29.34-1.05-44.09,8.65-66.68,19.09q-61.74,24.285-123.28,48.5,36.39,92.58,72.94,185.63c11.62,32.21,15.06,65.74,48.71,85.91q-2.025,5.67-4.05,11.33-51.84-15.075-103.51-30.09,1.5-5.79,2.99-11.58l19.37,3.15c5.24-23.13-14.55-49.86-21.64-68.1q-30.39-79.38-60.66-158.48c-2.37.91-.65-0.07-2.62,1.52-16.24,2.84-78.7,29.19-91.22,38.87-8.08,30.06-34.58,103.53-29.72,127.56q7.365,3.75,14.73,7.49-1.635,6.285-3.26,12.58-45.045-12.6-89.95-25.17,1.62-6.27,3.25-12.55c27.54,7.33,27.33-28.54,34.58-56.51q24.525-94.6,49.04-189.12c4.66-17.962,23.67-65.964,14.32-76.551-1.97-3.427-8.2-5.807-12.35-7.8Q2278.975,911.762,2280.47,906.025Zm756.56,249.525q-2.22,6-4.43,12l-13.02-.27c-12.37,5.27-22.56,46.32-29.31,64.62q-34.44,93.345-68.92,186.78c-13.05,22.91-26.93,36.91-45.61,46.57-3.03,1.57-21.72,7.42-20.79,8.98-77,11.86-213.69-34.17-245.23-113.68-24.25-61.13,23.03-152.23,56.09-241.44,11.93-32.18,39.82-80.66,16.58-93.99l3.6-9.72c0.57-.59,1.15-1.19,1.73-1.78l76.2,32.21q-1.995,5.4-4,10.82c-4.31-1.18-9.55-2.13-12.84-.24-11.43,4.46-43.99,104.29-53.57,130.16-33.47,90.4-59.25,126.44-16.65,181.94q16.845,11.415,33.72,22.83c13.29,10.46,41.68,25.84,61.19,28.03,106.41,11.98,102.12-17.16,150.69-148.7,8.32-22.51,46.71-111.42,43.04-125.4q-5.835-4.875-11.65-9.75,1.8-4.89,3.62-9.8c0.58-.59,1.16-1.19,1.75-1.79Q2998.055,1139.71,3037.03,1155.55Zm88.44,23.18q37.815,29.16,75.75,58.42-6.42,8.5-12.86,17.03c-6.25-3.39-13.22-6.11-20.81-1.36-25.64,17.51-3.75,1.6-28.8,34.76-77.61,102.75-47.29,73.59-124.99,176.45q66.24,52.62,132.88,105.55c27.71,22.01,58.26,49.86,87.26,61.82,9.33-7.43,16.94-13.65,27.91-27.82l9.54,7.56q-48.36,64.08-96.73,128.23-4.755-3.81-9.51-7.6c23.2-34.76-26.28-56.05-50.77-75.58q-105.885-85.74-210.85-170.72l12.87-17.04c7.15,5.87,12.52,5.71,20.31,3.77,75.95-99.93,98.88-139.83,174.76-239.66,41.8-55.32-21.01,34.22,10.28-20.03q-4.545-8.4-9.07-16.79Q3119.06,1187.215,3125.47,1178.73Zm313.08,253.48q37.425,32.145,74.99,64.41-6.735,8.445-13.45,16.89c-6.04-3.6-13.39-6.88-20.99-2.54-27.72,18.48-25.94,30.15-53.37,64.6-80.33,100.84-37.73,41.77-118.14,142.73,53.56,47.35,63.43,53.49,117.31,101.14,18.41,16.29,43.7,49.61,64.49,35.93l21.04-20.95q4.275,3.78,8.56,7.55-50.49,63.51-101.01,127.04-4.275-3.795-8.54-7.59c7.29-11.01,8.23-16.13,10.89-24.69-89.97-81.68-135.7-121.5-224.72-202.29q6.735-8.445,13.46-16.89c7.06,6.45,12.49,6.58,20.41,5,90.39-112.86,57.77-65.69,148.05-178.41,23.51-29.5,43.89-49.16,53.88-74.2,2.42-8.58-1.88-15.14-6.28-20.89Zm-2267.32-415.6q7.815,110.535,15.61,220.93,69.375-28.1,139.1-56.34Q1248.465,1098.775,1171.23,1016.61Zm903.5-22.951,5.07,1.642ZM3254.19,1610.02l-1.5,3.81Z"/>
  <path id="Skull1" class="cls-2" d="M1903.95,1340.35c262.96-4.02,400.77,34.53,491.96,199.07,16.96,30.62,41.83,78.29,30.04,135.21q-30.045,67.605-60.09,135.22c-22.93,89.07,55.45,159.82,22.53,251.65-14.99,41.84-75.3,73.15-108.9,97.65-41.79-12.81-99.15-60.78-165.24-33.8,9.58,7.02,5.47-.49,3.76,11.27-17.18,7.9-21.82,17.31-30.05,33.8v3.76h3.76c18.38-14.4,25.79-30.76,52.57-37.56-8.24,16.93-13.71,26.81-15.02,52.58h3.76c0.41-31.13,8.59-43.21,26.28-56.34q5.64,1.875,11.27,3.76c-21.48,39.42-3.09,123.46-7.51,180.28-34.07-15.31-138.28,46.4-180.26,60.1-9.78-22.12-146.91-67.2-168.99-60.1,1.09-61.32,16.81-142.55-3.76-180.28q5.64-1.875,11.27-3.76,7.5,5.64,15.02,11.27,7.515,30.045,15.02,60.1c0.61-31.61-5.35-48.12-15.02-67.61,28.49,5.75,36.81,30.07,56.33,33.8q-1.875-5.625-3.75-11.27-16.9-15.015-33.8-30.04,5.625-3.765,11.26-7.52c-84.77-1.67-112.28,23.7-168.99,37.56q-50.7-43.185-101.4-86.38c-39.58-85.38,36.86-166.34,18.78-255.41q-30.045-69.48-60.09-138.97c-32.49-146.02,112.4-269.4,206.55-307.99Q1832.595,1355.37,1903.95,1340.35Zm428.11,473.25q5.64,7.515,11.27,15.03Q2337.69,1821.115,2332.06,1813.6Zm-690.99,3.76v0Zm0,11.27v15.02h3.75Q1642.945,1836.135,1641.07,1828.63Zm690.99,15.02c-16.34,65.83-60.12,32.1-112.66,60.1-51.85,27.62-65.41,96.75-112.66,127.7-21.9,14.35-62.45,4.66-90.13,15.02q9.39,11.28,18.78,22.54,15.015,9.39,30.04,18.78l-18.78-18.78c1.25-1.25,2.51-2.5,3.76-3.76,55.11,28.55,194.83,58.26,270.39,7.52q1.875-13.155,3.75-26.3h-3.75c-4.37,22.63-11.27,29.34-33.8,33.81,29.89-70.33,52.38-112.05,15.02-187.8C2321.37,1885.31,2338.8,1864.33,2332.06,1843.65Zm15.03,0v0Zm-702.27,3.76c4.96,28.78,15.81,34.21,33.8,48.83-18.89,20.78-25.04,63.67-37.55,90.14l15.02-11.27c0.13,51.26,21.86,71.7,37.55,105.17-21.85-4.4-27.24-10.64-33.79-30.05h-3.76q3.75,15.03,7.51,30.05c26.33,9.34,178.71,31.36,210.3,22.53,15.71-4.38,37.75-29.89,60.09-37.56v3.76q-11.265,11.265-22.53,22.54c21.33-11.54,35.55-25.58,48.82-45.08v-3.75c-142.3,1.97-111.46-96.57-195.28-138.97C1697.2,1869.45,1692.09,1914.44,1644.82,1847.41Zm687.24,131.46q5.64,7.5,11.27,15.02Q2337.69,1986.375,2332.06,1978.87Zm-356.76,45.07q-1.875,5.625-3.76,11.27l7.52-7.52Q1977.17,2025.815,1975.3,2023.94Zm26.29,3.75q3.75,3.765,7.51,7.52Q2005.35,2031.445,2001.59,2027.69Zm-349.26,11.27v0Zm413.1,52.59q3.75,3.75,7.51,7.51Q2069.19,2095.3,2065.43,2091.55Zm-90.13,3.75q-22.53,37.56-45.07,75.12v-37.56q-9.375,50.7-18.77,101.41h3.75q5.64-11.265,11.27-22.53c7.36,21.72,16.06,26.4,45.06,26.29,5.06-14.87,9.62-19.54,22.54-26.29,7.5,17.92,9.64,24.37,30.04,26.29,18.6-7.84,22.06-12.73,33.8-26.29q3.75,7.5,7.51,15.02-7.515-45.06-15.02-90.14h-3.76v30.05c-1.25-2.51-2.5-5.01-3.75-7.52q-20.655-31.92-41.31-63.85c-6.07,5.61-7.95,9.96-15.02,15.03C1981.61,2095.95,1986.57,2102.51,1975.3,2095.3Zm-105.15,30.05c2.5,1.25,5.01,2.5,7.51,3.76C1875.16,2127.85,1872.65,2126.6,1870.15,2125.35Zm229.08,0q5.625,1.875,11.26,3.76Q2104.865,2127.22,2099.23,2125.35Zm-217.82,3.76q5.64,3.75,11.27,7.51Q1887.055,2132.855,1881.41,2129.11Zm202.8,3.75q-1.89,3.765-3.76,7.51,3.75-3.75,7.51-7.51h-3.75Zm-187.77,3.76q3.75,3.75,7.51,7.51Q1900.185,2140.38,1896.44,2136.62Zm168.99,93.9q3.75,7.5,7.51,15.02Q2069.19,2238.025,2065.43,2230.52Zm-165.24,22.53v0Z"/>
  <path id="Фигура_3" data-name="Фигура 3" class="cls-2" d="M3096.43,2766.08a3.8,3.8,0,0,1-2.02,1.47,18.613,18.613,0,0,1-4.04.85,58.673,58.673,0,0,1-6.79.31,55.062,55.062,0,0,1-6.46-.31,20.086,20.086,0,0,1-4.12-.85,3.768,3.768,0,0,1-2.1-1.47,4,4,0,0,1-.57-2.16V2705.4h-15.35c-6.69,0-11.88.52-15.6,1.54a27.075,27.075,0,0,0-10.02,5.18,37.7,37.7,0,0,0-8,9.26,82.832,82.832,0,0,0-6.79,13.82l-11.8,27.18a13.114,13.114,0,0,1-1.78,3.24,6.227,6.227,0,0,1-2.83,1.93,18.044,18.044,0,0,1-4.69.93c-1.88.15-4.23,0.23-7.03,0.23-2.04,0-3.85-.05-5.41-0.16a23.7,23.7,0,0,1-3.96-.54,4.731,4.731,0,0,1-2.43-1.23,2.906,2.906,0,0,1-.8-2.09,11.421,11.421,0,0,1,.89-3.47q0.885-2.385,3.63-8.42l11.64-26.09a64.394,64.394,0,0,1,11.15-17.06,41.189,41.189,0,0,1,15.2-10.58q-15.69-2.775-24.98-11.97t-9.29-24.32a37.625,37.625,0,0,1,4.36-18.14,38.353,38.353,0,0,1,12.85-13.74,65.48,65.48,0,0,1,20.85-8.65,120.386,120.386,0,0,1,28.37-3.01q3.885,0,8.97.15c3.39,0.11,6.9.26,10.51,0.47s7.11,0.44,10.5.69,6.33,0.49,8.81.7c3.23,0.31,5.66,1.44,7.27,3.39a11.017,11.017,0,0,1,2.43,7.26v132.02A4,4,0,0,1,3096.43,2766.08Zm-26.1-126.3q-5.82-.78-11.96-1.01t-11.31-.23a79.409,79.409,0,0,0-18.35,1.78,32.234,32.234,0,0,0-11.8,5.09,18.773,18.773,0,0,0-6.3,7.8,25.535,25.535,0,0,0-1.86,9.88,22.16,22.16,0,0,0,2.18,9.96,19.128,19.128,0,0,0,6.63,7.41,34.119,34.119,0,0,0,11.39,4.64q6.945,1.62,19.4,1.62h21.98v-46.94Zm-134.64,128.47a36.344,36.344,0,0,1-6.63.46,39.373,39.373,0,0,1-6.7-.46,8.261,8.261,0,0,1-3.64-1.39,3.406,3.406,0,0,1-1.13-2.78v-13.9a71.668,71.668,0,0,1-21.26,15.13,58.577,58.577,0,0,1-24.81,5.41,70.71,70.71,0,0,1-20.77-2.86,45.675,45.675,0,0,1-15.84-8.26,37.283,37.283,0,0,1-10.18-13.28,42.321,42.321,0,0,1-3.63-17.91q0-11.73,5.01-20.38a40.443,40.443,0,0,1,14.38-14.36,72.515,72.515,0,0,1,22.95-8.57,148.586,148.586,0,0,1,30.55-2.86h20.04v-10.81a51.751,51.751,0,0,0-1.77-14.21,24.039,24.039,0,0,0-5.74-10.26,24.79,24.79,0,0,0-10.27-6.18,49.874,49.874,0,0,0-15.51-2.08,64.518,64.518,0,0,0-17.7,2.23,98.165,98.165,0,0,0-13.74,4.95q-5.9,2.7-9.86,4.94t-5.9,2.24a4.117,4.117,0,0,1-2.26-.62,5.329,5.329,0,0,1-1.7-1.86,9.371,9.371,0,0,1-1.05-3.16,25.344,25.344,0,0,1-.32-4.25,25.938,25.938,0,0,1,.56-6.1,8.838,8.838,0,0,1,2.75-4.24,35.292,35.292,0,0,1,7.52-4.71,84.473,84.473,0,0,1,12.28-4.94,116.509,116.509,0,0,1,15.19-3.71,94.731,94.731,0,0,1,16.65-1.47q15.675,0,26.67,3.4t17.78,9.96a38.25,38.25,0,0,1,9.86,16.29,75.515,75.515,0,0,1,3.07,22.7v93.73a3.208,3.208,0,0,1-1.29,2.78A9.516,9.516,0,0,1,2935.69,2768.25Zm-21.66-67.64h-22.79a90.027,90.027,0,0,0-19.07,1.78,40.051,40.051,0,0,0-13.41,5.25,22.1,22.1,0,0,0-7.84,8.34,23.962,23.962,0,0,0-2.51,11.19q0,10.815,7.19,17.22t20.13,6.41a38.728,38.728,0,0,0,19.47-5.1q8.97-5.1,18.83-15.59v-29.5Zm-115.81,67.17a21.432,21.432,0,0,1-4.04.7c-1.67.15-3.79,0.23-6.38,0.23a69.082,69.082,0,0,1-7.35-.31,26.262,26.262,0,0,1-4.61-.85,5.859,5.859,0,0,1-2.59-1.39,4.737,4.737,0,0,1-1.13-1.93l-15.52-35.98a71.736,71.736,0,0,0-6.22-11.96,30.039,30.039,0,0,0-7.68-8.11,29.3,29.3,0,0,0-9.85-4.48,52.026,52.026,0,0,0-12.61-1.39h-11.32v62.54a2.2,2.2,0,0,1-.8,1.54,5.755,5.755,0,0,1-2.43,1.24,28.144,28.144,0,0,1-4.2.77,57.833,57.833,0,0,1-11.96,0,27.657,27.657,0,0,1-4.2-.77,5.12,5.12,0,0,1-2.35-1.24,2.3,2.3,0,0,1-.73-1.54V2623.72a2.043,2.043,0,0,1,.73-1.47,5.762,5.762,0,0,1,2.35-1.16,22.572,22.572,0,0,1,4.2-.69c1.72-.16,3.72-0.23,5.98-0.23s4.25,0.07,5.98.23a22.868,22.868,0,0,1,4.2.69,6.547,6.547,0,0,1,2.43,1.16,1.968,1.968,0,0,1,.8,1.47v58.21h11.32a45.186,45.186,0,0,0,11.23-1.31,27.646,27.646,0,0,0,9.29-4.33,31.267,31.267,0,0,0,7.52-7.79,59.417,59.417,0,0,0,6.06-11.58l13.58-31.97a5.215,5.215,0,0,1,1.13-2.16,5.983,5.983,0,0,1,2.42-1.54,16.183,16.183,0,0,1,4.29-.85c1.78-.16,4.12-0.23,7.03-0.23,2.59,0,4.71.07,6.38,0.23a17.536,17.536,0,0,1,3.88.69,3.61,3.61,0,0,1,1.86,1.16,2.541,2.541,0,0,1,.49,1.47,11.6,11.6,0,0,1-.41,2.93,29.4,29.4,0,0,1-1.21,3.55l-13.9,30.58a65.485,65.485,0,0,1-7.03,12.97,54.551,54.551,0,0,1-7.68,8.72,33.371,33.371,0,0,1-7.92,5.4,50.813,50.813,0,0,1-7.76,3.02v0.3a61.333,61.333,0,0,1,10.43,4.48,44.263,44.263,0,0,1,8.89,6.49,52.158,52.158,0,0,1,7.68,9.19,82.465,82.465,0,0,1,6.62,12.27l16,35.21a10.965,10.965,0,0,1,.97,2,12.607,12.607,0,0,1,.49,1.78c0.1,0.57.19,1.03,0.24,1.39a7.313,7.313,0,0,1,.08,1,2.511,2.511,0,0,1-.56,1.62A4.252,4.252,0,0,1,2798.22,2767.78Zm-152.09-17.21a11.711,11.711,0,0,1-.97,2.31,15.435,15.435,0,0,1-2.59,2.94,39.443,39.443,0,0,1-6.87,4.78,66.488,66.488,0,0,1-10.91,5.1,85.767,85.767,0,0,1-13.17,3.63,77.014,77.014,0,0,1-14.71,1.39q-15.675,0-27.8-4.95a52.273,52.273,0,0,1-20.28-14.43,64.639,64.639,0,0,1-12.45-23.32q-4.275-13.815-4.28-31.88,0-20.535,5.25-35.29t14.39-24.16a57,57,0,0,1,21.49-13.98,76.977,76.977,0,0,1,26.75-4.55,72.9,72.9,0,0,1,13.5,1.23,76.87,76.87,0,0,1,12.04,3.25,54.8,54.8,0,0,1,9.78,4.63,38.515,38.515,0,0,1,6.22,4.48,19.383,19.383,0,0,1,2.67,2.93,10.05,10.05,0,0,1,1.21,2.55,14.368,14.368,0,0,1,.65,3.32c0.11,1.23.16,2.78,0.16,4.63,0,4.02-.48,6.82-1.45,8.42a4.193,4.193,0,0,1-3.56,2.39c-1.62,0-3.47-.85-5.58-2.55a87.591,87.591,0,0,0-8-5.63,62.109,62.109,0,0,0-11.71-5.64,46.748,46.748,0,0,0-16.25-2.55q-19.23,0-29.5,14.13t-10.26,41a92.733,92.733,0,0,0,2.67,23.54,47.448,47.448,0,0,0,7.84,16.91,32.023,32.023,0,0,0,12.68,10.12,42.286,42.286,0,0,0,17.22,3.32,43.373,43.373,0,0,0,16.16-2.78,69.558,69.558,0,0,0,12.04-6.1c3.4-2.22,6.25-4.22,8.57-6.03s4.12-2.7,5.41-2.7a3.105,3.105,0,0,1,1.94.62,4.714,4.714,0,0,1,1.38,2.08,15.286,15.286,0,0,1,.8,3.71,48.029,48.029,0,0,1,.25,5.33c0,1.75-.06,3.27-0.16,4.55A15.815,15.815,0,0,1,2646.13,2750.57Zm-160.18-.93a53.686,53.686,0,0,1-19.8,15.59q-11.79,5.49-26.99,5.49a54.7,54.7,0,0,1-11.96-1.24,46.962,46.962,0,0,1-10.75-3.86,62.429,62.429,0,0,1-10.42-6.64q-5.175-4.005-10.99-9.42v69.49a3.7,3.7,0,0,1-.65,2.16,4.682,4.682,0,0,1-2.1,1.54,15.6,15.6,0,0,1-4.04.93,59.385,59.385,0,0,1-6.63.31,57.34,57.34,0,0,1-6.46-.31,16.97,16.97,0,0,1-4.13-.93,4.179,4.179,0,0,1-2.1-1.54,4.045,4.045,0,0,1-.56-2.16v-194.1a4.566,4.566,0,0,1,.48-2.24,3.925,3.925,0,0,1,1.94-1.46,12.947,12.947,0,0,1,3.72-.85,66.711,66.711,0,0,1,11.07,0,12.753,12.753,0,0,1,3.64.85,4.461,4.461,0,0,1,2.02,1.46,4.062,4.062,0,0,1,.56,2.24v18.69a153.808,153.808,0,0,1,12.77-11.28,77.153,77.153,0,0,1,12.37-7.95,59.482,59.482,0,0,1,12.77-4.78,56.821,56.821,0,0,1,13.82-1.63q15.825,0,26.99,5.87a50.212,50.212,0,0,1,18.18,16.06,70.033,70.033,0,0,1,10.27,23.7,123.108,123.108,0,0,1,3.23,28.65,120.129,120.129,0,0,1-4.12,32.73A69.928,69.928,0,0,1,2485.95,2749.64Zm-13.1-75.04a57.836,57.836,0,0,0-5.85-17.68,33.678,33.678,0,0,0-11.14-12.36q-6.99-4.635-17.4-4.63a36.445,36.445,0,0,0-10.25,1.47,42.893,42.893,0,0,0-10.24,4.63,72.108,72.108,0,0,0-10.9,8.34,128.69,128.69,0,0,0-12.03,12.74v55.28q11.055,12.81,20.98,19.61a36.25,36.25,0,0,0,20.81,6.79,31.443,31.443,0,0,0,17.32-4.63,35.619,35.619,0,0,0,11.71-12.36,60.115,60.115,0,0,0,6.59-17.29,89.846,89.846,0,0,0,2.11-19.3A121.621,121.621,0,0,0,2472.85,2674.6Zm-155.44,24.93h-95.8a82.321,82.321,0,0,0,2.43,20.85,39.555,39.555,0,0,0,8.12,15.9,36.429,36.429,0,0,0,14.78,10.19q9.105,3.555,22.25,3.56a95.279,95.279,0,0,0,18.52-1.63,115.27,115.27,0,0,0,14.05-3.62q5.925-2.01,9.74-3.63a16.6,16.6,0,0,1,5.77-1.62,3.852,3.852,0,0,1,2.03.54,3.461,3.461,0,0,1,1.38,1.62,10.916,10.916,0,0,1,.73,3.01,38.758,38.758,0,0,1,.25,4.71,31.4,31.4,0,0,1-.17,3.47,26.332,26.332,0,0,1-.4,2.63,6.448,6.448,0,0,1-.81,2.08,9.066,9.066,0,0,1-1.45,1.78,24.83,24.83,0,0,1-5.26,2.78,80.111,80.111,0,0,1-11.31,3.78q-6.945,1.845-16.08,3.32a122.631,122.631,0,0,1-19.48,1.47q-17.94,0-31.44-4.79a58.615,58.615,0,0,1-22.7-14.21,59.858,59.858,0,0,1-13.9-23.62q-4.695-14.2-4.69-33.04a99.6,99.6,0,0,1,4.85-32.2,67.327,67.327,0,0,1,13.98-24.24,60.981,60.981,0,0,1,22.06-15.29,75.311,75.311,0,0,1,28.93-5.33q17.13,0,29.18,5.25a55.128,55.128,0,0,1,19.8,14.13,55.948,55.948,0,0,1,11.39,20.85,87.282,87.282,0,0,1,3.64,25.55v4.64q0,6.015-3.17,8.57A11.244,11.244,0,0,1,2317.41,2699.53Zm-25.79-50.18q-9.84-11.43-29.19-11.43a40.221,40.221,0,0,0-17.4,3.55,37.46,37.46,0,0,0-12.53,9.42,42.6,42.6,0,0,0-7.8,13.67,54.316,54.316,0,0,0-3.09,16.29h79.36Q2301.45,2660.78,2291.62,2649.35Zm-112.76-8.03a5.862,5.862,0,0,1-1.7,2.08,4.037,4.037,0,0,1-2.43.7h-43.64v119.82a3.354,3.354,0,0,1-.64,2.09,5.15,5.15,0,0,1-2.1,1.46,15.59,15.59,0,0,1-4.05.93,56.753,56.753,0,0,1-6.62.31,55.247,55.247,0,0,1-6.47-.31,16.876,16.876,0,0,1-4.12-.93,4.484,4.484,0,0,1-2.1-1.46,3.668,3.668,0,0,1-.57-2.09V2644.1h-43.64a4.1,4.1,0,0,1-2.34-.7,4.831,4.831,0,0,1-1.7-2.08,15.159,15.159,0,0,1-1.05-3.63,30.411,30.411,0,0,1-.4-5.33,27.134,27.134,0,0,1,.4-4.94,14.272,14.272,0,0,1,1.13-3.63,5.836,5.836,0,0,1,1.7-2.16,3.805,3.805,0,0,1,2.26-.69h113.95a4.2,4.2,0,0,1,2.35.69,4.894,4.894,0,0,1,1.69,2.16,17.374,17.374,0,0,1,1.06,3.71,29.355,29.355,0,0,1,.4,5.02,37.053,37.053,0,0,1-.32,5.25A11.588,11.588,0,0,1,2178.86,2641.32Zm-136.58,109.25a12.343,12.343,0,0,1-.97,2.31,15.435,15.435,0,0,1-2.59,2.94,40.256,40.256,0,0,1-6.87,4.78,66.879,66.879,0,0,1-10.91,5.1,85.767,85.767,0,0,1-13.17,3.63,77.091,77.091,0,0,1-14.71,1.39q-15.675,0-27.8-4.95a52.273,52.273,0,0,1-20.28-14.43,64.335,64.335,0,0,1-12.45-23.32q-4.29-13.815-4.28-31.88,0-20.535,5.25-35.29t14.38-24.16a57.111,57.111,0,0,1,21.5-13.98,76.936,76.936,0,0,1,26.75-4.55,73.054,73.054,0,0,1,13.5,1.23,77.169,77.169,0,0,1,12.04,3.25,54.8,54.8,0,0,1,9.78,4.63,38.515,38.515,0,0,1,6.22,4.48,20.552,20.552,0,0,1,2.67,2.93,10.4,10.4,0,0,1,1.21,2.55,14.914,14.914,0,0,1,.65,3.32c0.1,1.23.16,2.78,0.16,4.63,0,4.02-.49,6.82-1.46,8.42s-2.15,2.39-3.55,2.39q-2.43,0-5.58-2.55a89.014,89.014,0,0,0-8-5.63,61.92,61.92,0,0,0-11.72-5.64,46.65,46.65,0,0,0-16.24-2.55q-19.245,0-29.5,14.13t-10.26,41a93.217,93.217,0,0,0,2.66,23.54,47.619,47.619,0,0,0,7.84,16.91,32.122,32.122,0,0,0,12.69,10.12,42.271,42.271,0,0,0,17.21,3.32,43.427,43.427,0,0,0,16.17-2.78,69.558,69.558,0,0,0,12.04-6.1c3.39-2.22,6.25-4.22,8.57-6.03s4.12-2.7,5.41-2.7a3.125,3.125,0,0,1,1.94.62,4.623,4.623,0,0,1,1.37,2.08,14.792,14.792,0,0,1,.81,3.71,50.874,50.874,0,0,1,.24,5.33c0,1.75-.05,3.27-0.16,4.55A16.591,16.591,0,0,1,2042.28,2750.57Zm-157.67,17.68a36.344,36.344,0,0,1-6.63.46,39.5,39.5,0,0,1-6.71-.46,8.213,8.213,0,0,1-3.63-1.39,3.381,3.381,0,0,1-1.14-2.78v-13.9a71.754,71.754,0,0,1-21.25,15.13,58.577,58.577,0,0,1-24.81,5.41,70.662,70.662,0,0,1-20.77-2.86,45.5,45.5,0,0,1-15.84-8.26,37.169,37.169,0,0,1-10.18-13.28,42.171,42.171,0,0,1-3.64-17.91q0-11.73,5.01-20.38a40.554,40.554,0,0,1,14.39-14.36q9.36-5.715,22.95-8.57a148.517,148.517,0,0,1,30.55-2.86h20.04v-10.81a51.732,51.732,0,0,0-1.78-14.21,24.039,24.039,0,0,0-5.74-10.26,24.816,24.816,0,0,0-10.26-6.18,49.942,49.942,0,0,0-15.52-2.08,64.62,64.62,0,0,0-17.7,2.23,99.1,99.1,0,0,0-13.74,4.95q-5.895,2.7-9.85,4.94c-2.65,1.49-4.61,2.24-5.9,2.24a4.151,4.151,0,0,1-2.27-.62,5.308,5.308,0,0,1-1.69-1.86,8.95,8.95,0,0,1-1.05-3.16,25.293,25.293,0,0,1-.33-4.25,25.857,25.857,0,0,1,.57-6.1,8.694,8.694,0,0,1,2.75-4.24,35.165,35.165,0,0,1,7.51-4.71,84.935,84.935,0,0,1,12.28-4.94,116.672,116.672,0,0,1,15.2-3.71,94.563,94.563,0,0,1,16.65-1.47q15.675,0,26.67,3.4t17.77,9.96a38.151,38.151,0,0,1,9.86,16.29,75.5,75.5,0,0,1,3.08,22.7v93.73a3.215,3.215,0,0,1-1.3,2.78A9.461,9.461,0,0,1,1884.61,2768.25Zm-21.66-67.64h-22.79a89.96,89.96,0,0,0-19.07,1.78,40.2,40.2,0,0,0-13.42,5.25,22.1,22.1,0,0,0-7.84,8.34,24.082,24.082,0,0,0-2.5,11.19q0,10.815,7.19,17.22t20.12,6.41a38.765,38.765,0,0,0,19.48-5.1q8.97-5.1,18.83-15.59v-29.5Zm-135.37,68.1q-4.035,0-6.62-.16a17.186,17.186,0,0,1-4.05-.61,3.652,3.652,0,0,1-2.02-1.32,5.016,5.016,0,0,1-.72-2.23l-10.51-81.07c-0.32-2.88-.65-5.97-0.97-9.26s-0.65-6.64-.97-10.04-0.62-6.8-.89-10.19-0.56-6.59-.89-9.58l-0.16-3.55q-1.455,4.485-3.07,9.42-1.62,4.95-3.47,10.04t-3.56,10.19q-1.7,5.1-3.15,9.57l-30.55,82.3a12.03,12.03,0,0,1-1.54,3.09,6.425,6.425,0,0,1-2.42,2.01,12.543,12.543,0,0,1-3.88,1.08,44.1,44.1,0,0,1-5.74.31,42.1,42.1,0,0,1-5.65-.31,14.027,14.027,0,0,1-3.8-1,6.657,6.657,0,0,1-2.51-1.93,10.691,10.691,0,0,1-1.61-3.09l-29.42-82.46q-1.62-4.32-3.31-9.26-1.71-4.95-3.4-10.12c-1.13-3.44-2.24-6.87-3.31-10.26s-2-6.59-2.75-9.58l-0.16,3.55q-0.495,4.485-.97,9.58c-0.32,3.39-.68,6.79-1.05,10.19s-0.76,6.74-1.13,10.04-0.68,6.38-.89,9.26L1572.42,2763a8.678,8.678,0,0,1-.73,3.01,3.528,3.528,0,0,1-2.18,1.7,19.927,19.927,0,0,1-4.21.77q-2.58.225-6.78,0.23a50.634,50.634,0,0,1-6.39-.31,8.978,8.978,0,0,1-3.55-1.08,3.33,3.33,0,0,1-1.54-1.93,6.222,6.222,0,0,1,0-2.86l16-131.56a12.344,12.344,0,0,1,3.64-7.48q2.82-2.55,8.48-2.55h12.77a39.83,39.83,0,0,1,8,.69,14.611,14.611,0,0,1,5.66,2.4,14.127,14.127,0,0,1,3.96,4.55,41.938,41.938,0,0,1,3.07,7.18l21.5,59.14c1.18,3.61,2.42,7.23,3.72,10.89s2.5,7.25,3.63,10.81,2.21,7.02,3.24,10.42,1.96,6.64,2.82,9.73h0.33q1.455-4.785,2.99-10.12t3.31-10.81q1.785-5.475,3.64-10.88c1.23-3.6,2.45-7.05,3.63-10.35l21.5-58.83a42.873,42.873,0,0,1,2.83-6.72,14.565,14.565,0,0,1,3.8-4.63,14.913,14.913,0,0,1,5.41-2.62,29.727,29.727,0,0,1,7.68-.85h12.61c3.88,0,6.81.77,8.81,2.31s3.15,4.02,3.47,7.42l16.16,131.86c0.11,2.27-.64,3.86-2.26,4.79S1732.54,2768.71,1727.58,2768.71Zm-229.51-19.92a63.328,63.328,0,0,1-23.28,16.14q-13.98,5.79-32.41,5.79-17.94,0-31.27-5.1a57.353,57.353,0,0,1-22.23-14.82,62.1,62.1,0,0,1-13.25-23.63,104.963,104.963,0,0,1-4.36-31.5,101.493,101.493,0,0,1,4.6-31.27,67.174,67.174,0,0,1,13.9-24.62,62.67,62.67,0,0,1,23.2-16.06q13.89-5.715,32.49-5.72,17.94,0,31.27,5.1a57.353,57.353,0,0,1,22.23,14.82,63.042,63.042,0,0,1,13.33,23.63,102.745,102.745,0,0,1,4.44,31.34,99.9,99.9,0,0,1-4.68,31.27A68.323,68.323,0,0,1,1498.07,2748.79Zm-11.18-75.51a51.308,51.308,0,0,0-7.25-17.6,35.592,35.592,0,0,0-13.71-11.97q-8.64-4.395-21.52-4.4-11.91,0-20.47,4.02a37.214,37.214,0,0,0-14.11,11.35,49.744,49.744,0,0,0-8.23,17.37,84.223,84.223,0,0,0-2.69,21.92,99.933,99.933,0,0,0,2.2,21.47,49.213,49.213,0,0,0,7.34,17.52,36.162,36.162,0,0,0,13.78,11.89q8.64,4.41,21.53,4.4,11.73,0,20.38-4.01a37.374,37.374,0,0,0,14.19-11.27,47.941,47.941,0,0,0,8.15-17.3,87.618,87.618,0,0,0,2.62-22.08A99.222,99.222,0,0,0,1486.89,2673.28Zm-129.44-31.96a5.759,5.759,0,0,1-1.7,2.08,4.006,4.006,0,0,1-2.42.7h-43.64v119.82a3.36,3.36,0,0,1-.65,2.09,5.081,5.081,0,0,1-2.1,1.46,15.6,15.6,0,0,1-4.04.93,57.06,57.06,0,0,1-6.63.31,55.247,55.247,0,0,1-6.47-.31,16.989,16.989,0,0,1-4.12-.93,4.484,4.484,0,0,1-2.1-1.46,3.665,3.665,0,0,1-.56-2.09V2644.1h-43.64a4.11,4.11,0,0,1-2.35-.7,4.745,4.745,0,0,1-1.69-2.08,14.677,14.677,0,0,1-1.06-3.63,30.411,30.411,0,0,1-.4-5.33,27.134,27.134,0,0,1,.4-4.94,13.868,13.868,0,0,1,1.14-3.63,5.82,5.82,0,0,1,1.69-2.16,3.815,3.815,0,0,1,2.27-.69h113.95a4.169,4.169,0,0,1,2.34.69,4.982,4.982,0,0,1,1.7,2.16,16.85,16.85,0,0,1,1.05,3.71,29.355,29.355,0,0,1,.4,5.02,37.053,37.053,0,0,1-.32,5.25A11.588,11.588,0,0,1,1357.45,2641.32Zm-139.57,82.61a42.534,42.534,0,0,1-4.36,19.53,38.067,38.067,0,0,1-12.94,14.36q-8.565,5.79-21.33,8.8a130.377,130.377,0,0,1-29.74,3.02q-5.34,0-10.35-.08t-9.69-.31q-4.7-.24-9.3-0.54c-3.07-.21-6.11-0.46-9.13-0.77q-6.465-.78-9.54-4.1-3.06-3.315-3.07-9.8V2634.37q0-6.33,2.99-9.73t9.14-4.01q4.2-.465,8.97-0.77,4.755-.315,9.78-0.54,5-.24,10.34-0.39c3.56-.1,7.16-0.15,10.83-0.15a130.274,130.274,0,0,1,27.15,2.47,58.883,58.883,0,0,1,19.08,7.25,30.957,30.957,0,0,1,11.23,11.74,33.824,33.824,0,0,1,3.64,15.9q0,11.745-6.55,20.08t-19.32,11.89q16.005,3.24,24.09,12.5T1217.88,2723.93Zm-34.11-73.65a16.535,16.535,0,0,0-6.38-6.8,34.222,34.222,0,0,0-11.48-4.17,89.93,89.93,0,0,0-17.05-1.39q-7.59,0-13.9.39t-10.67.85v43.23h27.16q16.65,0,25.46-5.94t8.8-17.06A20.556,20.556,0,0,0,1183.77,2650.28Zm4.53,63.23a18.814,18.814,0,0,0-7.19-7.8,37.734,37.734,0,0,0-12.61-4.63,93.29,93.29,0,0,0-18.18-1.55h-26.03v49.26q3.075,0.465,6.39.69c2.21,0.16,4.47.31,6.79,0.47s4.63,0.28,6.95.38,4.44,0.16,6.38.16a77.835,77.835,0,0,0,17.94-1.78,36.488,36.488,0,0,0,12.37-5.17,20.559,20.559,0,0,0,7.19-8.26,25.472,25.472,0,0,0,2.26-10.89A24.832,24.832,0,0,0,1188.3,2713.51Zm-143.69,54.74a36.344,36.344,0,0,1-6.63.46,39.373,39.373,0,0,1-6.7-.46,8.21,8.21,0,0,1-3.64-1.39,3.376,3.376,0,0,1-1.13-2.78v-13.9a71.8,71.8,0,0,1-21.26,15.13,58.57,58.57,0,0,1-24.807,5.41,70.669,70.669,0,0,1-20.769-2.86,45.551,45.551,0,0,1-15.84-8.26,37.188,37.188,0,0,1-10.183-13.28,42.261,42.261,0,0,1-3.637-17.91q0-11.73,5.011-20.38a40.531,40.531,0,0,1,14.385-14.36,72.49,72.49,0,0,1,22.952-8.57,148.545,148.545,0,0,1,30.548-2.86h20.04v-10.81a51.351,51.351,0,0,0-1.78-14.21,23.92,23.92,0,0,0-5.73-10.26,24.854,24.854,0,0,0-10.27-6.18,49.893,49.893,0,0,0-15.514-2.08,64.559,64.559,0,0,0-17.7,2.23,98.335,98.335,0,0,0-13.739,4.95q-5.9,2.7-9.859,4.94t-5.9,2.24a4.134,4.134,0,0,1-2.263-.62,5.313,5.313,0,0,1-1.7-1.86,9.134,9.134,0,0,1-1.05-3.16,25.536,25.536,0,0,1-.324-4.25,25.943,25.943,0,0,1,.566-6.1,8.768,8.768,0,0,1,2.748-4.24,35.188,35.188,0,0,1,7.516-4.71,84.564,84.564,0,0,1,12.283-4.94,116.415,116.415,0,0,1,15.194-3.71,94.633,94.633,0,0,1,16.648-1.47q15.673,0,26.669,3.4t17.78,9.96a38.348,38.348,0,0,1,9.86,16.29,75.835,75.835,0,0,1,3.07,22.7v93.73a3.208,3.208,0,0,1-1.29,2.78A9.516,9.516,0,0,1,1044.61,2768.25Zm-21.66-67.64h-22.79a90.027,90.027,0,0,0-19.07,1.78,40.138,40.138,0,0,0-13.416,5.25,22.136,22.136,0,0,0-7.839,8.34,24.071,24.071,0,0,0-2.5,11.19q0,10.815,7.193,17.22t20.123,6.41a38.729,38.729,0,0,0,19.474-5.1q8.97-5.1,18.83-15.59v-29.5Z"/>
  <path id="Фигура_2" data-name="Фигура 2" class="cls-2" d="M1772.05,2346.73q-9.075,6.87-18.14,13.73-37.635-32.82-75.28-65.64c-36.84,18.87-64.02,42.89-63.32,93.54q36.5,29.415,72.98,58.83-14.76,6.885-29.51,13.78c-156.71-15.84-90.75-99.11-180.18-151.64q-305.19-145.38-610.43-290.8-56.815,5.925-113.643,11.87c-88.936-17.02-106.137-125.33-98.429-179.29l109.463,88.24,38.578-20.64c23.608-14.67,40.994-55.92,40.625-82.07Q798,1793.62,751.225,1750.6q11.346-5.73,22.695-11.47c174.9,20.43,124.5,109.44,212.114,178.79Q1265.1,2070.245,1544.22,2222.6q71.61-1.44,143.23-2.89C1748.78,2237.98,1760.23,2308.55,1772.05,2346.73Zm-139.1-108.59c-29.47,7.86-88.03,46.49-90.61,91.39C1569.49,2280.74,1600.73,2265.63,1632.95,2238.14Zm-204.55,23.64q-217.5-104.82-435.051-209.67C1090.86,2101.45,1344,2254.93,1428.4,2261.78Zm24.75-72.9c-87.81-52.78-317.73-187.06-412.01-210.36C1179.76,2045.98,1316.47,2117.44,1453.15,2188.88Zm-526.3-288.9q2.236-10.245,4.472-20.49-2.277-1.14-4.555-2.26c-36.474,79.87-71.82,103.15-122.3,132.47C853.33,2000.37,896.191,1962.96,926.851,1899.98Z"/>
  <path id="Фигура_4" data-name="Фигура 4" class="cls-2" d="M2940.1,2252.29q-6.525-14.76-13.05-29.51,36.885-18.315,73.77-36.64c-14.64-1.56-25.15-37.66-39.87-76.58-220.83,79.96-401.8,127.58-452.02,293.62-37.34,19.22-71.33,38.27-94.78,16.27q5.055-2.115,10.13-4.23,16.635-9.855,33.27-19.72c-19.58-6.48-27.52-4.63-44.86,7.08,18.32-53.2,57.45-59.71,23.02-137.82-38.31-30.91-59.25-20.89-104.24-32.23,0.97-2.34,1.93-4.69,2.89-7.03,22.86-9.87,28.67-13.13,36.16-26.76q-23.865,7.065-47.75,14.11-4.35-9.825-8.7-19.67,40.5-16.92,81.02-33.83c2.41,0.94,4.82,1.87,7.24,2.81q59.355,18.915,118.71,37.84c113.49-.96,296.76-106.91,409.45-159.31-19.48-42.03-37.03-68.75-31.92-85.73l-75.96,31.71q-6.525-14.76-13.05-29.51c52.63-23.98,192.06-100.28,229.33-78.28q26.445,32.67,52.89,65.33c-21.38-38.03-58.07-89.98-34.23-90.96,21.38,30.28,40.47,55.34,59.55,80.39q-22.11-43.215-44.23-86.43,9.765,1.755,19.54,3.5,25.005,36.18,50,72.36l-44.22-86.43q13.74-2.82,27.49-5.65c29.77,44.13,98.32,131.5,99.33,197.45-1.68.7-3.37,1.41-5.06,2.11l-57.28-115.94c34.35,72.07,92.65,149.9,81.96,198.87l4.35,9.84-20.25,8.46q-19.575-44.265-39.16-88.54c5.81,26.7,15.98,63.26,21.79,89.96a78.984,78.984,0,0,1-10.12,4.23c-10.16-22.95-26.84-60.67-36.99-83.62q10.89,44.97,21.79,89.96-7.59,3.18-15.19,6.35c-4.78-27.14-11.49-70.04-34.1-90.66,18.54,40.91,21.05,69.36,21.09,101.92Zm214.66-287.76a276.9,276.9,0,0,0,19.58,44.27C3169.91,1996.3,3160.89,1974.98,3154.76,1964.53Zm-45.62-21.74c5.83,15.65,10.4,25.93,19.59,44.27A128.3,128.3,0,0,0,3109.14,1942.79Zm30.46,68.86a81.469,81.469,0,0,0,17.41,39.35Q3148.31,2031.335,3139.6,2011.65Zm-25.31,10.57q-0.36,5.985-.72,11.96Q3113.93,2028.2,3114.29,2022.22Zm-30.43-28.09c-13.68-6.71-12.13-9.1-28.95-11.21q-23.52,1.065-47.04,2.15l-26.74,34.48q4.725,24.24,9.45,48.5c23.31,19.19,34.78,23.28,65.16,25.24,29.71-15.3,40.2-26.98,42.64-52.77Q3091.12,2017.33,3083.86,1994.13Zm-7.95,9.15c13.1,31.47,12.58,40.04-3.56,59.76q-15.18,6.345-30.38,12.69-15.915-2.1-31.85-4.19c-15.93-36.12-11.31-42.58-5.85-67.48,1.69-.71,3.38-1.41,5.06-2.12q21.345-5.985,42.69-11.99Q3063.96,1996.61,3075.91,2003.28Zm-32.4,170.87q-14.1,8.8-28.21,17.6Q3029.4,2182.96,3043.51,2174.15Zm-111.67-238.91q-14.1,8.79-28.21,17.6Q2917.73,1944.035,2931.84,1935.24Zm9.53,130.05c-66.38,33.02-307.34,118.96-334.92,151.49q4.71,3.87,9.42,7.72l334.2-139.54Q2945.72,2075.12,2941.37,2065.29Zm-467.32,177.64q10.875,24.585,21.75,49.19Q2484.925,2267.52,2474.05,2242.93Zm-15.95-22.48q-15.555-8.07-31.13-16.14l35.49,25.98Q2460.285,2225.37,2458.1,2220.45Zm39.17,88.54q-2.52,21.435-5.03,42.89Q2494.76,2330.43,2497.27,2308.99Zm-79.48,132.25c-138.81,65.06-259.52-72.52-189.05-183.3q6.15,0.345,12.3.7-1.8,9.48-3.6,18.98,3.96-24.96,7.91-49.92,31.83-16.2,63.65-32.41,3.27,7.38,6.53,14.76-0.36,5.97-.71,11.95-14.1,8.8-28.21,17.61c21.27,1.6,24.61.14,37.62-9.88-10.93,35.47-42.9,47.31-44.78,88.62,11.26,90.16,71.72,69.04,123.11,88.46-16.54,4.81-23.88,3.02-33.27,19.72q7.23,2.8,14.48,5.61,11.565-7.755,23.14-15.5Q2412.355,2428.94,2417.79,2441.24Zm-98.43-5.52c-55.39-19.6-83.73-96.58-79.74-153.18q-5.43,8.085-10.84,16.18c10.4,48.42,29.94,116.72,73.22,138.42Q2310.685,2436.435,2319.36,2435.72Z"/>
  <path id="Фигура_5" data-name="Фигура 5" class="cls-2" d="M1312.51,1594c12.24,23.89,32.22,71.1,39.87,103.64,29.63-1.69,81.78,1.93,115.62,7.98-21.51,22.24-78.54,54.58-87.71,63.78,9.73,37.67,32.8,113.92,27.9,115.6-9.42-1.1-85.49-60.41-91.9-59.81-5.23.49-93.04,56.19-99.47,51.84-5.49-2.64,29.48-95.95,31.89-107.63-11.46-10.96-66.62-54.06-87.71-71.76,27.28,0,78.97-2.52,111.64-3.98Z"/>
  <path id="Фигура_6" data-name="Фигура 6" class="cls-2" d="M2726.51,1594c12.24,23.89,32.22,71.1,39.87,103.64,29.63-1.69,81.78,1.93,115.62,7.98-21.51,22.24-78.54,54.58-87.71,63.78,9.73,37.67,32.8,113.92,27.9,115.6-9.42-1.1-85.49-60.41-91.9-59.81-5.23.49-93.04,56.19-99.47,51.84-5.49-2.64,29.48-95.95,31.89-107.63-11.46-10.96-66.62-54.06-87.71-71.76,27.28,0,78.97-2.52,111.64-3.98Z"/>
  <path id="Фигура_8_копия" data-name="Фигура 8 копия" class="cls-3" d="M2262,562c-181.71-15.986-664.29-37.65-799,40S1270.92,793.454,997,810c-384.2,23.206-694.05,239.64-706,467-15.807,300.76-29.779,821.54,43,863s263.635,111.53,335,234c132.56,227.49,14.7,549.5,200,538,134.4-8.34,2110.64,32.49,2199,32M1736,562c181.71-15.986,664.29-37.65,799,40s192.08,191.454,466,208c384.2,23.206,694.05,239.64,706,467,15.81,300.76,29.78,821.54-43,863s-263.64,111.53-335,234c-132.56,227.49-14.7,549.5-200,538-134.4-8.34-2110.64,32.49-2199,32"/>
</svg>
