<?xml version="1.0" encoding="UTF-8" standalone="no"?>
<svg width="4096px" height="4096px" viewBox="0 0 4096 4096" version="1.1" xmlns="http://www.w3.org/2000/svg" xmlns:xlink="http://www.w3.org/1999/xlink">
    <!-- Generator: Sketch 41 (35326) - http://www.bohemiancoding.com/sketch -->
    <title>Logo</title>
    <desc>Created with Sketch.</desc>
    <defs></defs>
    <g id="Page-1" stroke="none" stroke-width="1" fill="none" fill-rule="evenodd">
        <g id="Logo">
            <path d="M1727.79912,1442.18868 C1906.70912,1439.44868 2000.47912,1465.68868 2062.50912,1577.71868 C2074.05912,1598.56868 2090.96912,1631.02868 2082.94912,1669.77868 C2069.32912,1700.46868 2055.70246,1731.15534 2042.06912,1761.83868 C2026.46912,1822.48868 2079.79912,1870.65868 2057.39912,1933.17868 C2047.19912,1961.66868 2006.16912,1982.98868 1983.30912,1999.66868 C1954.86912,1990.93868 1915.84912,1958.27868 1870.87912,1976.64868 C1877.39912,1981.43868 1874.59912,1976.31868 1873.43912,1984.32868 C1861.74912,1989.70868 1858.58912,1996.10868 1852.99912,2007.33868 L1852.99912,2009.89868 L1855.54912,2009.89868 C1868.05912,2000.09868 1873.09912,1988.95868 1891.31912,1984.32868 C1885.70912,1995.85868 1881.98912,2002.57868 1881.09912,2020.12868 L1883.65912,2020.12868 C1883.92912,1998.92868 1889.49912,1990.70868 1901.53912,1981.76868 C1904.09912,1982.61868 1906.64912,1983.46868 1909.20912,1984.32868 C1894.58912,2011.16868 1907.09912,2068.37868 1904.09912,2107.06868 C1880.91912,2096.63868 1810.01912,2138.65868 1781.44912,2147.98868 C1774.78912,2132.92868 1681.49912,2102.23868 1666.46912,2107.06868 C1667.20912,2065.31868 1677.90912,2010.00868 1663.91912,1984.32868 C1666.46912,1983.46868 1669.02912,1982.61868 1671.57912,1981.76868 C1674.98912,1984.32868 1678.39579,1986.88534 1681.79912,1989.43868 C1685.20912,2003.07868 1688.61579,2016.71868 1692.01912,2030.35868 C1692.43912,2008.83868 1688.37912,1997.59868 1681.79912,1984.32868 C1701.18912,1988.23868 1706.84912,2004.79868 1720.12912,2007.33868 C1719.27912,2004.77868 1718.42912,2002.22868 1717.56912,1999.66868 C1709.90912,1992.84868 1702.24579,1986.02868 1694.57912,1979.20868 C1697.12912,1977.50868 1699.68246,1975.80534 1702.23912,1974.09868 C1644.56912,1972.94868 1625.84912,1990.22868 1587.26912,1999.66868 C1564.26912,1980.06868 1541.27246,1960.46201 1518.27912,1940.84868 C1491.34912,1882.71868 1543.34912,1827.59868 1531.04912,1766.95868 C1517.42912,1735.41868 1503.80246,1703.87868 1490.16912,1672.33868 C1468.05912,1572.91868 1566.63912,1488.91868 1630.69912,1462.64868 C1663.05912,1455.82868 1695.42579,1449.00868 1727.79912,1442.18868 Z M2019.07912,1764.39868 C2021.62912,1767.80868 2024.18246,1771.21868 2026.73912,1774.62868 C2024.18912,1771.21868 2021.63579,1767.80868 2019.07912,1764.39868 Z M1548.93912,1774.62868 L1548.93912,1784.85868 L1551.48912,1784.85868 L1548.93912,1774.62868 Z M2019.07912,1784.85868 C2007.95912,1829.67868 1978.16912,1806.71868 1942.41912,1825.77868 C1907.14912,1844.57868 1897.91912,1891.64868 1865.76912,1912.71868 C1850.86912,1922.48868 1823.27912,1915.89868 1804.44912,1922.94868 C1808.70912,1928.06868 1812.96579,1933.18201 1817.21912,1938.28868 C1824.03912,1942.55534 1830.85246,1946.81868 1837.65912,1951.07868 C1833.40912,1946.81868 1829.15246,1942.55534 1824.88912,1938.28868 L1827.43912,1935.73868 C1864.93912,1955.16868 1960.00912,1975.39868 2011.40912,1940.84868 C2012.25912,1934.88868 2013.11246,1928.92201 2013.96912,1922.94868 L2011.40912,1922.94868 C2008.43912,1938.35868 2003.73912,1942.91868 1988.41912,1945.96868 C2008.74912,1898.08868 2024.04912,1869.67868 1998.63912,1818.09868 C2011.79912,1813.21868 2023.65912,1798.93868 2019.07912,1784.85868 L2019.07912,1784.85868 Z M1551.48912,1787.41868 C1554.86912,1807.00868 1562.24912,1810.70868 1574.48912,1820.65868 C1561.62912,1834.81868 1557.44912,1864.00868 1548.93912,1882.03868 C1552.33912,1879.47868 1555.74579,1876.91868 1559.15912,1874.35868 C1559.24912,1909.25868 1574.02912,1923.17868 1584.70912,1945.96868 C1569.83912,1942.96868 1566.16912,1938.71868 1561.70912,1925.50868 L1559.15912,1925.50868 C1560.85912,1932.32868 1562.56246,1939.14868 1564.26912,1945.96868 C1582.17912,1952.32868 1685.85912,1967.31868 1707.34912,1961.30868 C1718.03912,1958.31868 1733.03912,1940.94868 1748.23912,1935.73868 L1748.23912,1938.28868 C1743.12912,1943.40868 1738.01912,1948.52534 1732.90912,1953.63868 C1747.41912,1945.77868 1757.08912,1936.21868 1766.11912,1922.94868 L1766.11912,1920.38868 C1669.29912,1921.73868 1690.28912,1854.64868 1633.25912,1825.77868 C1587.12912,1802.41868 1583.64912,1833.05868 1551.48912,1787.41868 Z M2019.07912,1876.91868 C2021.62912,1880.32868 2024.18246,1883.73868 2026.73912,1887.14868 C2024.18912,1883.73868 2021.63579,1880.32868 2019.07912,1876.91868 Z M1776.33912,1907.60868 C1775.48912,1910.15868 1774.63912,1912.71534 1773.78912,1915.27868 C1775.48912,1913.56868 1777.19246,1911.86534 1778.89912,1910.16868 C1778.04912,1909.30868 1777.18912,1908.45868 1776.33912,1907.60868 L1776.33912,1907.60868 Z M1794.22912,1910.16868 L1799.33912,1915.27868 L1794.22912,1910.16868 Z M1837.65912,1953.63868 C1839.36912,1955.33868 1841.06912,1957.04868 1842.76912,1958.74868 C1841.06912,1957.04868 1839.36912,1955.33868 1837.65912,1953.63868 Z M1776.33912,1956.19868 C1766.11912,1973.23868 1755.89912,1990.28534 1745.67912,2007.33868 L1745.67912,1981.76868 C1741.41912,2004.77868 1737.16246,2027.79201 1732.90912,2050.80868 L1735.45912,2050.80868 C1738.01912,2045.69868 1740.57579,2040.58534 1743.12912,2035.46868 C1748.13912,2050.25868 1754.04912,2053.43868 1773.78912,2053.36868 C1777.22912,2043.24868 1780.32912,2040.06868 1789.11912,2035.46868 C1794.22912,2047.66868 1795.67912,2052.06868 1809.55912,2053.36868 C1822.20912,2048.03868 1824.56912,2044.70868 1832.54912,2035.46868 C1834.25912,2038.87868 1835.96246,2042.28868 1837.65912,2045.69868 C1834.25912,2025.23868 1830.85246,2004.78201 1827.43912,1984.32868 L1824.88912,1984.32868 L1824.88912,2004.77868 C1824.03912,2003.07868 1823.18912,2001.36868 1822.32912,1999.66868 C1812.96912,1985.17868 1803.60246,1970.68868 1794.22912,1956.19868 C1790.09912,1960.01868 1788.81912,1962.97868 1784.00912,1966.41868 C1780.62912,1956.63868 1784.00912,1961.10868 1776.33912,1956.19868 L1776.33912,1956.19868 Z M1704.79912,1976.64868 C1706.49912,1977.50868 1708.20912,1978.35868 1709.90912,1979.20868 C1708.20912,1978.35868 1706.49912,1977.50868 1704.79912,1976.64868 L1704.79912,1976.64868 Z M1860.65912,1976.64868 C1863.21912,1977.50868 1865.76912,1978.35868 1868.32912,1979.20868 C1865.76912,1978.35868 1863.21912,1977.50868 1860.65912,1976.64868 Z M1712.45912,1979.20868 C1715.01912,1980.91868 1717.57579,1982.62534 1720.12912,1984.32868 C1717.57912,1982.61868 1715.02246,1980.91201 1712.45912,1979.20868 Z M1850.43912,1981.76868 C1849.58912,1983.46868 1848.73912,1985.17868 1847.87912,1986.87868 C1849.58912,1985.17868 1851.28912,1983.46868 1852.99912,1981.76868 L1850.43912,1981.76868 Z M1722.68912,1984.32868 C1724.38912,1986.02868 1726.08912,1987.73868 1727.79912,1989.43868 C1726.08912,1987.73868 1724.38912,1986.02868 1722.68912,1984.32868 Z M1837.65912,2048.25868 C1839.36912,2051.66868 1841.07246,2055.07868 1842.76912,2058.48868 C1841.06912,2055.07868 1839.36579,2051.66868 1837.65912,2048.25868 Z" id="Skull1" fill="#000000"></path>
            <path d="M2038.22912,2550.72868 C2034.51912,2552.26201 2030.80579,2553.79201 2027.08912,2555.31868 C2016.88912,2540.75868 2006.68246,2526.19868 1996.46912,2511.63868 C1974.98912,2516.34868 1957.85912,2524.99868 1951.77912,2551.00868 C1961.87912,2564.29868 1971.97912,2577.59201 1982.07912,2590.88868 C1976.39912,2591.91868 1970.72246,2592.94868 1965.04912,2593.97868 C1885.91912,2564.85868 1930.66912,2531.10868 1891.04912,2492.23868 C1798.03912,2415.35868 1705.01912,2338.47534 1611.98912,2261.58868 C1591.86912,2258.52868 1571.74912,2255.47201 1551.62912,2252.41868 C1507.74912,2231.78868 1512.62912,2174.06868 1523.48912,2147.48868 C1538.62912,2167.42868 1553.77579,2187.37201 1568.92912,2207.31868 C1576.46912,2205.51868 1584.00579,2203.72201 1591.53912,2201.92868 C1605.62912,2197.58868 1619.87912,2178.81868 1623.01912,2165.38868 C1610.51912,2146.53868 1598.02246,2127.68201 1585.52912,2108.81868 C1589.93912,2107.87868 1594.34246,2106.93868 1598.73912,2105.99868 C1686.69912,2139.90868 1649.27912,2178.68868 1685.81912,2225.91868 C1769.21912,2302.82868 1852.63246,2379.74201 1936.05912,2456.65868 L2010.58912,2474.38868 C2040.01912,2491.95868 2036.96912,2529.60868 2038.22912,2550.72868 Z M1980.02912,2476.50868 C1963.76912,2476.57868 1928.52912,2488.48868 1921.47912,2511.11868 C1941.74912,2489.79868 1959.84912,2486.25868 1980.02912,2476.50868 Z M1871.10912,2461.17868 C1804.91912,2405.97868 1738.72579,2350.77201 1672.52912,2295.55868 C1716.73912,2333.87868 1828.27912,2446.34868 1871.10912,2461.17868 Z M1893.19912,2427.19868 C1854.44912,2388.41868 1752.48912,2288.87868 1706.63912,2264.31868 C1769.82912,2317.41868 1831.51912,2372.31868 1893.19912,2427.19868 Z M1657.45912,2208.80868 C1659.09912,2205.50868 1660.73912,2202.21201 1662.37912,2198.91868 L1660.30912,2197.14868 C1631.25912,2233.12868 1609.99912,2240.29868 1580.12912,2248.52868 C1606.60912,2250.30868 1633.56912,2236.91868 1657.45912,2208.80868 Z" id="Фигура_2" fill="#000000"></path>
            <path d="M1926.92912,2369.89868 C1922.70912,2364.79868 1918.49246,2359.69201 1914.27912,2354.57868 C1926.82912,2343.24868 1939.37912,2331.92201 1951.92912,2320.59868 C1942.98912,2322.09868 1930.75912,2302.45868 1915.55912,2281.82868 C1797.92912,2365.95868 1698.54912,2424.28868 1696.38912,2531.05868 C1677.44912,2548.65868 1660.46912,2565.60868 1642.89912,2556.46868 C1644.66912,2555.06868 1646.43579,2553.67201 1648.19912,2552.27868 C1653.68912,2546.53868 1659.17246,2540.79868 1664.64912,2535.05868 C1651.96912,2534.46868 1647.55912,2536.88868 1639.22912,2546.70868 C1641.24912,2512.12868 1663.35912,2501.76868 1629.95912,2461.19868 C1602.10912,2449.24868 1591.35912,2458.66868 1562.79912,2459.42868 C1562.97912,2457.87868 1563.15912,2456.32868 1563.34912,2454.77868 C1575.25912,2445.12868 1578.15912,2442.22868 1580.32912,2432.90868 C1571.67912,2438.34868 1563.02579,2443.78534 1554.36912,2449.21868 C1551.55912,2445.80868 1548.74912,2442.40201 1545.93912,2438.99868 C1560.06912,2427.82868 1574.20579,2416.65534 1588.34912,2405.47868 L1593.10912,2405.92868 C1618.65912,2406.82868 1644.21579,2407.72201 1669.77912,2408.60868 C1736.90912,2389.16868 1827.93912,2295.88868 1886.04912,2246.07868 C1867.49912,2224.40868 1852.65912,2211.48868 1852.85912,2200.57868 C1839.60912,2211.04534 1826.35579,2221.52201 1813.09912,2232.00868 C1808.88912,2226.89868 1804.67579,2221.79201 1800.45912,2216.68868 C1827.66912,2193.71868 1897.64912,2125.29868 1923.39912,2132.14868 C1937.47912,2142.11868 1951.55246,2152.09201 1965.61912,2162.06868 C1946.61912,2143.08868 1916.22912,2118.39868 1930.20912,2113.84868 C1947.91912,2128.23868 1963.39912,2139.91868 1978.87912,2151.58868 C1965.34912,2136.96868 1951.81579,2122.34534 1938.27912,2107.71868 C1942.33912,2107.32868 1946.39579,2106.93534 1950.44912,2106.53868 C1964.33912,2118.06868 1978.23246,2129.59534 1992.12912,2141.11868 C1978.59912,2126.48868 1965.06912,2111.86534 1951.53912,2097.24868 C1956.65912,2094.60868 1961.77912,2091.96534 1966.89912,2089.31868 C1991.88912,2110.52868 2047.05912,2150.90868 2058.61912,2189.82868 C2057.73912,2190.52868 2056.85912,2191.22868 2055.96912,2191.91868 C2038.22912,2172.19868 2020.48246,2152.46868 2002.72912,2132.72868 C2035.07912,2169.72868 2082.58912,2206.16868 2084.39912,2236.96868 C2085.79912,2238.67868 2087.20912,2240.37868 2088.60912,2242.07868 C2085.07912,2244.86868 2081.54579,2247.66201 2078.00912,2250.45868 C2065.36912,2235.13868 2052.72246,2219.81868 2040.06912,2204.49868 C2047.95912,2219.35868 2060.05912,2239.32868 2067.94912,2254.18868 C2066.28325,2255.71137 2064.5122,2257.11484 2062.64912,2258.38868 C2052.81912,2246.46868 2036.64912,2226.88868 2026.81912,2214.96868 C2036.10912,2231.53868 2045.40246,2248.10534 2054.69912,2264.66868 C2052.04912,2266.76868 2049.39912,2268.86534 2046.74912,2270.95868 C2039.39912,2255.66868 2028.28912,2231.35868 2011.45912,2222.89868 C2029.24912,2244.05868 2035.46912,2260.50868 2040.89912,2279.79868 C2002.91912,2309.82868 1964.92912,2339.86201 1926.92912,2369.89868 Z M2006.33912,2163.63868 C2011.98505,2171.83357 2018.33224,2179.52248 2025.30912,2186.61868 C2020.60912,2179.94868 2011.71912,2168.80868 2006.33912,2163.63868 L2006.33912,2163.63868 Z M1975.67912,2158.33868 C1981.5282,2166.38092 1987.86686,2174.05544 1994.65912,2181.31868 C1989.8464,2172.52476 1983.40532,2164.72625 1975.67912,2158.33868 L1975.67912,2158.33868 Z M2005.19912,2194.08868 C2008.88565,2202.28721 2014.70897,2209.34358 2022.05912,2214.51868 L2005.19912,2194.08868 Z M1991.93912,2204.56868 C1992.45912,2206.96868 1992.98912,2209.36868 1993.50912,2211.76868 C1992.98912,2209.36868 1992.45912,2206.96868 1991.93912,2204.56868 L1991.93912,2204.56868 Z M1969.23912,2192.97868 C1959.99912,2191.26868 1960.51912,2189.59868 1950.19912,2191.13868 C1941.02912,2194.17868 1931.85246,2197.21534 1922.66912,2200.24868 C1919.29912,2208.53868 1915.92579,2216.83201 1912.54912,2225.12868 C1917.10912,2234.18868 1921.66579,2243.24534 1926.21912,2252.29868 C1943.22912,2259.79868 1950.70912,2260.31868 1969.04912,2256.42868 C1984.11912,2242.40868 1988.39912,2233.74868 1985.55912,2218.04868 C1980.11912,2209.69868 1974.67912,2201.34201 1969.23912,2192.97868 L1969.23912,2192.97868 Z M1966.03912,2199.71868 C1979.03912,2216.19868 1980.15912,2221.35868 1973.86912,2235.72868 C1968.56912,2239.91868 1963.26912,2244.11201 1957.96912,2248.30868 C1951.43579,2249.24868 1944.90912,2250.18534 1938.38912,2251.11868 C1922.92912,2232.35868 1924.59912,2227.76868 1923.69912,2212.09868 C1924.57912,2211.39868 1925.45912,2210.69868 1926.34912,2209.99868 C1934.11912,2205.26534 1941.88912,2200.52868 1949.65912,2195.78868 L1966.03912,2199.71868 Z M1975.24912,2306.38868 L1961.44912,2321.50868 L1975.24912,2306.38868 Z M1869.30912,2183.35868 L1855.50912,2198.47868 L1869.30912,2183.35868 Z M1896.58912,2258.84868 C1862.71912,2289.46868 1734.14912,2380.48868 1723.20912,2404.35868 C1725.49912,2405.35868 1727.78912,2406.36201 1730.07912,2407.36868 C1788.38912,2361.26868 1846.70246,2315.16868 1905.01912,2269.06868 C1902.20912,2265.65868 1899.39912,2262.25201 1896.58912,2258.84868 L1896.58912,2258.84868 Z M1649.05912,2441.87868 C1656.08912,2450.38868 1663.11579,2458.90201 1670.13912,2467.41868 C1663.10912,2458.89868 1656.08246,2450.38534 1649.05912,2441.87868 L1649.05912,2441.87868 Z M1635.86912,2431.20868 C1628.81912,2429.74201 1621.77246,2428.27868 1614.72912,2426.81868 C1623.17912,2429.97868 1631.63246,2433.14201 1640.08912,2436.30868 C1638.67912,2434.60868 1637.27912,2432.90868 1635.86912,2431.20868 L1635.86912,2431.20868 Z M1673.80912,2477.16868 C1675.19912,2485.91868 1676.58579,2494.67201 1677.96912,2503.42868 C1676.57912,2494.67868 1675.19246,2485.92534 1673.80912,2477.16868 L1673.80912,2477.16868 Z M1648.67912,2568.77868 C1577.20912,2630.42868 1482.75912,2568.96868 1506.11912,2491.57868 C1508.58912,2491.03868 1511.05912,2490.48868 1513.52912,2489.94868 L1514.54912,2501.79868 C1513.34912,2491.49868 1512.14579,2481.19534 1510.93912,2470.88868 C1521.71912,2460.95534 1532.50246,2451.02534 1543.28912,2441.09868 C1545.39912,2443.64868 1547.50579,2446.20201 1549.60912,2448.75868 C1550.12912,2451.15868 1550.65912,2453.55868 1551.17912,2455.95868 C1546.57912,2460.99868 1541.97912,2466.04201 1537.37912,2471.08868 C1550.25912,2468.49868 1551.98912,2467.07868 1558.03912,2458.96868 C1557.45912,2481.81868 1540.47912,2494.14868 1546.22912,2518.94868 C1567.89912,2570.51868 1600.22912,2547.93868 1633.92912,2550.89868 C1624.92912,2556.50868 1620.26912,2556.66868 1617.47912,2568.12868 C1620.64912,2568.42868 1623.82912,2568.73868 1626.99912,2569.03868 L1638.13912,2556.00868 C1641.65912,2560.26868 1645.17246,2564.52534 1648.67912,2568.77868 L1648.67912,2568.77868 Z M1589.40912,2581.87868 C1553.30912,2579.47868 1523.70912,2538.55868 1516.65912,2504.34868 C1515.40912,2508.14868 1514.16246,2511.94868 1512.91912,2515.74868 C1527.13912,2542.71868 1550.08912,2579.94868 1579.34912,2585.60868 C1582.70912,2584.36868 1586.06246,2583.12534 1589.40912,2581.87868 L1589.40912,2581.87868 Z" id="Фигура_4" fill="#000000"></path>
            <path d="M2320.00254,1442 C2332.28063,1465.96952 2352.32508,1513.33587 2360.00063,1545.97968 C2389.72508,1544.27556 2442.05714,1547.9073 2476,1553.97651 C2454.42603,1576.29079 2397.20508,1608.73905 2388,1617.96508 C2397.76381,1655.74921 2420.90921,1732.25333 2415.99937,1733.93651 C2406.54286,1732.83302 2330.22032,1673.32825 2323.79492,1673.93587 C2318.54984,1674.42476 2230.45905,1730.30476 2223.99873,1725.93968 C2218.49524,1723.2927 2253.58349,1629.67746 2256,1617.96508 C2244.49714,1606.97206 2189.1619,1563.73333 2168,1545.97968 C2195.37079,1545.97968 2247.22794,1543.44444 2279.99746,1541.97778 C2293.33249,1508.65651 2306.66751,1475.33058 2320.00254,1442 Z" id="Фигура_6" fill="#000000"></path>
            <path d="M1203.00254,2342 C1215.28063,2365.96952 1235.32508,2413.33587 1243.00063,2445.97968 C1272.72508,2444.27556 1325.05714,2447.9073 1359,2453.97651 C1337.42603,2476.29079 1280.20508,2508.73905 1271,2517.96508 C1280.76381,2555.74921 1303.90921,2632.25333 1298.99937,2633.93651 C1289.54286,2632.83302 1213.22032,2573.32825 1206.79492,2573.93587 C1201.54984,2574.42476 1113.45905,2630.30476 1106.99873,2625.93968 C1101.49524,2623.2927 1136.58349,2529.67746 1139,2517.96508 C1127.49714,2506.97206 1072.1619,2463.73333 1051,2445.97968 C1078.37079,2445.97968 1130.22794,2443.44444 1162.99746,2441.97778 C1176.33249,2408.65651 1189.66751,2375.33058 1203.00254,2342 Z" id="Фигура_6-Copy" fill="#000000"></path>
            <path d="M469.205874,2090.4 C466.005858,2090.4 463.80588,2091.49999 462.605874,2093.7 C461.405868,2095.90001 460.605876,2098.79998 460.205874,2102.4 L453.005874,2102.4 L453.005874,2018.4 L460.205874,2018.4 C461.005878,2025.60004 464.005848,2029.2 469.205874,2029.2 L646.205874,2029.2 L646.205874,2036.4 C639.805842,2036.8 636.605874,2040.19997 636.605874,2046.6 L636.605874,2146.2 C636.605874,2149.00001 637.00587,2151.39999 637.805874,2153.4 C638.605878,2155.40001 640.605858,2156.4 643.805874,2156.4 L646.805874,2156.4 L646.805874,2163.6 C592.405602,2192.40014 528.006246,2206.8 453.605874,2206.8 C428.405748,2206.8 404.105991,2203.70003 380.705874,2197.5 C357.305757,2191.29997 336.605964,2181.60007 318.605874,2168.4 C300.605784,2155.19993 286.105929,2138.5001 275.105874,2118.3 C264.105819,2098.0999 258.605874,2074.40014 258.605874,2047.2 C258.605874,2019.99986 264.105819,1996.3001 275.105874,1976.1 C286.105929,1955.8999 300.605784,1939.10007 318.605874,1925.7 C336.605964,1912.29993 357.305757,1902.30003 380.705874,1895.7 C404.105991,1889.09997 428.405748,1885.8 453.605874,1885.8 C463.605924,1885.8 472.405836,1886 480.005874,1886.4 C487.605912,1886.8 495.005838,1887.59999 502.205874,1888.8 C509.40591,1890.00001 516.805836,1891.49999 524.405874,1893.3 C532.005912,1895.10001 541.005822,1897.39999 551.405874,1900.2 C561.405924,1903.00001 570.605832,1906.29998 579.005874,1910.1 C587.405916,1913.90002 592.805862,1915.8 595.205874,1915.8 C598.40589,1915.8 601.205862,1914.20002 603.605874,1911 L610.805874,1913.4 L571.805874,1992.6 L564.605874,1988.4 C565.405878,1985.99999 565.805874,1983.80001 565.805874,1981.8 C565.805874,1978.99999 562.405908,1975.90002 555.605874,1972.5 C548.80584,1969.09998 540.205926,1966.00001 529.805874,1963.2 C519.405822,1960.39999 507.705939,1958.00001 494.705874,1956 C481.705809,1953.99999 469.005936,1953 456.605874,1953 C442.205802,1953 428.505939,1954.89998 415.505874,1958.7 C402.505809,1962.50002 390.905925,1968.39996 380.705874,1976.4 C370.505823,1984.40004 362.405904,1994.29994 356.405874,2006.1 C350.405844,2017.90006 347.405874,2031.99992 347.405874,2048.4 C347.405874,2064.40008 351.005838,2078.29994 358.205874,2090.1 C365.40591,2101.90006 374.505819,2111.59996 385.505874,2119.2 C396.505929,2126.80004 408.805806,2132.39998 422.405874,2136 C436.005942,2139.60002 449.405808,2141.4 462.605874,2141.4 C479.405958,2141.4 494.505807,2140.40001 507.905874,2138.4 C521.305941,2136.39999 534.205812,2133.60002 546.605874,2130 L546.605874,2090.4 L469.205874,2090.4 Z M924.535291,2197.8 C925.735297,2197.8 927.335281,2197.6 929.335291,2197.2 C931.335301,2196.8 932.335291,2195.20001 932.335291,2192.4 C932.335291,2190.79999 931.635298,2188.30002 930.235291,2184.9 C928.835284,2181.49998 927.2353,2177.80002 925.435291,2173.8 C923.635282,2169.79998 921.735301,2165.80002 919.735291,2161.8 C917.735281,2157.79998 916.135297,2154.40001 914.935291,2151.6 L775.735291,2151.6 C774.935287,2154.40001 773.6353,2157.79998 771.835291,2161.8 C770.035282,2165.80002 768.135301,2169.79998 766.135291,2173.8 C764.135281,2177.80002 762.335299,2181.49998 760.735291,2184.9 C759.135283,2188.30002 758.335291,2190.79999 758.335291,2192.4 C758.335291,2195.20001 759.335281,2196.8 761.335291,2197.2 C763.335301,2197.6 764.935285,2197.8 766.135291,2197.8 L766.135291,2205 L676.135291,2205 L676.135291,2197.8 C678.535303,2197.8 680.935279,2197.30001 683.335291,2196.3 C685.735303,2195.29999 687.335287,2193.80001 688.135291,2191.8 C700.135351,2163.79986 712.335229,2136.10014 724.735291,2108.7 C737.135353,2081.29986 748.235242,2056.50011 758.035291,2034.3 C767.83534,2012.09989 775.935259,1993.70007 782.335291,1979.1 C788.735323,1964.49993 791.935291,1956.20001 791.935291,1954.2 C791.935291,1950.59998 789.335317,1948.6 784.135291,1948.2 L784.135291,1941 L909.535291,1941 L909.535291,1948.2 C904.335265,1948.6 901.735291,1950.59998 901.735291,1954.2 C901.735291,1955.40001 903.83527,1960.69995 908.035291,1970.1 C912.235312,1979.50005 917.735257,1991.29993 924.535291,2005.5 C931.335325,2019.70007 938.83525,2035.39991 947.035291,2052.6 L971.635291,2104.2 C979.835332,2121.40009 987.535255,2137.69992 994.735291,2153.1 C1001.93533,2168.50008 1007.73527,2181.39995 1012.13529,2191.8 C1012.9353,2193.80001 1014.53528,2195.29999 1016.93529,2196.3 C1019.3353,2197.30001 1021.73528,2197.8 1024.13529,2197.8 L1024.13529,2205 L924.535291,2205 L924.535291,2197.8 Z M844.135291,2003.4 L794.935291,2108.4 L894.535291,2108.4 L844.135291,2003.4 Z M1112.86471,2083.2 C1112.0647,2085.60001 1111.66471,2089.79997 1111.66471,2095.8 C1111.66471,2099.80002 1115.36467,2104.29997 1122.76471,2109.3 C1130.16475,2114.30003 1139.76465,2118.99998 1151.56471,2123.4 C1163.36477,2127.80002 1176.86463,2131.49998 1192.06471,2134.5 C1207.26478,2137.50002 1222.66463,2139 1238.26471,2139 C1268.26486,2139 1290.26464,2135.50004 1304.26471,2128.5 C1318.26478,2121.49996 1325.26471,2111.40007 1325.26471,2098.2 C1325.26471,2090.99996 1319.16477,2085.90002 1306.96471,2082.9 C1294.76465,2079.89999 1279.4648,2077.50001 1261.06471,2075.7 C1242.66462,2073.89999 1222.86481,2071.90001 1201.66471,2069.7 C1180.4646,2067.49999 1160.6648,2063.50003 1142.26471,2057.7 C1123.86462,2051.89997 1108.56477,2043.50005 1096.36471,2032.5 C1084.16465,2021.49995 1078.06471,2006.4001 1078.06471,1987.2 C1078.06471,1971.99992 1081.56467,1958.20006 1088.56471,1945.8 C1095.56474,1933.39994 1105.36465,1922.80004 1117.96471,1914 C1130.56477,1905.19996 1145.86462,1898.30003 1163.86471,1893.3 C1181.8648,1888.29997 1201.8646,1885.8 1223.86471,1885.8 C1244.26481,1885.8 1263.26462,1887.09999 1280.86471,1889.7 C1298.4648,1892.30001 1314.06464,1895.19998 1327.66471,1898.4 C1341.26478,1901.60002 1352.66466,1904.49999 1361.86471,1907.1 C1371.06475,1909.70001 1377.66469,1911 1381.66471,1911 C1385.66473,1911 1388.8647,1910.10001 1391.26471,1908.3 C1393.66472,1906.49999 1395.8647,1904.40001 1397.86471,1902 L1404.46471,1904.4 L1363.06471,1987.8 L1355.86471,1984.2 L1355.86471,1977.6 C1355.86471,1973.99998 1351.96475,1970.30002 1344.16471,1966.5 C1336.36467,1962.69998 1326.46477,1959.30002 1314.46471,1956.3 C1302.46465,1953.29999 1289.06478,1950.80001 1274.26471,1948.8 C1259.46463,1946.79999 1245.06478,1945.8 1231.06471,1945.8 C1205.06458,1945.8 1186.86476,1948.79997 1176.46471,1954.8 C1166.06466,1960.80003 1160.86471,1967.19997 1160.86471,1974 C1160.86471,1980.80003 1164.46467,1985.89998 1171.66471,1989.3 C1178.86474,1992.70002 1188.26465,1995.19999 1199.86471,1996.8 C1211.46477,1998.40001 1224.66463,1999.69999 1239.46471,2000.7 C1254.26478,2001.70001 1269.46463,2003.19999 1285.06471,2005.2 C1300.66479,2007.20001 1315.86463,2009.99998 1330.66471,2013.6 C1345.46478,2017.20002 1358.66465,2022.49996 1370.26471,2029.5 C1381.86477,2036.50004 1391.26467,2045.69994 1398.46471,2057.1 C1405.66474,2068.50006 1409.26471,2082.79991 1409.26471,2100 C1409.26471,2113.20007 1406.56474,2126.19994 1401.16471,2139 C1395.76468,2151.80006 1386.56477,2163.29995 1373.56471,2173.5 C1360.56464,2183.70005 1343.16482,2191.79997 1321.36471,2197.8 C1299.5646,2203.80003 1272.46487,2206.8 1240.06471,2206.8 C1214.86458,2206.8 1193.1648,2205.60001 1174.96471,2203.2 C1156.76462,2200.79999 1141.26477,2197.90002 1128.46471,2194.5 C1115.66464,2191.09998 1105.56475,2188.00001 1098.16471,2185.2 C1090.76467,2182.39999 1085.26473,2181 1081.66471,2181 C1079.2647,2181 1077.16472,2181.79999 1075.36471,2183.4 C1073.5647,2185.00001 1071.66472,2186.79999 1069.66471,2188.8 L1062.46471,2187 L1106.86471,2080.2 L1112.86471,2083.2 Z" id="GaS" fill="#000000"></path>
            <path d="M2183.57646,2083.2 C2182.77645,2085.60001 2182.37646,2089.79997 2182.37646,2095.8 C2182.37646,2099.80002 2186.07642,2104.29997 2193.47646,2109.3 C2200.87649,2114.30003 2210.4764,2118.99998 2222.27646,2123.4 C2234.07652,2127.80002 2247.57638,2131.49998 2262.77646,2134.5 C2277.97653,2137.50002 2293.37638,2139 2308.97646,2139 C2338.97661,2139 2360.97639,2135.50004 2374.97646,2128.5 C2388.97653,2121.49996 2395.97646,2111.40007 2395.97646,2098.2 C2395.97646,2090.99996 2389.87652,2085.90002 2377.67646,2082.9 C2365.4764,2079.89999 2350.17655,2077.50001 2331.77646,2075.7 C2313.37637,2073.89999 2293.57656,2071.90001 2272.37646,2069.7 C2251.17635,2067.49999 2231.37655,2063.50003 2212.97646,2057.7 C2194.57637,2051.89997 2179.27652,2043.50005 2167.07646,2032.5 C2154.8764,2021.49995 2148.77646,2006.4001 2148.77646,1987.2 C2148.77646,1971.99992 2152.27642,1958.20006 2159.27646,1945.8 C2166.27649,1933.39994 2176.07639,1922.80004 2188.67646,1914 C2201.27652,1905.19996 2216.57637,1898.30003 2234.57646,1893.3 C2252.57655,1888.29997 2272.57635,1885.8 2294.57646,1885.8 C2314.97656,1885.8 2333.97637,1887.09999 2351.57646,1889.7 C2369.17655,1892.30001 2384.77639,1895.19998 2398.37646,1898.4 C2411.97653,1901.60002 2423.37641,1904.49999 2432.57646,1907.1 C2441.7765,1909.70001 2448.37644,1911 2452.37646,1911 C2456.37648,1911 2459.57645,1910.10001 2461.97646,1908.3 C2464.37647,1906.49999 2466.57645,1904.40001 2468.57646,1902 L2475.17646,1904.4 L2433.77646,1987.8 L2426.57646,1984.2 L2426.57646,1977.6 C2426.57646,1973.99998 2422.6765,1970.30002 2414.87646,1966.5 C2407.07642,1962.69998 2397.17652,1959.30002 2385.17646,1956.3 C2373.1764,1953.29999 2359.77653,1950.80001 2344.97646,1948.8 C2330.17638,1946.79999 2315.77653,1945.8 2301.77646,1945.8 C2275.77633,1945.8 2257.57651,1948.79997 2247.17646,1954.8 C2236.77641,1960.80003 2231.57646,1967.19997 2231.57646,1974 C2231.57646,1980.80003 2235.17642,1985.89998 2242.37646,1989.3 C2249.57649,1992.70002 2258.9764,1995.19999 2270.57646,1996.8 C2282.17652,1998.40001 2295.37638,1999.69999 2310.17646,2000.7 C2324.97653,2001.70001 2340.17638,2003.19999 2355.77646,2005.2 C2371.37654,2007.20001 2386.57638,2009.99998 2401.37646,2013.6 C2416.17653,2017.20002 2429.3764,2022.49996 2440.97646,2029.5 C2452.57652,2036.50004 2461.97642,2045.69994 2469.17646,2057.1 C2476.37649,2068.50006 2479.97646,2082.79991 2479.97646,2100 C2479.97646,2113.20007 2477.27648,2126.19994 2471.87646,2139 C2466.47643,2151.80006 2457.27652,2163.29995 2444.27646,2173.5 C2431.27639,2183.70005 2413.87657,2191.79997 2392.07646,2197.8 C2370.27635,2203.80003 2343.17662,2206.8 2310.77646,2206.8 C2285.57633,2206.8 2263.87655,2205.60001 2245.67646,2203.2 C2227.47637,2200.79999 2211.97652,2197.90002 2199.17646,2194.5 C2186.37639,2191.09998 2176.27649,2188.00001 2168.87646,2185.2 C2161.47642,2182.39999 2155.97648,2181 2152.37646,2181 C2149.97645,2181 2147.87647,2181.79999 2146.07646,2183.4 C2144.27645,2185.00001 2142.37647,2186.79999 2140.37646,2188.8 L2133.17646,2187 L2177.57646,2080.2 L2183.57646,2083.2 Z M2722.30587,2197.8 C2725.10589,2197.8 2728.60585,2197.20001 2732.80587,2196 C2737.0059,2194.79999 2739.10587,2192.00002 2739.10587,2187.6 C2739.10587,2186.39999 2737.70589,2183.50002 2734.90587,2178.9 C2732.10586,2174.29998 2728.6059,2168.80003 2724.40587,2162.4 C2720.20585,2155.99997 2715.5059,2148.90004 2710.30587,2141.1 C2705.10585,2133.29996 2700.1059,2125.90004 2695.30587,2118.9 C2690.50585,2111.89997 2686.20589,2105.60003 2682.40587,2100 C2678.60586,2094.39997 2675.90588,2090.20001 2674.30587,2087.4 L2622.10587,2137.8 L2622.10587,2187 C2622.10587,2191.40002 2623.90586,2194.19999 2627.50587,2195.4 C2631.10589,2196.60001 2634.90585,2197.4 2638.90587,2197.8 L2638.90587,2205 L2526.70587,2205 L2526.70587,2197.8 C2530.30589,2198.2 2533.70586,2197.60001 2536.90587,2196 C2540.10589,2194.39999 2541.70587,2191.40002 2541.70587,2187 L2541.70587,1959 C2541.70587,1954.59998 2540.10589,1951.60001 2536.90587,1950 C2533.70586,1948.39999 2530.30589,1947.8 2526.70587,1948.2 L2526.70587,1941 L2638.90587,1941 L2638.90587,1948.2 C2634.90585,1948.6 2631.10589,1949.39999 2627.50587,1950.6 C2623.90586,1951.80001 2622.10587,1954.59998 2622.10587,1959 L2622.10587,2069.4 C2628.1059,2064.19997 2635.20583,2058.00004 2643.40587,2050.8 C2651.60592,2043.59996 2660.20583,2036.10004 2669.20587,2028.3 C2678.20592,2020.49996 2687.10583,2012.80004 2695.90587,2005.2 C2704.70592,1997.59996 2712.60584,1990.50003 2719.60587,1983.9 C2726.60591,1977.29997 2732.20585,1971.80002 2736.40587,1967.4 C2740.6059,1962.99998 2742.70587,1960.20001 2742.70587,1959 C2742.70587,1954.59998 2741.00589,1951.80001 2737.60587,1950.6 C2734.20586,1949.39999 2730.90589,1948.6 2727.70587,1948.2 L2727.70587,1941 L2844.70587,1941 L2844.70587,1948.2 C2838.70584,1949 2830.90592,1953.19996 2821.30587,1960.8 C2811.70583,1968.40004 2801.50593,1977.09995 2790.70587,1986.9 C2779.90582,1996.70005 2769.20593,2006.69995 2758.60587,2016.9 C2748.00582,2027.10005 2738.90591,2035.19997 2731.30587,2041.2 L2830.90587,2188.8 C2832.90588,2192.00002 2835.00586,2194.19999 2837.20587,2195.4 C2839.40589,2196.60001 2841.90586,2197.4 2844.70587,2197.8 L2844.70587,2205 L2722.30587,2205 L2722.30587,2197.8 Z M2905.83529,1959 C2905.83529,1954.59998 2904.13531,1951.80001 2900.73529,1950.6 C2897.33527,1949.39999 2893.23532,1948.6 2888.43529,1948.2 L2888.43529,1941 L2996.43529,1941 L2996.43529,1948.2 C2994.43528,1948.6 2992.2353,1949.39999 2989.83529,1950.6 C2987.43528,1951.80001 2986.23529,1954.59998 2986.23529,1959 L2986.23529,2104.8 C2986.23529,2120.00008 2991.73524,2130.89997 3002.73529,2137.5 C3013.73535,2144.10003 3028.2352,2147.4 3046.23529,2147.4 C3064.23538,2147.4 3078.73524,2144.10003 3089.73529,2137.5 C3100.73535,2130.89997 3106.23529,2120.00008 3106.23529,2104.8 L3106.23529,1959 C3106.23529,1954.59998 3105.0353,1951.80001 3102.63529,1950.6 C3100.23528,1949.39999 3098.0353,1948.6 3096.03529,1948.2 L3096.03529,1941 L3204.03529,1941 L3204.03529,1948.2 C3199.23527,1948.6 3195.13531,1949.39999 3191.73529,1950.6 C3188.33527,1951.80001 3186.63529,1954.59998 3186.63529,1959 L3186.63529,2091 C3186.63529,2107.00008 3184.23532,2122.09993 3179.43529,2136.3 C3174.63527,2150.50007 3166.83535,2162.89995 3156.03529,2173.5 C3145.23524,2184.10005 3130.83538,2192.29997 3112.83529,2198.1 C3094.8352,2203.90003 3072.63542,2206.8 3046.23529,2206.8 C3019.83516,2206.8 2997.63538,2203.90003 2979.63529,2198.1 C2961.6352,2192.29997 2947.23535,2184.10005 2936.43529,2173.5 C2925.63524,2162.89995 2917.83532,2150.50007 2913.03529,2136.3 C2908.23527,2122.09993 2905.83529,2107.00008 2905.83529,2091 L2905.83529,1959 Z M3283.76471,1959 C3283.76471,1954.59998 3282.16472,1951.80001 3278.96471,1950.6 C3275.76469,1949.39999 3271.96473,1948.6 3267.56471,1948.2 L3267.56471,1941 L3379.76471,1941 L3379.76471,1948.2 C3375.36469,1948.6 3371.66472,1949.39999 3368.66471,1950.6 C3365.66469,1951.80001 3364.16471,1954.59998 3364.16471,1959 L3364.16471,2143.8 L3528.56471,2143.8 C3530.96472,2143.8 3533.3647,2142.90001 3535.76471,2141.1 C3538.16472,2139.29999 3539.36471,2135.20003 3539.36471,2128.8 L3546.56471,2128.8 L3546.56471,2218.2 L3539.36471,2218.2 C3539.36471,2211.79997 3538.16472,2208.00001 3535.76471,2206.8 C3533.3647,2205.59999 3530.96472,2205 3528.56471,2205 L3267.56471,2205 L3267.56471,2197.8 C3271.96473,2197.4 3275.76469,2196.60001 3278.96471,2195.4 C3282.16472,2194.19999 3283.76471,2191.40002 3283.76471,2187 L3283.76471,1959 Z M3602.89413,1959 C3602.89413,1954.59998 3601.29414,1951.80001 3598.09413,1950.6 C3594.89411,1949.39999 3591.09415,1948.6 3586.69413,1948.2 L3586.69413,1941 L3698.89413,1941 L3698.89413,1948.2 C3694.4941,1948.6 3690.79414,1949.39999 3687.79413,1950.6 C3684.79411,1951.80001 3683.29413,1954.59998 3683.29413,1959 L3683.29413,2143.8 L3847.69413,2143.8 C3850.09414,2143.8 3852.49411,2142.90001 3854.89413,2141.1 C3857.29414,2139.29999 3858.49413,2135.20003 3858.49413,2128.8 L3865.69413,2128.8 L3865.69413,2218.2 L3858.49413,2218.2 C3858.49413,2211.79997 3857.29414,2208.00001 3854.89413,2206.8 C3852.49411,2205.59999 3850.09414,2205 3847.69413,2205 L3586.69413,2205 L3586.69413,2197.8 C3591.09415,2197.4 3594.89411,2196.60001 3598.09413,2195.4 C3601.29414,2194.19999 3602.89413,2191.40002 3602.89413,2187 L3602.89413,1959 Z" id="Skull" fill="#000000"></path>
            <path d="M267.5,1794.5 L1358.5,1794.5" id="Line" stroke="#000000" stroke-width="25" stroke-linecap="square"></path>
            <path d="M267.5,2314.5 L1358.5,2314.5" id="Line-Copy" stroke="#000000" stroke-width="25" stroke-linecap="square"></path>
            <path d="M2167.7587,1805.5 L3871.23868,1805.5" id="Line-Copy-3" stroke="#000000" stroke-width="25" stroke-linecap="square"></path>
            <path d="M2167.7587,2325.5 L3871.23868,2325.5" id="Line-Copy-2" stroke="#000000" stroke-width="25" stroke-linecap="square"></path>
        </g>
    </g>
</svg>