<?xml version="1.0" encoding="UTF-8" standalone="no"?>
<svg width="4096px" height="4096px" viewBox="0 0 4096 4096" version="1.1" xmlns="http://www.w3.org/2000/svg" xmlns:xlink="http://www.w3.org/1999/xlink">
    <!-- Generator: Sketch 41 (35326) - http://www.bohemiancoding.com/sketch -->
    <title>Logo</title>
    <desc>Created with Sketch.</desc>
    <defs>
        <path d="M186.466679,171.359353 C185.569314,167.040632 188.229351,162.399475 192.435584,161.011677 C192.435584,161.011677 507.10122,52.7612271 947.091202,16.5981867 C1387.08118,-19.5648536 1973.81598,16.5981867 2415.91442,16.5981867 C3292.18927,16.5981867 3340.56872,156.844019 3340.56872,156.844019 C3342.93047,160.541895 3343.56225,166.880633 3342.01427,171.027114 C3342.01427,171.027114 3237.48865,435.225579 3281.24062,672.043633 C3324.99259,908.861687 3494.81017,891.774459 3494.81017,962.844806 C3494.81017,1094.30641 3537.76459,1648.55251 3494.81017,2136.31672 C3475.01905,2361.05248 3310.54606,2338.53552 3281.24062,2444.96796 C3251.93518,2551.40041 3342.21968,2803.90035 3342.21968,2803.90035 C3343.66963,2808.06604 3341.33752,2812.17594 3337.0025,2813.07199 C3337.0025,2813.07199 2873.06173,2911.1762 2365.56261,2950.82778 C1858.06349,2990.47935 1652.81297,2950.82778 1389.12987,2950.82778 C740.211526,2950.82778 192.61573,2813.34063 192.61573,2813.34063 C188.322338,2812.2926 187.426263,2808.96033 190.545469,2805.83096 C190.545469,2805.83096 331.447683,2676.68283 286.122175,2501.98624 C240.796668,2327.28966 34.7061156,2283.64156 18.9456977,2136.31672 C-22.7126982,1746.9034 18.9456977,1266.58905 18.9456977,962.844806 C18.9456977,769.917942 224.640178,786.876631 246.310353,672.043633 C267.980527,557.210635 186.466679,171.359353 186.466679,171.359353 Z" id="path-1"></path>
        <mask id="mask-2" maskContentUnits="userSpaceOnUse" maskUnits="objectBoundingBox" x="0" y="0" width="3513.47017" height="2967.92498" fill="white">
            <use xlink:href="#path-1"></use>
        </mask>
    </defs>
    <g id="Page-1" stroke="none" stroke-width="1" fill="none" fill-rule="evenodd">
        <g id="Logo">
            <g transform="translate(291.000000, 528.000000)">
                <use id="Rectangle" stroke="#9F9484" mask="url(#mask-2)" stroke-width="160" fill="#000000" xlink:href="#path-1"></use>
                <polygon id="Star" stroke="#979797" fill="#9F9484" points="732.312281 1601.97908 602.228186 1674.69677 627.072037 1520.67823 521.831794 1411.6017 667.270233 1389.1307 732.312281 1249 797.354328 1389.1307 942.792767 1411.6017 837.552524 1520.67823 862.396375 1674.69677"></polygon>
                <polygon id="Star-Copy" stroke="#979797" fill="#9F9484" points="2782.31228 1601.97908 2652.22819 1674.69677 2677.07204 1520.67823 2571.83179 1411.6017 2717.27023 1389.1307 2782.31228 1249 2847.35433 1389.1307 2992.79277 1411.6017 2887.55252 1520.67823 2912.39638 1674.69677"></polygon>
                <g id="GaSSkull" transform="translate(1420.000000, 442.000000)" fill="#9F9484">
                    <path d="M304.32138,0.639102379 L258.957893,6.97963708 C214.022605,21.2904175 167.92415,30.9613147 131.124635,53.4749742 C85.173174,81.5871706 -18.2271998,211.464917 3.28498623,288.065811 C16.2715466,334.292086 26.0050758,382.149989 38.3397517,421.211927 C33.5273108,457.136723 28.7148699,493.065355 23.902429,528.997821 C41.7717315,547.308104 59.6431643,565.624778 77.5167275,583.947843 C88.5092884,590.990752 99.50611,598.03579 110.507192,605.082959 C126.925732,625.118819 117.096338,719.009349 116.687312,755.131416 C181.370864,804.904709 240.967161,865.210409 306.38568,915.757016 L368.238009,915.757016 C390.414861,887.144403 429.023036,864.507397 458.964982,843.896345 C491.949056,813.609283 524.939521,783.317961 557.936377,753.022378 C554.90064,717.117606 545.556964,628.442151 566.180797,607.191997 C590.754284,577.940281 625.591754,558.179236 648.656959,526.882392 C643.844518,492.367029 639.034208,457.847831 634.226028,423.324799 C643.409929,386.58536 686.459865,303.268778 669.274402,247.910369 C617.858616,82.276762 518.075561,-0.24988903 304.32138,0.639102379 Z M578.553819,343.014555 C580.145184,317.605123 596.014096,281.126437 586.79824,256.364415 C581.506472,291.155232 555.935986,332.058423 566.180797,374.71595 C569.363527,387.95943 582.062491,390.32347 586.79824,400.07745 C586.116531,407.825927 585.430561,415.575044 584.74033,423.324799 C588.862541,429.664695 592.986881,436.005016 597.113352,442.345764 C608.476593,471.602593 576.578993,491.655069 586.79824,516.316112 C602.360383,515.830395 619.795096,510.141105 628.039517,501.522171 C618.350725,494.368698 602.65437,470.289237 628.039517,459.253217 C631.477887,481.090068 634.914128,502.928835 638.348238,524.76952 C610.860445,549.423533 583.368391,574.079251 555.872076,598.736673 C551.057505,593.809193 546.247194,588.879584 541.441144,583.947843 L541.441144,596.627635 C501.89988,594.934013 472.724857,601.753236 461.022892,628.327113 C457.322489,644.087377 460.677777,672.399613 454.842772,685.392564 C432.455016,688.377172 419.935,696.506554 403.292774,685.392564 C399.170564,691.023056 395.046223,696.657809 390.919752,702.296822 C380.086967,698.359951 377.773416,692.211786 372.36661,706.52768 C364.806029,702.999835 357.245448,699.47625 349.684867,695.956926 L335.247544,712.867575 L335.247544,708.636718 C331.815564,704.412251 328.379324,700.185654 324.938822,695.956926 C312.923698,699.082137 311.87557,704.003225 304.32138,710.752146 C301.82888,701.625764 300.096913,700.762976 294.012658,695.956926 C289.890448,698.072355 285.766107,700.185654 281.639636,702.296822 C279.581727,696.659939 277.519556,691.025186 275.453125,685.392564 C254.26049,691.802761 238.813386,693.157658 217.723007,681.161706 C225.16855,617.63493 200.051827,594.122353 131.124635,596.627635 C130.434404,592.396777 129.746304,588.17018 129.060334,583.947843 L127.002425,583.947843 C125.999034,594.422731 126.03738,593.623853 120.815914,598.736673 C88.3686859,587.635464 53.2308371,546.841559 34.2175414,520.543136 C37.6495211,500.114867 41.0857616,479.684894 44.5262627,459.253217 C53.8060293,462.182863 51.9398503,460.344165 54.8349841,469.820775 C62.6512062,476.921203 61.8587192,490.569873 58.9571944,497.295147 L44.5262627,499.408659 C53.2308371,509.186925 71.5411203,514.838508 87.8254489,516.316112 C89.8833585,513.498523 91.9455289,510.680508 94.0119599,507.862066 C90.4010315,492.354247 69.5023837,466.078192 75.4524268,446.572148 C80.2669981,440.232252 85.0773087,433.891931 89.8833585,427.551183 C97.2138628,410.832265 82.4505979,406.734979 94.0119599,391.622765 C98.07026,386.318215 107.548148,381.11017 110.507192,374.715311 C117.000472,360.667202 93.4495498,268.234464 87.8254489,256.363776 L85.7611482,256.363776 C89.199519,285.244387 92.6357595,314.127767 96.0698696,343.013916 C55.9470222,338.043617 71.8159343,304.497772 67.2080062,269.044207 C63.0794048,259.886722 58.9550641,250.728385 54.8349841,241.569195 C73.9121901,163.768067 129.827257,106.782504 186.796843,59.8142307 C185.422773,57.7013583 184.046573,55.5880597 182.668242,53.4743351 C233.994554,12.7852431 348.336361,-1.19192594 430.096728,21.7748571 C451.96042,27.9147137 462.876289,47.4622991 491.955447,49.2492293 C491.265217,54.1801172 490.577116,59.1114311 489.891146,64.0431712 C537.312543,70.6054744 612.010829,196.949624 619.788705,250.025159 C604.539722,268.894657 617.462372,315.496085 597.113352,332.448914 C592.47986,340.358446 590.370822,341.954923 578.553819,343.014555 Z M199.163474,34.4559265 L203.292076,34.4559265 C201.918006,37.2735159 200.541805,40.0913183 199.163474,42.9093337 C188.937836,44.6470531 183.876145,46.9203402 178.546032,42.9093337 C185.418512,40.0908922 192.290993,37.2724507 199.163474,34.4540092 L199.163474,34.4559265 Z M473.395914,34.4559265 C479.582425,37.2735159 485.768936,40.0913183 491.955447,42.9093337 L491.955447,45.0228453 L475.460215,38.6829497 L471.338004,38.6829497 C472.021844,37.2718116 472.712074,35.8625909 473.395914,34.4540092 L473.395914,34.4559265 Z M168.23731,47.1363568 C176.654289,51.1396941 174.832847,48.5193744 176.488122,59.8167871 C159.053409,63.5031297 88.2472565,141.5305 79.5746372,159.147996 L79.5746372,180.282473 C69.9561464,199.301733 60.3355252,218.322698 50.7127738,237.345368 C49.8372035,258.015856 59.1808803,276.969715 58.9571944,309.201565 C56.8928938,308.497275 54.8307234,307.792771 52.7706834,307.088054 C42.8773786,290.994817 28.6190045,281.806442 17.722309,266.933251 C17.0895976,145.476318 101.732317,101.541864 168.23731,47.1344395 L168.23731,47.1363568 Z M500.199868,49.2498684 C578.144794,60.7492375 647.417101,181.499324 658.965681,266.933251 C643.850909,281.725915 628.731878,296.519857 613.608585,311.315077 C618.401853,287.194714 613.595803,267.823521 628.039517,247.912286 C581.36587,161.338839 574.476346,113.67011 496.077657,55.5904031 L500.199868,49.2498684 Z M17.722309,275.384741 C35.470182,290.839515 71.6178126,326.348682 65.1437055,351.468601 L61.0214951,353.582113 C55.5188236,350.059807 50.0204128,346.537287 44.5262627,343.014555 C56.419958,362.794774 85.2818214,391.478967 61.0214951,410.644369 L48.6484731,410.644369 C30.0633759,397.62841 9.95082404,312.214933 17.722309,275.384741 Z M652.77917,279.611764 L658.965681,279.611764 C655.003246,328.20144 642.968948,374.518468 628.039517,412.75788 C615.692059,412.492653 614.209341,410.783054 607.422074,406.417346 C606.048004,400.078302 604.671803,393.738194 603.293472,387.39702 C612.228124,372.604356 621.162775,357.810201 630.097426,343.014555 C618.817269,348.702566 618.862006,353.730385 607.422074,349.35509 C610.119086,312.860427 638.041469,303.445809 652.77917,279.611764 L652.77917,279.611764 Z M225.967428,313.426671 C220.471148,316.244687 214.972737,319.062702 209.472196,321.880718 C222.644096,322.462301 228.28737,321.873048 234.21824,315.540183 L234.21824,313.426671 L225.967428,313.426671 L225.967428,313.426671 Z M442.46975,313.426671 L438.34754,315.540183 L442.46975,321.880718 L465.151493,319.767206 L465.151493,317.653694 L442.46975,313.426671 Z M120.815914,317.653694 C125.621964,324.697881 130.432274,331.742706 135.246845,338.788171 C146.852945,337.103497 155.832333,333.317455 162.050799,326.107102 C141.3311,328.111327 134.33932,326.070034 120.815914,317.653694 L120.815914,317.653694 Z M551.749866,317.653694 C538.724959,329.413178 527.483148,322.324255 510.508589,328.220613 L516.6951,328.220613 C521.520323,334.511937 527.208334,335.747322 535.254633,338.788171 C543.927253,333.765465 548.714129,328.367607 553.807775,319.767206 C553.123936,319.062915 552.433705,318.357985 551.749866,317.653694 L551.749866,317.653694 Z M397.106263,326.107102 C385.263696,333.89776 372.277136,342.35564 357.929287,340.901043 L357.929287,349.35509 C359.993588,350.763671 362.055758,352.172679 364.115798,353.582113 C370.161707,350.62946 401.95705,328.850768 397.106263,326.107102 Z M279.581727,328.220613 C285.193046,339.735321 299.349163,347.848725 310.507891,353.582113 C312.572191,352.172679 314.634362,350.763671 316.694402,349.35509 L316.694402,340.901043 C300.352554,342.9826 294.626197,333.379448 279.581727,328.220613 Z M182.668242,368.378611 C164.690292,375.383812 144.973984,374.712116 131.124635,385.286065 C99.8022275,409.195524 101.930438,496.571684 137.311146,509.978134 C231.4701,545.655385 266.154186,453.623365 304.32138,425.440867 C313.025954,427.349866 313.607537,433.152276 316.694402,427.554379 C320.816612,423.327782 324.940953,419.100971 329.067424,414.873948 L331.125333,414.873948 C332.499404,426.849023 333.873474,438.825162 335.247544,450.802367 L337.311844,450.802367 C339.376145,438.123002 341.438316,425.442358 343.498356,412.760437 L347.620566,416.98746 C352.433007,421.917922 357.245448,426.849236 362.057889,431.781402 C366.525214,425.483687 363.425568,426.113203 370.302309,427.554379 C391.322387,436.686512 392.606982,461.111727 407.414984,476.163227 C439.063334,508.32925 512.70071,526.009378 557.936377,495.184192 C595.969359,343.205647 430.633574,327.789219 380.611031,423.327355 L337.311844,400.078089 C318.905696,409.816092 313.300768,417.99149 289.890448,421.212566 C286.177263,371.245624 237.682175,366.39292 182.668242,368.378611 Z M370.302309,395.852983 C370.36622,402.111713 369.861329,400.147112 372.36661,406.419902 L382.675331,406.419902 L382.675331,400.078089 C374.731289,400.00651 376.8595,400.877606 370.302309,395.850427 L370.302309,395.852983 Z M302.26347,397.966495 C298.134869,398.670786 294.010528,399.37529 289.890448,400.080006 L294.012658,404.30703 C294.702889,405.713055 295.386728,407.124832 296.076959,408.533414 C299.508939,405.71625 302.945179,402.898448 306.38568,400.080006 L302.26347,397.966495 Z M310.507891,446.575344 C307.06952,462.776589 303.633279,478.979538 300.199169,495.184192 C302.257079,493.775611 304.319249,492.366603 306.38568,490.957169 C310.060519,476.850262 317.173729,464.001109 312.572191,446.575344 L310.507891,446.575344 L310.507891,446.575344 Z M362.057889,446.575344 C358.466133,460.955147 364.409785,476.340898 368.238009,488.843658 C370.302309,489.548801 372.36448,490.253304 374.42452,490.957169 C372.436911,477.89839 370.027495,454.425438 362.057889,446.572787 L362.057889,446.575344 Z M345.562656,488.843658 C337.53553,496.700143 337.688915,493.253464 324.938822,490.957169 C323.430541,537.292092 275.395606,576.724708 304.32138,621.989773 L306.38568,621.989773 C311.881961,621.286761 317.380372,620.581618 322.880913,619.874345 C331.202026,614.863782 331.732481,610.754354 335.247544,600.854658 C336.628005,601.55767 338.002075,602.267074 339.376145,602.970087 C342.373535,613.707007 345.313406,615.547621 351.742776,621.989773 C365.975586,622.379626 370.979758,620.500665 378.553121,615.649878 C379.556512,576.757942 360.178928,511.419949 345.562656,488.841101 L345.562656,488.843658 Z M570.303008,512.091646 C567.554867,517.022108 564.806727,521.953208 562.058587,526.884948 C537.433972,532.45153 514.995088,534.125978 485.768936,531.109415 L485.768936,533.224844 C510.118737,539.845945 523.475976,544.728687 551.749866,543.795597 C559.661953,535.024556 574.214314,526.377501 570.303008,512.089089 L570.303008,512.091646 Z M102.256381,514.202601 C108.698533,547.333668 164.792548,559.252928 184.732543,531.106859 C144.443529,537.363671 126.427233,530.154596 102.256381,514.202601 Z M411.543586,543.793041 C412.227425,554.359534 412.913395,564.926026 413.601495,575.492519 C414.975566,574.789506 416.349636,574.080103 417.723706,573.37709 L417.723706,558.58187 C428.032427,562.109715 438.343279,565.6333 448.656261,569.152623 C443.984423,562.831901 443.057724,561.278882 434.218938,558.58187 C429.016645,551.110763 419.896654,547.825777 411.543586,543.793041 L411.543586,543.793041 Z M256.899983,545.902079 C246.763819,553.878077 233.432144,555.955159 228.031729,569.152623 L230.096029,569.152623 C238.34045,565.631169 246.587001,562.107585 254.835683,558.58187 L258.957893,575.492519 C260.331963,574.789506 261.712424,574.080103 263.086494,573.37709 L263.086494,545.902079 L256.899983,545.902079 L256.899983,545.902079 Z M281.639636,575.492519 C279.581727,582.535427 277.519556,589.580466 275.453125,596.627635 C276.827195,599.446076 278.203396,602.264518 279.581727,605.082959 C280.955797,604.373556 282.329867,603.668413 283.703937,602.96753 C284.394168,590.370822 287.365994,582.030536 281.639636,575.492519 Z M386.797542,575.492519 C388.171612,585.353869 389.545682,595.217349 390.919752,605.082959 L392.984053,605.082959 C394.358123,604.373556 395.732193,603.668413 397.106263,602.96753 L397.106263,583.947843 C393.086309,578.406826 394.051354,578.445172 386.797542,575.492519 Z M211.536496,586.056881 C210.852657,587.469298 210.162426,588.875323 209.472196,590.287739 C211.536496,590.990752 213.598667,591.693764 215.658707,592.396777 L217.723007,592.396777 L217.723007,590.287739 C215.658707,588.875323 213.596536,587.465037 211.536496,586.056881 Z M458.964982,586.056881 C462.422526,592.805802 457.929636,588.459906 465.151493,590.287739 C464.461263,588.875323 463.777423,587.469298 463.087193,586.056881 L458.964982,586.056881 Z M197.105565,594.512206 L209.472196,611.422855 C208.098126,607.901401 206.724055,604.377816 205.349985,600.852101 C212.878611,598.928403 209.568061,600.935185 213.600797,596.627635 C208.104517,595.924622 202.606106,595.219479 197.105565,594.512206 L197.105565,594.512206 Z M465.151493,594.512206 C463.777423,596.627635 462.401223,598.740933 461.022892,600.852101 C471.548908,604.482203 465.886461,600.066005 465.151493,611.422855 C471.318831,606.635978 472.833504,605.683715 475.460215,596.627635 C467.139102,596.570115 473.05719,596.282519 465.151493,594.512206 L465.151493,594.512206 Z M209.472196,706.52768 C208.790486,712.158172 208.104517,717.792924 207.414286,723.431938 C218.161119,736.287314 229.878286,748.299333 242.46266,759.362273 C248.617216,755.808864 247.428486,755.821646 252.777773,755.131416 C257.781944,766.200669 279.779848,780.00528 289.890448,784.721856 C295.220562,780.133101 338.187415,788.575643 351.742776,791.061751 C353.807077,787.540297 355.869247,784.018843 357.929287,780.497389 C372.481648,789.329784 392.019008,787.981278 395.048353,767.811207 L397.106263,767.811207 C414.50263,772.828161 443.869384,748.785129 458.964982,740.342587 L458.964982,727.656404 C467.234967,726.435719 465.13232,727.758661 469.273704,723.431938 L469.273704,706.52768 C497.132176,701.830277 519.034215,639.04486 520.823702,607.191997 L541.441144,607.191997 C536.321934,638.616661 508.386769,678.726726 518.759401,712.867575 L520.823702,712.867575 C522.357547,685.712115 531.835436,642.751653 547.627655,628.327113 C546.087419,649.72426 550.803994,739.844087 541.441144,753.022378 C507.639019,812.887098 408.974394,853.41897 362.057889,905.186263 C341.287061,892.423389 332.35241,897.670419 310.507891,905.186263 C249.345793,854.467098 188.177304,803.745803 127.002425,753.022378 C127.468969,706.208129 135.272409,664.353314 122.873823,626.211684 C125.621964,627.6241 128.372234,629.034386 131.124635,630.442542 C138.033332,651.360362 143.791644,680.004931 153.806378,702.296822 L155.864288,702.296822 C156.132711,664.813467 144.092022,633.714746 131.124635,609.307426 L131.124635,607.191997 C139.369056,607.89501 147.615607,608.600153 155.864288,609.307426 C151.588693,638.194853 179.888147,692.032838 199.163474,706.52768 L209.472196,706.52768 L209.472196,706.52768 Z M310.507891,632.551579 C314.540627,642.758044 320.707965,649.9096 331.125333,653.686695 L331.125333,647.346799 C323.194073,640.85991 322.670009,635.977168 310.507891,632.551579 Z M359.993588,632.551579 C352.38827,638.42493 349.243886,641.690743 343.498356,649.462228 C344.182195,650.868254 344.872426,652.28067 345.562656,653.686695 C351.742776,647.346799 357.927157,641.006904 364.115798,634.667008 C362.741728,633.963996 361.367658,633.258853 359.993588,632.551579 L359.993588,632.551579 Z M240.404751,657.917553 L240.404751,670.597344 L248.649171,670.597344 C247.275101,666.372877 245.901031,662.14628 244.526961,657.917553 L240.404751,657.917553 Z M432.161029,657.917553 C429.579055,665.58039 430.071164,669.395832 434.218938,674.821811 C433.535099,669.184928 432.849129,663.550175 432.161029,657.917553 Z M228.031729,664.257448 L228.031729,674.821811 L232.153939,672.712773 L232.153939,670.597344 C230.779869,668.481915 229.405799,666.368617 228.031729,664.257448 L228.031729,664.257448 Z M263.086494,664.257448 C263.917327,672.776683 263.757552,672.521042 267.208705,676.93724 L269.273005,676.93724 L269.273005,668.481915 C267.892544,667.07589 266.516344,665.667734 265.144404,664.257448 L263.086494,664.257448 Z M335.247544,664.257448 L335.247544,689.617031 C337.311844,688.914018 339.374015,688.208875 341.434055,687.501602 L341.434055,668.481915 C340.059985,667.07589 338.685915,665.667734 337.311844,664.257448 L335.247544,664.257448 L335.247544,664.257448 Z M409.479285,664.257448 C409.006349,674.201881 407.14017,672.50826 413.601495,679.052668 C413.371419,669.740947 413.786835,668.622518 409.479285,664.257448 L409.479285,664.257448 Z M444.52766,664.257448 C445.21789,667.778903 445.90599,671.300357 446.59196,674.821811 L448.656261,674.821811 L448.656261,664.257448 L444.52766,664.257448 Z M366.180099,666.366486 C365.489868,669.894331 364.801768,673.417916 364.115798,676.93724 L368.238009,685.392564 L372.36661,685.392564 C370.30444,679.052668 368.242269,672.710643 366.180099,666.366486 L366.180099,666.366486 Z M386.797542,666.366486 L386.797542,681.161706 C388.861842,679.755681 390.924013,678.347526 392.984053,676.93724 L392.984053,674.821811 C390.210348,667.6383 391.731412,670.45035 386.797542,666.366486 Z M159.99289,668.481915 C162.689902,690.473428 171.394476,701.235912 178.546032,717.092042 L182.668242,717.092042 C179.805063,703.019008 170.512515,675.607907 159.99289,668.481915 L159.99289,668.481915 Z M283.703937,668.481915 C284.387777,672.706382 285.075877,676.932979 285.768238,681.161706 L289.890448,681.161706 L289.890448,668.481915 L283.703937,668.481915 Z M306.38568,668.481915 C307.06739,674.118798 307.753359,679.755681 308.44359,685.392564 L310.507891,685.392564 C311.428198,674.56617 313.741749,674.527824 306.38568,668.481915 L306.38568,668.481915 Z M510.508589,668.481915 C503.638239,684.68316 496.765758,700.886536 489.891146,717.092042 C503.472072,708.885968 517.199991,688.134313 512.57289,668.481915 L510.508589,668.481915 L510.508589,668.481915 Z M454.842772,691.73246 L458.964982,691.73246 C456.095413,695.79076 458.754079,692.997882 454.842772,695.956926 L454.842772,691.73246 Z M238.34045,693.841498 C243.651391,698.647547 244.124327,702.673892 244.526961,712.867575 C241.08859,712.158172 237.65235,711.453029 234.21824,710.752146 L234.21824,695.956926 C235.59231,695.253914 236.96638,694.548771 238.34045,693.841498 L238.34045,693.841498 Z M279.581727,727.656404 C273.395216,726.250379 267.208705,724.842224 261.022194,723.431938 L261.022194,721.316509 C265.278615,709.378076 258.932329,697.97649 275.453125,693.841498 C276.827195,695.956926 278.203396,698.070225 279.581727,700.181393 L279.581727,727.656404 L279.581727,727.656404 Z M399.170564,693.841498 C402.602544,694.550901 406.038784,695.256044 409.479285,695.956926 C410.853355,704.412251 412.227425,712.865445 413.601495,721.316509 C408.105215,724.837963 402.606804,728.361547 397.106263,731.887262 C397.796494,719.207471 398.484594,706.525549 399.170564,693.841498 L399.170564,693.841498 Z M432.161029,693.841498 L438.34754,693.841498 C439.029249,699.47838 439.715219,705.115263 440.405449,710.752146 C437.657309,712.158172 434.909169,713.566327 432.161029,714.976613 L432.161029,693.841498 L432.161029,693.841498 Z M223.909518,695.956926 L228.031729,695.956926 L223.909518,704.412251 L223.909518,695.956926 Z M252.777773,695.956926 C257.44322,705.71602 257.091714,715.513459 254.835683,721.316509 C252.777773,719.910484 250.715603,718.502328 248.649171,717.092042 C250.023242,710.049134 251.399442,703.004095 252.777773,695.956926 L252.777773,695.956926 Z M419.788006,695.956926 C428.217767,704.086309 425.776396,711.653281 423.910217,721.316509 L417.723706,721.316509 L417.723706,704.412251 C418.413936,701.593809 419.102037,698.775368 419.788006,695.956926 L419.788006,695.956926 Z M446.59196,695.956926 C448.656261,697.369343 450.718431,698.777498 452.778471,700.181393 C452.088241,701.593809 451.404401,702.999835 450.714171,704.412251 C449.3401,702.999835 447.96603,701.589549 446.59196,700.181393 L446.59196,695.956926 Z M318.752311,702.296822 C322.880913,705.115263 327.005253,707.933705 331.125333,710.752146 C332.179852,728.749269 333.59866,726.557148 333.189634,742.451624 L316.694402,742.451624 C314.630101,741.045599 312.567931,739.637444 310.507891,738.227158 C306.130039,733.830133 306.711623,732.75005 306.38568,723.431938 C310.507891,716.389029 314.630101,709.343991 318.752311,702.296822 L318.752311,702.296822 Z M155.864288,704.412251 L155.864288,712.867575 L157.928589,712.867575 C157.238358,710.047003 156.550258,707.228562 155.864288,704.412251 L155.864288,704.412251 Z M289.890448,704.412251 C293.322428,705.818276 296.758668,707.226432 300.199169,708.636718 C299.508939,718.498067 298.820839,728.361547 298.134869,738.227158 C292.638588,735.408716 287.140177,732.590275 281.639636,729.771833 C284.387777,721.316509 287.138047,712.863315 289.890448,704.412251 L289.890448,704.412251 Z M341.434055,742.451624 C340.948337,725.240597 343.166022,715.219472 347.620566,704.412251 C351.058937,705.115263 354.495177,705.820406 357.929287,706.52768 C366.557169,712.356293 368.269964,721.508239 368.238009,736.111729 C366.180099,737.524145 364.120059,738.934431 362.057889,740.342587 L341.434055,742.451624 Z M378.553121,704.412251 L386.797542,704.412251 C388.861842,712.861184 390.924013,721.314378 392.984053,729.771833 C388.169481,732.590275 383.359171,735.408716 378.553121,738.227158 L376.48882,738.227158 C375.11475,737.524145 373.74068,736.814741 372.36661,736.111729 C374.42452,725.547367 376.48669,714.980874 378.553121,704.412251 L378.553121,704.412251 Z M458.964982,710.752146 L465.151493,710.752146 L465.151493,721.316509 C463.087193,719.910484 461.025022,718.502328 458.964982,717.092042 L458.964982,710.752146 Z M215.658707,712.867575 C219.92152,717.01535 217.793309,713.660062 219.787308,721.316509 L213.600797,721.316509 C214.284637,718.498067 214.970606,715.681756 215.658707,712.867575 L215.658707,712.867575 Z M448.656261,717.092042 C450.714171,720.613496 452.776341,724.13495 454.842772,727.656404 C453.513439,735.338415 454.005548,734.053819 450.714171,738.227158 C448.656261,736.814741 446.594091,735.404456 444.52766,733.9963 L444.52766,723.431938 C445.908121,721.316509 447.284321,719.20321 448.656261,717.092042 L448.656261,717.092042 Z M228.031729,719.207471 C233.758086,723.975175 233.003945,721.546586 234.21824,731.887262 C229.968209,736.559101 231.367843,735.862479 223.909518,738.227158 L223.909518,725.547367 C225.283589,723.434068 226.657659,721.320769 228.031729,719.207471 L228.031729,719.207471 Z M434.218938,725.547367 C439.050552,730.430109 438.826866,738.278286 438.34754,748.79152 L430.096728,748.79152 C429.415019,741.748612 428.726918,734.703573 428.032427,727.656404 C430.096728,726.953392 432.158898,726.250379 434.218938,725.547367 L434.218938,725.547367 Z M238.34045,727.656404 C241.778821,728.365808 245.215061,729.070951 248.649171,729.771833 C248.821729,740.981689 247.569088,746.727219 244.526961,753.022378 C243.152891,752.312974 241.778821,751.607831 240.404751,750.906949 C239.71452,743.161028 239.02642,735.410847 238.34045,727.656404 L238.34045,727.656404 Z M256.899983,733.9963 C260.785726,738.974907 261.073322,742.994861 261.022194,753.022378 L254.835683,753.022378 C255.525913,746.682482 256.214013,740.340456 256.899983,733.9963 L256.899983,733.9963 Z M417.723706,733.9963 C419.097776,734.705704 420.478237,735.408716 421.852307,736.111729 C421.162077,741.748612 420.473976,747.385495 419.788006,753.022378 L417.723706,753.022378 C417.039866,752.312974 416.349636,751.609962 415.665796,750.906949 C414.975566,747.385495 414.287465,743.864041 413.601495,740.342587 L417.723706,733.9963 Z M269.273005,738.227158 C277.85615,743.595618 279.000143,742.777567 279.581727,757.246845 C276.833586,760.065286 274.083316,762.883727 271.330915,765.702169 L269.273005,765.702169 C267.892544,763.58674 266.516344,761.473442 265.144404,759.362273 C266.520604,752.319365 267.896805,745.274327 269.273005,738.227158 L269.273005,738.227158 Z M405.357075,738.227158 C411.920656,744.292239 410.527413,759.554004 405.357075,765.702169 C403.292774,764.999156 401.230604,764.294013 399.170564,763.58674 C398.480333,756.543832 397.792233,749.498793 397.106263,742.451624 C399.854403,741.045599 402.604674,739.637444 405.357075,738.227158 L405.357075,738.227158 Z M283.703937,746.682482 C286.452077,748.088507 289.200217,749.496663 291.948358,750.906949 C290.574288,758.65287 289.200217,766.403051 287.826147,774.157493 L285.768238,774.157493 C285.078007,764.999156 284.389907,755.840819 283.703937,746.682482 L283.703937,746.682482 Z M382.675331,746.682482 C386.107311,747.385495 389.543552,748.088507 392.984053,748.79152 C390.919752,757.246845 388.857582,765.702169 386.797542,774.157493 C386.113702,772.745077 385.423472,771.339052 384.733241,769.926636 C384.049401,762.180715 383.363432,754.432664 382.675331,746.682482 L382.675331,746.682482 Z M463.087193,746.682482 C462.403353,749.494533 461.715253,752.310844 461.022892,755.131416 L465.151493,755.131416 C464.461263,752.312974 463.773163,749.496663 463.087193,746.682482 L463.087193,746.682482 Z M217.723007,748.79152 C218.413238,750.203936 219.097077,751.609962 219.787308,753.022378 C220.471148,751.609962 221.161378,750.203936 221.845218,748.79152 L217.723007,748.79152 Z M298.134869,748.79152 L304.32138,748.79152 C306.724405,750.376494 317.128991,755.419012 312.572191,757.246845 C313.946262,764.142759 314.591755,769.881899 310.507891,774.157493 C306.411244,779.75603 308.181558,778.305268 300.199169,780.497389 C298.217952,769.083021 294.926575,760.908901 298.134869,748.79152 L298.134869,748.79152 Z M357.929287,753.022378 C371.133142,751.648308 369.695162,749.641526 378.553121,753.022378 C378.565903,766.130368 376.450474,772.661994 372.36661,780.497389 C368.928239,779.084973 365.491999,777.674687 362.057889,776.266531 C360.683818,768.52061 359.307618,760.772559 357.929287,753.022378 L357.929287,753.022378 Z M320.816612,753.022378 L333.189634,755.131416 C333.189634,771.249578 332.429102,770.32927 331.125333,784.721856 C318.439151,780.548517 319.461715,770.150322 320.816612,753.022378 L320.816612,753.022378 Z M351.742776,784.721856 L341.434055,784.721856 L337.311844,757.246845 C339.376145,755.840819 341.438316,754.432664 343.498356,753.022378 C347.620566,754.428403 351.744907,755.836559 355.871378,757.246845 C354.495177,766.405182 353.118977,775.563519 351.742776,784.721856 L351.742776,784.721856 Z M448.656261,755.131416 L448.656261,763.58674 C450.030331,762.180715 451.404401,760.772559 452.778471,759.362273 C451.404401,757.949857 450.030331,756.539571 448.656261,755.131416 L448.656261,755.131416 Z M228.031729,757.246845 C230.805433,762.915683 232.812215,763.420573 234.21824,757.246845 L228.031729,757.246845 Z M244.526961,767.811207 C243.845252,770.629648 243.157152,773.44809 242.46266,776.266531 C244.526961,775.563519 246.589131,774.860506 248.649171,774.157493 L248.649171,767.811207 L244.526961,767.811207 Z M430.096728,767.811207 C432.161029,770.629648 434.223199,773.44809 436.283239,776.266531 L438.34754,776.266531 L438.34754,774.157493 C435.593008,772.042065 432.842738,769.926636 430.096728,767.811207 L430.096728,767.811207 Z M258.957893,774.157493 C257.583823,776.266531 256.209753,778.37983 254.835683,780.497389 L263.086494,780.497389 L263.086494,774.157493 L258.957893,774.157493 L258.957893,774.157493 Z M417.723706,774.157493 C418.337244,781.392132 416.240988,778.69512 421.852307,784.721856 C420.478237,781.200402 419.102037,777.678948 417.723706,774.157493 L417.723706,774.157493 Z M275.453125,782.606427 C274.079055,784.721856 272.704985,786.835154 271.330915,788.946322 L271.330915,791.061751 L279.581727,791.061751 C277.696375,783.347786 279.658419,786.741419 275.453125,782.606427 Z M399.170564,782.606427 L399.170564,791.061751 L401.228473,791.061751 L405.357075,786.837285 C403.292774,785.424868 401.230604,784.014582 399.170564,782.606427 Z M289.890448,791.061751 L289.890448,797.401647 C291.264518,796.698634 292.638588,795.993491 294.012658,795.286218 C292.638588,793.880193 291.264518,792.472037 289.890448,791.061751 Z M382.675331,791.061751 C385.544901,795.126442 382.886235,792.327174 386.797542,795.286218 C385.425602,793.880193 384.051532,792.472037 382.675331,791.061751 Z M310.507891,793.17718 L310.507891,801.626114 L312.572191,801.626114 C313.946262,800.220088 315.320332,798.811933 316.694402,797.401647 C316.004171,795.995622 315.320332,794.583205 314.630101,793.17718 L310.507891,793.17718 L310.507891,793.17718 Z M357.929287,793.17718 L357.929287,801.626114 L364.115798,801.626114 C361.393222,793.541469 364.122189,797.23548 357.929287,793.17718 L357.929287,793.17718 Z M335.247544,795.286218 C334.563704,795.995622 333.873474,796.698634 333.189634,797.401647 C335.937774,798.814063 338.685915,800.222219 341.434055,801.626114 C340.059985,799.517076 338.685915,797.403777 337.311844,795.286218 L335.247544,795.286218 L335.247544,795.286218 Z M223.909518,816.421334 C232.761086,836.578623 250.521741,850.830606 275.453125,854.467098 C271.203094,849.788869 272.60912,850.485491 265.144404,848.127203 C251.403703,837.556449 237.658741,826.987826 223.909518,816.421334 L223.909518,816.421334 Z M448.656261,816.421334 L399.170564,852.351669 L399.170564,854.467098 C423.411717,850.031728 443.306974,837.773744 450.714171,816.421334 L448.656261,816.421334 L448.656261,816.421334 Z M351.742776,835.441021 C351.570219,846.650876 352.82925,852.396407 355.871378,858.691565 L357.929287,858.691565 C359.993588,857.988552 362.055758,857.28341 364.115798,856.576136 L364.115798,854.467098 C353.519481,849.501273 358.459742,843.059121 351.742776,835.441021 L351.742776,835.441021 Z" id="Фигура_3"></path>
                </g>
                <path d="M763.458056,2110.4257 C756.572802,2104.30547 747.966363,2099.61975 737.638482,2096.36838 C727.310601,2093.11701 717.174129,2091.49134 707.228762,2091.49134 C696.135852,2091.49134 685.99938,2093.49951 676.819041,2097.51591 C667.638703,2101.53231 659.701654,2107.07868 653.007657,2114.15519 C646.313659,2121.2317 641.054169,2129.74252 637.229028,2139.68788 C633.403887,2149.63325 631.491345,2160.34348 631.491345,2171.81891 C631.491345,2183.29433 633.595141,2194.00457 637.802796,2203.94993 C642.010452,2213.8953 647.748077,2222.40611 655.015846,2229.48262 C662.283614,2236.55913 670.794425,2242.10551 680.548535,2246.1219 C690.302645,2250.1383 700.725999,2252.14647 711.818908,2252.14647 C724.824388,2252.14647 736.682148,2249.37329 747.392543,2243.82683 C758.102939,2238.28038 767.28314,2230.72584 774.933422,2221.16298 L740.507324,2221.16298 L740.507324,2140.83542 L887.965779,2140.83542 L887.965779,2268.21198 C879.167954,2283.89506 868.648974,2298.1435 856.408522,2310.95772 C844.16807,2323.77195 830.493396,2334.76906 815.384088,2343.9494 C800.27478,2353.12974 783.922547,2360.20614 766.326898,2365.17883 C748.731248,2370.15151 730.5621,2372.63782 711.818908,2372.63782 C684.277892,2372.63782 658.267322,2367.47395 633.786418,2357.14607 C609.305515,2346.81819 587.980672,2332.66538 569.811252,2314.68722 C551.641831,2296.70905 537.297767,2275.47984 526.778629,2250.99893 C516.25949,2226.51803 511,2200.12495 511,2171.81891 C511,2144.27789 515.972609,2118.26732 525.917976,2093.78642 C535.863343,2069.30551 549.538018,2047.98067 566.94241,2029.81125 C584.346803,2011.64183 605.002255,1997.29777 628.909388,1986.77863 C652.81652,1976.25949 678.540209,1971 706.081225,1971 C727.502016,1971 746.053672,1973.1038 761.736751,1977.31145 C777.41983,1981.51911 790.616369,1986.30046 801.326764,1991.65566 C813.94973,1997.77589 824.468711,2004.46978 832.884022,2011.73755 L763.458056,2110.4257 Z M769.195739,2036.40959 C764.223056,2034.1145 758.676684,2032.20196 752.556458,2030.6719 C747.201261,2029.14185 740.889872,2027.80307 733.622104,2026.65553 C726.354336,2025.50798 718.32166,2024.93422 709.523835,2024.93422 C689.250587,2024.93422 670.316422,2028.56805 652.720772,2035.83582 C635.125123,2043.10359 619.824788,2053.14443 606.819308,2065.95866 C593.813828,2078.77288 583.581728,2094.16884 576.122703,2112.147 C568.663678,2130.12517 564.934221,2150.0156 564.934221,2171.81891 C564.934221,2193.62221 568.759305,2213.51265 576.409587,2231.49081 C584.05987,2249.46898 594.57885,2264.86494 607.966844,2277.67916 C621.354838,2290.49338 636.942055,2300.53423 654.728961,2307.802 C672.515868,2315.06977 691.54566,2318.7036 711.818908,2318.7036 C738.212382,2318.7036 762.119156,2312.48783 783.539947,2300.05613 C804.960738,2287.62442 822.364869,2271.08093 835.752863,2250.42517 L835.752863,2175.26152 L774.933422,2175.26152 L774.933422,2189.03196 L820.834887,2189.03196 L820.834887,2246.40879 C808.976949,2264.00444 793.580987,2277.96599 774.646538,2288.29388 C755.712089,2298.62176 734.769755,2303.78562 711.818908,2303.78562 C693.458231,2303.78562 676.34098,2300.62993 660.466645,2294.31844 C644.592309,2288.00696 630.630753,2279.01801 618.581558,2267.35133 C606.532363,2255.68465 597.065281,2241.7231 590.180027,2225.46625 C583.294773,2209.2094 579.852197,2191.32713 579.852197,2171.81891 C579.852197,2152.31069 583.199145,2134.42842 589.893143,2118.17157 C596.58714,2101.91472 605.767341,2087.95317 617.434021,2076.28648 C629.100702,2064.6198 642.775377,2055.63086 658.458455,2049.31937 C674.141534,2043.00789 691.163157,2039.8522 709.523835,2039.8522 C716.409089,2039.8522 722.911732,2040.42596 729.031958,2041.5735 C735.152183,2042.72104 740.507301,2043.86857 745.09747,2045.01611 C750.452668,2046.54617 755.425277,2048.0762 760.015446,2049.60626 L769.195739,2036.40959 Z M1019.29122,1980.18029 L1111.09415,1980.18029 L1256.25754,2362.88376 L1135.76619,2362.88376 L1123.14329,2328.45766 L1007.24209,2328.45766 L994.619187,2362.88376 L874.127842,2362.88376 L1019.29122,1980.18029 Z M1091.01226,2244.11372 L1065.19269,2176.98282 L1039.37312,2244.11372 L1091.01226,2244.11372 Z M959.61932,2316.98229 L970.520918,2288.29388 L1159.86446,2288.29388 L1170.76606,2316.98229 L1186.83157,2316.98229 L1076.09429,2026.08176 L1054.29109,2026.08176 L943.553807,2316.98229 L959.61932,2316.98229 Z M1065.19269,2039.8522 L1154.70055,2274.52344 L975.684833,2274.52344 L1065.19269,2039.8522 Z M1288.89483,2312.96591 C1294.25003,2314.11345 1299.98766,2315.06973 1306.10788,2315.83475 C1311.46308,2316.59978 1317.10508,2317.26917 1323.03405,2317.84294 C1328.96301,2318.41671 1334.98752,2318.7036 1341.10775,2318.7036 C1351.81814,2318.7036 1362.2415,2317.46044 1372.37812,2314.9741 C1382.51474,2312.48776 1391.59932,2308.37579 1399.63212,2302.63808 C1407.66491,2296.90037 1414.07193,2289.53708 1418.85335,2280.548 C1423.63478,2271.55892 1426.02546,2260.56181 1426.02546,2247.55633 C1426.02546,2236.46342 1423.25227,2225.94444 1417.70582,2215.99907 C1412.15936,2206.0537 1405.08296,2196.49099 1396.47639,2187.31065 C1387.86982,2178.13031 1378.68962,2169.33262 1368.93551,2160.91731 C1359.1814,2152.502 1350.0012,2143.99119 1341.39463,2135.38462 C1332.78806,2126.77805 1325.71166,2118.17161 1320.1652,2109.56505 C1314.61875,2100.95848 1311.84556,2092.06516 1311.84556,2082.88482 C1311.84556,2069.11431 1316.24441,2058.4997 1325.04224,2051.04068 C1333.84006,2043.58165 1347.99287,2039.8522 1367.50109,2039.8522 C1370.5612,2039.8522 1373.7169,2039.94782 1376.96827,2040.13908 C1380.21964,2040.33034 1383.37533,2040.61722 1386.43544,2040.99973 C1389.49556,2041.38225 1392.55562,2041.5735 1395.61574,2041.5735 L1395.61574,2026.65553 C1392.93814,2026.65553 1390.06933,2026.46427 1387.00921,2026.08176 C1384.33161,2025.69924 1381.36717,2025.41236 1378.1158,2025.22111 C1374.86443,2025.02985 1371.51749,2024.93422 1368.07486,2024.93422 C1347.4191,2024.93422 1330.39747,2029.61995 1317.00948,2038.99154 C1303.62148,2048.36314 1296.92759,2062.99409 1296.92759,2082.88482 C1296.92759,2093.59522 1299.70077,2103.63606 1305.24723,2113.00766 C1310.79368,2122.37925 1317.87009,2131.55945 1326.47666,2140.54854 C1335.08322,2149.53762 1344.26342,2158.23968 1354.01753,2166.65499 C1363.77164,2175.0703 1372.95185,2183.58112 1381.55841,2192.18768 C1390.16498,2200.79425 1397.24139,2209.68757 1402.78784,2218.86791 C1408.3343,2228.04825 1411.10748,2237.61096 1411.10748,2247.55633 C1411.10748,2265.917 1404.89172,2279.87856 1392.46001,2289.44141 C1380.0283,2299.00426 1362.91105,2303.78562 1341.10775,2303.78562 C1328.10227,2303.78562 1316.24451,2302.82935 1305.53411,2300.91678 C1299.7964,2300.15175 1294.25003,2299.19548 1288.89483,2298.04794 L1288.89483,2312.96591 Z M1240.69829,2244.11372 C1249.1136,2246.79131 1257.9113,2248.89511 1267.09164,2250.42517 C1274.74192,2252.33774 1283.44398,2253.86777 1293.19809,2255.01531 C1302.9522,2256.16286 1312.80179,2256.73662 1322.74716,2256.73662 C1340.34281,2256.73662 1349.1405,2250.23398 1349.1405,2237.2285 C1349.1405,2232.25581 1346.46295,2227.18758 1341.10775,2222.02364 C1335.75255,2216.85969 1328.96303,2211.12207 1320.73897,2204.81059 C1312.51492,2198.4991 1303.71723,2191.51833 1294.34563,2183.86804 C1284.97403,2176.21776 1276.17634,2167.42007 1267.95229,2157.4747 C1259.72823,2147.52933 1252.93871,2136.34096 1247.58351,2123.90925 C1242.22832,2111.47755 1239.55076,2097.22911 1239.55076,2081.16352 C1239.55076,2063.18535 1242.80208,2047.31125 1249.30482,2033.54075 C1255.80756,2019.77024 1264.79651,2008.29499 1276.27193,1999.11465 C1287.74735,1989.93431 1301.23077,1982.95353 1316.72259,1978.1721 C1332.21442,1973.39068 1348.7579,1971 1366.35355,1971 C1375.53389,1971 1384.71409,1971.47814 1393.89443,1972.43442 C1403.07477,1973.39071 1411.2987,1974.25135 1418.56647,1975.01638 C1426.98178,1976.16392 1435.20571,1977.31145 1443.23851,1978.45899 L1443.23851,2085.75366 C1440.17839,2085.37115 1436.73582,2084.98864 1432.91068,2084.60613 C1429.85056,2084.22361 1426.40799,2083.8411 1422.58285,2083.45859 C1418.75771,2083.07607 1414.74137,2082.88482 1410.53371,2082.88482 C1408.23863,2082.88482 1405.36982,2082.98045 1401.92719,2083.1717 C1398.48456,2083.36296 1395.23324,2083.8411 1392.17313,2084.60613 C1389.11301,2085.37115 1386.43546,2086.70993 1384.14037,2088.6225 C1381.84529,2090.53507 1380.69776,2093.21263 1380.69776,2096.65526 C1380.69776,2099.71537 1383.27969,2103.54046 1388.44363,2108.13063 C1393.60757,2112.7208 1399.91896,2118.07591 1407.37799,2124.19614 C1414.83701,2130.31636 1423.06094,2137.39277 1432.05002,2145.42557 C1441.03911,2153.45836 1449.26304,2162.63856 1456.72206,2172.96644 C1464.18109,2183.29433 1470.49248,2194.96083 1475.65642,2207.96631 C1480.82036,2220.97179 1483.40229,2235.50711 1483.40229,2251.5727 C1483.40229,2268.40332 1480.72473,2284.1818 1475.36953,2298.90859 C1470.01433,2313.63538 1461.69478,2326.44941 1450.41061,2337.35107 C1439.12644,2348.25272 1424.68675,2356.85916 1407.0911,2363.17064 C1389.49545,2369.48212 1368.64875,2372.63782 1344.55036,2372.63782 C1330.01482,2372.63782 1316.5314,2371.96843 1304.09969,2370.62963 C1291.66798,2369.29083 1280.67087,2367.66517 1271.10801,2365.7526 C1260.0151,2363.84003 1249.87863,2361.54498 1240.69829,2358.86738 L1240.69829,2244.11372 Z M1634.16836,2312.96591 C1639.52356,2314.11345 1645.26118,2315.06973 1651.38141,2315.83475 C1656.73661,2316.59978 1662.3786,2317.26917 1668.30757,2317.84294 C1674.23654,2318.41671 1680.26105,2318.7036 1686.38127,2318.7036 C1697.09167,2318.7036 1707.51502,2317.46044 1717.65165,2314.9741 C1727.78827,2312.48776 1736.87285,2308.37579 1744.90564,2302.63808 C1752.93844,2296.90037 1759.34545,2289.53708 1764.12688,2280.548 C1768.90831,2271.55892 1771.29898,2260.56181 1771.29898,2247.55633 C1771.29898,2236.46342 1768.5258,2225.94444 1762.97934,2215.99907 C1757.43289,2206.0537 1750.35648,2196.49099 1741.74992,2187.31065 C1733.14335,2178.13031 1723.96315,2169.33262 1714.20904,2160.91731 C1704.45493,2152.502 1695.27473,2143.99119 1686.66816,2135.38462 C1678.06159,2126.77805 1670.98519,2118.17161 1665.43873,2109.56505 C1659.89228,2100.95848 1657.11909,2092.06516 1657.11909,2082.88482 C1657.11909,2069.11431 1661.51794,2058.4997 1670.31576,2051.04068 C1679.11359,2043.58165 1693.2664,2039.8522 1712.77462,2039.8522 C1715.83473,2039.8522 1718.99042,2039.94782 1722.24179,2040.13908 C1725.49316,2040.33034 1728.64886,2040.61722 1731.70897,2040.99973 C1734.76908,2041.38225 1737.82915,2041.5735 1740.88926,2041.5735 L1740.88926,2026.65553 C1738.21166,2026.65553 1735.34285,2026.46427 1732.28274,2026.08176 C1729.60514,2025.69924 1726.6407,2025.41236 1723.38933,2025.22111 C1720.13796,2025.02985 1716.79101,2024.93422 1713.34838,2024.93422 C1692.69262,2024.93422 1675.671,2029.61995 1662.28301,2038.99154 C1648.89501,2048.36314 1642.20111,2062.99409 1642.20111,2082.88482 C1642.20111,2093.59522 1644.9743,2103.63606 1650.52076,2113.00766 C1656.06721,2122.37925 1663.14361,2131.55945 1671.75018,2140.54854 C1680.35675,2149.53762 1689.53695,2158.23968 1699.29106,2166.65499 C1709.04517,2175.0703 1718.22537,2183.58112 1726.83194,2192.18768 C1735.43851,2200.79425 1742.51491,2209.68757 1748.06137,2218.86791 C1753.60782,2228.04825 1756.38101,2237.61096 1756.38101,2247.55633 C1756.38101,2265.917 1750.16525,2279.87856 1737.73354,2289.44141 C1725.30183,2299.00426 1708.18458,2303.78562 1686.38127,2303.78562 C1673.37579,2303.78562 1661.51803,2302.82935 1650.80764,2300.91678 C1645.06993,2300.15175 1639.52356,2299.19548 1634.16836,2298.04794 L1634.16836,2312.96591 Z M1585.97182,2244.11372 C1594.38713,2246.79131 1603.18482,2248.89511 1612.36516,2250.42517 C1620.01544,2252.33774 1628.71751,2253.86777 1638.47162,2255.01531 C1648.22573,2256.16286 1658.07532,2256.73662 1668.02069,2256.73662 C1685.61634,2256.73662 1694.41403,2250.23398 1694.41403,2237.2285 C1694.41403,2232.25581 1691.73647,2227.18758 1686.38127,2222.02364 C1681.02608,2216.85969 1674.23655,2211.12207 1666.0125,2204.81059 C1657.78845,2198.4991 1648.99075,2191.51833 1639.61916,2183.86804 C1630.24756,2176.21776 1621.44987,2167.42007 1613.22581,2157.4747 C1605.00176,2147.52933 1598.21224,2136.34096 1592.85704,2123.90925 C1587.50184,2111.47755 1584.82428,2097.22911 1584.82428,2081.16352 C1584.82428,2063.18535 1588.0756,2047.31125 1594.57834,2033.54075 C1601.08108,2019.77024 1610.07003,2008.29499 1621.54546,1999.11465 C1633.02088,1989.93431 1646.5043,1982.95353 1661.99612,1978.1721 C1677.48794,1973.39068 1694.03143,1971 1711.62708,1971 C1720.80742,1971 1729.98762,1971.47814 1739.16796,1972.43442 C1748.3483,1973.39071 1756.57223,1974.25135 1763.84,1975.01638 C1772.25531,1976.16392 1780.47924,1977.31145 1788.51203,1978.45899 L1788.51203,2085.75366 C1785.45192,2085.37115 1782.00935,2084.98864 1778.1842,2084.60613 C1775.12409,2084.22361 1771.68152,2083.8411 1767.85637,2083.45859 C1764.03123,2083.07607 1760.0149,2082.88482 1755.80724,2082.88482 C1753.51216,2082.88482 1750.64334,2082.98045 1747.20072,2083.1717 C1743.75809,2083.36296 1740.50677,2083.8411 1737.44665,2084.60613 C1734.38654,2085.37115 1731.70898,2086.70993 1729.4139,2088.6225 C1727.11881,2090.53507 1725.97129,2093.21263 1725.97129,2096.65526 C1725.97129,2099.71537 1728.55322,2103.54046 1733.71716,2108.13063 C1738.8811,2112.7208 1745.19249,2118.07591 1752.65151,2124.19614 C1760.11054,2130.31636 1768.33447,2137.39277 1777.32355,2145.42557 C1786.31263,2153.45836 1794.53656,2162.63856 1801.99559,2172.96644 C1809.45461,2183.29433 1815.766,2194.96083 1820.92994,2207.96631 C1826.09388,2220.97179 1828.67582,2235.50711 1828.67582,2251.5727 C1828.67582,2268.40332 1825.99826,2284.1818 1820.64306,2298.90859 C1815.28786,2313.63538 1806.9683,2326.44941 1795.68414,2337.35107 C1784.39997,2348.25272 1769.96028,2356.85916 1752.36463,2363.17064 C1734.76898,2369.48212 1713.92227,2372.63782 1689.82388,2372.63782 C1675.28835,2372.63782 1661.80493,2371.96843 1649.37322,2370.62963 C1636.94151,2369.29083 1625.94439,2367.66517 1616.38154,2365.7526 C1605.28863,2363.84003 1595.15216,2361.54498 1585.97182,2358.86738 L1585.97182,2244.11372 Z M1840.65745,1980.18029 L1964.59141,1980.18029 L1964.59141,2068.54061 L2036.88621,1980.18029 L2186.63974,1980.18029 L2051.80419,2155.17963 L2193.52496,2362.88376 L2046.06651,2362.88376 L1964.59141,2244.68748 L1964.59141,2362.88376 L1840.65745,2362.88376 L1840.65745,1980.18029 Z M1912.95226,2316.98229 L1912.95226,2239.52357 L1972.62416,2165.50746 L2077.05,2316.98229 L2094.83681,2316.98229 L1982.95199,2153.45832 L2085.65652,2026.08176 L2067.29593,2026.08176 L1912.95226,2216.57284 L1912.95226,2026.08176 L1898.03428,2026.08176 L1898.03428,2316.98229 L1912.95226,2316.98229 Z M2347.80114,2372.63782 C2323.70275,2372.63782 2301.89977,2369.57775 2282.39155,2363.45752 C2262.88333,2357.3373 2246.24422,2348.1571 2232.47371,2335.91664 C2218.7032,2323.67619 2208.08859,2308.1846 2200.62957,2289.44141 C2193.17054,2270.69822 2189.44109,2248.70399 2189.44109,2223.45806 L2189.44109,1980.18029 L2311.65374,1980.18029 L2311.65374,2218.29414 C2311.65374,2231.68214 2314.42692,2241.91423 2319.97338,2248.99075 C2325.51983,2256.06726 2334.79566,2259.60546 2347.80114,2259.60546 C2360.80662,2259.60546 2370.08245,2256.06726 2375.6289,2248.99075 C2381.17536,2241.91423 2383.94854,2231.68214 2383.94854,2218.29414 L2383.94854,1980.18029 L2506.73496,1980.18029 L2506.73496,2223.45806 C2506.73496,2248.70399 2503.0055,2270.69822 2495.54648,2289.44141 C2488.08745,2308.1846 2477.37722,2323.67619 2463.41545,2335.91664 C2449.45369,2348.1571 2432.71895,2357.3373 2413.21073,2363.45752 C2393.70251,2369.57775 2371.89953,2372.63782 2347.80114,2372.63782 Z M2347.80114,2303.78562 C2290.42402,2303.78562 2261.73589,2275.67125 2261.73589,2219.44168 L2261.73589,2026.08176 L2246.81792,2026.08176 L2246.81792,2219.44168 C2246.81792,2251.57286 2255.51998,2276.14903 2272.92437,2293.17091 C2290.32877,2310.19278 2315.28744,2318.7036 2347.80114,2318.7036 C2380.31484,2318.7036 2405.36914,2310.19278 2422.96479,2293.17091 C2440.56044,2276.14903 2449.35813,2251.57286 2449.35813,2219.44168 L2449.35813,2026.08176 L2433.86639,2026.08176 L2433.86639,2219.44168 C2433.86639,2275.67125 2405.17826,2303.78562 2347.80114,2303.78562 Z M2531.3395,1980.18029 L2658.71607,1980.18029 L2658.71607,2262.4743 L2764.28943,2262.4743 L2764.28943,2362.88376 L2531.3395,2362.88376 L2531.3395,1980.18029 Z M2732.15841,2316.98229 L2732.15841,2303.21185 L2603.63431,2303.21185 L2603.63431,2026.08176 L2588.71633,2026.08176 L2588.71633,2316.98229 L2732.15841,2316.98229 Z M2770.53339,1980.18029 L2897.90995,1980.18029 L2897.90995,2262.4743 L3003.48332,2262.4743 L3003.48332,2362.88376 L2770.53339,2362.88376 L2770.53339,1980.18029 Z M2971.3523,2316.98229 L2971.3523,2303.21185 L2842.82819,2303.21185 L2842.82819,2026.08176 L2827.91022,2026.08176 L2827.91022,2316.98229 L2971.3523,2316.98229 Z" id="Gas-Skull" fill="#9F9484"></path>
                <path d="M1084.12407,2587.52344 C1072.60057,2598.13547 1061.50043,2603.44141 1050.82329,2603.44141 C1042.03418,2603.44141 1034.74259,2600.69078 1028.94829,2595.18945 C1023.15399,2589.68812 1020.25688,2582.73832 1020.25688,2574.33984 C1020.25688,2562.75124 1025.12337,2553.84834 1034.85649,2547.63086 C1044.58961,2541.41338 1058.53804,2538.30469 1076.70219,2538.30469 L1081.29204,2538.30469 L1081.29204,2525.51172 C1081.29204,2513.20697 1074.977,2507.05469 1062.34673,2507.05469 C1052.19043,2507.05469 1041.22048,2510.17966 1029.43657,2516.42969 L1029.43657,2500.51172 C1042.39236,2495.23825 1054.53417,2492.60156 1065.86235,2492.60156 C1077.71137,2492.60156 1086.45152,2495.27081 1092.08305,2500.60938 C1097.71459,2505.94794 1100.53032,2514.24864 1100.53032,2525.51172 L1100.53032,2573.55859 C1100.53032,2584.56125 1103.9157,2590.0625 1110.68657,2590.0625 C1111.53293,2590.0625 1112.76989,2589.93229 1114.39751,2589.67188 L1115.76469,2600.31641 C1111.40269,2602.39975 1106.58503,2603.44141 1101.31157,2603.44141 C1092.32715,2603.44141 1086.59804,2598.13547 1084.12407,2587.52344 Z M1081.29204,2577.07422 L1081.29204,2549.63281 L1074.84673,2549.4375 C1064.2998,2549.4375 1055.77124,2551.43943 1049.26079,2555.44336 C1042.75034,2559.44729 1039.49516,2564.70439 1039.49516,2571.21484 C1039.49516,2575.83726 1041.12275,2579.74347 1044.37798,2582.93359 C1047.6332,2586.12371 1051.60452,2587.71875 1056.29204,2587.71875 C1064.29989,2587.71875 1072.63314,2584.17061 1081.29204,2577.07422 Z M1135.06226,2601 L1135.06226,2494.94531 L1171.97632,2494.94531 C1183.1743,2494.94531 1191.57265,2496.86587 1197.17164,2500.70703 C1202.77062,2504.5482 1205.57007,2510.30986 1205.57007,2517.99219 C1205.57007,2524.50264 1203.87738,2530.05271 1200.49195,2534.64258 C1197.10651,2539.23244 1192.02844,2542.89452 1185.25757,2545.62891 C1193.46074,2548.29819 1199.61302,2552.00909 1203.7146,2556.76172 C1207.81619,2561.51435 1209.86695,2567.34111 1209.86695,2574.24219 C1209.86695,2582.64067 1206.83963,2589.19985 1200.78492,2593.91992 C1194.7302,2598.64 1186.39695,2601 1175.78492,2601 L1135.06226,2601 Z M1154.20289,2586.54688 L1162.2107,2586.54688 C1173.08315,2586.54688 1180.37474,2585.5866 1184.0857,2583.66602 C1187.79665,2581.74543 1189.6521,2578.01826 1189.6521,2572.48438 C1189.6521,2566.55987 1187.227,2561.75848 1182.37671,2558.08008 C1177.52643,2554.40167 1171.16256,2552.5625 1163.28492,2552.5625 L1154.20289,2552.5625 L1154.20289,2586.54688 Z M1154.20289,2539.86719 L1163.87085,2539.86719 C1178.51937,2539.86719 1185.84351,2533.91022 1185.84351,2521.99609 C1185.84351,2517.82941 1184.10199,2514.68816 1180.6189,2512.57227 C1177.13581,2510.45637 1171.94381,2509.39844 1165.04273,2509.39844 L1154.20289,2509.39844 L1154.20289,2539.86719 Z M1255.82467,2601 L1255.82467,2510.375 L1218.42233,2510.375 L1218.42233,2494.94531 L1312.4653,2494.94531 L1312.4653,2510.375 L1275.06295,2510.375 L1275.06295,2601 L1255.82467,2601 Z M1370.72771,2603.44141 C1355.55836,2603.44141 1343.4491,2598.41216 1334.39958,2588.35352 C1325.35006,2578.29487 1320.82536,2564.83472 1320.82536,2547.97266 C1320.82536,2530.91528 1325.36633,2517.42258 1334.44841,2507.49414 C1343.53048,2497.56571 1355.85133,2492.60156 1371.4113,2492.60156 C1386.97127,2492.60156 1399.29211,2497.56571 1408.37419,2507.49414 C1417.45627,2517.42258 1421.99724,2530.85018 1421.99724,2547.77734 C1421.99724,2565.09514 1417.43999,2578.70177 1408.32536,2588.59766 C1399.21073,2598.49354 1386.67831,2603.44141 1370.72771,2603.44141 Z M1371.02067,2588.98828 C1391.39838,2588.98828 1401.58708,2575.25144 1401.58708,2547.77734 C1401.58708,2520.62877 1391.52859,2507.05469 1371.4113,2507.05469 C1351.35912,2507.05469 1341.33317,2520.69387 1341.33317,2547.97266 C1341.33317,2575.31654 1351.22891,2588.98828 1371.02067,2588.98828 Z M1447.25183,2601 L1447.25183,2494.94531 L1468.24793,2494.94531 L1500.08386,2577.85547 L1500.27918,2577.85547 L1531.52918,2494.94531 L1553.89246,2494.94531 L1553.89246,2601 L1534.55652,2601 L1534.55652,2520.43359 L1534.36121,2520.43359 L1506.82215,2593.77344 L1488.26746,2593.77344 L1462.48621,2527.36719 L1462.2909,2527.36719 L1462.2909,2601 L1447.25183,2601 Z M1642.33065,2587.52344 C1630.80715,2598.13547 1619.707,2603.44141 1609.02987,2603.44141 C1600.24076,2603.44141 1592.94917,2600.69078 1587.15487,2595.18945 C1581.36057,2589.68812 1578.46346,2582.73832 1578.46346,2574.33984 C1578.46346,2562.75124 1583.32995,2553.84834 1593.06307,2547.63086 C1602.79619,2541.41338 1616.74462,2538.30469 1634.90877,2538.30469 L1639.49862,2538.30469 L1639.49862,2525.51172 C1639.49862,2513.20697 1633.18358,2507.05469 1620.55331,2507.05469 C1610.397,2507.05469 1599.42706,2510.17966 1587.64315,2516.42969 L1587.64315,2500.51172 C1600.59894,2495.23825 1612.74075,2492.60156 1624.06893,2492.60156 C1635.91795,2492.60156 1644.6581,2495.27081 1650.28963,2500.60938 C1655.92117,2505.94794 1658.7369,2514.24864 1658.7369,2525.51172 L1658.7369,2573.55859 C1658.7369,2584.56125 1662.12228,2590.0625 1668.89315,2590.0625 C1669.73951,2590.0625 1670.97647,2589.93229 1672.60409,2589.67188 L1673.97127,2600.31641 C1669.60927,2602.39975 1664.79161,2603.44141 1659.51815,2603.44141 C1650.53373,2603.44141 1644.80462,2598.13547 1642.33065,2587.52344 Z M1639.49862,2577.07422 L1639.49862,2549.63281 L1633.05331,2549.4375 C1622.50638,2549.4375 1613.97782,2551.43943 1607.46737,2555.44336 C1600.95692,2559.44729 1597.70174,2564.70439 1597.70174,2571.21484 C1597.70174,2575.83726 1599.32933,2579.74347 1602.58456,2582.93359 C1605.83978,2586.12371 1609.81109,2587.71875 1614.49862,2587.71875 C1622.50647,2587.71875 1630.83972,2584.17061 1639.49862,2577.07422 Z M1734.67509,2603.44141 C1720.3521,2603.44141 1708.47071,2598.13547 1699.03056,2587.52344 C1689.59041,2576.91141 1684.8704,2563.53263 1684.8704,2547.38672 C1684.8704,2530.13403 1689.54158,2516.69015 1698.88407,2507.05469 C1708.22657,2497.41922 1721.26355,2492.60156 1737.9954,2492.60156 C1746.26367,2492.60156 1755.50837,2493.74087 1765.72978,2496.01953 L1765.72978,2512.13281 C1754.85733,2508.94269 1746.00325,2507.34766 1739.16728,2507.34766 C1729.3365,2507.34766 1721.4427,2511.04228 1715.48564,2518.43164 C1709.52858,2525.821 1706.55009,2535.66791 1706.55009,2547.97266 C1706.55009,2559.88678 1709.60996,2569.5221 1715.72978,2576.87891 C1721.8496,2584.23571 1729.85733,2587.91406 1739.75322,2587.91406 C1748.54232,2587.91406 1757.59171,2585.66799 1766.90165,2581.17578 L1766.90165,2597.77734 C1754.46669,2601.5534 1743.72461,2603.44141 1734.67509,2603.44141 Z M1811.49219,2601 L1811.49219,2510.375 L1774.08984,2510.375 L1774.08984,2494.94531 L1868.13281,2494.94531 L1868.13281,2510.375 L1830.73047,2510.375 L1830.73047,2601 L1811.49219,2601 Z M1962.62569,2597.58203 C1949.735,2601.4883 1938.69996,2603.44141 1929.52022,2603.44141 C1913.89514,2603.44141 1901.15113,2598.2494 1891.2878,2587.86523 C1881.42447,2577.48107 1876.49288,2564.02092 1876.49288,2547.48438 C1876.49288,2531.40357 1880.83854,2518.2201 1889.52999,2507.93359 C1898.22144,2497.64708 1909.33786,2492.50391 1922.8796,2492.50391 C1935.70518,2492.50391 1945.61719,2497.06115 1952.61593,2506.17578 C1959.61466,2515.29041 1963.11397,2528.24601 1963.11397,2545.04297 L1963.01632,2551 L1896.12178,2551 C1898.92128,2576.19544 1911.25839,2588.79297 1933.1335,2588.79297 C1941.14136,2588.79297 1950.97199,2586.64455 1962.62569,2582.34766 L1962.62569,2597.58203 Z M1897.00069,2536.54688 L1943.77803,2536.54688 C1943.77803,2516.82021 1936.42134,2506.95703 1921.70772,2506.95703 C1906.929,2506.95703 1898.69341,2516.82021 1897.00069,2536.54688 Z M1991.49357,2639.57422 L1991.49357,2494.94531 L2010.73185,2494.94531 L2010.73185,2514.86719 C2018.60949,2500.02336 2030.42578,2492.60156 2046.18107,2492.60156 C2058.94155,2492.60156 2068.98377,2497.25646 2076.30802,2506.56641 C2083.63228,2515.87635 2087.29435,2528.60409 2087.29435,2544.75 C2087.29435,2562.32821 2083.144,2576.5045 2074.84318,2587.2793 C2066.54236,2598.05409 2055.62124,2603.44141 2042.07951,2603.44141 C2029.51434,2603.44141 2019.06523,2598.62375 2010.73185,2588.98828 L2010.73185,2639.57422 L1991.49357,2639.57422 Z M2010.73185,2575.70703 C2020.62773,2584.56124 2030.06774,2588.98828 2039.05216,2588.98828 C2057.54184,2588.98828 2066.78654,2574.89337 2066.78654,2546.70312 C2066.78654,2521.83321 2058.5835,2509.39844 2042.17716,2509.39844 C2031.43492,2509.39844 2020.95326,2515.2252 2010.73185,2526.87891 L2010.73185,2575.70703 Z M2153.9552,2603.44141 C2139.63221,2603.44141 2127.75082,2598.13547 2118.31067,2587.52344 C2108.87052,2576.91141 2104.15051,2563.53263 2104.15051,2547.38672 C2104.15051,2530.13403 2108.82169,2516.69015 2118.16418,2507.05469 C2127.50668,2497.41922 2140.54366,2492.60156 2157.27551,2492.60156 C2165.54378,2492.60156 2174.78848,2493.74087 2185.00989,2496.01953 L2185.00989,2512.13281 C2174.13744,2508.94269 2165.28336,2507.34766 2158.44739,2507.34766 C2148.61661,2507.34766 2140.72281,2511.04228 2134.76574,2518.43164 C2128.80868,2525.821 2125.8302,2535.66791 2125.8302,2547.97266 C2125.8302,2559.88678 2128.89006,2569.5221 2135.00989,2576.87891 C2141.12971,2584.23571 2149.13744,2587.91406 2159.03332,2587.91406 C2167.82243,2587.91406 2176.87182,2585.66799 2186.18176,2581.17578 L2186.18176,2597.77734 C2173.7468,2601.5534 2163.00472,2603.44141 2153.9552,2603.44141 Z M2210.16683,2601 L2210.16683,2494.94531 L2229.40511,2494.94531 L2229.50276,2541.33203 C2238.48718,2541.33203 2244.24884,2540.45313 2246.78792,2538.69531 C2249.327,2536.93749 2253.33086,2531.04562 2258.79964,2521.01953 L2261.3387,2516.52734 C2266.41685,2507.28251 2270.84389,2501.37436 2274.61995,2498.80273 C2278.39601,2496.23111 2284.6134,2494.94531 2293.27229,2494.94531 L2293.27229,2509.39844 L2292.19808,2509.39844 C2288.03139,2509.39844 2284.85759,2510.34244 2282.67659,2512.23047 C2280.49559,2514.1185 2277.61476,2518.38278 2274.03401,2525.02344 L2272.37386,2528.14844 C2268.53269,2535.24483 2265.66814,2539.76952 2263.78011,2541.72266 C2261.89208,2543.67579 2258.24628,2545.79166 2252.84261,2548.07031 C2257.92076,2549.43751 2261.4689,2551.01627 2263.48714,2552.80664 C2265.50538,2554.59701 2269.21628,2559.4635 2274.61995,2567.40625 L2279.20979,2574.04688 L2283.2137,2579.90625 L2288.29183,2587.42578 C2289.85433,2589.76954 2292.06785,2592.92706 2294.93245,2596.89844 L2297.86214,2601 L2276.9637,2601 L2274.03401,2596.99609 C2269.86733,2591.332 2265.47284,2585.11462 2260.85042,2578.34375 C2255.05612,2569.94527 2249.39211,2562.42581 2243.85823,2555.78516 L2229.40511,2555.78516 L2229.40511,2601 L2210.16683,2601 Z M2372.43314,2587.52344 C2360.90965,2598.13547 2349.8095,2603.44141 2339.13236,2603.44141 C2330.34325,2603.44141 2323.05166,2600.69078 2317.25736,2595.18945 C2311.46306,2589.68812 2308.56595,2582.73832 2308.56595,2574.33984 C2308.56595,2562.75124 2313.43244,2553.84834 2323.16556,2547.63086 C2332.89869,2541.41338 2346.84711,2538.30469 2365.01127,2538.30469 L2369.60111,2538.30469 L2369.60111,2525.51172 C2369.60111,2513.20697 2363.28607,2507.05469 2350.6558,2507.05469 C2340.4995,2507.05469 2329.52956,2510.17966 2317.74564,2516.42969 L2317.74564,2500.51172 C2330.70144,2495.23825 2342.84324,2492.60156 2354.17142,2492.60156 C2366.02044,2492.60156 2374.76059,2495.27081 2380.39213,2500.60938 C2386.02367,2505.94794 2388.83939,2514.24864 2388.83939,2525.51172 L2388.83939,2573.55859 C2388.83939,2584.56125 2392.22477,2590.0625 2398.99564,2590.0625 C2399.842,2590.0625 2401.07897,2589.93229 2402.70658,2589.67188 L2404.07377,2600.31641 C2399.71177,2602.39975 2394.89411,2603.44141 2389.62064,2603.44141 C2380.63622,2603.44141 2374.90711,2598.13547 2372.43314,2587.52344 Z M2369.60111,2577.07422 L2369.60111,2549.63281 L2363.1558,2549.4375 C2352.60887,2549.4375 2344.08031,2551.43943 2337.56986,2555.44336 C2331.05941,2559.44729 2327.80424,2564.70439 2327.80424,2571.21484 C2327.80424,2575.83726 2329.43182,2579.74347 2332.68705,2582.93359 C2335.94227,2586.12371 2339.91359,2587.71875 2344.60111,2587.71875 C2352.60896,2587.71875 2360.94221,2584.17061 2369.60111,2577.07422 Z M2470.05102,2558.22656 L2459.11352,2558.22656 C2454.55621,2562.71877 2449.80365,2569.22912 2444.85571,2577.75781 L2438.70336,2588.5 C2436.03408,2593.25263 2433.72291,2597.41925 2431.76977,2601 L2410.18774,2601 C2414.74505,2594.09892 2418.84658,2587.19795 2422.49243,2580.29688 L2425.03149,2575.51172 C2431.15131,2563.85801 2437.14084,2556.33856 2443.00024,2552.95312 C2436.35958,2550.54426 2431.06992,2546.7357 2427.1311,2541.52734 C2423.19228,2536.31898 2421.2229,2530.52477 2421.2229,2524.14453 C2421.2229,2512.62104 2426.65904,2504.25523 2437.53149,2499.04688 C2443.06537,2496.31249 2453.25407,2494.94531 2468.0979,2494.94531 L2489.38696,2494.94531 L2489.38696,2601 L2470.05102,2601 L2470.05102,2558.22656 Z M2470.05102,2509.39844 L2464.67993,2509.39844 C2456.9976,2509.39844 2451.25221,2510.79816 2447.4436,2513.59766 C2443.63499,2516.39715 2441.73071,2520.59633 2441.73071,2526.19531 C2441.73071,2532.05472 2443.73264,2536.4492 2447.73657,2539.37891 C2451.74049,2542.30861 2457.74629,2543.77344 2465.75415,2543.77344 L2470.05102,2543.77344 L2470.05102,2509.39844 Z" id="автомастерская" fill="#9F9484"></path>
                <path d="M1265.91509,2792.83105 C1254.53808,2792.83105 1245.45614,2789.05912 1238.66899,2781.51514 C1231.88185,2773.97115 1228.48833,2763.87604 1228.48833,2751.22949 C1228.48833,2738.43646 1231.89406,2728.31693 1238.70562,2720.87061 C1245.51717,2713.42428 1254.7578,2709.70117 1266.42778,2709.70117 C1278.09776,2709.70117 1287.33839,2713.42428 1294.14995,2720.87061 C1300.96151,2728.31693 1304.36724,2738.38763 1304.36724,2751.08301 C1304.36724,2764.07135 1300.9493,2774.27633 1294.11333,2781.69824 C1287.27736,2789.12015 1277.87804,2792.83105 1265.91509,2792.83105 Z M1266.13481,2781.99121 C1281.41809,2781.99121 1289.05962,2771.68858 1289.05962,2751.08301 C1289.05962,2730.72158 1281.51575,2720.54102 1266.42778,2720.54102 C1251.38865,2720.54102 1243.86919,2730.77041 1243.86919,2751.22949 C1243.86919,2771.73741 1251.29099,2781.99121 1266.13481,2781.99121 Z M1354.36287,2792.83105 C1343.62063,2792.83105 1334.70959,2788.8516 1327.62947,2780.89258 C1320.54936,2772.93355 1317.00936,2762.89947 1317.00936,2750.79004 C1317.00936,2737.85052 1320.51274,2727.76761 1327.51961,2720.54102 C1334.52648,2713.31442 1344.30422,2709.70117 1356.85311,2709.70117 C1363.05431,2709.70117 1369.98783,2710.55566 1377.65389,2712.26465 L1377.65389,2724.34961 C1369.49955,2721.95702 1362.85899,2720.76074 1357.73201,2720.76074 C1350.35893,2720.76074 1344.43858,2723.53171 1339.97078,2729.07373 C1335.50299,2734.61575 1333.26912,2742.00093 1333.26912,2751.22949 C1333.26912,2760.16508 1335.56402,2767.39157 1340.15389,2772.90918 C1344.74375,2778.42679 1350.74955,2781.18555 1358.17147,2781.18555 C1364.7633,2781.18555 1371.55034,2779.50099 1378.53279,2776.13184 L1378.53279,2788.58301 C1369.20658,2791.41505 1361.15002,2792.83105 1354.36287,2792.83105 Z M1396.52159,2791 L1396.52159,2711.45898 L1410.9503,2711.45898 L1410.9503,2743.75879 L1447.13194,2743.75879 L1447.13194,2711.45898 L1461.56066,2711.45898 L1461.56066,2791 L1447.13194,2791 L1447.13194,2754.59863 L1410.9503,2754.59863 L1410.9503,2791 L1396.52159,2791 Z M1518.0016,2792.83105 C1506.62459,2792.83105 1497.54265,2789.05912 1490.75551,2781.51514 C1483.96837,2773.97115 1480.57485,2763.87604 1480.57485,2751.22949 C1480.57485,2738.43646 1483.98057,2728.31693 1490.79213,2720.87061 C1497.60369,2713.42428 1506.84432,2709.70117 1518.5143,2709.70117 C1530.18428,2709.70117 1539.42491,2713.42428 1546.23647,2720.87061 C1553.04802,2728.31693 1556.45375,2738.38763 1556.45375,2751.08301 C1556.45375,2764.07135 1553.03582,2774.27633 1546.19985,2781.69824 C1539.36387,2789.12015 1529.96455,2792.83105 1518.0016,2792.83105 Z M1518.22133,2781.99121 C1533.50461,2781.99121 1541.14614,2771.68858 1541.14614,2751.08301 C1541.14614,2730.72158 1533.60227,2720.54102 1518.5143,2720.54102 C1503.47516,2720.54102 1495.95571,2730.77041 1495.95571,2751.22949 C1495.95571,2771.73741 1503.37751,2781.99121 1518.22133,2781.99121 Z M1575.3947,2791 L1575.3947,2711.45898 L1603.08025,2711.45898 C1611.47873,2711.45898 1617.77749,2712.8994 1621.97673,2715.78027 C1626.17597,2718.66115 1628.27556,2722.98239 1628.27556,2728.74414 C1628.27556,2733.62698 1627.00604,2737.78953 1624.46697,2741.23193 C1621.92789,2744.67433 1618.11934,2747.42089 1613.04118,2749.47168 C1619.19356,2751.47364 1623.80777,2754.25682 1626.88396,2757.82129 C1629.96015,2761.38576 1631.49822,2765.75583 1631.49822,2770.93164 C1631.49822,2777.2305 1629.22773,2782.14988 1624.68669,2785.68994 C1620.14565,2789.23 1613.89572,2791 1605.93669,2791 L1575.3947,2791 Z M1589.75017,2780.16016 L1595.75603,2780.16016 C1603.91037,2780.16016 1609.37906,2779.43995 1612.16228,2777.99951 C1614.9455,2776.55907 1616.33708,2773.76369 1616.33708,2769.61328 C1616.33708,2765.1699 1614.51825,2761.56886 1610.88054,2758.81006 C1607.24283,2756.05126 1602.46993,2754.67188 1596.56169,2754.67188 L1589.75017,2754.67188 L1589.75017,2780.16016 Z M1589.75017,2745.15039 L1597.00115,2745.15039 C1607.98753,2745.15039 1613.48064,2740.68266 1613.48064,2731.74707 C1613.48064,2728.62205 1612.1745,2726.26612 1609.56218,2724.6792 C1606.94986,2723.09228 1603.05586,2722.29883 1597.88005,2722.29883 L1589.75017,2722.29883 L1589.75017,2745.15039 Z M1691.52803,2780.89258 C1682.88541,2788.8516 1674.5603,2792.83105 1666.55245,2792.83105 C1659.96062,2792.83105 1654.49192,2790.76809 1650.1462,2786.64209 C1645.80047,2782.51609 1643.62764,2777.30374 1643.62764,2771.00488 C1643.62764,2762.31343 1647.27751,2755.63625 1654.57735,2750.97314 C1661.87719,2746.31004 1672.33851,2743.97852 1685.96162,2743.97852 L1689.40401,2743.97852 L1689.40401,2734.38379 C1689.40401,2725.15523 1684.66773,2720.54102 1675.19502,2720.54102 C1667.5778,2720.54102 1659.35034,2722.88474 1650.51241,2727.57227 L1650.51241,2715.63379 C1660.22925,2711.67869 1669.33561,2709.70117 1677.83174,2709.70117 C1686.71851,2709.70117 1693.27362,2711.7031 1697.49727,2715.70703 C1701.72092,2719.71096 1703.83272,2725.93648 1703.83272,2734.38379 L1703.83272,2770.41895 C1703.83272,2778.67094 1706.37176,2782.79688 1711.44991,2782.79688 C1712.08467,2782.79688 1713.0124,2782.69922 1714.23311,2782.50391 L1715.2585,2790.4873 C1711.987,2792.04981 1708.37375,2792.83105 1704.41866,2792.83105 C1697.68034,2792.83105 1693.38351,2788.8516 1691.52803,2780.89258 Z M1689.40401,2773.05566 L1689.40401,2752.47461 L1684.57002,2752.32812 C1676.65983,2752.32812 1670.26341,2753.82957 1665.38057,2756.83252 C1660.49773,2759.83546 1658.05635,2763.7783 1658.05635,2768.66113 C1658.05635,2772.12795 1659.27704,2775.05761 1661.71846,2777.4502 C1664.15988,2779.84279 1667.13837,2781.03906 1670.65401,2781.03906 C1676.6599,2781.03906 1682.90983,2778.37796 1689.40401,2773.05566 Z M1729.73167,2791 L1729.73167,2711.45898 L1744.16039,2711.45898 L1744.16039,2743.75879 L1780.34203,2743.75879 L1780.34203,2711.45898 L1794.77074,2711.45898 L1794.77074,2791 L1780.34203,2791 L1780.34203,2754.59863 L1744.16039,2754.59863 L1744.16039,2791 L1729.73167,2791 Z M1861.09938,2780.89258 C1852.45676,2788.8516 1844.13165,2792.83105 1836.12379,2792.83105 C1829.53196,2792.83105 1824.06327,2790.76809 1819.71754,2786.64209 C1815.37182,2782.51609 1813.19899,2777.30374 1813.19899,2771.00488 C1813.19899,2762.31343 1816.84886,2755.63625 1824.1487,2750.97314 C1831.44854,2746.31004 1841.90986,2743.97852 1855.53297,2743.97852 L1858.97536,2743.97852 L1858.97536,2734.38379 C1858.97536,2725.15523 1854.23908,2720.54102 1844.76637,2720.54102 C1837.14915,2720.54102 1828.92169,2722.88474 1820.08376,2727.57227 L1820.08376,2715.63379 C1829.8006,2711.67869 1838.90695,2709.70117 1847.40309,2709.70117 C1856.28985,2709.70117 1862.84496,2711.7031 1867.06862,2715.70703 C1871.29227,2719.71096 1873.40407,2725.93648 1873.40407,2734.38379 L1873.40407,2770.41895 C1873.40407,2778.67094 1875.9431,2782.79688 1881.02126,2782.79688 C1881.65602,2782.79688 1882.58375,2782.69922 1883.80446,2782.50391 L1884.82985,2790.4873 C1881.55835,2792.04981 1877.9451,2792.83105 1873.99001,2792.83105 C1867.25169,2792.83105 1862.95486,2788.8516 1861.09938,2780.89258 Z M1858.97536,2773.05566 L1858.97536,2752.47461 L1854.14137,2752.32812 C1846.23118,2752.32812 1839.83476,2753.82957 1834.95192,2756.83252 C1830.06908,2759.83546 1827.6277,2763.7783 1827.6277,2768.66113 C1827.6277,2772.12795 1828.84839,2775.05761 1831.28981,2777.4502 C1833.73123,2779.84279 1836.70971,2781.03906 1840.22536,2781.03906 C1846.23125,2781.03906 1852.48118,2778.37796 1858.97536,2773.05566 Z M1941.16878,2791 L1941.16878,2778.3291 C1945.36802,2768.5146 1953.86402,2757.82135 1966.65706,2746.24902 L1974.93342,2738.85156 C1985.57801,2729.23237 1990.90022,2719.68657 1990.90022,2710.21387 C1990.90022,2704.15915 1989.08139,2699.39845 1985.44368,2695.93164 C1981.80597,2692.46483 1976.81334,2690.73145 1970.46565,2690.73145 C1962.94608,2690.73145 1954.08387,2693.63669 1943.87874,2699.44727 L1943.87874,2686.70312 C1953.49793,2682.16209 1963.04373,2679.8916 1972.51643,2679.8916 C1982.67273,2679.8916 1990.82695,2682.62595 1996.97932,2688.09473 C2003.1317,2693.5635 2006.20784,2700.81441 2006.20784,2709.84766 C2006.20784,2716.34183 2004.65756,2722.10349 2001.55696,2727.13281 C1998.45636,2732.16213 1992.68249,2738.26559 1984.23518,2745.44336 L1978.66878,2750.2041 C1967.09645,2760.0186 1960.40707,2769.39351 1958.60042,2778.3291 L2005.69514,2778.3291 L2005.69514,2791 L1941.16878,2791 Z M2066.97008,2793.70996 C2055.78838,2793.70996 2046.74306,2788.44878 2039.83385,2777.92627 C2032.92463,2767.40376 2029.47008,2753.67098 2029.47008,2736.72754 C2029.47008,2719.63761 2032.94904,2705.89263 2039.90709,2695.49219 C2046.86513,2685.09174 2056.03252,2679.8916 2067.40953,2679.8916 C2078.78654,2679.8916 2087.95393,2685.09174 2094.91197,2695.49219 C2101.87001,2705.89263 2105.34898,2719.56437 2105.34898,2736.50781 C2105.34898,2753.89071 2101.87001,2767.76997 2094.91197,2778.146 C2087.95393,2788.52202 2078.64006,2793.70996 2066.97008,2793.70996 Z M2067.11656,2782.87012 C2082.39984,2782.87012 2090.04136,2767.34293 2090.04136,2736.28809 C2090.04136,2705.91684 2082.4975,2690.73145 2067.40953,2690.73145 C2052.37039,2690.73145 2044.85094,2706.06332 2044.85094,2736.72754 C2044.85094,2767.48941 2052.27274,2782.87012 2067.11656,2782.87012 Z M2133.73817,2791 L2133.73817,2780.16016 L2155.41786,2780.16016 L2155.41786,2694.61328 L2133.73817,2700.0332 L2133.73817,2688.90039 L2169.91981,2679.8916 L2169.91981,2780.16016 L2191.5995,2780.16016 L2191.5995,2791 L2133.73817,2791 Z M2228.19182,2734.82324 C2235.07662,2725.88765 2243.74352,2721.41992 2254.19279,2721.41992 C2263.6655,2721.41992 2271.41688,2724.5571 2277.44719,2730.83154 C2283.47749,2737.10599 2286.4926,2745.15034 2286.4926,2754.96484 C2286.4926,2766.2442 2283.11128,2775.52145 2276.34855,2782.79688 C2269.58582,2790.0723 2261.00437,2793.70996 2250.60392,2793.70996 C2238.64097,2793.70996 2229.29048,2788.90044 2222.55217,2779.28125 C2215.81385,2769.66206 2212.44475,2756.3077 2212.44475,2739.21777 C2212.44475,2720.41885 2216.31434,2705.81939 2224.05363,2695.41895 C2231.79293,2685.0185 2242.6937,2679.81836 2256.75627,2679.81836 C2263.20161,2679.81836 2271.25817,2681.18553 2280.92619,2683.91992 L2280.92619,2696.51758 C2270.72106,2692.61131 2262.37154,2690.6582 2255.87736,2690.6582 C2237.42024,2690.6582 2228.19182,2705.37974 2228.19182,2734.82324 Z M2271.99064,2758.1875 C2271.99064,2749.98433 2270.1474,2743.53909 2266.46086,2738.85156 C2262.77432,2734.16404 2257.65962,2731.82031 2251.11662,2731.82031 C2245.01307,2731.82031 2239.7641,2733.87107 2235.36955,2737.97266 C2230.975,2742.07424 2228.77775,2747.00583 2228.77775,2752.76758 C2228.77775,2761.84965 2230.86513,2769.13718 2235.03996,2774.63037 C2239.21479,2780.12356 2244.74452,2782.87012 2251.62932,2782.87012 C2257.83052,2782.87012 2262.77432,2780.63625 2266.46086,2776.16846 C2270.1474,2771.70066 2271.99064,2765.70707 2271.99064,2758.1875 Z" id="основана-2016" fill="#9F9484"></path>
            </g>
            <g id="wing" transform="translate(1204.000977, 1289.290486) rotate(24.000000) translate(-1204.000977, -1289.290486) translate(686.500977, 986.290486)" stroke="#979797" fill="#9F9484">
                <path d="M979.068589,355.085002 L1006.16498,359.305123 L998.424872,371.952352 C901.358864,420.413698 898.697325,582.297359 770.025541,599.659392 C782.924385,584.191452 795.827238,568.723513 808.734099,553.255573 C840.965176,477.901901 924.086163,409.556956 979.068589,355.085002 L979.068589,355.085002 Z" id="Фигура_4-path" transform="translate(888.095261, 477.372197) rotate(3.000000) translate(-888.095261, -477.372197) "></path>
                <path d="M940.11953,333.196598 C960.810591,333.170332 975.685548,335.858251 986.572205,345.848206 L978.832097,345.848206 L889.802814,409.097486 C840.235658,449.994134 793.201774,543.598516 731.072474,565.119381 L649.775283,573.555245 L649.775283,569.335124 C732.142701,477.188523 845.250094,411.404543 940.11953,333.196598 L940.11953,333.196598 Z" id="Фигура_4-path" transform="translate(818.173744, 453.375827) rotate(3.000000) translate(-818.173744, -453.375827) "></path>
                <path d="M896.612987,289.419221 C929.176757,290.294765 940.833015,300.543004 962.425953,310.502314 L962.425953,318.933801 C795.374295,350.527797 711.479699,561.529462 509.483316,512.90614 L579.164332,483.39156 C681.677677,424.528754 796.332289,358.438334 896.612987,289.419221 L896.612987,289.419221 Z" id="Фигура_4-path" transform="translate(735.954635, 404.783384) rotate(3.000000) translate(-735.954635, -404.783384) "></path>
                <path d="M848.528917,241.325678 C892.023436,240.275026 912.261554,252.707747 929.826108,279.276122 L929.826108,283.491865 C748.352436,300.219128 506.497101,520.926196 349.149639,414.214924 C461.908306,396.37572 582.366997,335.512297 678.198436,296.143472 L848.528917,241.325678 Z" id="Фигура_4-path" transform="translate(639.487874, 342.248675) rotate(3.000000) translate(-639.487874, -342.248675) "></path>
                <path d="M8.44057623,26.7560976 C195.22931,79.573274 408.837859,28.5071851 604.60127,60.4907981 C669.997368,71.1724317 732.174768,41.6666075 802.032151,64.7065412 C930.948444,107.170413 951.944139,243.475063 1026.55942,343.015631 L1026.55942,347.231375 C949.939968,328.608559 953.43925,231.90913 894.9375,199.645343 L906.561692,233.380044 L902.701658,233.380044 C846.725164,214.555853 771.155893,237.460078 720.755002,250.243016 C542.728504,295.399185 312.66972,369.382631 178.791099,258.67888 C425.961496,258.368062 679.914006,131.532418 898.8296,195.425222 L887.205409,182.777993 C856.457418,134.351668 683.136713,121.157224 600.737228,136.374174 C398.516378,173.777403 90.8721278,172.827438 8.44057623,26.7560976 Z" id="Фигура_4-path" transform="translate(517.500000, 186.993736) rotate(3.000000) translate(-517.500000, -186.993736) "></path>
            </g>
            <g id="wing-copy" transform="translate(2897.000977, 1289.290486) scale(-1, 1) rotate(24.000000) translate(-2897.000977, -1289.290486) translate(2379.500977, 986.290486)" stroke="#979797" fill="#9F9484">
                <path d="M979.068589,355.085002 L1006.16498,359.305123 L998.424872,371.952352 C901.358864,420.413698 898.697325,582.297359 770.025541,599.659392 C782.924385,584.191452 795.827238,568.723513 808.734099,553.255573 C840.965176,477.901901 924.086163,409.556956 979.068589,355.085002 L979.068589,355.085002 Z" id="Фигура_4-path" transform="translate(888.095261, 477.372197) rotate(3.000000) translate(-888.095261, -477.372197) "></path>
                <path d="M940.11953,333.196598 C960.810591,333.170332 975.685548,335.858251 986.572205,345.848206 L978.832097,345.848206 L889.802814,409.097486 C840.235658,449.994134 793.201774,543.598516 731.072474,565.119381 L649.775283,573.555245 L649.775283,569.335124 C732.142701,477.188523 845.250094,411.404543 940.11953,333.196598 L940.11953,333.196598 Z" id="Фигура_4-path" transform="translate(818.173744, 453.375827) rotate(3.000000) translate(-818.173744, -453.375827) "></path>
                <path d="M896.612987,289.419221 C929.176757,290.294765 940.833015,300.543004 962.425953,310.502314 L962.425953,318.933801 C795.374295,350.527797 711.479699,561.529462 509.483316,512.90614 L579.164332,483.39156 C681.677677,424.528754 796.332289,358.438334 896.612987,289.419221 L896.612987,289.419221 Z" id="Фигура_4-path" transform="translate(735.954635, 404.783384) rotate(3.000000) translate(-735.954635, -404.783384) "></path>
                <path d="M848.528917,241.325678 C892.023436,240.275026 912.261554,252.707747 929.826108,279.276122 L929.826108,283.491865 C748.352436,300.219128 506.497101,520.926196 349.149639,414.214924 C461.908306,396.37572 582.366997,335.512297 678.198436,296.143472 L848.528917,241.325678 Z" id="Фигура_4-path" transform="translate(639.487874, 342.248675) rotate(3.000000) translate(-639.487874, -342.248675) "></path>
                <path d="M8.44057623,26.7560976 C195.22931,79.573274 408.837859,28.5071851 604.60127,60.4907981 C669.997368,71.1724317 732.174768,41.6666075 802.032151,64.7065412 C930.948444,107.170413 951.944139,243.475063 1026.55942,343.015631 L1026.55942,347.231375 C949.939968,328.608559 953.43925,231.90913 894.9375,199.645343 L906.561692,233.380044 L902.701658,233.380044 C846.725164,214.555853 771.155893,237.460078 720.755002,250.243016 C542.728504,295.399185 312.66972,369.382631 178.791099,258.67888 C425.961496,258.368062 679.914006,131.532418 898.8296,195.425222 L887.205409,182.777993 C856.457418,134.351668 683.136713,121.157224 600.737228,136.374174 C398.516378,173.777403 90.8721278,172.827438 8.44057623,26.7560976 Z" id="Фигура_4-path" transform="translate(517.500000, 186.993736) rotate(3.000000) translate(-517.500000, -186.993736) "></path>
            </g>
            <path d="M1999.49863,1762.59875 L2012.15166,1768.94956 L1996.33474,1829.29119 C2017.01387,1844.68864 2037.89762,1853.25188 2065.93019,1838.81869 C2070.14531,1819.76711 2074.36298,1800.71213 2078.58321,1781.65373 L2094.40013,1794.35791 C2128.80141,1886.49451 2064.20373,1872.62402 2059.61519,1937.27029 C2061.72275,2078.04868 2063.83201,2218.84327 2065.94298,2359.65406 C2078.59344,2379.76624 2091.24646,2399.88012 2103.90204,2419.9957 C2118.9542,2474.50574 2063.33923,2514.15801 2031.14525,2524.79811 C2037.46963,2496.21819 2043.79657,2467.63572 2050.12606,2439.05068 L2027.98136,2423.17238 C2013.29751,2414.01832 1985.52327,2415.71664 1971.04149,2423.17238 C1963.65992,2448.57903 1956.27835,2473.98567 1948.89678,2499.39232 L1936.24376,2489.86483 C1899.38452,2386.27733 1962.89005,2389.81977 1977.36672,2321.5441 C1982.63902,2189.22492 1987.91133,2056.89893 1993.18363,1924.56611 L1952.06068,1845.1695 C1945.32365,1805.76788 1981.48208,1779.79939 1999.49863,1762.59875 Z M1977.35393,1870.57785 C1989.8586,1884.90106 2027.54143,1906.98182 2053.27461,1895.98364 C2018.59454,1894.30322 2001.56271,1881.00054 1977.35393,1870.57785 L1977.35393,1870.57785 Z M2046.94938,1978.55438 C2048.00316,2079.11354 2049.05779,2179.68208 2050.11328,2280.26 C2050.70155,2211.98945 2066.40848,2027.71113 2046.94938,1978.55438 L2046.94938,1978.55438 Z M1999.49863,1984.90775 C1994.30647,2048.69719 1982.90162,2214.64691 1995.91783,2273.89385 C1995.28096,2177.58305 1997.38852,2081.23133 1999.49863,1984.90775 L1999.49863,1984.90775 Z M1983.68939,2359.65406 L1971.03637,2362.83075 L1971.03637,2366.00743 C2025.60013,2364.29376 2048.32543,2377.63225 2078.59089,2397.76403 C2059.90933,2372.99767 2027.23451,2359.3676 1983.68939,2359.65406 Z" id="Фигура_3" fill="#9F9484" transform="translate(2015.666632, 2143.698431) rotate(-135.000000) translate(-2015.666632, -2143.698431) "></path>
            <g id="pipa" transform="translate(2003.767482, 2135.219458) rotate(-45.000000) translate(-2003.767482, -2135.219458) translate(1884.767482, 1756.219458)" stroke="#979797" fill="#9F9484">
                <path d="M237.81298,255.746862 L214.4383,255.746862 C213.140084,236.360303 211.841868,216.973744 210.543652,197.587185 C205.408151,206.6051 178.344877,203.079792 148.213436,201.46525 C140.030146,367.055257 121.351687,497.638656 218.335212,577.560726 C220.755781,607.183267 223.996037,634.603339 202.752092,643.474272 L202.752092,635.729448 C201.453876,626.684397 200.15566,617.639346 198.857444,608.594295 C189.057423,619.394086 188.076968,625.058549 191.065884,639.612036 C160.617436,612.562811 167.186258,585.41183 105.360987,585.341731 C74.0045435,601.270065 74.8581959,617.677787 54.7192435,643.501408 L50.8223314,639.623342 C50.60722,622.028457 50.0524591,617.343121 43.0307713,608.605601 C41.7325553,620.237537 40.4343394,631.869472 39.1361234,643.501408 L23.5530033,643.501408 L23.5530033,581.438791 L27.4499155,577.560726 L85.8764265,511.647179 C116.9136,438.024988 97.2410995,289.283649 93.6679865,201.46525 C60.1332569,202.041872 37.3699459,205.745821 27.4431225,197.587185 L27.4431225,255.746862 L4.07523533,255.746862 C2.73928054,214.874538 -9.34997815,102.942034 15.7614433,85.1458965 L74.1970115,69.6381568 C42.8043383,72.5777983 -2.16525857,81.4464707 3.83748067,65.75783 C30.0448379,60.5908447 52.1243212,55.4193369 74.1970115,50.2500903 L4.07523533,54.1326784 L11.8667954,42.500743 L74.1970115,30.8688076 L4.07523533,34.7468732 C5.37496084,28.2841843 6.67393157,21.8214955 7.97214753,15.3588067 C45.7864611,8.73556821 123.323919,-10.5959667 167.691204,7.60493685 L167.691204,11.4830024 L74.1970115,15.3588067 C131.962338,13.7578327 200.265857,-1.66850153 230.02142,19.2368722 L237.81298,19.2368722 L237.81298,34.7468732 L167.691204,34.7468732 C187.164443,38.6226775 214.440564,42.500743 233.918332,46.3788086 C234.0995,48.9602657 234.0995,51.5512212 233.918332,54.1326784 L167.691204,54.1326784 L233.918332,65.7646138 L233.918332,77.3965492 C214.445093,72.7270417 183.892486,64.8035771 163.796556,73.5184836 C196.314601,73.2335645 216.034652,79.7437399 237.81298,89.0284846 L237.81298,255.751384 L237.81298,255.746862 Z" id="Фигура_4-path"></path>
                <path d="M105.360987,34.7423506 C117.026782,35.7357611 128.756081,35.7357611 140.421876,34.7423506 C128.750265,33.8963243 117.032597,33.8963243 105.360987,34.7423506 L105.360987,34.7423506 Z" id="Фигура_4-path"></path>
                <path d="M78.0916594,58.0062214 C89.7680095,58.7096237 101.476197,58.7096237 113.152547,58.0062214 C101.566664,55.8354091 89.6775432,55.8354091 78.0916594,58.0062214 L78.0916594,58.0062214 Z" id="Фигура_4-path"></path>
                <path d="M132.630315,58.0062214 C142.840061,60.7298664 153.58681,60.7298664 163.796556,58.0062214 L132.630315,58.0062214 L132.630315,58.0062214 Z" id="Фигура_4-path"></path>
                <path d="M132.630315,77.3920266 L140.421876,81.2678309 L132.630315,77.3920266 Z" id="Фигура_4-path"></path>
                <path d="M105.360987,89.023962 C97.0508958,95.9502097 95.8847657,94.265569 89.7801316,104.531702 C85.8824647,114.870195 81.9863073,125.210195 78.0916594,135.551704 L93.6747795,162.686856 L128.735668,170.440726 C148.073047,160.864278 154.010121,154.611887 163.796556,135.547181 C161.858289,111.968995 156.983186,101.854367 140.421876,92.8952438 L105.360987,89.023962 Z" id="Фигура_4-path"></path>
                <path d="M109.2579,96.7778319 C133.952684,97.3092286 139.534258,100.095104 148.204378,116.163637 L148.204378,139.427508 L136.51817,158.815574 C107.917416,158.786178 104.892271,153.951598 89.7710743,143.305573 L89.7710743,139.427508 C91.0677807,129.089015 92.3659967,118.749768 93.6657222,108.409767 L109.2579,96.7778319 Z" id="Фигура_4-path"></path>
                <path d="M214.4383,166.569444 C215.738025,174.32256 217.036996,182.077184 218.335212,189.833315 C217.035486,182.078691 215.736516,174.324068 214.4383,166.569444 L214.4383,166.569444 Z" id="Фигура_4-path"></path>
                <path d="M23.5552676,170.445248 C24.8549932,178.198365 26.1539639,185.952988 27.4521798,193.709119 C26.1509448,185.956003 24.8512193,178.20138 23.5530033,170.445248 L23.5552676,170.445248 Z" id="Фигура_4-path"></path>
                <path d="M113.154812,201.46525 C116.703017,253.811221 106.896203,434.117526 120.946372,461.241372 L128.737932,457.365568 L128.737932,201.46525 L113.154812,201.46525 L113.154812,201.46525 Z" id="Фигура_4-path"></path>
                <polygon id="Фигура_4-path" points="81.9953646 558.17492 62.5221253 573.68266 89.7914533 558.17492 81.9998932 558.17492"></polygon>
                <path d="M152.117141,558.17492 L179.386469,573.68266 L152.117141,558.17492 Z" id="Фигура_4-path"></path>
                <path d="M218.33974,647.352338 C223.094834,755.666822 97.4245102,794.357027 43.0353,717.141689 L46.9322121,709.387819 L58.6184201,717.141689 L27.4567085,697.755884 C26.156983,680.957717 24.8580123,664.156535 23.5597963,647.352338 L35.2482686,647.352338 L43.0375643,651.228142 C44.3372898,658.982766 45.6362605,666.737389 46.9344765,674.492013 C53.9425783,661.204833 53.8972917,658.626994 50.8291243,647.356861 C71.4934013,664.56507 70.4812457,688.611337 97.5784847,701.627166 C160.979729,720.126556 163.751269,675.007581 191.072677,647.356861 C189.675585,659.420697 186.428536,663.653781 194.967325,674.492013 L202.758885,666.738143 C201.460669,660.275454 200.162453,653.813519 198.864237,647.352338 L218.337476,647.352338 L218.33974,647.352338 Z" id="Фигура_4-path"></path>
                <path d="M187.1735,709.387819 C158.608975,739.593767 99.2359744,735.903386 62.5108036,717.134905 C65.105726,721.013725 67.7029126,724.891036 70.3023637,728.766841 C105.576099,735.887557 156.688823,742.786669 183.274324,721.012971 C184.57254,717.140182 185.870756,713.265131 187.168972,709.387819 L187.1735,709.387819 Z" id="Фигура_4-path"></path>
            </g>
        </g>
    </g>
</svg>